<?xml version="1.0" encoding="utf-8" ?>
<svg baseProfile="full" height="200mm" version="1.1" viewBox="0,0,200,200" width="200mm" xmlns="http://www.w3.org/2000/svg" xmlns:ev="http://www.w3.org/2001/xml-events" xmlns:xlink="http://www.w3.org/1999/xlink"><defs /><rect fill="#1a1a1a" height="200" width="200" x="0" y="0" /><text alignment-baseline="middle" fill="#e1ed5e" style="dominant-baseline: central; font-size:9.0px; font-family:Arial;" text-anchor="middle" x="100.0" y="100.0">2022</text><line stroke="#e1ed5e" stroke-width="0.3" x1="100.0" x2="100.0" y1="15.0" y2="10.0" /><path d="M 100.0 14.0 a86.0,86.0 0 0,1 42.46469731375804,11.215312516191453" fill="none" id="id73" stroke="none" /><text fill="#e1ed5e" style="font-size:6.75px; font-family:Arial;" text-anchor="middle"><textPath startOffset="22.20632615414155" xlink:href="#id73">January</textPath></text><path d="M 100.0 79.0 l 0.0 -26.543052939840422 a47.54305293984042,47.54305293984042 0 0,0 0.8183755029891764,0.007044016324595022 l -0.45689502371664803 26.539120300124384" fill="#c9ff1d" stroke="none" /><path d="M 100.36148047927253 79.00311137660856 l 0.29691397683663473 -17.246490640140177 a38.2490462724779,38.2490462724779 0 0,0 0.6581993596225018,0.016999347581787637 l -0.5937399716540043 17.23882450041603" fill="#ffbe11" stroke="none" /><path d="M 101.08401301168833 79.027996857942 l 1.0539840354028358 -20.391043524210513 a41.418264822289174,41.418264822289174 0 0,0 0.7116800866234858,0.04293048633914267 l -1.4048261708659335 20.369879768491067" fill="#ffe815" stroke="none" /><path d="M 101.44485096284872 79.0497635885617 l 1.4126621688790106 -20.483501183512207 a41.5321561249258,41.5321561249258 0 0,0 0.7127903106837233,0.05532624658774078 l -1.765042668925075 20.456149674736004" fill="#ffea16" stroke="none" /><path d="M 101.80526077348638 79.07773832637324 l 1.8256068954986246 -21.15806521793228 a42.23667969111857,42.23667969111857 0 0,0 0.7238057017129218,0.068734072853848 l -2.1895377243017906 21.123505600563252" fill="#fff316" stroke="none" /><path d="M 102.16513564639614 79.11191278185805 l 1.489366699895994 -14.368624699799474 a35.44560794603144,35.44560794603144 0 0,0 0.6063448851692738,0.06812991278078354 l -1.736478288574993 14.340858833548088" fill="#ff980e" stroke="none" /><path d="M 102.52436894288641 79.15227682838746 l 6.665016532345073 -55.043625850377005 a76.44567784897868,76.44567784897868 0 0,0 1.304983313242517,0.1694242873307466 l -7.611514574095437 54.92074323988212" fill="#43ffe0" stroke="none" /><path d="M 102.88285421437855 79.19881850522331 l 1.8060964697996482 -13.031855817751243 a34.15641480468291,34.15641480468291 0 0,0 0.581685402452405,0.08572530769012998 l -2.030150852680709 12.998836025900143" fill="#ff860c" stroke="none" /><path d="M 103.2404852339499 79.25152402106235 l 2.4572912202215296 -15.733769536074664 a36.924502628191846,36.924502628191846 0 0,0 0.6271376983487797,0.10348309375070194 l -2.7277581247091844 15.689140179384339" fill="#ffac10" stroke="none" /><path d="M 103.59715602781102 79.31037775812273 l 3.418497626666891 -19.662039673472716 a40.95700203298938,40.95700203298938 0 0,0 0.6935480832347348,0.12674147916336373 l -3.756440831004527 19.600282712958613" fill="#ffe215" stroke="none" /><path d="M 103.95276090670814 79.375362276772 l 7.084819155329189 -36.967029340244494 a58.63981828736978,58.63981828736978 0 0,0 0.9897105401803712,0.19852662364682686 l -7.720096104976685 36.83959876052045" fill="#4bff2c" stroke="none" /><path d="M 104.307194497241 79.44645832069477 l 2.694332869886452 -12.857112204848416 a34.13639082327458,34.13639082327458 0 0,0 0.5740721328751504,0.12546993310860907 l -2.9152477269151302 12.808828773643937" fill="#ff860c" stroke="none" /><path d="M 104.66035177308747 79.52364482259891 l 4.441583807308569 -19.515146498992955 a41.01421019162392,41.01421019162392 0 0,0 0.6870394115882644,0.16260003136982562 l -4.776846905859356 19.435800555482263" fill="#ffe315" stroke="none" /><path d="M 105.01212808612495 79.60689891045804 l 9.410904803982406 -38.29062819502829 a60.4301577070079,60.4301577070079 0 0,0 1.0080070047679521,0.2569634297275526 l -10.068620697435383 38.12296176913187" fill="#38ff2e" stroke="none" /><path d="M 105.36241919743992 79.69619591428918 l 10.66582181834925 -40.3841528682147 a62.76888265137229,62.76888265137229 0 0,0 1.0422686605525102,0.28489139685574943 l -11.35938836812547 40.19457493053266" fill="#31ff42" stroke="none" /><path d="M 105.71112130821622 79.79150937346287 l 4.6910188434836195 -16.598913805432126 a38.2490462724779,38.2490462724779 0 0,0 0.632037772347577,0.18450915736513554 l -4.976046833554624 16.515706319148286" fill="#ffbe11" stroke="none" /><path d="M 106.0581310904928 79.89281104454417 l 3.7918155857204154 -12.585193573307269 a34.144008624225975,34.144008624225975 0 0,0 0.5612862481606758,0.17439436950497772 l -4.00788720659181 12.51805906891977" fill="#ff860c" stroke="none" /><path d="M 106.40334571778207 80.00007090966166 l 8.456180232461017 -26.411662352492872 a48.732343794673284,48.732343794673284 0 0,0 0.7966976541475939,0.2626586905827423 l -8.909560708851028 26.26218993765089" fill="#baff1f" stroke="none" /><path d="M 106.74666289553966 80.11325718540242 l 5.113196840829795 -15.071870657895293 a36.915591948193345,36.915591948193345 0 0,0 0.5999978982178716,0.2093274854206567 l -5.37187674311094 14.981622319302428" fill="#ffac0f" stroke="none" /><path d="M 107.08798089147638 80.2323363322302 l 4.548950269704256 -12.686563402147408 a34.47745671530606,34.47745671530606 0 0,0 0.5569220323925137,0.20511908458853453 l -4.766654627869346 12.60638104975255" fill="#ff8b0c" stroke="none" /><path d="M 108.09893153111575 80.62456947434976 l 5.599650067411232 -13.396289428086092 a35.519526552836005,35.519526552836005 0 0,0 0.5620816947193132,0.2406540478321758 l -5.82941551992086 13.297915852291126" fill="#ff990e" stroke="none" /><path d="M 108.43124777332544 80.76684994638697 l 5.327687846466202 -12.153387321160372 a34.26985610952603,34.26985610952603 0 0,0 0.538229111547245,0.24148771334922353 l -5.536099076480228 12.059879277294616" fill="#ff880c" stroke="none" /><path d="M 108.76106565485865 80.91482961587045 l 5.509331071572211 -12.00156765692348 a34.20569404006858,34.20569404006858 0 0,0 0.5329927803585677,0.2502472570312707 l -5.715102063230376 11.904955417252207" fill="#ff870c" stroke="none" /><path d="M 109.08828744355905 81.06846463323043 l 5.694356113371524 -11.86174015960227 a34.15775707177378,34.15775707177378 0 0,0 0.5278654106794385,0.2590212645260917 l -5.897692791061394 11.761963734941347" fill="#ff860c" stroke="none" /><path d="M 109.41281617654863 81.2277094730956 l 5.970127880220528 -11.90642342825027 a34.3193598104028,34.3193598104028 0 0,0 0.5258044805554788,0.26933747729734026 l -6.174192848364762 11.801893425640428" fill="#ff880c" stroke="none" /><path d="M 109.73455568895987 81.39251694778311 l 6.1060954894320885 -11.671726164521614 a34.17245587525885,34.17245587525885 0 0,0 0.5188598489580476,0.27715696205889057 l -6.306100384918447 11.56489047596097" fill="#ff860c" stroke="none" /><path d="M 110.05341064243156 81.56283822128135 l 6.348538526656143 -11.64271867900917 a34.26110250556063,34.26110250556063 0 0,0 0.5153455696828736,0.28678925157570945 l -6.548008185411052 11.53171402987328" fill="#ff870c" stroke="none" /><path d="M 110.36928655335952 81.73862282372117 l 6.546926906444839 -11.529809786709283 a34.25891268679406,34.25891268679406 0 0,0 0.5102999919340095,0.2955986929135415 l -6.744423630844177 11.415406936405692" fill="#ff870c" stroke="none" /><line stroke="#e1ed5e" stroke-width="0.3" x1="143.23703022742887" x2="145.7803849466894" y1="26.81831364943548" y2="22.513508569990506" /><path d="M 143.74570117128098 25.957352633546492 a86.0,86.0 0 0,1 28.547481713284135,27.462654790039103" fill="none" id="id74" stroke="none" /><text fill="#e1ed5e" style="font-size:6.75px; font-family:Arial;" text-anchor="middle"><textPath startOffset="19.985693538727396" xlink:href="#id74">February</textPath></text><path d="M 110.68208982089419 81.91981866633111 l 13.501679791625003 -22.852533823880368 a47.54305293984042,47.54305293984042 0 0,0 0.7010063179998887,0.42234846298170536 l -13.893048175842528 22.616738751440046" fill="#c9ff1d" stroke="none" /><path d="M 110.99172775467656 82.1063720568725 l 6.922368882410023 -11.26904668960964 a34.22537728145252,34.22537728145252 0 0,0 0.49933333818430997,0.3126824905620864 l -7.115321372966596 11.148219857724609" fill="#ff870c" stroke="none" /><path d="M 111.2981086023043 82.29822771554956 l 7.233691951488897 -11.333681787675705 a34.44539482920926,34.44539482920926 0 0,0 0.4970519258633362,0.3232963989803322 l -7.427710903136513 11.207486464535844" fill="#ff8a0c" stroke="none" /><path d="M 111.60114157652 82.49532879139004 l 9.52898227937909 -14.378042079134522 a38.2490462724779,38.2490462724779 0 0,0 0.5456778431743494,0.36844411556472545 l -9.775064816959981 14.211886051271126" fill="#ffbe11" stroke="none" /><path d="M 111.90073688211348 82.69761687909136 l 8.186439015398474 -11.90219611134059 a35.445762562968056,35.445762562968056 0 0,0 0.4997326918384019,0.35009468644524877 l -8.390102846820527 11.759516582131406" fill="#ff980e" stroke="none" /><path d="M 112.19680574252982 82.90503203632743 l 7.633271441122439 -10.698746335607291 a34.14267880028748,34.14267880028748 0 0,0 0.4754850632082038,0.3454601198520751 l -7.816301820684432 10.565766980938541" fill="#ff860c" stroke="none" /><path d="M 112.48926042617603 83.11751280151076 l 2.4111181377812687 -3.2592539274642056 a25.054161668955576,25.054161668955576 0 0,0 0.34449931172715303,0.2594697393731586 l -2.4668636032668045 3.2172675985851997" fill="#ff0000" stroke="none" /><path d="M 112.77801427241765 83.33499621200491 l 8.073144497177358 -10.528942976445522 a34.26779191401292,34.26779191401292 0 0,0 0.46500976676498074,0.3629474988227681 l -8.253186819101769 10.38841708839953" fill="#ff880c" stroke="none" /><path d="M 113.06298171725822 83.55741782278167 l 9.634109977889176 -12.126606960378588 a36.4877587609559,36.4877587609559 0 0,0 0.48840880865254366,0.3949259567077434 l -9.841422185106211 11.958974906406715" fill="#ffa60f" stroke="none" /><path d="M 113.34407831869373 83.78471172551755 l 12.835511390740622 -15.597294348886635 a41.199652067984815,41.199652067984815 0 0,0 0.543722526216605,0.45535197908364816 l -13.102091453916344 15.374041212409166" fill="#ffe515" stroke="none" /><path d="M 113.6212207817346 84.01681056812373 l 8.713222043068729 -10.224126068282743 a34.43327928065063,34.43327928065063 0 0,0 0.447806766879694,0.3883336154769138 l -8.887922608595186 10.072627459386158" fill="#ff8a0c" stroke="none" /><path d="M 113.89432698308785 84.25364557470407 l 22.601940688980424 -25.614638925757397 a55.160758923143305,55.160758923143305 0 0,0 0.7065541936281904,0.6343513312846157 l -23.039505870204604 25.221788585703486" fill="#70ff27" stroke="none" /><path d="M 114.16331599549186 84.49514656593476 l 14.316749950422087 -15.672820524805813 a42.227497081513995,42.227497081513995 0 0,0 0.5324527768695725,0.4948568273003379 l -14.584410611086506 15.424059111430834" fill="#fff316" stroke="none" /><path d="M 114.42810811169701 84.74124197986012 l 11.85100497347502 -12.533286816663619 a38.2490462724779,38.2490462724779 0 0,0 0.4745008318964032,0.45646942433782345 l -12.06498904898384 12.327434305563493" fill="#ffbe11" stroke="none" /><path d="M 114.68862486808459 84.99185889309783 l 14.287431005844597 -14.598220222558291 a41.426422065870455,41.426422065870455 0 0,0 0.5053317266873562,0.5031616716590667 l -14.536598532699276 14.350122700249106" fill="#ffe815" stroke="none" /><path d="M 114.94478906791727 85.2469230424477 l 11.326937148718683 -11.181634929002922 a36.91629557580914,36.91629557580914 0 0,0 0.4425309927680938,0.45606708761999043 l -11.517732405189886 10.985003645832817" fill="#ffac0f" stroke="none" /><path d="M 115.4437574822437 85.77008943001954 l 22.79517062937039 -21.003518078830936 a51.996250994433,51.996250994433 0 0,0 0.6008200460916165,0.6634405012567267 l -23.15333431607804 20.60802479030466" fill="#94ff23" stroke="none" /><path d="M 115.9244219780498 86.31012108654704 l 21.01013584839085 -18.06195641613438 a48.70667930204152,48.70667930204152 0 0,0 0.5410833968310949,0.6404720753592381 l -21.31792985870906 17.697625391146033" fill="#bbff1f" stroke="none" /><path d="M 116.15771136456269 86.58626213691792 l 10.107287381680068 -8.390823451769398 a34.13633040139568,34.13633040139568 0 0,0 0.3714382367474686,0.4553393589009135 l -10.250224110503945 8.215599923260383" fill="#ff860c" stroke="none" /><path d="M 116.38621287248628 86.86637796730983 l 22.767348749428052 -18.24813063813562 a50.17784160736615,50.17784160736615 0 0,0 0.5343842628614213,0.6786137462624612 l -23.078087092883436 17.853524497920123" fill="#a9ff21" stroke="none" /><path d="M 116.60985879189232 87.15038557335679 l 21.967286182332003 -16.994193688177337 a48.773445614971166,48.773445614971166 0 0,0 0.5079964778173763,0.6684638181298641 l -22.25655860037349 16.61354509416644" fill="#baff1f" stroke="none" /><path d="M 116.82858285166822 87.43820079747576 l 10.527126630791082 -7.858038438598192 a34.136558270840865,34.136558270840865 0 0,0 0.34744089440885173,0.47390898951174315 l -10.66083013771356 7.675667005414955" fill="#ff860c" stroke="none" /><path d="M 117.04232023915458 87.72973835380427 l 10.67614854262496 -7.686696069159069 a34.15543401655067,34.15543401655067 0 0,0 0.3394194306845381,0.4800847138738943 l -10.80688059311338 7.501784854953382" fill="#ff860c" stroke="none" /><path d="M 117.2510076193507 88.02491185347247 l 23.38221333672866 -16.231171647860894 a49.46364055398773,49.46364055398773 0 0,0 0.47950414551179815,0.7036131658347287 l -23.658141947909193 15.82628045875576" fill="#b2ff20" stroke="none" /><path d="M 117.45458315368197 88.32363383020206 l 23.0681212667861 -15.431581974129184 a48.75377345521538,48.75377345521538 0 0,0 0.4606148901196294,0.7015480786233748 l -23.330332792263654 15.032215831528136" fill="#baff1f" stroke="none" /><path d="M 117.65298651832404 88.62581576622439 l 12.150494564033442 -7.828814889727012 a35.454233315130125,35.454233315130125 0 0,0 0.32613235584478123,0.5158630660917793 l -12.283454516124179 7.618504175921026" fill="#ff980e" stroke="none" /><line stroke="#e1ed5e" stroke-width="0.3" x1="172.23445277983987" x2="176.4835382374775" y1="55.19839476539836" y2="52.563006222186495" /><path d="M 173.08426987136738 54.67131705675599 a86.0,86.0 0 0,1 12.851231095245387,41.99856678651699" fill="none" id="id75" stroke="none" /><text fill="#e1ed5e" style="font-size:6.75px; font-family:Arial;" text-anchor="middle"><textPath startOffset="22.20632615414155" xlink:href="#id75">March</textPath></text><path d="M 117.84615892207809 88.93136811851018 l 11.297369608763585 -7.006909776749529 a34.29388373262393,34.29388373262393 0 0,0 0.30682280803662376,0.5043360227868426 l -11.416308215086433 6.811405980755605" fill="#ff880c" stroke="none" /><path d="M 118.03404312379186 89.2402003453031 l 11.552177887742783 -6.892471022404689 a34.45209912038793,34.45209912038793 0 0,0 0.29947130421981727,0.5118935339612042 l -11.669108866432927 6.69259807608959" fill="#ff8a0c" stroke="none" /><path d="M 118.21658344932153 89.55222093294921 l 11.464402250817075 -6.575192444047333 a34.2161142036832,34.2161142036832 0 0,0 0.2886249131356156,0.5134315148349949 l -11.575884805245122 6.376877419277544" fill="#ff870c" stroke="none" /><path d="M 118.3937258080291 89.86733742301442 l 24.284779706092756 -13.37790293747081 a48.7257788416817,48.7257788416817 0 0,0 0.39837245649471625,0.7381236595940891 l -24.511460261805937 12.957898294544261" fill="#baff1f" stroke="none" /><path d="M 118.56541770881063 90.18545643968196 l 24.710459848902914 -13.063098734775762 a48.950874306517555,48.950874306517555 0 0,0 0.38738921658609754,0.7483126629332076 l -24.931658498649128 12.635813349582211" fill="#b8ff1f" stroke="none" /><path d="M 118.73160827565052 90.50648371742162 l 49.47946603116053 -25.07708411939838 a76.47141341862627,76.47141341862627 0 0,0 0.5849698505239379,1.179263523312136 l -49.903795894637874 24.221661007587294" fill="#43ffe0" stroke="none" /><path d="M 118.89224826269711 90.83032412892265 l 12.09943808065029 -5.872669249260334 a34.44933626535891,34.44933626535891 0 0,0 0.25433749121590166,0.5356996206477302 l -12.198733765707948 5.663527212972064" fill="#ff8a0c" stroke="none" /><path d="M 119.04729006885535 91.15688171328212 l 15.645123226809273 -7.263588405742486 a38.2490462724779,38.2490462724779 0 0,0 0.27211042340332986,0.5995592483657743 l -15.76783596717595 6.993207148534649" fill="#ffbe11" stroke="none" /><path d="M 119.196687751892 91.48605970444005 l 19.50014097143675 -8.648525106600836 a42.33195922613324,42.33195922613324 0 0,0 0.28969027673124714,0.6686450993634976 l -19.646121958010678 8.311580862650736" fill="#fff417" stroke="none" /><path d="M 119.34039704204932 91.81776055985345 l 18.629520293662374 -7.881492575690317 a41.2281227896372,41.2281227896372 0 0,0 0.2708850873982315,0.6559697255472139 l -18.762427067946803 7.5596482796898" fill="#ffe615" stroke="none" /><path d="M 119.47837535516314 92.15188598940014 l 15.999209419709615 -6.446308653358043 a38.2490462724779,38.2490462724779 0 0,0 0.2407986013378515,0.6128061752458275 l -16.10780157092917 6.169953473216432" fill="#ffbe11" stroke="none" /><path d="M 119.61058180528143 92.48833698450437 l 37.55857655726649 -14.386486502093417 a61.21961793556677,61.21961793556677 0 0,0 0.3684704190828212,0.9873175311752628 l -37.80065156485094 13.737845833888821" fill="#30ff2f" stroke="none" /><path d="M 119.7369772167798 92.82701384747503 l 12.469214566958502 -4.5316718177905875 a34.2671534769523,34.2671534769523 0 0,0 0.1967047514792392,0.5561108209785158 l -12.545372399247551 4.316363370385457" fill="#ff880c" stroke="none" /><path d="M 119.85752413597 93.16781622104841 l 16.31063584181872 -5.611840673581369 a38.2490462724779,38.2490462724779 0 0,0 0.20884472172624316,0.6244191357035442 l -16.404817857316733 5.330248434955511" fill="#ffbe11" stroke="none" /><path d="M 119.97218684219823 93.5106431181261 l 16.404817857316733 -5.330248434955511 a38.2490462724779,38.2490462724779 0 0,0 0.19806543015371933,0.6279215398469024 l -16.49413877123866 5.04707672868219" fill="#ffbe11" stroke="none" /><path d="M 120.08093135843002 93.85539295169968 l 12.608077828903536 -3.857972646297445 a34.18512720754973,34.18512720754973 0 0,0 0.16733473730582918,0.5641695476413523 l -12.672618463321067 3.640373711909563" fill="#ff860c" stroke="none" /><path d="M 120.18372546131832 94.20196356495316 l 16.578572115869996 -4.762409464649325 a38.2490462724779,38.2490462724779 0 0,0 0.17633398535215225,0.6343671653195011 l -16.65809287178851 4.476330995910872" fill="#ffbe11" stroke="none" /><path d="M 120.28053869075195 94.5502522615342 l 19.067376761270978 -5.123749174897237 a40.74380060078395,40.74380060078395 0 0,0 0.17617554990934037,0.6788762603304381 l -19.15274864305062 4.7947764890179485" fill="#ffe014" stroke="none" /><path d="M 120.37134235888165 94.90015583598534 l 28.487155669714873 -7.131589663173664 a50.366266519161975,50.366266519161975 0 0,0 0.20330511305460028,0.8428309467148531 l -28.60569358303029 6.640173484799405" fill="#a7ff21" stroke="none" /><path d="M 120.45610955862082 95.25157060432595 l 14.10129975015361 -3.2733020938784527 a35.476227451980414,35.476227451980414 0 0,0 0.13296086802206003,0.5960375003366453 l -14.155555005177707 3.0300864239918437" fill="#ff980e" stroke="none" /><path d="M 120.53481517161879 95.60439243477599 l 16.866951290096843 -3.6104780137239523 a38.2490462724779,38.2490462724779 0 0,0 0.13227012718510514,0.6449961149341207 l -16.926600713196947 3.3196062426264197" fill="#ffbe11" stroke="none" /><path d="M 120.6074358757038 95.95851677861258 l 19.3770767676364 -3.8001880053533887 a40.74620300044811,40.74620300044811 0 0,0 0.12905734266651075,0.6894294850580912 l -19.439619834212767 3.4660804428327348" fill="#ffe014" stroke="none" /><path d="M 120.73433829027371 96.67025291283417 l 17.03083621895912 -2.7349981705796145 a38.2490462724779,38.2490462724779 0 0,0 0.0987993019928305,0.6509639565685678 l -17.07539141439125 2.4414351016189646" fill="#ffbe11" stroke="none" /><path d="M 120.78858239683441 97.02765380044208 l 19.768535653411554 -2.8265001768081337 a40.969579493061445,40.969579493061445 0 0,0 0.0938086332830677,0.6989832793184563 l -19.81426028575246 2.485798555425013" fill="#ffe215" stroke="none" /><path d="M 120.83666639777658 97.38593545837742 l 28.993442332393695 -3.6373730852060264 a50.220714933807145,50.220714933807145 0 0,0 0.10022535403729753,0.858669626799335 l -29.05175803943458 3.137759720081839" fill="#a9ff21" stroke="none" /><path d="M 120.87857604477298 97.74499172005257 l 17.149310680939898 -1.852225817411143 a38.2490462724779,38.2490462724779 0 0,0 0.06506504156030227,0.6551960891156486 l -17.178652848182427 1.5567541975910595" fill="#ffbe11" stroke="none" /><path d="M 120.91429891909075 98.10471618934814 l 19.75231536174078 -1.7899831915391287 a40.83325495161229,40.83325495161229 0 0,0 0.05741061570364404,0.7005549273415653 l -19.780200461263917 1.4497143469897946" fill="#ffe115" stroke="none" /><path d="M 120.94382443527127 98.46500227214037 l 17.20290460984035 -1.260821277904726 a38.2490462724779,38.2490462724779 0 0,0 0.042473578748521354,0.6570474639886967 l -17.222058779593286 0.9645147496629942" fill="#ffbe11" stroke="none" /><path d="M 120.96714384426684 98.82574320788733 l 15.924506405788314 -0.8918458301678373 a36.9494605944145,36.9494605944145 0 0,0 0.030098664213763743,0.635335230329248 l -15.937498678235574 0.6175994932155895" fill="#ffad10" stroke="none" /><path d="M 120.98425023603335 99.18683210126433 l 16.132415871248053 -0.6251527964066295 a37.14452408285085,37.14452408285085 0 0,0 0.019259091786368115,0.6391154957535747 l -16.140786657490064 0.3473671532280556" fill="#ffaf10" stroke="none" /><line stroke="#e1ed5e" stroke-width="0.3" x1="184.98032266829074" x2="189.97916517819016" y1="98.17113171792111" y2="98.06355123074" /><path d="M 185.9800911702706 98.14961562048488 a86.0,86.0 0 0,1 -9.607161424134198,41.387399972396054" fill="none" id="id76" stroke="none" /><text fill="#e1ed5e" style="font-size:6.75px; font-family:Arial;" text-anchor="middle"><textPath startOffset="21.466115282336823" xlink:href="#id76">April</textPath></text><path d="M 120.99513854157772 99.54816195383933 l 27.757992949257314 -0.5973819736743452 a48.764420357599576,48.764420357599576 0 0,0 0.010837295367506862,0.8393604693319282 l -27.764163251742538 0.11948524628195432" fill="#baff1f" stroke="none" /><path d="M 120.99980553446 99.90962569577887 l 19.96488232725296 -0.0859204313212046 a40.965067209042296,40.965067209042296 0 0,0 -0.0030347364806094443,0.7051658819437059 l -19.963403293482845 -0.25775492882618606" fill="#ffe215" stroke="none" /><path d="M 120.99824983174949 100.27111621757518 l 17.24760871375706 0.22269029438921692 a38.2490462724779,38.2490462724779 0 0,0 -0.014166604012646779,0.6582664218661266 l -17.241220047059407 -0.5195465320454583" fill="#ffbe11" stroke="none" /><path d="M 120.9904718944345 100.63252640178507 l 19.949796772518212 0.6011667213737175 a40.95885248935082,40.95885248935082 0 0,0 -0.027301741700623716,0.7045366407309775 l -19.936492897966385 -0.9444806091187012" fill="#ffe215" stroke="none" /><path d="M 120.9764740272857 100.99374915477107 l 13.275037801624592 0.628897763168321 a34.28992629893334,34.28992629893334 0 0,0 -0.03300593039519617,0.5893430593361352 l -13.262245520341866 -0.8573125388398796" fill="#ff880c" stroke="none" /><path d="M 120.95626037817324 101.35467743843564 l 17.21311928386692 1.112709229517057 a38.2490462724779,38.2490462724779 0 0,0 -0.04812721096789778,0.6566575564098266 l -17.191415514234684 -1.4088399224236539" fill="#ffbe11" stroke="none" /><path d="M 120.92983693683757 101.71520430193887 l 17.191415514234684 1.4088399224236539 a38.2490462724779,38.2490462724779 0 0,0 -0.059423360793162766,0.6557318346837603 l -17.164617557164448 -1.7045531456559848" fill="#ffbe11" stroke="none" /><path d="M 120.89721153311464 102.0752229133903 l 19.861263015826967 1.9723467905754741 a40.958955895691275,40.958955895691275 0 0,0 -0.07571106670431701,0.7009904476509549 l -19.824369647621598 -2.31393356011122" fill="#ffe215" stroke="none" /><path d="M 120.8583938346157 102.4346265915055 l 27.680936236145666 3.2309651439434672 a48.868860160956345,48.868860160956345 0 0,0 -0.10471547390808887,0.8346853575212896 l -27.621219252990727 -3.7069682557521517" fill="#b9ff1f" stroke="none" /><path d="M 120.81339534386255 102.79330883721812 l 17.09577235112672 2.294376827928413 a38.2490462724779,38.2490462724779 0 0,0 -0.09319279763053613,0.6517902095731934 l -17.053745502479583 -2.588312509482016" fill="#ffbe11" stroke="none" /><path d="M 120.76222939487914 103.15116336523771 l 20.186697069584426 3.0638126118823776 a41.41787663543636,41.41787663543636 0 0,0 -0.11304762032494257,0.7039476396757978 l -20.130967694898196 -3.4108394812513803" fill="#ffe815" stroke="none" /><path d="M 120.70491114924044 103.5080841355445 l 17.00666526099009 2.8814812181787 a38.2490462724779,38.2490462724779 0 0,0 -0.11557324110103406,0.6481961128910654 l -16.954545577549865 -3.173796081802984" fill="#ffbe11" stroke="none" /><path d="M 120.64145759157962 103.86396538481128 l 13.45884889814672 2.5194212197039247 a34.69262929263184,34.69262929263184 0 0,0 -0.1149318354828017,0.5860349530229361 l -13.413487129688255 -2.7507198997948055" fill="#ff8e0d" stroke="none" /><path d="M 120.5718875245553 104.21870165774334 l 28.574480078529895 5.859802914660059 a50.16913097706136,50.16913097706136 0 0,0 -0.18076645341612702,0.8444806901091133 l -28.469379586389326 -6.350797424185342" fill="#a9ff21" stroke="none" /><path d="M 120.49622156327973 104.57218783832717 l 19.478495191772712 4.3451588650023565 a40.957258842286464,40.957258842286464 0 0,0 -0.15942015041925509,0.686777835593176 l -19.400814475422905 -4.6798053579440975" fill="#ffe215" stroke="none" /><path d="M 120.41448212921028 104.9243191809786 l 19.404455915571425 4.680683735042093 a40.96100472438305,40.96100472438305 0 0,0 -0.17123394142416148,0.6839944774834703 l -19.321010659852202 -5.0140060519229595" fill="#ffe215" stroke="none" /><path d="M 120.32669344350535 105.2749913415812 l 16.697712448866685 4.333232497296668 a38.25081171715306,38.25081171715306 0 0,0 -0.17087534422260078,0.6358907230406243 l -16.620649028302307 -4.620014153512841" fill="#ffbe11" stroke="none" /><path d="M 120.23288151984713 105.62410040840565 l 19.229652561582668 5.34523452425738 a40.958734172248896,40.958734172248896 0 0,0 -0.19466586924835116,0.6776574286163287 l -19.134794055448214 -5.675449428378291" fill="#ffe215" stroke="none" /><path d="M 120.13307415673323 105.97154293290107 l 16.536967987462873 4.90492477941424 a38.2490462724779,38.2490462724779 0 0,0 -0.19265357489534582,0.6296030296192329 l -16.450087640061394 -5.18885478158553" fill="#ffbe11" stroke="none" /><path d="M 120.02730092923936 106.31721596034902 l 12.654095105626949 3.991484017116482 a34.26868748600057,34.26868748600057 0 0,0 -0.1822894256994681,0.5610291644763885 l -12.583513428911234 -4.208712081570666" fill="#ff880c" stroke="none" /><path d="M 119.9155931802556 106.66101706037122 l 18.93155861079855 6.3318944981747425 a40.96238461131626,40.96238461131626 0 0,0 -0.2294072388914617,0.6667648193667941 l -18.819760540963856 -6.656832020630837" fill="#ffe215" stroke="none" /><path d="M 119.79798401119884 107.00284435728193 l 16.261730586235537 5.7520183979865065 a38.2490462724779,38.2490462724779 0 0,0 -0.22489663115902314,0.6188189396899426 l -16.160309694071287 -6.031085134682581" fill="#ffbe11" stroke="none" /><path d="M 119.67450827220406 107.3425965602758 l 16.160309694071287 6.031085134682581 a38.2490462724779,38.2490462724779 0 0,0 -0.2355152611011452,0.6148560291760535 l -16.054100153376634 -6.308364730691777" fill="#ffbe11" stroke="none" /><path d="M 119.54520255179757 107.68017299344265 l 25.907071075988167 10.180032009885934 a48.8353980294625,48.8353980294625 0 0,0 -0.3141683145466701,0.7797399919488855 l -25.728000147184105 -10.624471369677634" fill="#b9ff1f" stroke="none" /><path d="M 119.41010516605496 108.01547362559984 l 15.951777682422529 6.587344694994106 a38.25839857461,38.25839857461 0 0,0 -0.25660275716130404,0.6065331187002385 l -15.836023944068916 -6.860952339360508" fill="#ffbe11" stroke="none" /><path d="M 119.26925614724726 108.34839909993367 l 18.309604229060657 7.932630211460868 a40.95415317914087,40.95415317914087 0 0,0 -0.2858188697944846,0.6444460974085896 l -18.1703442745349 -8.246624645362145" fill="#ffe215" stroke="none" /><path d="M 119.12269723197855 108.67885076344098 l 15.707061400427758 7.128661829072555 a38.2490462724779,38.2490462724779 0 0,0 -0.27726074877804613,0.5971949865937595 l -15.58202603480988 -7.397976882945145" fill="#ffbe11" stroke="none" /><path d="M 118.97047184881838 109.00673069616215 l 18.026222539327314 8.558423489657283 a40.95473156085217,40.95473156085217 0 0,0 -0.30783671443329014,0.6342348099555533 l -17.87623256827931 -8.86744725557811" fill="#ffe215" stroke="none" /><path d="M 118.81262510543309 109.33194174019688 l 17.878266194980142 8.86845602951514 a40.95700164067772,40.95700164067772 0 0,0 -0.3187260804612149,0.6288767943010652 l -17.722961444732658 -9.1748870355189" fill="#ffe215" stroke="none" /><path d="M 118.64920377521936 109.65438752849418 l 26.140867654796097 13.532699289061842 a50.43601385707208,50.43601385707208 0 0,0 -0.40576371601366024,0.7675520346489477 l -25.904051430557544 -13.980666338796924" fill="#a6ff21" stroke="none" /><line stroke="#e1ed5e" stroke-width="0.3" x1="174.80103733775053" x2="179.2010983576182" y1="140.37084112569926" y2="142.7455964860345" /><path d="M 175.68104954172406 140.8457921977663 a86.0,86.0 0 0,1 -30.038265399797805,32.042727171017184" fill="none" id="id77" stroke="none" /><text fill="#e1ed5e" style="font-size:6.75px; font-family:Arial;" text-anchor="middle"><textPath startOffset="22.206326154141568" xlink:href="#id77">May</textPath></text><path d="M 118.48025628344425 109.97397251340804 l 17.5853238716071 9.490968861287802 a40.983045453465024,40.983045453465024 0 0,0 -0.34040047331454076,0.6179257350671344 l -17.41934698884105 -9.792265114752741" fill="#ffe315" stroke="none" /><path d="M 118.30583269289576 110.29060199501025 l 15.041739220573556 8.455695746183093 a38.25551243318377,38.25551243318377 0 0,0 -0.3276275022512346,0.5712461659793766 l -14.893959722169942 -8.713361758020785" fill="#ffbe11" stroke="none" /><path d="M 118.12598468904814 110.60418214915192 l 17.22775722163764 10.078695239657437 a40.959351608245726,40.959351608245726 0 0,0 -0.36125977318322294,0.6054921594784113 l -17.051716572756188 -10.373749493021952" fill="#ffe215" stroke="none" /><path d="M 117.94076556474637 110.91462005526583 l 14.736242637618483 8.965085065704546 a38.2490462724779,38.2490462724779 0 0,0 -0.3470378958992065,0.5595355874611724 l -14.579740102051314 -9.217416984530992" fill="#ffbe11" stroke="none" /><path d="M 117.75023020441432 111.22182372390056 l 16.8912336536328 10.678759900992404 a40.983735570825104,40.983735570825104 0 0,0 -0.3821150526385021,0.5930510473573605 l -16.704913737617247 -10.967932548271216" fill="#ffe315" stroke="none" /><path d="M 117.55443506779139 111.5257021239791 l 14.418917274835342 9.467017583776775 a38.2490462724779,38.2490462724779 0 0,0 -0.3660923581795092,0.5472584034149328 l -14.253821811245112 -9.713812901397514" fill="#ffbe11" stroke="none" /><path d="M 117.35343817320211 111.8261652097733 l 16.84487551885509 11.479585707210152 a41.3845706173789,41.3845706173789 0 0,0 -0.40623704021671425,0.585214755022333 l -16.64477757147624 -11.767841724419505" fill="#ffe815" stroke="none" /><path d="M 117.14729908036423 112.12312394758627 l 10.978394798192369 7.76171455692574 a34.44504984030071,34.44504984030071 0 0,0 -0.34645193232862026,0.48119143246214807 l -10.843163073488146 -7.9495395948390195" fill="#ff8a0c" stroke="none" /><path d="M 116.93607887273984 112.41649034213515 l 13.911009911915468 10.198696021583999 a38.2490462724779,38.2490462724779 0 0,0 -0.3938535864800682,0.52763124172329 l -13.733395058740307 -10.436640142816604" fill="#ffbe11" stroke="none" /><path d="M 116.71984013943494 112.70617746262583 l 15.91163102961371 12.091982094090062 a40.984895120724566,40.984895120724566 0 0,0 -0.4316942570350821,0.558023020189311 l -15.70112995536056 -12.364083108392625" fill="#ffe315" stroke="none" /><path d="M 116.498646956653 112.99209946851258 l 15.698312986359154 12.361864845188247 a40.98130959342739,40.98130959342739 0 0,0 -0.4411971447432623,0.5504612752294523 l -15.483197929561037 -12.630253953995949" fill="#ffe315" stroke="none" /><path d="M 116.27256486870786 113.27417163493432 l 13.366010685344763 10.9031809885617 a38.2490462724779,38.2490462724779 0 0,0 -0.4205646564081953,0.5065972212773441 l -13.176350029043023 -11.131639466952816" fill="#ffbe11" stroke="none" /><path d="M 116.0416608686014 113.55231037782055 l 21.20134129329663 17.9113098067825 a48.75449317911224,48.75449317911224 0 0,0 -0.547112452844675,0.6364153856746545 l -20.889886330881176 -18.273602291618683" fill="#baff1f" stroke="none" /><path d="M 115.80600337817218 113.82643327865902 l 15.018137825346503 13.137241315449556 a40.953234653094675,40.953234653094675 0 0,0 -0.4687022631974433,0.5265919613809051 l -14.789776712500723 -13.393807446571326" fill="#ffe215" stroke="none" /><path d="M 115.56566222782051 114.09645910891815 l 12.785372763306546 11.578594068943898 a38.2490462724779,38.2490462724779 0 0,0 -0.44615434643720486,0.4842124265039967 l -12.584172008873619 -11.796957750249229" fill="#ffbe11" stroke="none" /><path d="M 115.32070863581623 114.36230785411682 l 20.266337658795432 18.998558581725412 a48.77894292955659,48.77894292955659 0 0,0 -0.5795250805516072,0.6076297300476208 l -19.936306026864862 -19.34459542835554" fill="#baff1f" stroke="none" /><path d="M 115.07121518719521 114.62390073753431 l 12.399405472913726 12.031390474365304 a38.27714133843823,38.27714133843823 0 0,0 -0.46289708995098533,0.4689123082170904 l -12.190467757907205 -12.24304327656306" fill="#ffbf11" stroke="none" /><path d="M 114.81725581225074 114.88116024355365 l 11.389764427139603 11.438886641644986 a37.14233134668406,37.14233134668406 0 0,0 -0.45693919391856463,0.44721117420118056 l -11.191175280845243 -11.633247918768738" fill="#ffaf10" stroke="none" /><path d="M 114.55890576462653 115.13401014063108 l 14.807882261734797 15.392821681342495 a42.35912770669738,42.35912770669738 0 0,0 -0.5298202350006138,0.5009781019047522 l -14.540726192343376 -15.645434419993167" fill="#fff517" stroke="none" /><path d="M 114.29624159901734 115.38237550388516 l 13.593113046881612 14.6258278936938 a40.96716213890333,40.96716213890333 0 0,0 -0.5206740015208254,0.47562335532785266 l -13.339339495893924 -14.857644015608235" fill="#ffe215" stroke="none" /><path d="M 114.0293411484842 115.62618273729858 l 13.425605126370629 14.953728535295243 a41.09628995900817,41.09628995900817 0 0,0 -0.5304506505027323,0.4680610246290765 l -13.166212122961308 -15.182612701696609" fill="#ffe415" stroke="none" /><path d="M 113.75828350139079 115.86535959552629 l 13.19933480097964 15.220808105758064 a41.1468468644764,41.1468468644764 0 0,0 -0.5390913382102349,0.4594253337595777 l -12.935377986192359 -15.445757829740588" fill="#ffe515" stroke="none" /><path d="M 113.48314897796784 116.09983520530334 l 11.074831458080014 13.224133449311713 a38.2490462724779,38.2490462724779 0 0,0 -0.5084024461583294,0.4183806013259914 l -10.845558883376995 -13.412809169494883" fill="#ffbe11" stroke="none" /><path d="M 113.20401910651253 116.32954008644616 l 13.235559723529484 16.368546677225446 a42.05016298083281,42.05016298083281 0 0,0 -0.5667611219875688,0.4502693126164961 l -12.951841108824564 -16.59394990384707" fill="#fff116" stroke="none" /><path d="M 112.92097659922987 116.55440617244103 l 12.298296782718275 15.756626336006027 a40.98798081969105,40.98798081969105 0 0,0 -0.5599178178204316,0.42932110658411043 l -12.02525023640435 -15.96598678441751" fill="#ffe315" stroke="none" /><path d="M 112.63410532772338 116.77436683061366 l 12.709239245825815 16.87412252133963 a42.12488516117473,42.12488516117473 0 0,0 -0.5829583212966369,0.43125862953010946 l -12.416895954110613 -17.090391099609505" fill="#fff216" stroke="none" /><path d="M 112.34349029814194 116.9893568818739 l 16.396711207663103 22.56813686141455 a48.89575128622714,48.89575128622714 0 0,0 -0.6851753994206856,0.4888544549514897 l -16.005808480393533 -22.84703557821026" fill="#b8ff1f" stroke="none" /><path d="M 112.04921762599082 117.19931262002967 l 11.723345288753546 16.73415543087958 a41.432052827461476,41.432052827461476 0 0,0 -0.5876310328857335,0.4041779827246418 l -11.433557371244929 -16.933474202969315" fill="#ffe915" stroke="none" /><path d="M 111.7513745106137 117.40417183066458 l 9.65238108089491 14.295493582918558 a38.2490462724779,38.2490462724779 0 0,0 -0.5488288281411169,0.363733820570646 l -9.40487755401383 -14.459525424580523" fill="#ffbe11" stroke="none" /><path d="M 111.45004920935366 117.60387380957326 l 10.887245427079101 16.738591348200213 a40.96778789229037,40.96778789229037 0 0,0 -0.5944585952696334,0.3794116013360543 l -10.597505029762537 -16.923517378360078" fill="#ffe215" stroke="none" /><path d="M 111.1453310114006 117.79835938074945 l 10.594184695563396 16.9182150233847 a40.96153172833161,40.96153172833161 0 0,0 -0.6008097035694677,0.36906639139884084 l -10.30139579206162 -17.09806988161192" fill="#ffe215" stroke="none" /><line stroke="#e1ed5e" stroke-width="0.3" x1="143.8653032363475" x2="146.44561519142675" y1="172.8068346515853" y2="177.08958963109032" /><path d="M 144.38136562736335 173.6633856474863 a86.0,86.0 0 0,1 -40.68145358897372,12.25698825130547" fill="none" id="id78" stroke="none" /><text fill="#e1ed5e" style="font-size:6.75px; font-family:Arial;" text-anchor="middle"><textPath startOffset="21.466115282336833" xlink:href="#id78">June</textPath></text><path d="M 110.8373102113329 117.98757091392108 l 15.31695705056991 25.42280748266256 a50.68043654647833,50.68043654647833 0 0,0 -0.7511133411224497,0.4437710013782129 l -14.877075838419078 -25.682697056334522" fill="#a3ff21" stroke="none" /><path d="M 110.5260780823613 118.17145234162733 l 10.661313737353305 18.404913298343395 a42.269801224407715,42.269801224407715 0 0,0 -0.6327411493756369,0.3592869381451007 l -10.34292382105647 -18.585703402283126" fill="#fff316" stroke="none" /><path d="M 110.21172684928248 118.3499491758327 l 8.394998932985915 15.085382328091272 a38.263973096292844,38.263973096292844 0 0,0 -0.5782910565731,0.31533039262505314 l -8.134085064544166 -15.227653372476096" fill="#ffbf11" stroke="none" /><path d="M 109.89434966115114 118.52300852407294 l 13.0848713700975 24.495918602548716 a48.77163817556843,48.77163817556843 0 0,0 -0.743904733634316,0.3891757975284778 l -12.661275733936689 -24.717523819021913" fill="#baff1f" stroke="none" /><path d="M 109.57404056367764 118.69057910512821 l 12.689739081943173 24.773090374644237 a48.8340705732756,48.8340705732756 0 0,0 -0.7514542417951575,0.3767947567702553 l -12.261430932465254 -24.987852972323793" fill="#b9ff1f" stroke="none" /><path d="M 109.2508944713604 118.85261126421891 l 8.794504765992757 17.92252415459672 a40.9639722037267,40.9639722037267 0 0,0 -0.6356971242659581,0.3051732508982826 l -8.484694973726567 -18.071251681994564" fill="#ffe215" stroke="none" /><path d="M 108.92500713936063 119.00905698771935 l 8.491229313202266 18.08516894049432 a40.979347107841285,40.979347107841285 0 0,0 -0.6410965255943667,0.2942959711014486 l -8.17866479184048 -18.228651981929843" fill="#ffe315" stroke="none" /><path d="M 108.59647513512805 119.15986991738527 l 8.186484860078986 18.246081391989158 a40.9984504531575,40.9984504531575 0 0,0 -0.6463685388623283,0.283348972416866 l -7.871195646558904 -18.38429491770048" fill="#ffe315" stroke="none" /><path d="M 108.2653958097858 119.30500536409082 l 15.613879771153744 36.46843293088509 a60.67038998979602,60.67038998979602 0 0,0 -0.963586029762691,0.4027790385899458 l -14.983822281893593 -36.73179701249501" fill="#36ff2f" stroke="none" /><path d="M 107.93186726928326 119.44442032107085 l 23.79560180784979 58.33326096321254 a84.0,84.0 0 0,0 -1.343515695832535,0.5346126223757244 l -22.787965035975386 -58.73422042999433" fill="#4dd2ff" stroke="none" /><path d="M 107.59598834532513 119.57807347666477 l 7.1406250786926755 18.40440981534663 a40.74109488264727,40.74109488264727 0 0,0 -0.6559894008882962,0.24803906063420184 l -6.822765457044104 -18.524597126087464" fill="#ffdf14" stroke="none" /><path d="M 107.2578585660854 119.70592522655815 l 5.9614827735955815 16.186115051185283 a38.2490462724779,38.2490462724779 0 0,0 -0.6197810605282087,0.22223143755149408 l -5.681982152437638 -16.28633402977674" fill="#ffbe11" stroke="none" /><path d="M 106.57524785965236 119.94407469862006 l 8.589968530454806 26.055135515339177 a48.43460672356892,48.43460672356892 0 0,0 -0.7940476787542669,0.2542289915378875 l -8.1401995066096 -26.199137353536774" fill="#beff1f" stroke="none" /><path d="M 106.2309692047433 120.05430185196036 l 8.278323584019939 26.643688088806314 a48.90012108101576,48.90012108101576 0 0,0 -0.8059788409067454,0.24283481321995506 l -7.818469768672948 -26.782238271131995" fill="#b8ff1f" stroke="none" /><path d="M 105.88484417918355 120.15858648285463 l 7.768585616027468 26.611359659123043 a48.7221100456071,48.7221100456071 0 0,0 -0.8070906432878189,0.2280918776036713 l -7.309363804635043 -26.741140330065235" fill="#baff1f" stroke="none" /><path d="M 105.53697534728816 120.25689768951611 l 7.366853714566925 26.951465850882297 a48.940151129925965,48.940151129925965 0 0,0 -0.8145262166742294,0.21512377693724505 l -6.901837055081198 -27.074280977123127" fill="#b8ff1f" stroke="none" /><path d="M 105.18746579009965 120.34920634021253 l 7.660009263446544 30.04841195623936 a52.009398623771396,52.009398623771396 0 0,0 -0.869415645207424,0.21368121281442945 l -7.141640333495909 -30.17581442736782" fill="#94ff23" stroke="none" /><path d="M 104.83641907484287 120.43548508189849 l 6.394700019084662 27.019742255785886 a48.76614233024067,48.76614233024067 0 0,0 -0.8185277411071264,0.18629424897845043 l -5.928652128584674 -27.12581323834202" fill="#baff1f" stroke="none" /><path d="M 104.48393922423573 120.51570834832081 l 3.6538429514279938 16.717705703257234 a38.11234210429477,38.11234210429477 0 0,0 -0.6421177172106721,0.13456201083511843 l -3.3655337727879435 -16.778123694818895" fill="#ffbd11" stroke="none" /><path d="M 103.7750983002368 120.6578951692458 l 4.096956313797345 22.419149731305325 a43.79042179758531,43.79042179758531 0 0,0 -0.7426668458515605,0.1291221507081523 l -3.7104404964737348 -22.486350460534485" fill="#f7ff18" stroke="none" /><path d="M 103.41894727170886 120.7198165907248 l 0.8714680422669966 5.281350241890419 a26.35276722137332,26.35276722137332 0 0,0 -0.4482030164832181,0.07000009341409105 l -0.7804291621752614 -5.295568642651615" fill="#ff1402" stroke="none" /><path d="M 103.06178313531738 120.77559828337769 l 2.302041375894732 15.62040312575745 a36.78912246793673,36.78912246793673 0 0,0 -0.6272920433854444,0.08693696131510559 l -2.032820741322457 -15.657714652565158" fill="#ffab0f" stroke="none" /><path d="M 102.70371172650421 120.8252237178851 l 1.7428615457939112 13.424316373915294 a34.53698033073763,34.53698033073763 0 0,0 -0.5902083395864574,0.07146601046167421 l -1.5115257831560733 -13.45232791310232" fill="#ff8b0c" stroke="none" /><path d="M 102.34483914955558 120.86867818915974 l 1.8260079014548873 16.25116642800303 a37.35343129520005,37.35343129520005 0 0,0 -0.6395750618421954,0.06629457022459735 l -1.5460002430070892 -16.280190366683385" fill="#ffb210" stroke="none" /><path d="M 101.98527174616119 120.90594882070398 l 1.2429977333839066 13.089415617092609 a34.14830196497576,34.14830196497576 0 0,0 -0.5856526186744617,0.05053257223693377 l -1.017500796967903 -13.108872441608206" fill="#ff860c" stroke="none" /><path d="M 101.62511606390274 120.93702456842531 l 0.7550080055288416 9.727072122561507 a30.756329697479778,30.756329697479778 0 0,0 -0.5281846586034336,0.03642670648472688 l -0.5874605861464778 -9.738627173562518" fill="#ff5507" stroke="none" /><path d="M 101.26447882468166 120.96189622390904 l 1.2662979707104576 20.992053115054546 a42.030211709250494,42.030211709250494 0 0,0 -0.7225432340069956,0.03734723201524661 l -0.9047666682899823 -21.010740153831993" fill="#fff016" stroke="none" /><path d="M 100.90346689309514 120.98055641714683 l 1.2011487378999013 27.893406004684387 a48.91925602219231,48.91925602219231 0 0,0 -0.8415967434302517,0.028986293501412592 l -0.7208316427949975 -27.909949096611893" fill="#b8ff1f" stroke="none" /><line stroke="#e1ed5e" stroke-width="0.3" x1="102.19456741930631" x2="102.32365962044197" y1="184.97166512339345" y2="189.96999836594603" /><path d="M 102.22038585953345 185.97133177190398 a86.0,86.0 0 0,1 -42.740103519485714,-10.115201625700543" fill="none" id="id79" stroke="none" /><text fill="#e1ed5e" style="font-size:6.75px; font-family:Arial;" text-anchor="middle"><textPath startOffset="22.20632615414155" xlink:href="#id79">July</textPath></text><path d="M 99.81925306533755 120.99922214144158 l -0.14846248760005276 17.24840735256039 a38.2490462724779,38.2490462724779 0 0,0 -0.6583212926682906,-0.01133359807052225 l 0.4453434701610114 -17.243296277210707" fill="#ffbe11" stroke="none" /><path d="M 99.45781275523022 120.99299961872073 l -0.4149439225532105 16.066253295296175 a37.071610790691736,37.071610790691736 0 0,0 -0.6377723099674104,-0.021966167892284477 l 0.691436584195264 -16.056730328977796" fill="#ffae10" stroke="none" /><path d="M 99.09653310690486 120.98055641714683 l -0.5766888825312783 13.392027674239044 a34.40443864154033,34.40443864154033 0 0,0 -0.5914482309110513,-0.03057111777567194 l 0.8071251818558185 -13.38011674970117" fill="#ff890c" stroke="none" /><path d="M 98.73552117531835 120.96189622390904 l -1.2033160239349752 19.94796996671119 a40.984230664358094,40.984230664358094 0 0,0 -0.7038304665901723,-0.04854026977852456 l 1.5465092513040775 -19.924301352416382" fill="#ffe315" stroke="none" /><path d="M 98.37488393609728 120.93702456842531 l -1.5318070599021592 19.734887101072125 a40.79424668333779,40.79424668333779 0 0,0 -0.6996323688789224,-0.060367224686351285 l 1.8712837465226233 -19.70559562410711" fill="#ffe015" stroke="none" /><path d="M 98.01472825383883 120.90594882070398 l -1.6309508814265172 17.174764977195544 a38.25203039643533,38.25203039643533 0 0,0 -0.6549611068671508,-0.06788939670117056 l 1.9263445848992615 -17.144146212038613" fill="#ffbe11" stroke="none" /><path d="M 97.65516085044442 120.86867818915974 l -2.221293132431436 19.769139198007657 a40.89354186188045,40.89354186188045 0 0,0 -0.6988367023109011,-0.08461939238837328 l 2.5612572577937263 -19.727974276893935" fill="#ffe115" stroke="none" /><path d="M 97.2962882734958 120.8252237178851 l -1.7084038623465871 13.15890754369277 a34.26934404936187,34.26934404936187 0 0,0 -0.5843272525170567,-0.08098243279680939 l 1.934659706050475 -13.127550545403356" fill="#ff880c" stroke="none" /><path d="M 96.93821686468263 120.77559828337769 l -1.9312503766617197 13.104416686907806 a34.245960317072665,34.245960317072665 0 0,0 -0.5824489924544881,-0.09096655395286475 l 2.156535232724725 -13.069231825607835" fill="#ff870c" stroke="none" /><path d="M 96.58105272829116 120.7198165907248 l -2.2673134427534176 13.740580054062985 a34.926386841884145,34.926386841884145 0 0,0 -0.5923365998334333,-0.10298531049403295 l 2.503499014058901 -13.699516165047946" fill="#ff910d" stroke="none" /><path d="M 96.22490169976321 120.6578951692458 l -4.985857829347512 27.283350041762827 a48.73517564025556,48.73517564025556 0 0,0 -0.8239316981822549,-0.15790847093059415 l 5.454757142101462 -27.193484372483763" fill="#baff1f" stroke="none" /><path d="M 95.86986931433489 120.58985236759428 l -3.3941937213648825 16.92100152483775 a38.25806604523561,38.25806604523561 0 0,0 -0.6445728779048958,-0.13507651362967663 l 3.684958060699165 -16.860069030481533" fill="#ffbe11" stroke="none" /><path d="M 95.16358092515715 120.4354850818985 l -3.174900990493589 13.415016528493176 a34.785596278695465,34.785596278695465 0 0,0 -0.581493776756421,-0.1429170226534289 l 3.405348051993221 -13.358378247525717" fill="#ff8f0d" stroke="none" /><path d="M 94.81253420990036 120.34920634021253 l -3.2757624104356085 12.850044300761699 a34.26100516179528,34.26100516179528 0 0,0 -0.5702166068063024,-0.1505993884756356 l 3.4964694600534 -12.791753562982482" fill="#ff870c" stroke="none" /><path d="M 94.11515582081647 120.15858648285463 l -3.723475870054842 12.754799967148282 a34.28718159569013,34.28718159569013 0 0,0 -0.5651262669609609,-0.17026790843388115 l 3.9424771114560486 -12.688816689608675" fill="#ff880c" stroke="none" /><line stroke="#e1ed5e" stroke-width="0.3" x1="58.666819895761336" x2="56.23545636021788" y1="174.27360380694188" y2="178.64263932499728" /><path d="M 58.180547188652646 175.14741091055294 a86.0,86.0 0 0,1 -31.652253787137756,-30.449443065178592" fill="none" id="id80" stroke="none" /><text fill="#e1ed5e" style="font-size:6.75px; font-family:Arial;" text-anchor="middle"><textPath startOffset="22.20632615414155" xlink:href="#id80">August</textPath></text><line stroke="#e1ed5e" stroke-width="0.3" x1="26.63291911575756" x2="22.317208475507996" y1="142.92168965132927" y2="145.44649492493687" /><path d="M 25.769776987707644 143.4266507060508 a86.0,86.0 0 0,1 -11.730757126820373,-40.83630448921669" fill="none" id="id81" stroke="none" /><text fill="#e1ed5e" style="font-size:6.75px; font-family:Arial;" text-anchor="middle"><textPath startOffset="21.46611528233685" xlink:href="#id81">September</textPath></text><line stroke="#e1ed5e" stroke-width="0.3" x1="15.007084014347285" x2="10.007500721073583" y1="101.09737516637583" y2="101.16192664675087" /><path d="M 14.007167355692545 101.11028546245083 a86.0,86.0 0 0,1 10.666146001902534,-42.60595125391555" fill="none" id="id82" stroke="none" /><text fill="#e1ed5e" style="font-size:6.75px; font-family:Arial;" text-anchor="middle"><textPath startOffset="22.20632615414155" xlink:href="#id82">October</textPath></text><line stroke="#e1ed5e" stroke-width="0.3" x1="26.266209847984243" x2="21.928928074336255" y1="57.711370442889674" y2="55.22380399835377" /><path d="M 25.398753493254645 57.213857153982495 a86.0,86.0 0 0,1 29.58750427330803,-30.492523968695096" fill="none" id="id83" stroke="none" /><text fill="#e1ed5e" style="font-size:6.75px; font-family:Arial;" text-anchor="middle"><textPath startOffset="21.46611528233685" xlink:href="#id83">November</textPath></text><line stroke="#e1ed5e" stroke-width="0.3" x1="56.762969772571076" x2="54.21961505331055" y1="26.818313649435495" y2="22.513508569990535" /><path d="M 56.25429882871897 25.957352633546506 a86.0,86.0 0 0,1 42.265352541879196,-11.944610805530505" fill="none" id="id84" stroke="none" /><text fill="#e1ed5e" style="font-size:6.75px; font-family:Arial;" text-anchor="middle"><textPath startOffset="22.20632615414155" xlink:href="#id84">December</textPath></text></svg>