<?xml version="1.0" encoding="utf-8" ?>
<svg baseProfile="full" height="200mm" version="1.1" viewBox="0,0,200,200" width="200mm" xmlns="http://www.w3.org/2000/svg" xmlns:ev="http://www.w3.org/2001/xml-events" xmlns:xlink="http://www.w3.org/1999/xlink"><defs /><rect fill="#1a1a1a" height="200" width="200" x="0" y="0" /><text alignment-baseline="middle" fill="#e1ed5e" style="dominant-baseline: central; font-size:9.0px; font-family:Arial;" text-anchor="middle" x="100.0" y="100.0">2025</text><line stroke="#e1ed5e" stroke-width="0.3" x1="100.0" x2="100.0" y1="15.0" y2="10.0" /><path d="M 100.0 14.0 a86.0,86.0 0 0,1 42.46469731375804,11.215312516191453" fill="none" id="id85" stroke="none" /><text fill="#e1ed5e" style="font-size:6.75px; font-family:Arial;" text-anchor="middle"><textPath startOffset="22.20632615414155" xlink:href="#id85">January</textPath></text><path d="M 100.0 79.0 l 0.0 -41.86993294910101 a62.86993294910101,62.86993294910101 0 0,0 1.0822025473463217,0.009314858988547496 l -0.7207220680737935 41.863729466721026" fill="#32ff48" stroke="none" /><path d="M 100.36148047927253 79.00311137660856 l 0.33713933058825635 -19.583013138558552 a40.58591500321561,40.58591500321561 0 0,0 0.6984127937336725,0.01803794194369217 l -0.6741787595167966 19.5743084044725" fill="#ffe715" stroke="none" /><path d="M 101.08401301168833 79.027996857942 l 1.504565775991768 -29.108283610348852 a50.147142105441304,50.147142105441304 0 0,0 0.8616662863750605,0.05197806350270246 l -2.0053941112064404 29.078072277465846" fill="#a3ff22" stroke="none" /><path d="M 101.44485096284872 79.0497635885617 l 2.934780020185115 -42.5541019934812 a63.65518175132393,63.65518175132393 0 0,0 1.0924739048143053,0.0847970009447107 l -3.666844114361761 42.49727973034802" fill="#33ff51" stroke="none" /><path d="M 102.16513564639614 79.11191278185805 l 3.076462431146872 -29.68008756961532 a50.83910553669952,50.83910553669952 0 0,0 0.8696714034555022,0.09771771530458928 l -3.5869005381120993 29.622733900840128" fill="#9bff22" stroke="none" /><path d="M 102.52436894288641 79.15227682838746 l 2.563473020083822 -21.170667636046073 a42.32530332915868,42.32530332915868 0 0,0 0.7225237073781531,0.09380431378693296 l -2.927511455969821 21.123404999095" fill="#fffd17" stroke="none" /><path d="M 102.88285421437855 79.19881850522331 l 3.9987689649602958 -28.85304382752141 a50.12882234742766,50.12882234742766 0 0,0 0.8536962783819685,0.125812640010682 l -4.49483422377092 28.779936703349758" fill="#a3ff22" stroke="none" /><path d="M 103.59715602781102 79.31037775812273 l 3.6645305475772902 -21.077137643465257 a42.39332875865061,42.39332875865061 0 0,0 0.7178702161554695,0.13118619349146682 l -4.026795884835661 21.010935968623052" fill="#fffe18" stroke="none" /><path d="M 103.95276090670814 79.375362276772 l 3.6571744198904494 -19.082332395286127 a40.429625173473816,40.429625173473816 0 0,0 0.6823627244825057,0.1368755431959666 l -3.9851035538400805 19.016552896012954" fill="#ffe515" stroke="none" /><path d="M 104.66035177308747 79.52364482259891 l 4.30234832729265 -18.903382563367753 a40.386801527492715,40.386801527492715 0 0,0 0.6765295303198909,0.1601126820342466 l -4.627101544575065 18.82652396919264" fill="#ffe515" stroke="none" /><path d="M 106.40334571778207 80.00007090966166 l 6.232324878899658 -19.465770105119105 a41.43913107696852,41.43913107696852 0 0,0 0.6774650252414935,0.22334956745406728 l -6.566472726383569 19.355606813405803" fill="#fff216" stroke="none" /><path d="M 106.74666289553966 80.11325718540242 l 11.834392890221888 -34.8835463426426 a57.83632257052037,57.83632257052037 0 0,0 0.9400275101009555,0.32795714035021745 l -12.433102404386117 34.67466834912018" fill="#4fff2b" stroke="none" /><path d="M 107.08798089147638 80.2323363322302 l 6.820031889399414 -19.020380931787592 a41.20613089541721,41.20613089541721 0 0,0 0.6656118041073432,0.24515044478182235 l -7.146426019279334 18.900167219199446" fill="#ffef16" stroke="none" /><path d="M 107.4271985657038 80.35727306442388 l 3.428872901688769 -9.06834703675203 a30.69495164273164,30.69495164273164 0 0,0 0.4926054977676994,0.19112328004828608 l -3.5844615644561357 9.007981052813198" fill="#ff6209" stroke="none" /><path d="M 108.09893153111575 80.62456947434976 l 13.051217936632652 -31.22300335974185 a54.84095489834666,54.84095489834666 0 0,0 0.8678352405242555,0.3715617595194315 l -13.586736934947222 30.99372207225963" fill="#6eff28" stroke="none" /><path d="M 108.43124777332544 80.76684994638697 l 15.56803878078036 -35.51341793779571 a59.77585182951409,59.77585182951409 0 0,0 0.938816419869237,0.42121956175353786 l -16.17703731911638 35.24017804552564" fill="#3bff2e" stroke="none" /><line stroke="#e1ed5e" stroke-width="0.3" x1="143.23703022742887" x2="145.7803849466894" y1="26.81831364943548" y2="22.513508569990506" /><path d="M 143.74570117128098 25.957352633546492 a86.0,86.0 0 0,1 28.547481713284135,27.462654790039103" fill="none" id="id86" stroke="none" /><text fill="#e1ed5e" style="font-size:6.75px; font-family:Arial;" text-anchor="middle"><textPath startOffset="19.985693538727396" xlink:href="#id86">February</textPath></text><path d="M 110.99172775467656 82.1063720568725 l 20.5450235676352 -33.44560709717724 a60.25183597608446,60.25183597608446 0 0,0 0.8790480274990533,0.5504597941758862 l -21.11769074750652 33.08700296167841" fill="#36ff2f" stroke="none" /><path d="M 111.2981086023043 82.29822771554956 l 14.499402193121746 -22.71752953684253 a47.95030263680199,47.95030263680199 0 0,0 0.6919296582178086,0.4500502969804711 l -14.888298877123834 22.46458031570253" fill="#bcff1f" stroke="none" /><path d="M 113.06298171725822 83.55741782278167 l 29.638369482461524 -37.306285529764864 a68.64653067755563,68.64653067755563 0 0,0 0.918871736847585,0.7429970412847272 l -30.2761446178736 36.790582391216006" fill="#39ff8c" stroke="none" /><path d="M 113.89432698308785 84.25364557470407 l 29.50208254689412 -33.43452681322256 a65.5896900396028,65.5896900396028 0 0,0 0.840138378458947,0.754284531384696 l -30.073231912949055 32.92174327306857" fill="#35ff69" stroke="none" /><path d="M 114.16331599549186 84.49514656593476 l 24.447583039261115 -26.76323764586876 a57.24852004911117,57.24852004911117 0 0,0 0.7218550844484423,0.6708856303857265 l -24.904646007504404 26.338447429408394" fill="#55ff2b" stroke="none" /><path d="M 114.94478906791727 85.2469230424477 l 39.06710064037864 -38.56594694221866 a75.89599817833262,75.89599817833262 0 0,0 0.9097969039719074,0.9376256829487039 l -39.72516180805366 37.887757063719846" fill="#43ffdc" stroke="none" /><path d="M 115.19652480421416 85.50635884689758 l 22.671784843554008 -21.623148585372263 a52.33002366321308,52.33002366321308 0 0,0 0.6160805662669151,0.6571917931183037 l -23.040632731791383 21.229687375375907" fill="#8aff24" stroke="none" /><path d="M 115.4437574822437 85.77008943001954 l 21.398664537438414 -19.716774433609057 a50.09732011803912,50.09732011803912 0 0,0 0.5788777768922099,0.639211299566368 l -21.73488595494666 19.34551034677314" fill="#a3ff21" stroke="none" /><path d="M 115.68641384162765 86.03803664274999 l 47.05924152488298 -41.88589007175005 a84.0,84.0 0 0,0 0.9520325456886072,1.0883377751882088 l -47.773265934149435 41.069636740358895" fill="#4dd2ff" stroke="none" /><path d="M 116.15771136456269 86.58626213691792 l 15.216778756925613 -12.632598563035437 a40.77708022413894,40.77708022413894 0 0,0 0.443696396187476,0.5439193184734176 l -15.4319736451895 12.368795074953919" fill="#ffea15" stroke="none" /><path d="M 116.60985879189232 87.15038557335679 l 30.679374213054082 -23.73398440213549 a59.78822008942172,59.78822008942172 0 0,0 0.6227201059396444,0.8194266649862383 l -31.08337025921784 23.20237296126822" fill="#3bff2e" stroke="none" /><path d="M 117.04232023915458 87.72973835380427 l 15.742476032925198 -11.334389752820417 a40.398297417971115,40.398297417971115 0 0,0 0.4014578501209502,0.5678336585476008 l -15.935246502850033 11.061729593941024" fill="#ffe515" stroke="none" /><path d="M 117.2510076193507 88.02491185347247 l 33.45972583236056 -23.226652902970724 a61.73120005415768,61.73120005415768 0 0,0 0.5984267636159746,0.8781174336222846 l -33.854577061645266 22.647257446078033" fill="#30ff3a" stroke="none" /><path d="M 117.45458315368197 88.32363383020206 l 16.600789530792113 -11.105214920494266 a40.972781766094215,40.972781766094215 0 0,0 0.38710179814945506,0.5895825961094575 l -16.789487964299493 10.817814260407134" fill="#ffec16" stroke="none" /><path d="M 117.65298651832404 88.62581576622439 l 17.151899550825014 -11.051323539379128 a41.40390673801531,41.40390673801531 0 0,0 0.38086153282812807,0.6024314808391527 l -17.339588679899098 10.75444441082577" fill="#fff216" stroke="none" /><line stroke="#e1ed5e" stroke-width="0.3" x1="172.23445277983987" x2="176.4835382374775" y1="55.19839476539836" y2="52.563006222186495" /><path d="M 173.08426987136738 54.67131705675599 a86.0,86.0 0 0,1 12.851231095245387,41.99856678651699" fill="none" id="id87" stroke="none" /><text fill="#e1ed5e" style="font-size:6.75px; font-family:Arial;" text-anchor="middle"><textPath startOffset="22.20632615414155" xlink:href="#id87">March</textPath></text><path d="M 117.84615892207809 88.93136811851018 l 2.582121078562163 -1.6014957513732588 a24.038443335989932,24.038443335989932 0 0,0 0.2150687493630623,0.35351647543281733 l -2.6093056262114493 1.55681150273336" fill="#ff0000" stroke="none" /><path d="M 118.21658344932153 89.55222093294921 l 27.094674134366176 -15.539641120801754 a52.23462521963093,52.23462521963093 0 0,0 0.4406173675052947,0.7838091313848378 l -27.358149143163903 15.070948479482121" fill="#8bff24" stroke="none" /><line stroke="#e1ed5e" stroke-width="0.3" x1="184.98032266829074" x2="189.97916517819016" y1="98.17113171792111" y2="98.06355123074" /><path d="M 185.9800911702706 98.14961562048488 a86.0,86.0 0 0,1 -9.607161424134198,41.387399972396054" fill="none" id="id88" stroke="none" /><text fill="#e1ed5e" style="font-size:6.75px; font-family:Arial;" text-anchor="middle"><textPath startOffset="21.466115282336823" xlink:href="#id88">April</textPath></text><line stroke="#e1ed5e" stroke-width="0.3" x1="174.80103733775053" x2="179.2010983576182" y1="140.37084112569926" y2="142.7455964860345" /><path d="M 175.68104954172406 140.8457921977663 a86.0,86.0 0 0,1 -30.038265399797805,32.042727171017184" fill="none" id="id89" stroke="none" /><text fill="#e1ed5e" style="font-size:6.75px; font-family:Arial;" text-anchor="middle"><textPath startOffset="22.206326154141568" xlink:href="#id89">May</textPath></text><line stroke="#e1ed5e" stroke-width="0.3" x1="143.8653032363475" x2="146.44561519142675" y1="172.8068346515853" y2="177.08958963109032" /><path d="M 144.38136562736335 173.6633856474863 a86.0,86.0 0 0,1 -40.68145358897372,12.25698825130547" fill="none" id="id90" stroke="none" /><text fill="#e1ed5e" style="font-size:6.75px; font-family:Arial;" text-anchor="middle"><textPath startOffset="21.466115282336833" xlink:href="#id90">June</textPath></text><line stroke="#e1ed5e" stroke-width="0.3" x1="102.19456741930631" x2="102.32365962044197" y1="184.97166512339345" y2="189.96999836594603" /><path d="M 102.22038585953345 185.97133177190398 a86.0,86.0 0 0,1 -42.740103519485714,-10.115201625700543" fill="none" id="id91" stroke="none" /><text fill="#e1ed5e" style="font-size:6.75px; font-family:Arial;" text-anchor="middle"><textPath startOffset="22.20632615414155" xlink:href="#id91">July</textPath></text><line stroke="#e1ed5e" stroke-width="0.3" x1="58.666819895761336" x2="56.23545636021788" y1="174.27360380694188" y2="178.64263932499728" /><path d="M 58.180547188652646 175.14741091055294 a86.0,86.0 0 0,1 -31.652253787137756,-30.449443065178592" fill="none" id="id92" stroke="none" /><text fill="#e1ed5e" style="font-size:6.75px; font-family:Arial;" text-anchor="middle"><textPath startOffset="22.20632615414155" xlink:href="#id92">August</textPath></text><line stroke="#e1ed5e" stroke-width="0.3" x1="26.63291911575756" x2="22.317208475507996" y1="142.92168965132927" y2="145.44649492493687" /><path d="M 25.769776987707644 143.4266507060508 a86.0,86.0 0 0,1 -11.730757126820373,-40.83630448921669" fill="none" id="id93" stroke="none" /><text fill="#e1ed5e" style="font-size:6.75px; font-family:Arial;" text-anchor="middle"><textPath startOffset="21.46611528233685" xlink:href="#id93">September</textPath></text><line stroke="#e1ed5e" stroke-width="0.3" x1="15.007084014347285" x2="10.007500721073583" y1="101.09737516637583" y2="101.16192664675087" /><path d="M 14.007167355692545 101.11028546245083 a86.0,86.0 0 0,1 10.666146001902534,-42.60595125391555" fill="none" id="id94" stroke="none" /><text fill="#e1ed5e" style="font-size:6.75px; font-family:Arial;" text-anchor="middle"><textPath startOffset="22.20632615414155" xlink:href="#id94">October</textPath></text><line stroke="#e1ed5e" stroke-width="0.3" x1="26.266209847984243" x2="21.928928074336255" y1="57.711370442889674" y2="55.22380399835377" /><path d="M 25.398753493254645 57.213857153982495 a86.0,86.0 0 0,1 29.58750427330803,-30.492523968695096" fill="none" id="id95" stroke="none" /><text fill="#e1ed5e" style="font-size:6.75px; font-family:Arial;" text-anchor="middle"><textPath startOffset="21.46611528233685" xlink:href="#id95">November</textPath></text><line stroke="#e1ed5e" stroke-width="0.3" x1="56.762969772571076" x2="54.21961505331055" y1="26.818313649435495" y2="22.513508569990535" /><path d="M 56.25429882871897 25.957352633546506 a86.0,86.0 0 0,1 42.265352541879196,-11.944610805530505" fill="none" id="id96" stroke="none" /><text fill="#e1ed5e" style="font-size:6.75px; font-family:Arial;" text-anchor="middle"><textPath startOffset="22.20632615414155" xlink:href="#id96">December</textPath></text></svg>