<?xml version="1.0" encoding="utf-8" ?>
<svg baseProfile="full" height="200mm" version="1.1" viewBox="0,0,200,200" width="200mm" xmlns="http://www.w3.org/2000/svg" xmlns:ev="http://www.w3.org/2001/xml-events" xmlns:xlink="http://www.w3.org/1999/xlink"><defs /><rect fill="#1a1a1a" height="200" width="200" x="0" y="0" /><text alignment-baseline="middle" fill="#e1ed5e" style="dominant-baseline: central; font-size:9.0px; font-family:Arial;" text-anchor="middle" x="100.0" y="100.0">2024</text><line stroke="#e1ed5e" stroke-width="0.3" x1="100.0" x2="100.0" y1="15.0" y2="10.0" /><path d="M 100.0 14.0 a86.0,86.0 0 0,1 42.35913384403234,11.155469271406648" fill="none" id="id73" stroke="none" /><text fill="#e1ed5e" style="font-size:6.75px; font-family:Arial;" text-anchor="middle"><textPath startOffset="22.145653131862478" xlink:href="#id73">January</textPath></text><path d="M 100.36049292484886 79.00309439819443 l 0.4856049273175021 -28.284052517624982 a49.28822085188821,49.28822085188821 0 0,0 0.8458485032457796,0.02178605701241082 l -0.9710667446340232 28.271548743262525" fill="#a6ff21" stroke="none" /><path d="M 100.72087961077811 79.0123766808444 l 0.9711042504915808 -28.272640685382832 a49.289313437941324,49.289313437941324 0 0,0 0.8453686180008332,0.036303765854244274 l -1.4562986290932503 28.25180435110276" fill="#a6ff21" stroke="none" /><path d="M 101.08105385017728 79.02784411241856 l 1.4549982066089227 -28.226576502317464 a49.26405209488575,49.26405209488575 0 0,0 0.8441879706278683,0.05078425200931561 l -1.9393305293692533 28.197440272483455" fill="#a7ff21" stroke="none" /><path d="M 101.80034050326958 79.07731436759882 l 3.2688628362493257 -37.98914115084084 a59.129520186080505,59.129520186080505 0 0,0 1.0105528862675708,0.09570040899741333 l -3.9205152859019092 37.92742898633824" fill="#3dff2e" stroke="none" /><path d="M 102.15924093988457 79.11130261209362 l 2.8965851787858505 -28.02183403450423 a49.171144604990076,49.171144604990076 0 0,0 0.8388693232935057,0.09399705738900427 l -3.377190403680153 27.967981216608255" fill="#a8ff21" stroke="none" /><path d="M 102.87502721639298 79.19773525538626 l 0.2839317606407407 -2.054388779548045 a23.073916705712517,23.073916705712517 0 0,0 0.3918993716298645,0.057595711833544616 l -0.31915623787828723 2.049211994415618" fill="#ff0000" stroke="none" /><path d="M 103.23170211078529 79.25015418208739 l 3.0011221119659837 -19.269356818562176 a40.50166265045111,40.50166265045111 0 0,0 0.6860644080247934,0.11289163726235417 l -3.3314640230438477 19.214999182804153" fill="#ffef16" stroke="none" /><path d="M 103.58742460773223 79.30868818359171 l 6.809570812563797 -39.27579487384373 a60.86174002252749,60.86174002252749 0 0,0 1.0278831067445817,0.18731454263668668 l -7.482788652859432 39.15311215727568" fill="#30ff33" stroke="none" /><path d="M 104.9986988182912 79.60360301121754 l 9.499872735832167 -38.7627226017153 a60.909851484245564,60.909851484245564 0 0,0 1.0134085570963216,0.2576044923105499 l -10.163886586153883 38.593932877569486" fill="#30ff34" stroke="none" /><path d="M 105.69591212413111 79.78721728523813 l 5.111510234568012 -18.138946575016806 a39.84539518634214,39.84539518634214 0 0,0 0.6567659331643116,0.1911749913348642 l -5.422136180113928 18.048527889379425" fill="#ffe715" stroke="none" /><path d="M 106.72888874123014 80.10723608172694 l 12.92039134508494 -38.1968412086549 a61.32288668770309,61.32288668770309 0 0,0 0.9942899504142995,0.34586565803382247 l -13.574187067544258 37.96941711805248" fill="#30ff39" stroke="none" /><path d="M 107.06938296918511 80.22567764915836 l 11.276774314061518 -31.543144760432696 a54.49829279691564,54.49829279691564 0 0,0 0.8782292142288632,0.3224979322069902 l -11.816592679944506 31.344915979216985" fill="#6dff28" stroke="none" /><path d="M 107.74402155503746 80.48000691201159 l 10.683935383415138 -26.93049642935418 a49.97236809804211,49.97236809804211 0 0,0 0.7946690185757311,0.3231849717440231 l -11.14465886318131 26.743124201030863" fill="#9fff22" stroke="none" /><path d="M 108.4095320186766 80.7573450057729 l 16.222803205328674 -37.120948517240706 a61.511037541125226,61.511037541125226 0 0,0 0.963926572915638,0.43115209541413696 l -16.85764318109994 36.83699267091672" fill="#31ff3b" stroke="none" /><path d="M 109.06512990194946 81.05736502329252 l 14.936537764353421 -31.21161922071383 a55.60152214520033,55.60152214520033 0 0,0 0.8574277653405395,0.4194108862813093 l -15.470125778956028 30.950614584335298" fill="#61ff29" stroke="none" /><path d="M 109.3889696526874 81.21577127319529 l 18.93623763484134 -37.88516015238955 a63.35406067351024,63.35406067351024 0 0,0 0.9686316321985918,0.4945902131742299 l -19.58379648875351 37.55451198754249" fill="#33ff52" stroke="none" /><path d="M 109.71004243097381 81.37971332152246 l 14.024171592198755 -26.89319818437835 a51.33020767208305,51.33020767208305 0 0,0 0.7778021985359702,0.4141358608373437 l -14.483762606521285 26.64849185581843" fill="#8fff24" stroke="none" /><path d="M 110.02825361518725 81.54914285379988 l 8.999334504228136 -16.557761871610033 a39.845357510960994,39.845357510960994 0 0,0 0.5981657395394493,0.3317924524507498 l -9.282244431923685 16.400836503726136" fill="#ffe715" stroke="none" /><path d="M 110.34350942703115 81.72400993836675 l 12.595010123772273 -22.254176058144864 a46.57112887701351,46.57112887701351 0 0,0 0.6923741531260843,0.399742403687284 l -12.975176744758755 22.034686757181408" fill="#c6ff1e" stroke="none" /><line stroke="#e1ed5e" stroke-width="0.3" x1="143.13028292997686" x2="145.6673583964461" y1="26.7553504044142" y2="22.446841604673864" /><path d="M 143.63769802327073 25.89364864446614 a86.0,86.0 0 0,1 29.32050498858742,28.57503671076993" fill="none" id="id74" stroke="none" /><text fill="#e1ed5e" style="font-size:6.75px; font-family:Arial;" text-anchor="middle"><textPath startOffset="20.669276256404974" xlink:href="#id74">February</textPath></text><path d="M 111.27062007382361 82.28071324371311 l 24.130250580327637 -37.936761840365044 a65.96072610625833,65.96072610625833 0 0,0 0.950193683519212,0.6159040657427532 l -24.777929896103856 37.516943932918394" fill="#36ff70" stroke="none" /><path d="M 111.5731344415666 82.4767994020092 l 15.615223352403438 -23.64343839330323 a49.33456157069262,49.33456157069262 0 0,0 0.7026738329000577,0.47279031411195377 l -16.018793473400496 23.37189840513416" fill="#a6ff21" stroke="none" /><path d="M 111.8722381534696 82.67804972795209 l 10.667168488313662 -15.563717616642139 a39.868433681910346,39.868433681910346 0 0,0 0.5612049858850511,0.3917646655234143 l -10.932768565372474 15.378308135313597" fill="#ffe715" stroke="none" /><path d="M 112.16784306229584 82.88440491214696 l 11.027739591944416 -15.511896777734533 a40.03234042756774,40.03234042756774 0 0,0 0.5566763620963662,0.40299075650087124 l -11.29239696441475 15.320305249860587" fill="#ffe915" stroke="none" /><path d="M 113.31354834802062 83.75963576809568 l 24.1729971700765 -29.48712607313295 a59.12904924381623,59.12904924381623 0 0,0 0.7794494489187459,0.650244452368305 l -24.675620953157136 29.067819436852773" fill="#3dff2e" stroke="none" /><path d="M 113.59037401385872 83.9905735841838 l 25.819442691657965 -30.415238568707895 a60.8964955616308,60.8964955616308 0 0,0 0.7911339809401328,0.6833626900683064 l -26.337756152360956 29.96753174617487" fill="#30ff34" stroke="none" /><path d="M 114.39649973595853 84.71141617570332 l 40.51392316329243 -43.02438243276717 a80.09716959214009,80.09716959214009 0 0,0 0.9929284309117307,0.9512029758636419 l -41.24652408006948 42.32256732659795" fill="#48f7ff" stroke="none" /><path d="M 115.16444852881244 85.47280134310134 l 28.985658864945865 -27.767605510488025 a61.13985968611624,61.13985968611624 0 0,0 0.7195409356003452,0.7641275386865002 l -29.45805563428247 27.26593651185703" fill="#30ff37" stroke="none" /><path d="M 115.41159269507618 85.73525988315684 l 20.77148168760442 -19.22577334983087 a49.303441705869496,49.303441705869496 0 0,0 0.569577538773924,0.626065490411341 l -21.09845692722022 18.86637028386186" fill="#a6ff21" stroke="none" /><path d="M 115.8921839302757 86.27271002978787 l 47.67655179082713 -41.18186991063638 a84.0,84.0 0 0,0 0.9332217459715513,1.099332870201792 l -48.3764681003058 40.35737025798503" fill="#4dd2ff" stroke="none" /><line stroke="#e1ed5e" stroke-width="0.3" x1="172.87174338648825" x2="177.1583165268699" y1="56.24261187166439" y2="53.66864786411523" /><path d="M 173.72905801456457 55.72781907015455 a86.0,86.0 0 0,1 12.242430191666344,42.057860355516425" fill="none" id="id75" stroke="none" /><text fill="#e1ed5e" style="font-size:6.75px; font-family:Arial;" text-anchor="middle"><textPath startOffset="22.145653131862474" xlink:href="#id75">March</textPath></text><line stroke="#e1ed5e" stroke-width="0.3" x1="184.99686870605535" x2="189.99668451229388" y1="99.2704041080226" y2="99.22748670261217" /><path d="M 185.99683186730306 99.26182062694052 a86.0,86.0 0 0,1 -10.086455211305974,41.156179273409016" fill="none" id="id76" stroke="none" /><text fill="#e1ed5e" style="font-size:6.75px; font-family:Arial;" text-anchor="middle"><textPath startOffset="21.40746469413373" xlink:href="#id76">April</textPath></text><line stroke="#e1ed5e" stroke-width="0.3" x1="174.33088141563837" x2="178.70328620479359" y1="141.23008692659167" y2="143.65538615756765" /><path d="M 175.20536237346943 141.71514677278685 a86.0,86.0 0 0,1 -30.301960400862466,31.631185727798858" fill="none" id="id77" stroke="none" /><text fill="#e1ed5e" style="font-size:6.75px; font-family:Arial;" text-anchor="middle"><textPath startOffset="22.145653131862474" xlink:href="#id77">May</textPath></text><line stroke="#e1ed5e" stroke-width="0.3" x1="143.1302829299769" x2="145.66735839644613" y1="173.24464959558577" y2="177.55315839532614" /><path d="M 143.63769802327073 174.10635135553383 a86.0,86.0 0 0,1 -40.68552437913181,11.842963189579606" fill="none" id="id78" stroke="none" /><text fill="#e1ed5e" style="font-size:6.75px; font-family:Arial;" text-anchor="middle"><textPath startOffset="21.407464694133747" xlink:href="#id78">June</textPath></text><line stroke="#e1ed5e" stroke-width="0.3" x1="101.45913802915013" x2="101.54496967792366" y1="184.9874750549273" y2="189.98673829345242" /><path d="M 101.47630435890484 185.9873277026323 a86.0,86.0 0 0,1 -42.54439059252881,-10.42667462771756" fill="none" id="id79" stroke="none" /><text fill="#e1ed5e" style="font-size:6.75px; font-family:Arial;" text-anchor="middle"><textPath startOffset="22.145653131862474" xlink:href="#id79">July</textPath></text><line stroke="#e1ed5e" stroke-width="0.3" x1="58.13341422392154" x2="55.67067388415222" y1="173.97424548756322" y2="178.32567169271397" /><path d="M 57.64086615596768 174.84453072859336 a86.0,86.0 0 0,1 -31.369924170532247,-30.572349798747897" fill="none" id="id80" stroke="none" /><text fill="#e1ed5e" style="font-size:6.75px; font-family:Arial;" text-anchor="middle"><textPath startOffset="22.145653131862474" xlink:href="#id80">August</textPath></text><line stroke="#e1ed5e" stroke-width="0.3" x1="26.387840678322732" x2="22.057713659400548" y1="142.50000000000003" y2="145.00000000000006" /><path d="M 25.521815274538298 143.00000000000003 a86.0,86.0 0 0,1 -11.493303480769221,-40.785679425670985" fill="none" id="id81" stroke="none" /><text fill="#e1ed5e" style="font-size:6.75px; font-family:Arial;" text-anchor="middle"><textPath startOffset="21.40746469413373" xlink:href="#id81">September</textPath></text><line stroke="#e1ed5e" stroke-width="0.3" x1="15.003131293944662" x2="10.003315487706104" y1="100.72959589197737" y2="100.7725132973878" /><path d="M 14.003168132696942 100.73817937305945 a86.0,86.0 0 0,1 10.791469493833604,-42.45332614584628" fill="none" id="id82" stroke="none" /><text fill="#e1ed5e" style="font-size:6.75px; font-family:Arial;" text-anchor="middle"><textPath startOffset="22.145653131862435" xlink:href="#id82">October</textPath></text><line stroke="#e1ed5e" stroke-width="0.3" x1="26.387840678322718" x2="22.05771365940052" y1="57.49999999999999" y2="54.99999999999999" /><path d="M 25.521815274538284 56.99999999999999 a86.0,86.0 0 0,1 29.574782752854787,-30.34633250058573" fill="none" id="id83" stroke="none" /><text fill="#e1ed5e" style="font-size:6.75px; font-family:Arial;" text-anchor="middle"><textPath startOffset="21.40746469413373" xlink:href="#id83">November</textPath></text><line stroke="#e1ed5e" stroke-width="0.3" x1="56.869717070023135" x2="54.33264160355391" y1="26.7553504044142" y2="22.446841604673864" /><path d="M 56.362301976729285 25.89364864446614 a86.0,86.0 0 0,1 42.16139366436587,-11.88097634709845" fill="none" id="id84" stroke="none" /><text fill="#e1ed5e" style="font-size:6.75px; font-family:Arial;" text-anchor="middle"><textPath startOffset="22.145653131862474" xlink:href="#id84">December</textPath></text></svg>