<?xml version="1.0" encoding="utf-8" ?>
<svg baseProfile="full" height="200mm" version="1.1" viewBox="0,0,200,200" width="200mm" xmlns="http://www.w3.org/2000/svg" xmlns:ev="http://www.w3.org/2001/xml-events" xmlns:xlink="http://www.w3.org/1999/xlink"><defs /><rect fill="#1a1a1a" height="200" width="200" x="0" y="0" /><text alignment-baseline="middle" fill="#e1ed5e" style="dominant-baseline: central; font-size:9.0px; font-family:Arial;" text-anchor="middle" x="100.0" y="100.0">2024</text><line stroke="#e1ed5e" stroke-width="0.3" x1="100.0" x2="100.0" y1="15.0" y2="10.0" /><path d="M 100.0 14.0 a86.0,86.0 0 0,1 42.35913384403234,11.155469271406648" fill="none" id="id73" stroke="none" /><text fill="#e1ed5e" style="font-size:6.75px; font-family:Arial;" text-anchor="middle"><textPath startOffset="22.145653131862478" xlink:href="#id73">January</textPath></text><path d="M 100.36049292484886 79.00309439819443 l 0.7551796319693295 -43.98542759615731 a64.99190990504206,64.99190990504206 0 0,0 1.1153437629948129,0.0287272989380478 l -1.5101367090348836 43.96598257986921" fill="#35ff61" stroke="none" /><path d="M 100.72087961077811 79.0123766808444 l 1.5101950355841287 -43.96768069371064 a64.99360902028383,64.99360902028383 0 0,0 1.1147154140327311,0.047870676203787536 l -2.264736210217696 43.93527744908102" fill="#35ff61" stroke="none" /><path d="M 101.08105385017728 79.02784411241856 l 2.262713881946556 -43.896044820890246 a64.95432430409048,64.95432430409048 0 0,0 1.113056212106982,0.06695869775795785 l -3.0159144461860006 43.8507341453076" fill="#34ff60" stroke="none" /><path d="M 101.80034050326958 79.07731436759882 l 5.083512326107345 -59.07811889718627 a80.29642678947664,80.29642678947664 0 0,0 1.3723058396841195,0.12995878979908806 l -6.096917729176478 58.982148351882" fill="#48f6ff" stroke="none" /><path d="M 102.15924093988457 79.11130261209362 l 4.504571527654829 -43.57764331218686 a64.80984091835923,64.80984091835923 0 0,0 1.1056685344767507,0.12389246549198728 l -5.251975963732376 43.4938950861879" fill="#34ff5f" stroke="none" /><path d="M 102.87502721639298 79.19773525538626 l 0.44155129086012046 -3.1948451821343244 a24.2252136797842,24.2252136797842 0 0,0 0.4114535967080175,0.06046950953331043 l -0.49632999317581994 3.186794599302132" fill="#ff0000" stroke="none" /><path d="M 103.23170211078529 79.25015418208739 l 4.667140229669994 -29.966388254979705 a51.327654425813904,51.327654425813904 0 0,0 0.8694476854656971,0.1430672857797336 l -5.180865418188762 29.881854970704303" fill="#96ff23" stroke="none" /><path d="M 103.58742460773223 79.30868818359171 l 10.589779655878033 -61.079034930672066 a82.9902568249423,82.9902568249423 0 0,0 1.4016076928326024,0.25541961164290194 l -11.63672208226169 60.88824714509779" fill="#4cdcff" stroke="none" /><path d="M 104.9986988182912 79.60360301121754 l 14.773553546977434 -60.281139959177516 a83.06507648576095,83.06507648576095 0 0,0 1.3820237162834588,0.3513050243175532 l -15.806182556486286 60.01864970302469" fill="#4cdbff" stroke="none" /><path d="M 105.69591212413111 79.78721728523813 l 7.949071767191285 -28.208451414407243 a50.30707206731733,50.30707206731733 0 0,0 0.8292042524999501,0.24136927295047553 l -8.43213603207284 28.06783844715425" fill="#a2ff22" stroke="none" /><path d="M 106.72888874123014 80.10723608172694 l 20.0929105781116 -59.40111984795191 a83.70740063733096,83.70740063733096 0 0,0 1.357232702577445,0.47211598748068806 l -21.109649052734063 59.04744542790263" fill="#4dd5ff" stroke="none" /><path d="M 107.06938296918511 80.22567764915836 l 17.53686957695586 -49.05374536235745 a73.09425811578629,73.09425811578629 0 0,0 1.1778995189607437,0.43254101897076674 l -18.376358247570728 48.74547349437797" fill="#3fffbe" stroke="none" /><path d="M 107.74402155503746 80.48000691201159 l 16.614926943598054 -41.88046957145863 a66.05584899729416,66.05584899729416 0 0,0 1.0504312421392548,0.4272012414907827 l -17.33141264692775 41.58908107338856" fill="#36ff6d" stroke="none" /><path d="M 108.4095320186766 80.7573450057729 l 25.228596056029787 -57.7279649826813 a84.0,84.0 0 0,0 1.3163463885774735,0.5887849963605896 l -26.21585584746289 57.286376235410856" fill="#4dd2ff" stroke="none" /><path d="M 109.06512990194946 81.05736502329252 l 23.228283852246367 -48.53817947537945 a74.80992508361888,74.80992508361888 0 0,0 1.153639404371551,0.5643028422858998 l -24.058083505879985 48.13228288299633" fill="#41ffd0" stroke="none" /><line stroke="#e1ed5e" stroke-width="0.3" x1="143.13028292997686" x2="145.6673583964461" y1="26.7553504044142" y2="22.446841604673864" /><path d="M 143.63769802327073 25.89364864446614 a86.0,86.0 0 0,1 29.32050498858742,28.57503671076993" fill="none" id="id74" stroke="none" /><text fill="#e1ed5e" style="font-size:6.75px; font-family:Arial;" text-anchor="middle"><textPath startOffset="20.669276256404974" xlink:href="#id74">February</textPath></text><line stroke="#e1ed5e" stroke-width="0.3" x1="172.87174338648825" x2="177.1583165268699" y1="56.24261187166439" y2="53.66864786411523" /><path d="M 173.72905801456457 55.72781907015455 a86.0,86.0 0 0,1 12.242430191666344,42.057860355516425" fill="none" id="id75" stroke="none" /><text fill="#e1ed5e" style="font-size:6.75px; font-family:Arial;" text-anchor="middle"><textPath startOffset="22.145653131862474" xlink:href="#id75">March</textPath></text><line stroke="#e1ed5e" stroke-width="0.3" x1="184.99686870605535" x2="189.99668451229388" y1="99.2704041080226" y2="99.22748670261217" /><path d="M 185.99683186730306 99.26182062694052 a86.0,86.0 0 0,1 -10.086455211305974,41.156179273409016" fill="none" id="id76" stroke="none" /><text fill="#e1ed5e" style="font-size:6.75px; font-family:Arial;" text-anchor="middle"><textPath startOffset="21.40746469413373" xlink:href="#id76">April</textPath></text><line stroke="#e1ed5e" stroke-width="0.3" x1="174.33088141563837" x2="178.70328620479359" y1="141.23008692659167" y2="143.65538615756765" /><path d="M 175.20536237346943 141.71514677278685 a86.0,86.0 0 0,1 -30.301960400862466,31.631185727798858" fill="none" id="id77" stroke="none" /><text fill="#e1ed5e" style="font-size:6.75px; font-family:Arial;" text-anchor="middle"><textPath startOffset="22.145653131862474" xlink:href="#id77">May</textPath></text><line stroke="#e1ed5e" stroke-width="0.3" x1="143.1302829299769" x2="145.66735839644613" y1="173.24464959558577" y2="177.55315839532614" /><path d="M 143.63769802327073 174.10635135553383 a86.0,86.0 0 0,1 -40.68552437913181,11.842963189579606" fill="none" id="id78" stroke="none" /><text fill="#e1ed5e" style="font-size:6.75px; font-family:Arial;" text-anchor="middle"><textPath startOffset="21.407464694133747" xlink:href="#id78">June</textPath></text><line stroke="#e1ed5e" stroke-width="0.3" x1="101.45913802915013" x2="101.54496967792366" y1="184.9874750549273" y2="189.98673829345242" /><path d="M 101.47630435890484 185.9873277026323 a86.0,86.0 0 0,1 -42.54439059252881,-10.42667462771756" fill="none" id="id79" stroke="none" /><text fill="#e1ed5e" style="font-size:6.75px; font-family:Arial;" text-anchor="middle"><textPath startOffset="22.145653131862474" xlink:href="#id79">July</textPath></text><line stroke="#e1ed5e" stroke-width="0.3" x1="58.13341422392154" x2="55.67067388415222" y1="173.97424548756322" y2="178.32567169271397" /><path d="M 57.64086615596768 174.84453072859336 a86.0,86.0 0 0,1 -31.369924170532247,-30.572349798747897" fill="none" id="id80" stroke="none" /><text fill="#e1ed5e" style="font-size:6.75px; font-family:Arial;" text-anchor="middle"><textPath startOffset="22.145653131862474" xlink:href="#id80">August</textPath></text><line stroke="#e1ed5e" stroke-width="0.3" x1="26.387840678322732" x2="22.057713659400548" y1="142.50000000000003" y2="145.00000000000006" /><path d="M 25.521815274538298 143.00000000000003 a86.0,86.0 0 0,1 -11.493303480769221,-40.785679425670985" fill="none" id="id81" stroke="none" /><text fill="#e1ed5e" style="font-size:6.75px; font-family:Arial;" text-anchor="middle"><textPath startOffset="21.40746469413373" xlink:href="#id81">September</textPath></text><line stroke="#e1ed5e" stroke-width="0.3" x1="15.003131293944662" x2="10.003315487706104" y1="100.72959589197737" y2="100.7725132973878" /><path d="M 14.003168132696942 100.73817937305945 a86.0,86.0 0 0,1 10.791469493833604,-42.45332614584628" fill="none" id="id82" stroke="none" /><text fill="#e1ed5e" style="font-size:6.75px; font-family:Arial;" text-anchor="middle"><textPath startOffset="22.145653131862435" xlink:href="#id82">October</textPath></text><line stroke="#e1ed5e" stroke-width="0.3" x1="26.387840678322718" x2="22.05771365940052" y1="57.49999999999999" y2="54.99999999999999" /><path d="M 25.521815274538284 56.99999999999999 a86.0,86.0 0 0,1 29.574782752854787,-30.34633250058573" fill="none" id="id83" stroke="none" /><text fill="#e1ed5e" style="font-size:6.75px; font-family:Arial;" text-anchor="middle"><textPath startOffset="21.40746469413373" xlink:href="#id83">November</textPath></text><line stroke="#e1ed5e" stroke-width="0.3" x1="56.869717070023135" x2="54.33264160355391" y1="26.7553504044142" y2="22.446841604673864" /><path d="M 56.362301976729285 25.89364864446614 a86.0,86.0 0 0,1 42.16139366436587,-11.88097634709845" fill="none" id="id84" stroke="none" /><text fill="#e1ed5e" style="font-size:6.75px; font-family:Arial;" text-anchor="middle"><textPath startOffset="22.145653131862474" xlink:href="#id84">December</textPath></text></svg>