<?xml version="1.0" encoding="utf-8" ?>
<svg baseProfile="full" height="200mm" version="1.1" viewBox="0,0,200,200" width="200mm" xmlns="http://www.w3.org/2000/svg" xmlns:ev="http://www.w3.org/2001/xml-events" xmlns:xlink="http://www.w3.org/1999/xlink"><defs /><rect fill="#1a1a1a" height="200" width="200" x="0" y="0" /><text alignment-baseline="middle" fill="#e1ed5e" style="dominant-baseline: central; font-size:9.0px; font-family:Arial;" text-anchor="middle" x="100.0" y="100.0">2024</text><line stroke="#e1ed5e" stroke-width="0.3" x1="100.0" x2="100.0" y1="15.0" y2="10.0" /><path d="M 100.0 14.0 a86.0,86.0 0 0,1 42.35913384403234,11.155469271406648" fill="none" id="id73" stroke="none" /><text fill="#e1ed5e" style="font-size:6.75px; font-family:Arial;" text-anchor="middle"><textPath startOffset="22.145653131862478" xlink:href="#id73">January</textPath></text><path d="M 100.36049292484886 79.00309439819443 l 0.5176747149168293 -30.151956868800116 a51.15640048361951,51.15640048361951 0 0,0 0.8779088397315028,0.02261181755444027 l -1.0351968687190733 30.13862733389563" fill="#92ff23" stroke="none" /><path d="M 100.72087961077811 79.0123766808444 l 1.0352368514973087 -30.139791388858914 a51.157565225041495,51.157565225041495 0 0,0 0.8774112925924966,0.03767981617235337 l -1.5524739046906415 30.11757900426073" fill="#92ff23" stroke="none" /><path d="M 101.08105385017728 79.02784411241856 l 1.551087601131976 -30.090685085576595 a51.130635600095246,51.130635600095246 0 0,0 0.8761737142738695,0.05270843491945084 l -2.067405667538308 30.059624672832452" fill="#93ff23" stroke="none" /><path d="M 101.80034050326958 79.07731436759882 l 3.484741487705653 -40.49797831301355 a61.64762810641542,61.64762810641542 0 0,0 1.053588602079564,0.09977593602887412 l -4.17942965317023 40.43219062147949" fill="#31ff3c" stroke="none" /><path d="M 102.15924093988457 79.11130261209362 l 3.0878782778080636 -29.872421240433845 a51.03159241572917,51.03159241572917 0 0,0 0.8706089260331826,0.09755354607846102 l -3.600223105442043 29.81501193384841" fill="#94ff23" stroke="none" /><path d="M 102.87502721639298 79.19773525538626 l 0.3026828703272742 -2.190062468384959 a23.210880036414906,23.210880036414906 0 0,0 0.3942256278924309,0.05793759139510792 l -0.3402336038273871 2.1845438036909686" fill="#ff0000" stroke="none" /><path d="M 103.23170211078529 79.25015418208739 l 3.199318924387257 -20.541922531106707 a41.789570049761295,41.789570049761295 0 0,0 0.7078804859257004,0.11648146457895714 l -3.5514769133660278 20.483975068032084" fill="#fffe18" stroke="none" /><path d="M 103.58742460773223 79.30868818359171 l 7.25928101383347 -41.869603808931764 a63.49424530397871,63.49424530397871 0 0,0 1.0723430204147795,0.19541661994504456 l -7.976958767799303 41.738819015055356" fill="#33ff53" stroke="none" /><path d="M 104.9986988182912 79.60360301121754 l 10.127252903784175 -41.32264778096677 a63.54553409004337,63.54553409004337 0 0,0 1.0572606309631623,0.26875151800529984 l -10.83511882797273 41.1427110311262" fill="#33ff53" stroke="none" /><path d="M 105.69591212413111 79.78721728523813 l 5.4490789829740685 -19.336858975020096 a41.08996209012115,41.08996209012115 0 0,0 0.6772799509102322,0.19714632292620368 l -5.780218946265905 19.240468957791375" fill="#fff517" stroke="none" /><path d="M 106.72888874123014 80.10723608172694 l 13.773665648593282 -40.719395070069645 a63.98584651105118,63.98584651105118 0 0,0 1.0374672098964919,0.3608849501997376 l -14.470638630534792 40.476951687301316" fill="#34ff59" stroke="none" /><path d="M 107.06938296918511 80.22567764915836 l 12.021502665676964 -33.626282504256515 a56.71055028135167,56.71055028135167 0 0,0 0.913879306232078,0.33558913979579813 l -12.596971123563167 33.41496251545199" fill="#57ff2a" stroke="none" /><path d="M 107.74402155503746 80.48000691201159 l 11.389512117085795 -28.709010715040467 a51.88572943126894,51.88572943126894 0 0,0 0.8250956129262936,0.33555920278310103 l -11.880662191202529 28.509264255678072" fill="#8aff24" stroke="none" /><path d="M 108.4095320186766 80.7573450057729 l 17.294171768111838 -39.57244945445239 a64.18642301661653,64.18642301661653 0 0,0 1.0058519777813,0.4499047957409265 l -17.970937148748767 39.26974090780161" fill="#34ff5b" stroke="none" /><path d="M 109.06512990194946 81.05736502329252 l 15.922960196716742 -33.2728627187332 a57.88663789132714,57.88663789132714 0 0,0 0.8926663993230649,0.4366478679926302 l -16.491786845301874 32.99462110064335" fill="#4aff2c" stroke="none" /><path d="M 109.3889696526874 81.21577127319529 l 20.18680385589348 -40.387130315594355 a66.15116105976807,66.15116105976807 0 0,0 1.0113970032539168,0.5164265163504116 l -20.877128080860977 40.03464584757111" fill="#36ff72" stroke="none" /><path d="M 109.71004243097381 81.37971332152246 l 14.950340539253679 -28.669249260309314 a53.33324195606432,53.33324195606432 0 0,0 0.8081540038467226,0.4302964875930865 l -15.440283358886962 28.408382304993655" fill="#7aff26" stroke="none" /><path d="M 110.02825361518725 81.54914285379988 l 9.593658675690248 -17.651251406973806 a41.089921926623845,41.089921926623845 0 0,0 0.6168493664562027,0.3421559453518266 l -9.895252230302551 17.483962546188835" fill="#fff517" stroke="none" /><path d="M 110.34350942703115 81.72400993836675 l 13.426795957808219 -23.72386192670713 a48.25986930287963,48.25986930287963 0 0,0 0.7174806998300863,0.4142376751852615 l -13.832069125498702 23.489877354245696" fill="#b3ff20" stroke="none" /><line stroke="#e1ed5e" stroke-width="0.3" x1="143.13028292997686" x2="145.6673583964461" y1="26.7553504044142" y2="22.446841604673864" /><path d="M 143.63769802327073 25.89364864446614 a86.0,86.0 0 0,1 29.32050498858742,28.57503671076993" fill="none" id="id74" stroke="none" /><text fill="#e1ed5e" style="font-size:6.75px; font-family:Arial;" text-anchor="middle"><textPath startOffset="20.669276256404974" xlink:href="#id74">February</textPath></text><path d="M 111.27062007382361 82.28071324371311 l 25.723834103263524 -40.442139825607995 a68.9299730298928,68.9299730298928 0 0,0 0.992967009984741,0.6436292191850396 l -26.414286745505272 39.994596764719056" fill="#3aff92" stroke="none" /><path d="M 111.5731344415666 82.4767994020092 l 16.64646679343263 -25.20487240011934 a51.20580158531061,51.20580158531061 0 0,0 0.7293259678635654,0.4907230599623934 l -17.0766890493932 24.915399666099827" fill="#92ff23" stroke="none" /><path d="M 111.8722381534696 82.67804972795209 l 11.371637921101737 -16.591559572404005 a41.11452206872612,41.11452206872612 0 0,0 0.5787454546457231,0.4040092749798172 l -11.65477846692122 16.39390548161906" fill="#fff517" stroke="none" /><path d="M 112.16784306229584 82.88440491214696 l 11.756021465787752 -16.536316438532946 a41.28925336377259,41.28925336377259 0 0,0 0.574154573795339,0.41564363388967646 l -12.038157049957059 16.332072033270194" fill="#fff717" stroke="none" /><path d="M 113.31354834802062 83.75963576809568 l 25.769403716372988 -31.43448248754113 a61.647126062699044,61.647126062699044 0 0,0 0.8126431771101144,0.6779358410013974 l -26.305221227644996 30.98748446262786" fill="#31ff3c" stroke="none" /><path d="M 113.59037401385872 83.9905735841838 l 27.524581985916168 -32.42388836983229 a63.531296130247036,63.531296130247036 0 0,0 0.8253638695997039,0.7129296526292449 l -28.077125335278733 31.946614584738327" fill="#33ff53" stroke="none" /><path d="M 114.39649973595853 84.71141617570332 l 43.18949920787558 -45.86575147289004 a84.0,84.0 0 0,0 1.0413100565387516,0.9975514787776794 l -43.97048175027964 45.117587863806776" fill="#4dd2ff" stroke="none" /><path d="M 115.16444852881244 85.47280134310134 l 30.899897932412316 -29.60140323528134 a63.79073224111996,63.79073224111996 0 0,0 0.7507384445278606,0.7972582120512376 l -31.403492210676436 29.066603563285607" fill="#33ff56" stroke="none" /><path d="M 115.41159269507618 85.73525988315684 l 22.14324908198518 -20.495460770771626 a51.17262653653268,51.17262653653268 0 0,0 0.5911712786534656,0.6498007932054108 l -22.491818061480522 20.11232240200854" fill="#92ff23" stroke="none" /><line stroke="#e1ed5e" stroke-width="0.3" x1="172.87174338648825" x2="177.1583165268699" y1="56.24261187166439" y2="53.66864786411523" /><path d="M 173.72905801456457 55.72781907015455 a86.0,86.0 0 0,1 12.242430191666344,42.057860355516425" fill="none" id="id75" stroke="none" /><text fill="#e1ed5e" style="font-size:6.75px; font-family:Arial;" text-anchor="middle"><textPath startOffset="22.145653131862474" xlink:href="#id75">March</textPath></text><line stroke="#e1ed5e" stroke-width="0.3" x1="184.99686870605535" x2="189.99668451229388" y1="99.2704041080226" y2="99.22748670261217" /><path d="M 185.99683186730306 99.26182062694052 a86.0,86.0 0 0,1 -10.086455211305974,41.156179273409016" fill="none" id="id76" stroke="none" /><text fill="#e1ed5e" style="font-size:6.75px; font-family:Arial;" text-anchor="middle"><textPath startOffset="21.40746469413373" xlink:href="#id76">April</textPath></text><line stroke="#e1ed5e" stroke-width="0.3" x1="174.33088141563837" x2="178.70328620479359" y1="141.23008692659167" y2="143.65538615756765" /><path d="M 175.20536237346943 141.71514677278685 a86.0,86.0 0 0,1 -30.301960400862466,31.631185727798858" fill="none" id="id77" stroke="none" /><text fill="#e1ed5e" style="font-size:6.75px; font-family:Arial;" text-anchor="middle"><textPath startOffset="22.145653131862474" xlink:href="#id77">May</textPath></text><line stroke="#e1ed5e" stroke-width="0.3" x1="143.1302829299769" x2="145.66735839644613" y1="173.24464959558577" y2="177.55315839532614" /><path d="M 143.63769802327073 174.10635135553383 a86.0,86.0 0 0,1 -40.68552437913181,11.842963189579606" fill="none" id="id78" stroke="none" /><text fill="#e1ed5e" style="font-size:6.75px; font-family:Arial;" text-anchor="middle"><textPath startOffset="21.407464694133747" xlink:href="#id78">June</textPath></text><line stroke="#e1ed5e" stroke-width="0.3" x1="101.45913802915013" x2="101.54496967792366" y1="184.9874750549273" y2="189.98673829345242" /><path d="M 101.47630435890484 185.9873277026323 a86.0,86.0 0 0,1 -42.54439059252881,-10.42667462771756" fill="none" id="id79" stroke="none" /><text fill="#e1ed5e" style="font-size:6.75px; font-family:Arial;" text-anchor="middle"><textPath startOffset="22.145653131862474" xlink:href="#id79">July</textPath></text><line stroke="#e1ed5e" stroke-width="0.3" x1="58.13341422392154" x2="55.67067388415222" y1="173.97424548756322" y2="178.32567169271397" /><path d="M 57.64086615596768 174.84453072859336 a86.0,86.0 0 0,1 -31.369924170532247,-30.572349798747897" fill="none" id="id80" stroke="none" /><text fill="#e1ed5e" style="font-size:6.75px; font-family:Arial;" text-anchor="middle"><textPath startOffset="22.145653131862474" xlink:href="#id80">August</textPath></text><line stroke="#e1ed5e" stroke-width="0.3" x1="26.387840678322732" x2="22.057713659400548" y1="142.50000000000003" y2="145.00000000000006" /><path d="M 25.521815274538298 143.00000000000003 a86.0,86.0 0 0,1 -11.493303480769221,-40.785679425670985" fill="none" id="id81" stroke="none" /><text fill="#e1ed5e" style="font-size:6.75px; font-family:Arial;" text-anchor="middle"><textPath startOffset="21.40746469413373" xlink:href="#id81">September</textPath></text><line stroke="#e1ed5e" stroke-width="0.3" x1="15.003131293944662" x2="10.003315487706104" y1="100.72959589197737" y2="100.7725132973878" /><path d="M 14.003168132696942 100.73817937305945 a86.0,86.0 0 0,1 10.791469493833604,-42.45332614584628" fill="none" id="id82" stroke="none" /><text fill="#e1ed5e" style="font-size:6.75px; font-family:Arial;" text-anchor="middle"><textPath startOffset="22.145653131862435" xlink:href="#id82">October</textPath></text><line stroke="#e1ed5e" stroke-width="0.3" x1="26.387840678322718" x2="22.05771365940052" y1="57.49999999999999" y2="54.99999999999999" /><path d="M 25.521815274538284 56.99999999999999 a86.0,86.0 0 0,1 29.574782752854787,-30.34633250058573" fill="none" id="id83" stroke="none" /><text fill="#e1ed5e" style="font-size:6.75px; font-family:Arial;" text-anchor="middle"><textPath startOffset="21.40746469413373" xlink:href="#id83">November</textPath></text><line stroke="#e1ed5e" stroke-width="0.3" x1="56.869717070023135" x2="54.33264160355391" y1="26.7553504044142" y2="22.446841604673864" /><path d="M 56.362301976729285 25.89364864446614 a86.0,86.0 0 0,1 42.16139366436587,-11.88097634709845" fill="none" id="id84" stroke="none" /><text fill="#e1ed5e" style="font-size:6.75px; font-family:Arial;" text-anchor="middle"><textPath startOffset="22.145653131862474" xlink:href="#id84">December</textPath></text></svg>