<?xml version="1.0" encoding="utf-8" ?>
<svg baseProfile="full" height="200mm" version="1.1" viewBox="0,0,200,200" width="200mm" xmlns="http://www.w3.org/2000/svg" xmlns:ev="http://www.w3.org/2001/xml-events" xmlns:xlink="http://www.w3.org/1999/xlink"><defs /><rect fill="#1a1a1a" height="200" width="200" x="0" y="0" /><text alignment-baseline="middle" fill="#e1ed5e" style="dominant-baseline: central; font-size:9.0px; font-family:Arial;" text-anchor="middle" x="100.0" y="100.0">2022</text><line stroke="#e1ed5e" stroke-width="0.3" x1="100.0" x2="100.0" y1="15.0" y2="10.0" /><path d="M 100.0 14.0 a86.0,86.0 0 0,1 42.46469731375804,11.215312516191453" fill="none" id="id49" stroke="none" /><text fill="#e1ed5e" style="font-size:6.75px; font-family:Arial;" text-anchor="middle"><textPath startOffset="22.20632615414155" xlink:href="#id49">January</textPath></text><path d="M 100.0 79.0 l 0.0 -26.543052939840422 a47.54305293984042,47.54305293984042 0 0,0 0.8183755029891764,0.007044016324595022 l -0.45689502371664803 26.539120300124384" fill="#c9ff1d" stroke="none" /><path d="M 100.36148047927253 79.00311137660856 l 0.29691397683663473 -17.246490640140177 a38.2490462724779,38.2490462724779 0 0,0 0.6581993596225018,0.016999347581787637 l -0.5937399716540043 17.23882450041603" fill="#ffbe11" stroke="none" /><path d="M 101.08401301168833 79.027996857942 l 1.0539840354028358 -20.391043524210513 a41.418264822289174,41.418264822289174 0 0,0 0.7116800866234858,0.04293048633914267 l -1.4048261708659335 20.369879768491067" fill="#ffe815" stroke="none" /><path d="M 101.44485096284872 79.0497635885617 l 1.4126621688790106 -20.483501183512207 a41.5321561249258,41.5321561249258 0 0,0 0.7127903106837233,0.05532624658774078 l -1.765042668925075 20.456149674736004" fill="#ffea16" stroke="none" /><path d="M 101.80526077348638 79.07773832637324 l 1.8256068954986246 -21.15806521793228 a42.23667969111857,42.23667969111857 0 0,0 0.7238057017129218,0.068734072853848 l -2.1895377243017906 21.123505600563252" fill="#fff316" stroke="none" /><path d="M 102.16513564639614 79.11191278185805 l 1.489366699895994 -14.368624699799474 a35.44560794603144,35.44560794603144 0 0,0 0.6063448851692738,0.06812991278078354 l -1.736478288574993 14.340858833548088" fill="#ff980e" stroke="none" /><path d="M 102.52436894288641 79.15227682838746 l 6.665016532345073 -55.043625850377005 a76.44567784897868,76.44567784897868 0 0,0 1.304983313242517,0.1694242873307466 l -7.611514574095437 54.92074323988212" fill="#43ffe0" stroke="none" /><path d="M 102.88285421437855 79.19881850522331 l 1.8060964697996482 -13.031855817751243 a34.15641480468291,34.15641480468291 0 0,0 0.581685402452405,0.08572530769012998 l -2.030150852680709 12.998836025900143" fill="#ff860c" stroke="none" /><path d="M 103.2404852339499 79.25152402106235 l 2.4572912202215296 -15.733769536074664 a36.924502628191846,36.924502628191846 0 0,0 0.6271376983487797,0.10348309375070194 l -2.7277581247091844 15.689140179384339" fill="#ffac10" stroke="none" /><path d="M 103.59715602781102 79.31037775812273 l 3.418497626666891 -19.662039673472716 a40.95700203298938,40.95700203298938 0 0,0 0.6935480832347348,0.12674147916336373 l -3.756440831004527 19.600282712958613" fill="#ffe215" stroke="none" /><path d="M 103.95276090670814 79.375362276772 l 7.084819155329189 -36.967029340244494 a58.63981828736978,58.63981828736978 0 0,0 0.9897105401803712,0.19852662364682686 l -7.720096104976685 36.83959876052045" fill="#4bff2c" stroke="none" /><path d="M 104.307194497241 79.44645832069477 l 2.694332869886452 -12.857112204848416 a34.13639082327458,34.13639082327458 0 0,0 0.5740721328751514,0.12546993310860907 l -2.9152477269151307 12.808828773643937" fill="#ff860c" stroke="none" /><path d="M 104.66035177308747 79.52364482259891 l 4.441583807308569 -19.515146498992955 a41.01421019162392,41.01421019162392 0 0,0 0.6870394115882633,0.16260003136982562 l -4.776846905859356 19.435800555482263" fill="#ffe315" stroke="none" /><path d="M 105.01212808612495 79.60689891045804 l 9.410904803982406 -38.29062819502829 a60.4301577070079,60.4301577070079 0 0,0 1.0080070047679521,0.2569634297275459 l -10.068620697435383 38.12296176913188" fill="#38ff2e" stroke="none" /><path d="M 105.36241919743992 79.69619591428918 l 10.66582181834925 -40.384152868214706 a62.76888265137229,62.76888265137229 0 0,0 1.0422686605525102,0.28489139685575643 l -11.35938836812547 40.19457493053266" fill="#31ff42" stroke="none" /><path d="M 105.71112130821622 79.79150937346287 l 4.6910188434836195 -16.598913805432126 a38.2490462724779,38.2490462724779 0 0,0 0.632037772347577,0.18450915736513554 l -4.976046833554624 16.515706319148286" fill="#ffbe11" stroke="none" /><path d="M 106.0581310904928 79.89281104454417 l 3.7918155857204154 -12.585193573307269 a34.144008624225975,34.144008624225975 0 0,0 0.5612862481606758,0.17439436950497772 l -4.00788720659181 12.51805906891977" fill="#ff860c" stroke="none" /><path d="M 106.40334571778207 80.00007090966166 l 8.456180232461017 -26.411662352492872 a48.732343794673284,48.732343794673284 0 0,0 0.7966976541475939,0.2626586905827423 l -8.909560708851028 26.26218993765089" fill="#baff1f" stroke="none" /><path d="M 106.74666289553966 80.11325718540242 l 5.113196840829795 -15.071870657895293 a36.915591948193345,36.915591948193345 0 0,0 0.5999978982178716,0.2093274854206567 l -5.37187674311094 14.981622319302428" fill="#ffac0f" stroke="none" /><path d="M 107.08798089147638 80.2323363322302 l 4.548950269704256 -12.686563402147408 a34.47745671530606,34.47745671530606 0 0,0 0.5569220323925137,0.20511908458853453 l -4.766654627869346 12.60638104975255" fill="#ff8b0c" stroke="none" /><path d="M 108.09893153111575 80.62456947434976 l 5.599650067411232 -13.396289428086092 a35.519526552836005,35.519526552836005 0 0,0 0.5620816947193132,0.2406540478321758 l -5.82941551992086 13.297915852291126" fill="#ff990e" stroke="none" /><path d="M 108.43124777332544 80.76684994638697 l 5.327687846466202 -12.153387321160372 a34.26985610952603,34.26985610952603 0 0,0 0.538229111547245,0.24148771334922353 l -5.536099076480228 12.059879277294616" fill="#ff880c" stroke="none" /><path d="M 108.76106565485865 80.91482961587045 l 5.509331071572211 -12.00156765692348 a34.20569404006858,34.20569404006858 0 0,0 0.5329927803585677,0.2502472570312707 l -5.715102063230376 11.904955417252207" fill="#ff870c" stroke="none" /><path d="M 109.08828744355905 81.06846463323043 l 5.694356113371524 -11.86174015960227 a34.15775707177378,34.15775707177378 0 0,0 0.5278654106794385,0.2590212645260917 l -5.897692791061394 11.761963734941347" fill="#ff860c" stroke="none" /><path d="M 109.41281617654863 81.2277094730956 l 5.970127880220528 -11.90642342825027 a34.3193598104028,34.3193598104028 0 0,0 0.5258044805554788,0.26933747729734026 l -6.174192848364762 11.801893425640428" fill="#ff880c" stroke="none" /><path d="M 109.73455568895987 81.39251694778311 l 6.1060954894320885 -11.671726164521614 a34.17245587525885,34.17245587525885 0 0,0 0.5188598489580476,0.27715696205889057 l -6.306100384918447 11.56489047596097" fill="#ff860c" stroke="none" /><path d="M 110.05341064243156 81.56283822128135 l 6.348538526656143 -11.64271867900917 a34.26110250556063,34.26110250556063 0 0,0 0.5153455696828736,0.28678925157570945 l -6.548008185411052 11.53171402987328" fill="#ff870c" stroke="none" /><path d="M 110.36928655335952 81.73862282372117 l 6.546926906444839 -11.529809786709283 a34.25891268679406,34.25891268679406 0 0,0 0.5102999919340095,0.29559869291353774 l -6.744423630844177 11.415406936405692" fill="#ff870c" stroke="none" /><line stroke="#e1ed5e" stroke-width="0.3" x1="143.23703022742887" x2="145.7803849466894" y1="26.818313649435467" y2="22.513508569990506" /><path d="M 143.74570117128098 25.957352633546478 a86.0,86.0 0 0,1 28.547481713284135,27.462654790039114" fill="none" id="id50" stroke="none" /><text fill="#e1ed5e" style="font-size:6.75px; font-family:Arial;" text-anchor="middle"><textPath startOffset="19.985693538727396" xlink:href="#id50">February</textPath></text><path d="M 110.68208982089419 81.91981866633111 l 13.501679791625003 -22.85253382388037 a47.54305293984042,47.54305293984042 0 0,0 0.7010063179998887,0.42234846298171064 l -13.893048175842528 22.616738751440046" fill="#c9ff1d" stroke="none" /><path d="M 110.99172775467656 82.1063720568725 l 6.922368882410023 -11.26904668960964 a34.22537728145252,34.22537728145252 0 0,0 0.49933333818430997,0.3126824905620864 l -7.115321372966596 11.148219857724609" fill="#ff870c" stroke="none" /><path d="M 111.2981086023043 82.29822771554956 l 7.233691951488897 -11.333681787675705 a34.44539482920926,34.44539482920926 0 0,0 0.4970519258633362,0.3232963989803322 l -7.427710903136513 11.207486464535844" fill="#ff8a0c" stroke="none" /><path d="M 111.60114157652 82.49532879139004 l 9.52898227937909 -14.378042079134522 a38.2490462724779,38.2490462724779 0 0,0 0.5456778431743494,0.36844411556472545 l -9.775064816959981 14.211886051271126" fill="#ffbe11" stroke="none" /><path d="M 111.90073688211348 82.69761687909136 l 8.186439015398474 -11.90219611134059 a35.445762562968056,35.445762562968056 0 0,0 0.4997326918384019,0.35009468644524877 l -8.390102846820527 11.759516582131406" fill="#ff980e" stroke="none" /><path d="M 112.19680574252982 82.90503203632743 l 7.633271441122439 -10.698746335607291 a34.14267880028748,34.14267880028748 0 0,0 0.4754850632082038,0.34546011985207886 l -7.816301820684432 10.56576698093854" fill="#ff860c" stroke="none" /><path d="M 112.48926042617603 83.11751280151076 l 2.4111181377812687 -3.259253927464205 a25.054161668955576,25.054161668955576 0 0,0 0.34449931172715303,0.2594697393731558 l -2.4668636032668045 3.2172675985851997" fill="#ff0000" stroke="none" /><path d="M 112.77801427241765 83.33499621200491 l 8.073144497177358 -10.528942976445522 a34.26779191401292,34.26779191401292 0 0,0 0.46500976676498074,0.3629474988227643 l -8.253186819101769 10.388417088399532" fill="#ff880c" stroke="none" /><path d="M 113.06298171725822 83.55741782278167 l 9.634109977889176 -12.12660696037859 a36.4877587609559,36.4877587609559 0 0,0 0.48840880865254366,0.39492595670774744 l -9.841422185106211 11.958974906406715" fill="#ffa60f" stroke="none" /><path d="M 113.34407831869373 83.78471172551755 l 12.835511390740622 -15.597294348886635 a41.199652067984815,41.199652067984815 0 0,0 0.543722526216605,0.45535197908364816 l -13.102091453916344 15.374041212409166" fill="#ffe515" stroke="none" /><path d="M 113.6212207817346 84.01681056812373 l 8.713222043068729 -10.224126068282743 a34.43327928065063,34.43327928065063 0 0,0 0.447806766879694,0.3883336154769138 l -8.887922608595186 10.072627459386158" fill="#ff8a0c" stroke="none" /><path d="M 113.89432698308785 84.25364557470407 l 22.601940688980424 -25.614638925757397 a55.160758923143305,55.160758923143305 0 0,0 0.7065541936281904,0.6343513312846157 l -23.039505870204604 25.221788585703486" fill="#70ff27" stroke="none" /><path d="M 114.16331599549186 84.49514656593476 l 14.316749950422087 -15.672820524805813 a42.227497081513995,42.227497081513995 0 0,0 0.5324527768695725,0.49485682730034264 l -14.584410611086506 15.424059111430832" fill="#fff316" stroke="none" /><path d="M 114.42810811169701 84.74124197986012 l 11.85100497347502 -12.533286816663617 a38.2490462724779,38.2490462724779 0 0,0 0.4745008318963989,0.45646942433781496 l -12.064989048983838 12.327434305563495" fill="#ffbe11" stroke="none" /><path d="M 114.68862486808459 84.99185889309781 l 14.287431005844596 -14.598220222558293 a41.426422065870455,41.426422065870455 0 0,0 0.5053317266873607,0.5031616716590712 l -14.536598532699276 14.350122700249106" fill="#ffe815" stroke="none" /><path d="M 114.94478906791727 85.2469230424477 l 11.326937148718683 -11.181634929002922 a36.91629557580914,36.91629557580914 0 0,0 0.4425309927680938,0.45606708761999043 l -11.517732405189886 10.985003645832817" fill="#ffac0f" stroke="none" /><path d="M 115.4437574822437 85.77008943001952 l 22.79517062937039 -21.00351807883094 a51.996250994433,51.996250994433 0 0,0 0.6008200460916165,0.6634405012567325 l -23.15333431607804 20.60802479030466" fill="#94ff23" stroke="none" /><path d="M 115.9244219780498 86.31012108654704 l 21.01013584839085 -18.06195641613438 a48.70667930204152,48.70667930204152 0 0,0 0.5410833968310949,0.6404720753592381 l -21.31792985870906 17.697625391146033" fill="#bbff1f" stroke="none" /><path d="M 116.15771136456269 86.58626213691792 l 10.107287381680068 -8.390823451769398 a34.13633040139568,34.13633040139568 0 0,0 0.3714382367474686,0.4553393589009097 l -10.250224110503945 8.215599923260385" fill="#ff860c" stroke="none" /><path d="M 116.38621287248628 86.86637796730983 l 22.767348749428052 -18.248130638135624 a50.17784160736615,50.17784160736615 0 0,0 0.5343842628614213,0.6786137462624612 l -23.078087092883436 17.853524497920127" fill="#a9ff21" stroke="none" /><path d="M 116.60985879189232 87.15038557335679 l 21.967286182332003 -16.99419368817734 a48.773445614971166,48.773445614971166 0 0,0 0.5079964778173763,0.6684638181298695 l -22.25655860037349 16.61354509416644" fill="#baff1f" stroke="none" /><path d="M 116.82858285166822 87.43820079747576 l 10.527126630791082 -7.858038438598192 a34.136558270840865,34.136558270840865 0 0,0 0.34744089440885173,0.4739089895117394 l -10.66083013771356 7.675667005414957" fill="#ff860c" stroke="none" /><path d="M 117.04232023915458 87.72973835380427 l 10.67614854262496 -7.68669606915907 a34.15543401655067,34.15543401655067 0 0,0 0.3394194306845381,0.4800847138738943 l -10.80688059311338 7.5017848549533825" fill="#ff860c" stroke="none" /><path d="M 117.2510076193507 88.02491185347247 l 23.38221333672866 -16.231171647860897 a49.46364055398773,49.46364055398773 0 0,0 0.47950414551179815,0.7036131658347342 l -23.658141947909193 15.82628045875576" fill="#b2ff20" stroke="none" /><path d="M 117.45458315368197 88.32363383020206 l 23.0681212667861 -15.431581974129184 a48.75377345521538,48.75377345521538 0 0,0 0.4606148901196294,0.7015480786233748 l -23.330332792263654 15.032215831528136" fill="#baff1f" stroke="none" /><path d="M 117.65298651832404 88.62581576622439 l 12.150494564033442 -7.828814889727012 a35.454233315130125,35.454233315130125 0 0,0 0.32613235584478123,0.5158630660917793 l -12.283454516124179 7.618504175921026" fill="#ff980e" stroke="none" /><line stroke="#e1ed5e" stroke-width="0.3" x1="172.23445277983987" x2="176.4835382374775" y1="55.19839476539836" y2="52.563006222186495" /><path d="M 173.08426987136738 54.67131705675599 a86.0,86.0 0 0,1 12.851231095245387,41.99856678651699" fill="none" id="id51" stroke="none" /><text fill="#e1ed5e" style="font-size:6.75px; font-family:Arial;" text-anchor="middle"><textPath startOffset="22.20632615414155" xlink:href="#id51">March</textPath></text><path d="M 117.84615892207809 88.93136811851018 l 11.297369608763585 -7.006909776749529 a34.29388373262393,34.29388373262393 0 0,0 0.30682280803662376,0.5043360227868426 l -11.416308215086433 6.811405980755605" fill="#ff880c" stroke="none" /><path d="M 118.03404312379186 89.2402003453031 l 11.552177887742783 -6.892471022404689 a34.45209912038793,34.45209912038793 0 0,0 0.29947130421981727,0.5118935339612023 l -11.669108866432927 6.692598076089591" fill="#ff8a0c" stroke="none" /><path d="M 118.21658344932153 89.55222093294921 l 11.464402250817075 -6.5751924440473335 a34.2161142036832,34.2161142036832 0 0,0 0.2886249131356156,0.5134315148349968 l -11.575884805245122 6.376877419277544" fill="#ff870c" stroke="none" /><path d="M 118.3937258080291 89.86733742301442 l 24.284779706092756 -13.37790293747081 a48.7257788416817,48.7257788416817 0 0,0 0.39837245649471625,0.7381236595940891 l -24.511460261805937 12.957898294544261" fill="#baff1f" stroke="none" /><path d="M 118.56541770881063 90.18545643968196 l 24.710459848902914 -13.063098734775762 a48.950874306517555,48.950874306517555 0 0,0 0.38738921658609754,0.7483126629332076 l -24.931658498649128 12.635813349582211" fill="#b8ff1f" stroke="none" /><path d="M 118.73160827565052 90.50648371742162 l 49.47946603116053 -25.07708411939838 a76.47141341862627,76.47141341862627 0 0,0 0.5849698505239379,1.179263523312136 l -49.903795894637874 24.221661007587294" fill="#43ffe0" stroke="none" /><path d="M 118.89224826269711 90.83032412892265 l 12.09943808065029 -5.872669249260334 a34.44933626535891,34.44933626535891 0 0,0 0.25433749121590166,0.5356996206477302 l -12.198733765707948 5.663527212972064" fill="#ff8a0c" stroke="none" /><path d="M 119.04729006885535 91.15688171328212 l 15.645123226809273 -7.263588405742486 a38.2490462724779,38.2490462724779 0 0,0 0.27211042340332986,0.5995592483657743 l -15.76783596717595 6.993207148534649" fill="#ffbe11" stroke="none" /><path d="M 119.196687751892 91.48605970444005 l 19.50014097143675 -8.648525106600836 a42.33195922613324,42.33195922613324 0 0,0 0.28969027673124714,0.6686450993634976 l -19.646121958010678 8.311580862650736" fill="#fff417" stroke="none" /><path d="M 119.34039704204932 91.81776055985345 l 18.629520293662374 -7.881492575690317 a41.2281227896372,41.2281227896372 0 0,0 0.2708850873982315,0.6559697255472139 l -18.762427067946803 7.5596482796898" fill="#ffe615" stroke="none" /><path d="M 119.47837535516314 92.15188598940014 l 15.999209419709615 -6.446308653358043 a38.2490462724779,38.2490462724779 0 0,0 0.2407986013378515,0.6128061752458275 l -16.10780157092917 6.169953473216432" fill="#ffbe11" stroke="none" /><path d="M 119.61058180528143 92.48833698450437 l 37.05775049384998 -14.194649428868548 a60.68330812914816,60.68330812914816 0 0,0 0.3652424620031596,0.9786682110410599 l -37.29659754435476 13.554658080798154" fill="#36ff2f" stroke="none" /><path d="M 119.7369772167798 92.82701384747503 l 12.469214566958502 -4.5316718177905875 a34.2671534769523,34.2671534769523 0 0,0 0.1967047514792392,0.5561108209785158 l -12.545372399247551 4.316363370385457" fill="#ff880c" stroke="none" /><path d="M 119.85752413597 93.16781622104841 l 16.31063584181872 -5.611840673581369 a38.2490462724779,38.2490462724779 0 0,0 0.20884472172624316,0.6244191357035442 l -16.404817857316733 5.330248434955511" fill="#ffbe11" stroke="none" /><path d="M 119.97218684219823 93.5106431181261 l 16.404817857316733 -5.330248434955511 a38.2490462724779,38.2490462724779 0 0,0 0.19806543015371933,0.6279215398469024 l -16.49413877123866 5.04707672868219" fill="#ffbe11" stroke="none" /><path d="M 120.08093135843002 93.85539295169968 l 12.608077828903536 -3.857972646297445 a34.18512720754973,34.18512720754973 0 0,0 0.16733473730582918,0.5641695476413523 l -12.672618463321067 3.640373711909563" fill="#ff860c" stroke="none" /><path d="M 120.18372546131832 94.20196356495316 l 16.578572115869996 -4.762409464649325 a38.2490462724779,38.2490462724779 0 0,0 0.17633398535215225,0.6343671653195011 l -16.65809287178851 4.476330995910872" fill="#ffbe11" stroke="none" /><path d="M 120.28053869075195 94.5502522615342 l 19.067376761270978 -5.123749174897237 a40.74380060078395,40.74380060078395 0 0,0 0.17617554990934037,0.6788762603304381 l -19.15274864305062 4.7947764890179485" fill="#ffe014" stroke="none" /><path d="M 120.37134235888165 94.90015583598534 l 28.487155669714873 -7.131589663173664 a50.366266519161975,50.366266519161975 0 0,0 0.20330511305460028,0.8428309467148531 l -28.60569358303029 6.640173484799405" fill="#a7ff21" stroke="none" /><path d="M 120.45610955862082 95.25157060432595 l 14.10129975015361 -3.2733020938784527 a35.476227451980414,35.476227451980414 0 0,0 0.13296086802206003,0.5960375003366453 l -14.155555005177707 3.0300864239918437" fill="#ff980e" stroke="none" /><path d="M 120.53481517161879 95.60439243477599 l 16.866951290096843 -3.6104780137239523 a38.2490462724779,38.2490462724779 0 0,0 0.13227012718510514,0.6449961149341218 l -16.926600713196947 3.3196062426264192" fill="#ffbe11" stroke="none" /><path d="M 120.6074358757038 95.95851677861258 l 19.3770767676364 -3.8001880053533883 a40.74620300044811,40.74620300044811 0 0,0 0.12905734266651075,0.6894294850580901 l -19.439619834212767 3.4660804428327348" fill="#ffe014" stroke="none" /><path d="M 120.73433829027371 96.67025291283417 l 17.03083621895912 -2.734998170579614 a38.2490462724779,38.2490462724779 0 0,0 0.0987993019928305,0.6509639565685666 l -17.07539141439125 2.4414351016189646" fill="#ffbe11" stroke="none" /><path d="M 120.78858239683441 97.02765380044208 l 19.768535653411554 -2.8265001768081337 a40.969579493061445,40.969579493061445 0 0,0 0.0938086332830677,0.6989832793184569 l -19.81426028575246 2.485798555425013" fill="#ffe215" stroke="none" /><path d="M 120.83666639777658 97.38593545837742 l 28.993442332393695 -3.637373085206026 a50.220714933807145,50.220714933807145 0 0,0 0.10022535403729753,0.858669626799335 l -29.05175803943458 3.1377597200818386" fill="#a9ff21" stroke="none" /><path d="M 120.87857604477298 97.74499172005257 l 17.149310680939898 -1.8522258174111428 a38.2490462724779,38.2490462724779 0 0,0 0.06506504156030227,0.6551960891156486 l -17.178652848182427 1.5567541975910593" fill="#ffbe11" stroke="none" /><path d="M 120.91429891909075 98.10471618934814 l 19.75231536174078 -1.7899831915391282 a40.83325495161229,40.83325495161229 0 0,0 0.05741061570364404,0.7005549273415648 l -19.780200461263917 1.4497143469897946" fill="#ffe115" stroke="none" /><path d="M 120.94382443527127 98.46500227214037 l 17.20290460984035 -1.260821277904726 a38.2490462724779,38.2490462724779 0 0,0 0.042473578748521354,0.6570474639886967 l -17.222058779593286 0.9645147496629942" fill="#ffbe11" stroke="none" /><path d="M 120.96714384426684 98.82574320788733 l 15.924506405788314 -0.8918458301678373 a36.9494605944145,36.9494605944145 0 0,0 0.030098664213763743,0.635335230329248 l -15.937498678235574 0.6175994932155895" fill="#ffad10" stroke="none" /><path d="M 120.98425023603335 99.18683210126433 l 16.132415871248053 -0.6251527964066295 a37.14452408285085,37.14452408285085 0 0,0 0.019259091786368115,0.6391154957535746 l -16.140786657490064 0.34736715322805567" fill="#ffaf10" stroke="none" /><line stroke="#e1ed5e" stroke-width="0.3" x1="184.98032266829074" x2="189.97916517819016" y1="98.17113171792111" y2="98.06355123074" /><path d="M 185.9800911702706 98.14961562048488 a86.0,86.0 0 0,1 -9.607161424134198,41.387399972396054" fill="none" id="id52" stroke="none" /><text fill="#e1ed5e" style="font-size:6.75px; font-family:Arial;" text-anchor="middle"><textPath startOffset="21.466115282336823" xlink:href="#id52">April</textPath></text><path d="M 120.99513854157772 99.54816195383933 l 27.757992949257314 -0.5973819736743453 a48.764420357599576,48.764420357599576 0 0,0 0.010837295367506862,0.8393604693319283 l -27.764163251742538 0.11948524628195432" fill="#baff1f" stroke="none" /><path d="M 120.99980553446 99.90962569577887 l 19.96488232725296 -0.0859204313212046 a40.965067209042296,40.965067209042296 0 0,0 -0.0030347364806094443,0.7051658819437059 l -19.963403293482845 -0.25775492882618606" fill="#ffe215" stroke="none" /><path d="M 120.99824983174949 100.27111621757518 l 17.24760871375706 0.22269029438921692 a38.2490462724779,38.2490462724779 0 0,0 -0.014166604012646779,0.6582664218661266 l -17.241220047059407 -0.5195465320454583" fill="#ffbe11" stroke="none" /><path d="M 120.9904718944345 100.63252640178507 l 19.949796772518212 0.6011667213737175 a40.95885248935082,40.95885248935082 0 0,0 -0.027301741700623716,0.7045366407309775 l -19.936492897966385 -0.9444806091187012" fill="#ffe215" stroke="none" /><path d="M 120.9764740272857 100.99374915477107 l 13.275037801624592 0.628897763168321 a34.28992629893334,34.28992629893334 0 0,0 -0.03300593039519617,0.5893430593361352 l -13.262245520341866 -0.8573125388398796" fill="#ff880c" stroke="none" /><path d="M 120.95626037817324 101.35467743843564 l 17.21311928386692 1.112709229517057 a38.2490462724779,38.2490462724779 0 0,0 -0.04812721096789778,0.656657556409827 l -17.191415514234684 -1.408839922423654" fill="#ffbe11" stroke="none" /><path d="M 120.92983693683757 101.71520430193887 l 17.191415514234684 1.408839922423654 a38.2490462724779,38.2490462724779 0 0,0 -0.059423360793162766,0.6557318346837597 l -17.164617557164448 -1.7045531456559848" fill="#ffbe11" stroke="none" /><path d="M 120.89721153311464 102.0752229133903 l 19.861263015826967 1.9723467905754741 a40.958955895691275,40.958955895691275 0 0,0 -0.07571106670431701,0.7009904476509554 l -19.824369647621598 -2.3139335601112205" fill="#ffe215" stroke="none" /><path d="M 120.8583938346157 102.4346265915055 l 27.680936236145666 3.2309651439434672 a48.868860160956345,48.868860160956345 0 0,0 -0.10471547390808887,0.8346853575212889 l -27.621219252990727 -3.7069682557521517" fill="#b9ff1f" stroke="none" /><path d="M 120.81339534386255 102.79330883721812 l 17.09577235112672 2.294376827928413 a38.2490462724779,38.2490462724779 0 0,0 -0.09319279763054038,0.6517902095731934 l -17.053745502479583 -2.588312509482016" fill="#ffbe11" stroke="none" /><path d="M 120.76222939487914 103.15116336523771 l 20.186697069584422 3.0638126118823776 a41.41787663543636,41.41787663543636 0 0,0 -0.11304762032493797,0.7039476396757978 l -20.130967694898196 -3.4108394812513803" fill="#ffe815" stroke="none" /><path d="M 120.70491114924044 103.5080841355445 l 17.00666526099009 2.8814812181787 a38.2490462724779,38.2490462724779 0 0,0 -0.11557324110103406,0.6481961128910654 l -16.954545577549865 -3.173796081802984" fill="#ffbe11" stroke="none" /><path d="M 120.64145759157962 103.86396538481128 l 13.45884889814672 2.5194212197039247 a34.69262929263184,34.69262929263184 0 0,0 -0.1149318354828017,0.5860349530229361 l -13.413487129688255 -2.7507198997948055" fill="#ff8e0d" stroke="none" /><path d="M 120.5718875245553 104.21870165774334 l 28.574480078529895 5.859802914660059 a50.16913097706136,50.16913097706136 0 0,0 -0.18076645341612702,0.8444806901091133 l -28.469379586389326 -6.350797424185342" fill="#a9ff21" stroke="none" /><path d="M 120.49622156327973 104.57218783832717 l 19.478495191772712 4.3451588650023565 a40.957258842286464,40.957258842286464 0 0,0 -0.15942015041925509,0.6867778355931771 l -19.400814475422905 -4.679805357944098" fill="#ffe215" stroke="none" /><path d="M 120.41448212921028 104.9243191809786 l 19.404455915571425 4.680683735042094 a40.96100472438305,40.96100472438305 0 0,0 -0.17123394142416148,0.6839944774834692 l -19.321010659852202 -5.0140060519229595" fill="#ffe215" stroke="none" /><path d="M 120.32669344350535 105.2749913415812 l 16.697712448866685 4.333232497296668 a38.25081171715306,38.25081171715306 0 0,0 -0.17087534422260078,0.6358907230406243 l -16.620649028302307 -4.620014153512841" fill="#ffbe11" stroke="none" /><path d="M 120.23288151984713 105.62410040840565 l 19.229652561582668 5.34523452425738 a40.958734172248896,40.958734172248896 0 0,0 -0.19466586924835116,0.6776574286163287 l -19.134794055448214 -5.675449428378291" fill="#ffe215" stroke="none" /><path d="M 120.13307415673323 105.97154293290107 l 16.536967987462873 4.90492477941424 a38.2490462724779,38.2490462724779 0 0,0 -0.19265357489534582,0.6296030296192329 l -16.450087640061394 -5.18885478158553" fill="#ffbe11" stroke="none" /><path d="M 120.02730092923936 106.31721596034902 l 12.654095105626949 3.991484017116482 a34.26868748600057,34.26868748600057 0 0,0 -0.1822894256994681,0.5610291644763885 l -12.583513428911234 -4.208712081570666" fill="#ff880c" stroke="none" /><path d="M 119.9155931802556 106.66101706037122 l 18.93155861079855 6.3318944981747425 a40.96238461131626,40.96238461131626 0 0,0 -0.2294072388914617,0.6667648193667941 l -18.819760540963856 -6.656832020630837" fill="#ffe215" stroke="none" /><path d="M 119.79798401119884 107.00284435728193 l 16.261730586235537 5.7520183979865065 a38.2490462724779,38.2490462724779 0 0,0 -0.22489663115902314,0.6188189396899447 l -16.160309694071287 -6.031085134682582" fill="#ffbe11" stroke="none" /><path d="M 119.67450827220406 107.3425965602758 l 16.160309694071287 6.031085134682582 a38.2490462724779,38.2490462724779 0 0,0 -0.2355152611011452,0.6148560291760514 l -16.054100153376634 -6.308364730691777" fill="#ffbe11" stroke="none" /><path d="M 119.54520255179757 107.68017299344265 l 25.907071075988167 10.180032009885934 a48.8353980294625,48.8353980294625 0 0,0 -0.3141683145466701,0.7797399919488855 l -25.728000147184105 -10.624471369677634" fill="#b9ff1f" stroke="none" /><path d="M 119.41010516605496 108.01547362559984 l 15.951777682422529 6.587344694994106 a38.25839857461,38.25839857461 0 0,0 -0.25660275716130404,0.6065331187002385 l -15.836023944068916 -6.860952339360508" fill="#ffbe11" stroke="none" /><path d="M 119.26925614724726 108.34839909993367 l 18.309604229060657 7.932630211460868 a40.95415317914087,40.95415317914087 0 0,0 -0.2858188697944846,0.6444460974085896 l -18.1703442745349 -8.246624645362145" fill="#ffe215" stroke="none" /><path d="M 119.12269723197855 108.67885076344098 l 15.707061400427758 7.128661829072555 a38.2490462724779,38.2490462724779 0 0,0 -0.27726074877804613,0.5971949865937595 l -15.58202603480988 -7.397976882945145" fill="#ffbe11" stroke="none" /><path d="M 118.97047184881838 109.00673069616215 l 18.026222539327314 8.558423489657283 a40.95473156085217,40.95473156085217 0 0,0 -0.3078367144332947,0.6342348099555533 l -17.876232568279306 -8.86744725557811" fill="#ffe215" stroke="none" /><path d="M 118.81262510543309 109.33194174019688 l 17.87826619498014 8.86845602951514 a40.95700164067772,40.95700164067772 0 0,0 -0.31872608046121037,0.6288767943010652 l -17.722961444732658 -9.1748870355189" fill="#ffe215" stroke="none" /><path d="M 118.64920377521936 109.65438752849418 l 26.140867654796097 13.532699289061842 a50.43601385707208,50.43601385707208 0 0,0 -0.40576371601366024,0.7675520346489477 l -25.904051430557544 -13.980666338796924" fill="#a6ff21" stroke="none" /><line stroke="#e1ed5e" stroke-width="0.3" x1="174.80103733775053" x2="179.2010983576182" y1="140.37084112569926" y2="142.7455964860345" /><path d="M 175.68104954172406 140.8457921977663 a86.0,86.0 0 0,1 -30.038265399797805,32.042727171017184" fill="none" id="id53" stroke="none" /><text fill="#e1ed5e" style="font-size:6.75px; font-family:Arial;" text-anchor="middle"><textPath startOffset="22.206326154141568" xlink:href="#id53">May</textPath></text><path d="M 118.48025628344425 109.97397251340804 l 17.5853238716071 9.490968861287802 a40.983045453465024,40.983045453465024 0 0,0 -0.34040047331454076,0.6179257350671322 l -17.41934698884105 -9.79226511475274" fill="#ffe315" stroke="none" /><path d="M 118.30583269289576 110.29060199501023 l 15.041739220573556 8.45569574618309 a38.25551243318377,38.25551243318377 0 0,0 -0.3276275022512346,0.5712461659793745 l -14.893959722169942 -8.713361758020783" fill="#ffbe11" stroke="none" /><path d="M 118.12598468904814 110.60418214915192 l 17.22775722163764 10.078695239657435 a40.959351608245726,40.959351608245726 0 0,0 -0.3612597731832184,0.6054921594784113 l -17.051716572756188 -10.37374949302195" fill="#ffe215" stroke="none" /><path d="M 117.94076556474637 110.91462005526583 l 14.736242637618485 8.965085065704544 a38.2490462724779,38.2490462724779 0 0,0 -0.34703789589921075,0.5595355874611766 l -14.579740102051314 -9.217416984530992" fill="#ffbe11" stroke="none" /><path d="M 117.75023020441432 111.22182372390056 l 16.8912336536328 10.678759900992404 a40.983735570825104,40.983735570825104 0 0,0 -0.3821150526385021,0.5930510473573559 l -16.704913737617247 -10.967932548271214" fill="#ffe315" stroke="none" /><path d="M 117.55443506779139 111.5257021239791 l 14.418917274835342 9.467017583776773 a38.2490462724779,38.2490462724779 0 0,0 -0.3660923581795092,0.5472584034149328 l -14.253821811245112 -9.713812901397512" fill="#ffbe11" stroke="none" /><path d="M 117.35343817320211 111.8261652097733 l 16.84487551885509 11.47958570721015 a41.3845706173789,41.3845706173789 0 0,0 -0.40623704021670964,0.5852147550223377 l -16.644777571476244 -11.767841724419505" fill="#ffe815" stroke="none" /><path d="M 117.14729908036423 112.12312394758627 l 10.978394798192369 7.76171455692574 a34.44504984030071,34.44504984030071 0 0,0 -0.34645193232862026,0.48119143246214424 l -10.843163073488146 -7.949539594839018" fill="#ff8a0c" stroke="none" /><path d="M 116.93607887273984 112.41649034213513 l 13.91100991191547 10.198696021583997 a38.2490462724779,38.2490462724779 0 0,0 -0.3938535864800724,0.52763124172329 l -13.733395058740307 -10.436640142816602" fill="#ffbe11" stroke="none" /><path d="M 116.71984013943494 112.70617746262582 l 15.91163102961371 12.09198209409006 a40.984895120724566,40.984895120724566 0 0,0 -0.4316942570350821,0.558023020189311 l -15.70112995536056 -12.364083108392624" fill="#ffe315" stroke="none" /><path d="M 116.498646956653 112.99209946851258 l 15.698312986359154 12.361864845188244 a40.98130959342739,40.98130959342739 0 0,0 -0.4411971447432623,0.5504612752294523 l -15.483197929561037 -12.630253953995947" fill="#ffe315" stroke="none" /><path d="M 116.27256486870786 113.27417163493432 l 13.366010685344763 10.903180988561699 a38.2490462724779,38.2490462724779 0 0,0 -0.4205646564081953,0.5065972212773483 l -13.176350029043023 -11.131639466952816" fill="#ffbe11" stroke="none" /><path d="M 116.0416608686014 113.55231037782055 l 21.20134129329663 17.9113098067825 a48.75449317911224,48.75449317911224 0 0,0 -0.5471124528446696,0.6364153856746491 l -20.88988633088118 -18.27360229161868" fill="#baff1f" stroke="none" /><path d="M 115.80600337817218 113.82643327865902 l 15.018137825346505 13.137241315449554 a40.953234653094675,40.953234653094675 0 0,0 -0.46870226319744784,0.5265919613809097 l -14.789776712500723 -13.393807446571326" fill="#ffe215" stroke="none" /><path d="M 115.56566222782051 114.09645910891815 l 12.785372763306546 11.578594068943898 a38.2490462724779,38.2490462724779 0 0,0 -0.4461543464372006,0.4842124265039925 l -12.58417200887362 -11.796957750249227" fill="#ffbe11" stroke="none" /><path d="M 115.32070863581623 114.36230785411682 l 20.266337658795436 18.99855858172541 a48.77894292955659,48.77894292955659 0 0,0 -0.5795250805516126,0.6076297300476262 l -19.936306026864862 -19.34459542835554" fill="#baff1f" stroke="none" /><path d="M 115.07121518719521 114.62390073753431 l 12.399405472913726 12.031390474365304 a38.27714133843823,38.27714133843823 0 0,0 -0.46289708995098533,0.4689123082170904 l -12.190467757907205 -12.24304327656306" fill="#ffbf11" stroke="none" /><path d="M 114.81725581225074 114.88116024355365 l 11.389764427139603 11.438886641644986 a37.14233134668406,37.14233134668406 0 0,0 -0.45693919391856463,0.4472111742011847 l -11.191175280845243 -11.63324791876874" fill="#ffaf10" stroke="none" /><path d="M 114.55890576462653 115.13401014063108 l 14.807882261734797 15.392821681342497 a42.35912770669738,42.35912770669738 0 0,0 -0.5298202350006138,0.5009781019047476 l -14.540726192343376 -15.645434419993167" fill="#fff517" stroke="none" /><path d="M 114.29624159901734 115.38237550388516 l 13.593113046881612 14.6258278936938 a40.96716213890333,40.96716213890333 0 0,0 -0.5206740015208254,0.47562335532785266 l -13.339339495893924 -14.857644015608235" fill="#ffe215" stroke="none" /><path d="M 114.0293411484842 115.62618273729858 l 13.425605126370629 14.953728535295243 a41.09628995900817,41.09628995900817 0 0,0 -0.5304506505027323,0.4680610246290765 l -13.166212122961308 -15.182612701696609" fill="#ffe415" stroke="none" /><path d="M 113.75828350139079 115.86535959552629 l 13.19933480097964 15.220808105758064 a41.1468468644764,41.1468468644764 0 0,0 -0.5390913382102349,0.4594253337595777 l -12.935377986192359 -15.445757829740588" fill="#ffe515" stroke="none" /><path d="M 113.48314897796784 116.09983520530334 l 11.074831458080014 13.224133449311713 a38.2490462724779,38.2490462724779 0 0,0 -0.5084024461583294,0.4183806013259914 l -10.845558883376995 -13.412809169494883" fill="#ffbe11" stroke="none" /><path d="M 113.20401910651253 116.32954008644616 l 13.235559723529484 16.368546677225446 a42.05016298083281,42.05016298083281 0 0,0 -0.5667611219875688,0.4502693126164961 l -12.951841108824564 -16.59394990384707" fill="#fff116" stroke="none" /><path d="M 112.92097659922987 116.55440617244103 l 12.298296782718275 15.756626336006027 a40.98798081969105,40.98798081969105 0 0,0 -0.5599178178204316,0.42932110658411043 l -12.02525023640435 -15.96598678441751" fill="#ffe315" stroke="none" /><path d="M 112.63410532772338 116.77436683061366 l 12.709239245825815 16.87412252133963 a42.12488516117473,42.12488516117473 0 0,0 -0.5829583212966369,0.43125862953010946 l -12.416895954110613 -17.090391099609505" fill="#fff216" stroke="none" /><path d="M 112.34349029814194 116.9893568818739 l 16.396711207663103 22.56813686141455 a48.89575128622714,48.89575128622714 0 0,0 -0.6851753994206856,0.4888544549514897 l -16.005808480393533 -22.84703557821026" fill="#b8ff1f" stroke="none" /><path d="M 112.04921762599082 117.19931262002967 l 11.727296034367857 16.739794810216225 a41.43893839136079,41.43893839136079 0 0,0 -0.5877286908763478,0.4042451527810794 l -11.437410458868625 -16.939180752362397" fill="#ffe915" stroke="none" /><path d="M 111.7513745106137 117.40417183066458 l 9.65238108089491 14.295493582918558 a38.2490462724779,38.2490462724779 0 0,0 -0.5488288281411169,0.363733820570646 l -9.40487755401383 -14.459525424580523" fill="#ffbe11" stroke="none" /><path d="M 111.45004920935366 117.60387380957326 l 10.887245427079101 16.738591348200213 a40.96778789229037,40.96778789229037 0 0,0 -0.5944585952696334,0.3794116013360543 l -10.597505029762537 -16.923517378360078" fill="#ffe215" stroke="none" /><path d="M 111.1453310114006 117.79835938074945 l 10.594184695563396 16.9182150233847 a40.96153172833161,40.96153172833161 0 0,0 -0.6008097035694677,0.36906639139884084 l -10.30139579206162 -17.09806988161192" fill="#ffe215" stroke="none" /><line stroke="#e1ed5e" stroke-width="0.3" x1="143.8653032363475" x2="146.44561519142675" y1="172.8068346515853" y2="177.08958963109032" /><path d="M 144.38136562736335 173.6633856474863 a86.0,86.0 0 0,1 -40.68145358897372,12.25698825130547" fill="none" id="id54" stroke="none" /><text fill="#e1ed5e" style="font-size:6.75px; font-family:Arial;" text-anchor="middle"><textPath startOffset="21.466115282336833" xlink:href="#id54">June</textPath></text><path d="M 110.8373102113329 117.98757091392108 l 15.31695705056991 25.42280748266256 a50.68043654647833,50.68043654647833 0 0,0 -0.7511133411224497,0.4437710013782129 l -14.877075838419078 -25.682697056334522" fill="#a3ff21" stroke="none" /><path d="M 110.5260780823613 118.17145234162733 l 10.661313737353305 18.404913298343395 a42.269801224407715,42.269801224407715 0 0,0 -0.6327411493756392,0.3592869381451007 l -10.342923821056468 -18.585703402283126" fill="#fff316" stroke="none" /><path d="M 110.21172684928248 118.3499491758327 l 8.394998932985914 15.085382328091272 a38.263973096292844,38.263973096292844 0 0,0 -0.5782910565730978,0.31533039262505314 l -8.134085064544166 -15.227653372476096" fill="#ffbf11" stroke="none" /><path d="M 109.89434966115114 118.52300852407294 l 13.0848713700975 24.495918602548716 a48.77163817556843,48.77163817556843 0 0,0 -0.743904733634316,0.3891757975284778 l -12.661275733936689 -24.717523819021913" fill="#baff1f" stroke="none" /><path d="M 109.57404056367764 118.69057910512821 l 12.689739081943173 24.773090374644237 a48.8340705732756,48.8340705732756 0 0,0 -0.7514542417951575,0.3767947567702553 l -12.261430932465254 -24.987852972323793" fill="#b9ff1f" stroke="none" /><path d="M 109.2508944713604 118.85261126421891 l 8.794504765992757 17.92252415459672 a40.9639722037267,40.9639722037267 0 0,0 -0.6356971242659581,0.3051732508982872 l -8.484694973726567 -18.071251681994564" fill="#ffe215" stroke="none" /><path d="M 108.92500713936063 119.00905698771935 l 8.491229313202266 18.085168940494324 a40.979347107841285,40.979347107841285 0 0,0 -0.6410965255943667,0.29429597110144406 l -8.17866479184048 -18.228651981929843" fill="#ffe315" stroke="none" /><path d="M 108.59647513512805 119.15986991738527 l 8.186484860078986 18.246081391989158 a40.9984504531575,40.9984504531575 0 0,0 -0.6463685388623306,0.283348972416866 l -7.871195646558903 -18.38429491770048" fill="#ffe315" stroke="none" /><path d="M 108.2653958097858 119.30500536409082 l 15.613879771153742 36.46843293088509 a60.67038998979602,60.67038998979602 0 0,0 -0.9635860297626877,0.4027790385899458 l -14.983822281893593 -36.73179701249501" fill="#36ff2f" stroke="none" /><path d="M 107.93186726928326 119.44442032107085 l 23.79560180784979 58.33326096321254 a84.0,84.0 0 0,0 -1.343515695832535,0.5346126223757244 l -22.787965035975386 -58.73422042999433" fill="#4dd2ff" stroke="none" /><path d="M 107.59598834532513 119.57807347666477 l 7.1406250786926755 18.40440981534663 a40.74109488264727,40.74109488264727 0 0,0 -0.6559894008882962,0.24803906063420184 l -6.822765457044104 -18.524597126087464" fill="#ffdf14" stroke="none" /><path d="M 107.2578585660854 119.70592522655815 l 5.9614827735955815 16.186115051185283 a38.2490462724779,38.2490462724779 0 0,0 -0.6197810605282087,0.22223143755149408 l -5.681982152437638 -16.28633402977674" fill="#ffbe11" stroke="none" /><path d="M 106.57524785965236 119.94407469862006 l 8.589968530454806 26.055135515339177 a48.43460672356892,48.43460672356892 0 0,0 -0.7940476787542669,0.2542289915378875 l -8.1401995066096 -26.199137353536774" fill="#beff1f" stroke="none" /><path d="M 106.2309692047433 120.05430185196036 l 8.278323584019939 26.643688088806314 a48.90012108101576,48.90012108101576 0 0,0 -0.8059788409067454,0.24283481321995506 l -7.818469768672948 -26.782238271131995" fill="#b8ff1f" stroke="none" /><path d="M 105.88484417918355 120.15858648285463 l 7.768585616027468 26.611359659123043 a48.7221100456071,48.7221100456071 0 0,0 -0.8070906432878215,0.2280918776036713 l -7.3093638046350415 -26.741140330065235" fill="#baff1f" stroke="none" /><path d="M 105.53697534728816 120.25689768951611 l 7.366853714566923 26.951465850882297 a48.940151129925965,48.940151129925965 0 0,0 -0.8145262166742268,0.21512377693724505 l -6.901837055081198 -27.074280977123127" fill="#b8ff1f" stroke="none" /><path d="M 105.18746579009965 120.34920634021253 l 7.660009263446544 30.04841195623936 a52.009398623771396,52.009398623771396 0 0,0 -0.8694156452074254,0.21368121281442945 l -7.141640333495908 -30.17581442736782" fill="#94ff23" stroke="none" /><path d="M 104.83641907484287 120.43548508189849 l 6.394700019084661 27.019742255785886 a48.76614233024067,48.76614233024067 0 0,0 -0.8185277411071251,0.18629424897845043 l -5.928652128584674 -27.12581323834202" fill="#baff1f" stroke="none" /><path d="M 104.48393922423573 120.51570834832081 l 3.6538429514279938 16.717705703257234 a38.11234210429477,38.11234210429477 0 0,0 -0.6421177172106721,0.13456201083511843 l -3.3655337727879435 -16.778123694818895" fill="#ffbd11" stroke="none" /><path d="M 103.7750983002368 120.6578951692458 l 4.259473280474269 23.308466563300172 a44.69446615054993,44.69446615054993 0 0,0 -0.7579990518583812,0.13178785125175355 l -3.8576252571438383 -23.37833299307293" fill="#ecff1a" stroke="none" /><path d="M 103.41894727170886 120.7198165907248 l 0.8714680422669965 5.281350241890419 a26.35276722137332,26.35276722137332 0 0,0 -0.4482030164832181,0.07000009341409105 l -0.7804291621752613 -5.295568642651615" fill="#ff1402" stroke="none" /><path d="M 103.06178313531737 120.77559828337769 l 2.3020413758947313 15.62040312575745 a36.78912246793673,36.78912246793673 0 0,0 -0.6272920433854434,0.08693696131510559 l -2.032820741322457 -15.657714652565158" fill="#ffab0f" stroke="none" /><path d="M 102.70371172650421 120.8252237178851 l 1.7428615457939112 13.424316373915294 a34.53698033073763,34.53698033073763 0 0,0 -0.5902083395864574,0.07146601046167421 l -1.5115257831560733 -13.45232791310232" fill="#ff8b0c" stroke="none" /><path d="M 102.34483914955558 120.86867818915974 l 1.8260079014548873 16.25116642800303 a37.35343129520005,37.35343129520005 0 0,0 -0.6395750618421954,0.06629457022459735 l -1.5460002430070892 -16.280190366683385" fill="#ffb210" stroke="none" /><path d="M 101.98527174616119 120.90594882070398 l 1.2429977333839066 13.089415617092609 a34.14830196497576,34.14830196497576 0 0,0 -0.5856526186744613,0.05053257223693377 l -1.0175007969679033 -13.108872441608206" fill="#ff860c" stroke="none" /><path d="M 101.62511606390274 120.93702456842531 l 0.7151670050670939 9.21378447251205 a30.241498155117533,30.241498155117533 0 0,0 -0.5193433525986032,0.03581695825835625 l -0.5564608916895606 -9.22472977528669" fill="#ff4e07" stroke="none" /><path d="M 101.26447882468166 120.96189622390904 l 1.2662979707104576 20.992053115054546 a42.030211709250494,42.030211709250494 0 0,0 -0.7225432340069956,0.03734723201524661 l -0.9047666682899823 -21.010740153831993" fill="#fff016" stroke="none" /><path d="M 100.90346689309514 120.98055641714683 l 1.2011487378999013 27.893406004684387 a48.91925602219231,48.91925602219231 0 0,0 -0.8415967434302517,0.028986293501412592 l -0.7208316427949975 -27.909949096611893" fill="#b8ff1f" stroke="none" /><line stroke="#e1ed5e" stroke-width="0.3" x1="102.19456741930631" x2="102.32365962044197" y1="184.97166512339345" y2="189.96999836594603" /><path d="M 102.22038585953345 185.97133177190398 a86.0,86.0 0 0,1 -42.740103519485714,-10.115201625700543" fill="none" id="id55" stroke="none" /><text fill="#e1ed5e" style="font-size:6.75px; font-family:Arial;" text-anchor="middle"><textPath startOffset="22.20632615414155" xlink:href="#id55">July</textPath></text><path d="M 99.81925306533755 120.99922214144158 l -0.14846248760005276 17.24840735256039 a38.2490462724779,38.2490462724779 0 0,0 -0.6583212926682906,-0.01133359807052225 l 0.44534347016101145 -17.243296277210707" fill="#ffbe11" stroke="none" /><path d="M 99.45781275523022 120.99299961872073 l -0.41494392255321055 16.066253295296175 a37.071610790691736,37.071610790691736 0 0,0 -0.6377723099674103,-0.021966167892284477 l 0.691436584195264 -16.056730328977796" fill="#ffae10" stroke="none" /><path d="M 99.09653310690486 120.98055641714683 l -0.5766888825312783 13.392027674239044 a34.40443864154033,34.40443864154033 0 0,0 -0.5914482309110513,-0.03057111777567194 l 0.8071251818558185 -13.38011674970117" fill="#ff890c" stroke="none" /><path d="M 98.73552117531835 120.96189622390904 l -1.2033160239349752 19.94796996671119 a40.984230664358094,40.984230664358094 0 0,0 -0.7038304665901723,-0.04854026977852456 l 1.5465092513040775 -19.924301352416382" fill="#ffe315" stroke="none" /><path d="M 98.37488393609728 120.93702456842531 l -1.5318070599021592 19.734887101072125 a40.79424668333779,40.79424668333779 0 0,0 -0.6996323688789224,-0.060367224686351285 l 1.8712837465226233 -19.70559562410711" fill="#ffe015" stroke="none" /><path d="M 98.01472825383883 120.90594882070398 l -1.6309508814265172 17.174764977195544 a38.25203039643533,38.25203039643533 0 0,0 -0.6549611068671504,-0.06788939670117056 l 1.9263445848992613 -17.144146212038613" fill="#ffbe11" stroke="none" /><path d="M 97.65516085044442 120.86867818915974 l -2.2212931324314353 19.769139198007657 a40.89354186188045,40.89354186188045 0 0,0 -0.6988367023109017,-0.08461939238837328 l 2.5612572577937263 -19.727974276893935" fill="#ffe115" stroke="none" /><path d="M 97.2962882734958 120.8252237178851 l -1.7084038623465871 13.15890754369277 a34.26934404936187,34.26934404936187 0 0,0 -0.5843272525170577,-0.08098243279680939 l 1.9346597060504753 -13.127550545403356" fill="#ff880c" stroke="none" /><path d="M 96.93821686468263 120.77559828337769 l -1.9312503766617202 13.104416686907806 a34.245960317072665,34.245960317072665 0 0,0 -0.5824489924544872,-0.09096655395286475 l 2.156535232724725 -13.069231825607835" fill="#ff870c" stroke="none" /><path d="M 96.58105272829116 120.7198165907248 l -2.2673134427534176 13.740580054062985 a34.926386841884145,34.926386841884145 0 0,0 -0.5923365998334343,-0.10298531049403295 l 2.5034990140589013 -13.699516165047946" fill="#ff910d" stroke="none" /><path d="M 96.22490169976321 120.6578951692458 l -4.985857829347513 27.283350041762827 a48.73517564025556,48.73517564025556 0 0,0 -0.8239316981822549,-0.15790847093059415 l 5.454757142101463 -27.193484372483763" fill="#baff1f" stroke="none" /><path d="M 95.86986931433489 120.58985236759428 l -3.394193721364883 16.92100152483775 a38.25806604523561,38.25806604523561 0 0,0 -0.6445728779048947,-0.13507651362967663 l 3.684958060699165 -16.860069030481533" fill="#ffbe11" stroke="none" /><path d="M 95.16358092515715 120.4354850818985 l -3.1749009904935894 13.415016528493176 a34.785596278695465,34.785596278695465 0 0,0 -0.581493776756421,-0.1429170226534289 l 3.4053480519932213 -13.358378247525717" fill="#ff8f0d" stroke="none" /><path d="M 94.81253420990036 120.34920634021253 l -3.275762410435609 12.850044300761699 a34.26100516179528,34.26100516179528 0 0,0 -0.5702166068063033,-0.1505993884756356 l 3.4964694600534005 -12.791753562982482" fill="#ff870c" stroke="none" /><path d="M 94.11515582081647 120.15858648285463 l -3.723475870054842 12.754799967148282 a34.28718159569013,34.28718159569013 0 0,0 -0.5651262669609609,-0.17026790843388115 l 3.9424771114560486 -12.688816689608675" fill="#ff880c" stroke="none" /><path d="M 93.76903079525671 120.05430185196036 l -5.93499165426322 19.1017015511576 a41.002478048623644,41.002478048623644 0 0,0 -0.6722037138342092,-0.21521840167607875 l 6.262916713188369 -18.996710302821814" fill="#ffe315" stroke="none" /><path d="M 93.42475214034765 119.94407469862007 l -8.694955548515711 26.373582663687923 a48.7699138369035,48.7699138369035 0 0,0 -0.7950198870674124,-0.26971391058351774 l 9.14764516852035 -26.22000576620628" fill="#baff1f" stroke="none" /><path d="M 93.08242187328487 119.8279376855182 l -6.640200892964176 19.032887972244207 a41.157953578250954,41.157953578250954 0 0,0 -0.6669165012946928,-0.23913252961169842 l 6.966836954888596 -18.915767901592552" fill="#ffe515" stroke="none" /><path d="M 92.7421414339146 119.70592522655815 l -5.96823615262447 16.20445125613585 a38.26858660359835,38.26858660359835 0 0,0 -0.6161785114328906,-0.2329859887245668 l 6.246284884817642 -16.09931701730465" fill="#ffbf11" stroke="none" /><path d="M 92.40401165467489 119.57807347666478 l -7.217679361474223 18.603011279883834 a40.954120477849585,40.954120477849585 0 0,0 -0.6550298056072487,-0.2606498779256536 l 7.53683024312333 -18.476014557552116" fill="#ffe215" stroke="none" /><path d="M 92.06813273071674 119.44442032107085 l -7.492509365646734 18.367365012445507 a40.8367788235568,40.8367788235568 0 0,0 -0.6485824399926612,-0.2711075125185258 l 7.8075632651368565 -18.23567245690701" fill="#ffe115" stroke="none" /><path d="M 91.7346041902142 119.30500536409082 l -7.762155755701311 18.129616772049744 a40.7214113662576,40.7214113662576 0 0,0 -0.6420008286726201,-0.28143429662486513 l 8.073077259031676 -17.993317922130426" fill="#ffdf14" stroke="none" /><path d="M 91.40352486487194 119.15986991738527 l -8.106291670620932 18.067346380938172 a40.80254958074788,40.80254958074788 0 0,0 -0.6383306376934448,-0.29302628762437016 l 8.416090304081797 -17.92513302297973" fill="#ffe015" stroke="none" /><path d="M 91.07499286063937 119.00905698771935 l -8.396097857934194 17.882551819154394 a40.755508568618254,40.755508568618254 0 0,0 -0.6324620929390607,-0.30362023926884607 l 8.702672618873496 -17.735377303385985" fill="#ffe015" stroke="none" /><path d="M 90.42595943632237 118.69057910512821 l -9.128414912894689 17.82062232754449 a41.02255076065323,41.02255076065323 0 0,0 -0.6257093433431361,-0.3273415555872625 l 9.43381515876432 -17.66085135301251" fill="#ffe315" stroke="none" /><path d="M 90.10565033884886 118.52300852407294 l -13.337107595541122 24.968124852982434 a49.306990261932825,49.306990261932825 0 0,0 -0.7451863773596431,-0.4063350284960794 l 13.764916784769406 -24.734849172726587" fill="#b3ff20" stroke="none" /><line stroke="#e1ed5e" stroke-width="0.3" x1="58.666819895761336" x2="56.23545636021788" y1="174.27360380694188" y2="178.64263932499728" /><path d="M 58.180547188652646 175.14741091055294 a86.0,86.0 0 0,1 -31.652253787137756,-30.449443065178592" fill="none" id="id56" stroke="none" /><text fill="#e1ed5e" style="font-size:6.75px; font-family:Arial;" text-anchor="middle"><textPath startOffset="22.20632615414155" xlink:href="#id56">August</textPath></text><path d="M 89.7882731507175 118.34994917583269 l -11.557755193250221 20.768693044091716 a44.76805242056669,44.76805242056669 0 0,0 -0.6701377371876749,-0.380521696695765 l 11.913541697359102 -20.56666818160132" fill="#ebff1a" stroke="none" /><path d="M 89.4739219176387 118.17145234162733 l -11.317423877166037 19.537573919248757 a43.57877051270855,43.57877051270855 0 0,0 -0.6458625487921832,-0.3815869780742809 l 11.652054296986604 -19.339868368880726" fill="#faff18" stroke="none" /><path d="M 88.8546689885994 117.79835938074946 l -9.154587158939608 14.619272596797067 a38.2490462724779,38.2490462724779 0 0,0 -0.5550085930273002,-0.35423274339274746 l 9.404877554013831 -14.45952542458052" fill="#ffbe11" stroke="none" /><path d="M 88.54995079064634 117.60387380957326 l -13.448831753418558 20.676901273049307 a45.66587362708216,45.66587362708216 0 0,0 -0.6552515775230174,-0.43426501580581334 l 13.802758029681538 -20.442338236152175" fill="#e0ff1b" stroke="none" /><path d="M 87.95078237400918 117.19931262002967 l -7.9039078023904885 11.282208142707285 a34.77533952844937,34.77533952844937 0 0,0 -0.4873062899047155,-0.3476800990625509 l 8.096941420144091 -11.144483781800517" fill="#ff8f0d" stroke="none" /><path d="M 87.65650970185807 116.9893568818739 l -7.902415964123033 10.876742461061722 a34.44439305563065,34.44439305563065 0 0,0 -0.47666944317984283,-0.35262865850750363 l 8.08847037772144 -10.73910385381445" fill="#ff8a0c" stroke="none" /><path d="M 87.36589467227662 116.77436683061367 l -12.008250943308065 15.94341673526394 a40.95972514619761,40.95972514619761 0 0,0 -0.5595318301546197,-0.42902514770132294 l 12.280911501956172 -15.73435224573525" fill="#ffe215" stroke="none" /><path d="M 87.07902340077011 116.55440617244103 l -12.317698558562883 15.78148396772849 a41.01951383034297,41.01951383034297 0 0,0 -0.552869811526442,-0.43923321544959715 l 12.587525862806682 -15.567116838273762" fill="#ffe315" stroke="none" /><path d="M 86.79598089348748 116.32954008644617 l -12.805641909122768 15.836863094552573 a41.36641100882241,41.36641100882241 0 0,0 -0.549838142260008,-0.45247935828984553 l 13.076350179927465 -15.614088617405551" fill="#ffe815" stroke="none" /><path d="M 86.51685102203217 116.09983520530335 l -8.562680777077162 10.224447542026553 a34.336372431429005,34.336372431429005 0 0,0 -0.449862926904472,-0.38338294587576544 l 8.737409180558691 -10.075540205927835" fill="#ff890c" stroke="none" /><path d="M 85.18274418774928 114.88116024355367 l -14.078675339846175 14.139394392853797 a40.953234653094675,40.953234653094675 0 0,0 -0.4952598987835238,-0.5016956627023363 l 14.319975863685231 -13.894958236170796" fill="#ffe215" stroke="none" /><path d="M 84.9287848128048 114.62390073753433 l -19.553809440666843 18.973451360705468 a48.24597805509958,48.24597805509958 0 0,0 -0.5731931165267586,-0.6009906910824248 l 19.877509108572557 -18.63405355304054" fill="#c0ff1e" stroke="none" /><path d="M 84.67929136418377 114.36230785411684 l -9.73922918215381 9.129982894452406 a34.34950084143635,34.34950084143635 0 0,0 -0.40066826736492783,-0.4348462712807671 l 9.89494385751447 -8.960985368370297" fill="#ff890c" stroke="none" /><path d="M 84.4343377721795 114.09645910891817 l -20.5499447241428 18.610287905172456 a48.724412420802224,48.724412420802224 0 0,0 -0.5576419681630775,-0.6265166627531218 l 20.86724554195421 -18.253797072678466" fill="#baff1f" stroke="none" /><path d="M 83.50135304334701 112.99209946851258 l -16.63369315393775 13.098443560399492 a42.17189107388205,42.17189107388205 0 0,0 -0.44419689574118576,-0.5741843660896081 l 16.856696866897003 -12.81018120019663" fill="#fff216" stroke="none" /><path d="M 83.28015986056508 112.70617746262583 l -19.122918941335264 14.532387848549536 a45.01824984085121,45.01824984085121 0 0,0 -0.46355663434237404,-0.6210098650441306 l 19.370236842372723 -14.201065103996099" fill="#e8ff1a" stroke="none" /><path d="M 83.06392112726016 112.41649034213515 l -16.104140067563232 11.80656402935979 a40.96843212410699,40.96843212410699 0 0,0 -0.41206479710951005,-0.5723219629794779 l 16.30498465704835 -11.527608460929175" fill="#ffe215" stroke="none" /><path d="M 82.6465618267979 111.8261652097733 l -22.946485525626798 15.63776158368394 a48.76834142194923,48.76834142194923 0 0,0 -0.46677548476576386,-0.6977660167953786 l 23.212264115803293 -15.24045865268274" fill="#baff1f" stroke="none" /><path d="M 82.44556493220864 111.52570212397912 l -16.53829673702033 10.858536950506073 a40.784415171221085,40.784415171221085 0 0,0 -0.3802566733588821,-0.590166801446194 l 16.72275827375626 -10.572248549138429" fill="#ffe015" stroke="none" /><path d="M 82.24976979558568 111.22182372390057 l -17.83786524330745 11.277227228371808 a42.10367954643755,42.10367954643755 0 0,0 -0.38201141684216156,-0.6159240390327098 l 18.029341299817567 -10.968506857973836" fill="#fff116" stroke="none" /><path d="M 82.05923443525364 110.91462005526583 l -23.80258920149737 14.480776560417079 a48.86137366477044,48.86137366477044 0 0,0 -0.4309552782081074,-0.7223058347780785 l 24.04832535540371 -14.068908631752889" fill="#b9ff1f" stroke="none" /><line stroke="#e1ed5e" stroke-width="0.3" x1="26.63291911575756" x2="22.317208475507996" y1="142.92168965132927" y2="145.44649492493687" /><path d="M 25.769776987707644 143.4266507060508 a86.0,86.0 0 0,1 -11.730757126820373,-40.83630448921669" fill="none" id="id57" stroke="none" /><text fill="#e1ed5e" style="font-size:6.75px; font-family:Arial;" text-anchor="middle"><textPath startOffset="21.46611528233685" xlink:href="#id57">September</textPath></text><path d="M 81.87401531095188 110.60418214915194 l -17.24296540514281 10.087592430668765 a40.976971167077295,40.976971167077295 0 0,0 -0.3509345937200212,-0.6118840445157981 l 17.41405199501521 -9.789288540294658" fill="#ffe315" stroke="none" /><path d="M 81.69416730710424 110.29060199501025 l -17.199939375826784 9.668925387023167 a40.731346448530516,40.731346448530516 0 0,0 -0.3383098902584244,-0.6141307195693789 l 17.363825675536727 -9.371424149055967" fill="#ffdf14" stroke="none" /><path d="M 81.35079622478065 109.6543875284942 l -30.638856579361565 15.86123452842326 a55.50098974314119,55.50098974314119 0 0,0 -0.43190693200013813,-0.8521933518575407 l 30.907342181147968 -15.331486964863036" fill="#6dff28" stroke="none" /><path d="M 81.02952815118164 109.00673069616217 l -15.593125977103773 7.403246872631275 a38.26133372584382,38.26133372584382 0 0,0 -0.27734981841123035,-0.5973868346596218 l 15.71825041235483 -7.133739970692827" fill="#ffbf11" stroke="none" /><path d="M 80.87730276802145 108.67885076344099 l -15.713537836335046 7.131601164462152 a38.2561585094392,38.2561585094392 0 0,0 -0.2669895758805579,-0.6019910104211093 l 15.833968496946882 -6.860061817548347" fill="#ffbe11" stroke="none" /><path d="M 80.58989483394504 108.01547362559985 l -22.27131336991458 9.197019974740417 a45.0955717018026,45.0955717018026 0 0,0 -0.2901092307372406,-0.7200273190049766 l 22.42632521490921 -8.812293287892635" fill="#e7ff1a" stroke="none" /><path d="M 80.45479744820244 107.68017299344265 l -12.406858909318577 4.875202622038747 a34.33033190140708,34.33033190140708 0 0,0 -0.21138610944311328,-0.5518624282243265 l 12.4889392983552 -4.660916626981263" fill="#ff880c" stroke="none" /><path d="M 80.32549172779594 107.34259656027581 l -34.626707745532435 12.92281065774965 a57.95954443158849,57.95954443158849 0 0,0 -0.3407903609757581,-0.9377087097692394 l 34.84402236751342 -12.324854150974293" fill="#52ff2b" stroke="none" /><path d="M 80.20201598880116 107.00284435728193 l -26.372466315817842 9.328337512691505 a48.97364581761974,48.97364581761974 0 0,0 -0.27427379953766157,-0.7971680461761511 l 26.529130946298732 -8.872996763426059" fill="#b7ff1f" stroke="none" /><path d="M 80.0844068197444 106.66101706037122 l -16.361492506836214 5.47230402502996 a38.2523780503911,38.2523780503911 0 0,0 -0.20348033548974398,-0.6262480786756831 l 16.453265093342207 -5.189857046376472" fill="#ffbe11" stroke="none" /><path d="M 79.97269907076064 106.31721596034903 l -16.618849653693612 5.242087420860539 a38.42600483013868,38.42600483013868 0 0,0 -0.19354488336089487,-0.6325158772554129 l 16.70662130956064 -4.955244571053079" fill="#ffc111" stroke="none" /><path d="M 79.86692584326677 105.97154293290107 l -19.575270343253177 5.806096295472481 a41.41817727427565,41.41817727427565 0 0,0 -0.19684947898711153,-0.685258860579643 l 19.672312459126392 -5.4682799593882425" fill="#ffe815" stroke="none" /><path d="M 79.29508885075956 103.50808413554451 l -19.691366345729207 3.3363567410035406 a40.97201003567134,40.97201003567134 0 0,0 -0.11183065407315572,-0.6963695896642462 l 19.745878754163655 -2.99690792164608" fill="#ffe315" stroke="none" /><path d="M 79.23777060512086 103.15116336523772 l -21.035529474388426 3.19264316886992 a42.27642993247683,42.27642993247683 0 0,0 -0.10300541224406838,-0.7204196133257231 l 21.087368937649092 -2.830078083563797" fill="#fff316" stroke="none" /><path d="M 79.18660465613746 102.79330883721812 l -22.70647123538726 3.047373372578995 a43.910048459908865,43.910048459908865 0 0,0 -0.0940898052187457,-0.7499883233785155 l 22.755562549852854 -2.656067294913071" fill="#f6ff19" stroke="none" /><path d="M 79.1416061653843 102.43462659150553 l -27.583599344266645 3.2196038192325864 a48.77086245577988,48.77086245577988 0 0,0 -0.09015107782581579,-0.8346870167361274 l 27.634932723593515 -2.7443204806116768" fill="#baff1f" stroke="none" /><path d="M 79.10278846688536 102.07522291339032 l -20.20053045109709 2.0060381543406507 a41.29989210765346,41.29989210765346 0 0,0 -0.06416312636787734,-0.7080347528424497 l 20.232068173742043 -1.6580220129496352" fill="#ffe715" stroke="none" /><path d="M 79.07016306316243 101.71520430193888 l -21.680070473346657 1.7766860895496743 a42.75274854334681,42.75274854334681 0 0,0 -0.05379403538445462,-0.733976873260738 l 21.707441067395447 -1.4032360797921755" fill="#fffa17" stroke="none" /><path d="M 79.04373962182676 101.35467743843564 l -33.28239183126602 2.151476670806712 a54.351858387126626,54.351858387126626 0 0,0 -0.05231663781180707,-0.9341487124592843 l 33.31449481996536 -1.57825624201199" fill="#79ff26" stroke="none" /><path d="M 79.0235259727143 100.99374915477108 l -27.76943341214886 1.3155619455347285 a48.80057796637165,48.80057796637165 0 0,0 -0.03252876224561355,-0.8394228152533738 l 27.787964307245677 -0.8373618832673577" fill="#b9ff1f" stroke="none" /><path d="M 79.0095281055655 100.63252640178507 l -24.7837874009859 0.7468340848262875 a45.795037388306675,45.795037388306675 0 0,0 -0.016961472863999485,-0.7881329951621835 l 24.79297093653491 -0.3201112738739752" fill="#deff1b" stroke="none" /><line stroke="#e1ed5e" stroke-width="0.3" x1="15.007084014347285" x2="10.007500721073583" y1="101.09737516637583" y2="101.16192664675087" /><path d="M 14.007167355692545 101.11028546245083 a86.0,86.0 0 0,1 10.666146001902526,-42.60595125391555" fill="none" id="id58" stroke="none" /><text fill="#e1ed5e" style="font-size:6.75px; font-family:Arial;" text-anchor="middle"><textPath startOffset="22.20632615414155" xlink:href="#id58">October</textPath></text><path d="M 79.00175016825051 100.2711162175752 l -17.24765742364896 0.22269092330077317 a38.24909498642968,38.24909498642968 0 0,0 -0.002833534321164065,-0.6584135859467453 l 17.248935255259628 0.07423214084964744" fill="#ffbe11" stroke="none" /><path d="M 79.00019446554 99.90962569577889 l -13.20308644127322 -0.05682051430158909 a34.20320870646898,34.20320870646898 0 0,0 0.007601244361160962,-0.5887247526370915 l 13.200152189794343 0.2840815249991525" fill="#ff870c" stroke="none" /><path d="M 79.00486145842228 99.54816195383935 l -27.725825151635092 -0.5966896879435956 a48.73224511147158,48.73224511147158 0 0,0 0.025267217839814275,-0.8384959496084315 l 27.711446239339633 1.0738557849770214" fill="#baff1f" stroke="none" /><path d="M 79.01574976396665 99.18683210126434 l -19.927885008778336 -0.7722323264620575 a40.942841916064154,40.942841916064154 0 0,0 0.033351633040481894,-0.7040002609133662 l 19.911639767504354 1.1151436939984327" fill="#ffe215" stroke="none" /><path d="M 79.03285615573316 98.82574320788736 l -13.175870248039226 -0.7379095238565612 a34.19651723973274,34.19651723973274 0 0,0 0.037973455797045884,-0.5874325537309142 l 13.161216201237767 0.9646011418404874" fill="#ff870c" stroke="none" /><path d="M 79.05617556472873 98.46500227214037 l -29.10102542199626 -2.132848660912255 a50.17908024633449,50.17908024633449 0 0,0 0.07055063074932874,-0.8608963933365913 l 29.060000307427433 2.633458971456624" fill="#a9ff21" stroke="none" /><path d="M 79.08570108090925 98.10471618934814 l -19.87964062231848 -1.8015215895506187 a40.961101956308724,40.961101956308724 0 0,0 0.06967849033822066,-0.7016528887140412 l 19.84568500629803 2.1434500089690904" fill="#ffe215" stroke="none" /><path d="M 79.12142395522702 97.74499172005258 l -20.31058776712433 -2.1936622252038362 a41.428708461484945,41.428708461484945 0 0,0 0.08267916891133634,-0.7083446279147596 l 20.269818245209404 2.5429505914434576" fill="#ffe815" stroke="none" /><path d="M 79.16333360222342 97.38593545837743 l -21.17362417551609 -2.656337588663656 a42.33959910848718,42.33959910848718 0 0,0 0.09694558682968733,-0.7223572269003062 l 21.124762589628567 3.020413157628622" fill="#fff417" stroke="none" /><path d="M 79.21141760316559 97.0276538004421 l -19.716691531240954 -2.8190875174664916 a40.91720812185393,40.91720812185393 0 0,0 0.10569130464419492,-0.69637364291372 l 19.665244333157457 3.158060272772303" fill="#ffe215" stroke="none" /><path d="M 79.26566170972629 96.67025291283419 l -19.571204482974334 -3.1429583238776204 a40.82196337248221,40.82196337248221 0 0,0 0.1173886846263733,-0.6928346616573032 l 19.514203936827737 3.4793787738507524" fill="#ffe115" stroke="none" /><path d="M 79.32604984820605 96.31383870115002 l -36.571586206486444 -6.520706721362024 a58.14835842677958,58.14835842677958 0 0,0 0.1841759984089115,-0.9838755480285127 l 36.45392448416767 7.149260346853109" fill="#50ff2b" stroke="none" /><path d="M 79.3925641242962 95.95851677861259 l -54.37542164950296 -10.663983407631331 a76.41125356531353,76.41125356531353 0 0,0 0.2642399539967119,-1.2885278585975488 l 54.18380239959125 11.598386922392283" fill="#43ffe0" stroke="none" /><path d="M 79.46518482838121 95.60439243477599 l -23.112505305652498 -4.947378504444427 a44.63608376127597,44.63608376127597 0 0,0 0.1672909682980772,-0.7499326084178443 l 23.023919950352383 5.344489282412231" fill="#edff1a" stroke="none" /><path d="M 79.54389044137918 95.25157060432595 l -16.802303825310865 -3.9002799222655202 a38.2490462724779,38.2490462724779 0 0,0 0.1543935497720225,-0.6400609397662778 l 16.732677475278027 4.188926093691195" fill="#ffbe11" stroke="none" /><path d="M 79.62865764111835 94.90015583598534 l -19.10832207238692 -4.783654561796123 a40.698003030476514,40.698003030476514 0 0,0 0.1759775219390769,-0.6781131777803288 l 19.023148218577532 5.111864165125315" fill="#ffdf14" stroke="none" /><path d="M 79.71946130924805 94.55025226153421 l -19.29713463554167 -5.185489273362777 a40.9817092398619,40.9817092398619 0 0,0 0.18893198186768775,-0.6796888616578752 l 19.205015883107624 5.516889438439596" fill="#ffe315" stroke="none" /><path d="M 79.81627453868168 94.20196356495316 l -18.97352089200979 -5.450389505338127 a40.74085207886002,40.74085207886002 0 0,0 0.19942473049290785,-0.6723610518780501 l 18.876890264405176 5.776179943962717" fill="#ffdf14" stroke="none" /><path d="M 79.91906864156998 93.8553929516997 l -16.51214760880884 -5.052587291329414 a38.267879342629044,38.267879342629044 0 0,0 0.1981629536348067,-0.6282307159326388 l 16.422729171405827 5.336068173688466" fill="#ffbf11" stroke="none" /><path d="M 80.02781315780177 93.51064311812611 l -18.851807431163063 -6.125323543974745 a40.82196337248221,40.82196337248221 0 0,0 0.22289318065897118,-0.6664222397907948 l 18.74357695673232 6.448918886687862" fill="#ffe115" stroke="none" /><path d="M 80.14247586403 93.16781622104843 l -31.346804457104827 -10.785187894892454 a54.1503005657581,54.1503005657581 0 0,0 0.3108405669726174,-0.8787881410725137 l 31.156510809322402 11.323173662391579" fill="#7cff26" stroke="none" /><path d="M 80.2630227832202 92.82701384747504 l -16.219422003038844 -5.894605245368876 a38.25734687347365,38.25734687347365 0 0,0 0.2302644333766035,-0.6169942011756375 l 16.11555298116061 6.172922583573855" fill="#ffbe11" stroke="none" /><path d="M 80.38941819471856 92.48833698450439 l -18.706580666073457 -7.165393231621807 a41.031949989456464,41.031949989456464 0 0,0 0.2583184975970486,-0.6573924002390428 l 18.58046861859472 7.486334636756613" fill="#ffe315" stroke="none" /><path d="M 80.52162464483688 92.15188598940014 l -21.42951329144662 -8.634255189992437 a44.10355822366327,44.10355822366327 0 0,0 0.2897778364770109,-0.7017200160008994 l 21.27771376808341 9.001849776446647" fill="#f3ff19" stroke="none" /><path d="M 80.65960295795067 91.81776055985345 l -28.695146340847643 -12.139903726918611 a52.157482023127514,52.157482023127514 0 0,0 0.3569292722827103,-0.823841971584787 l 28.481926358722255 12.632044843089997" fill="#92ff23" stroke="none" /><path d="M 80.803312248108 91.48605970444005 l -18.026287472501142 -7.99485501223244 a40.71965381815487,40.71965381815487 0 0,0 0.28968675878508326,-0.638286373547927 l 17.885998396752708 8.30396339462244" fill="#ffdf14" stroke="none" /><path d="M 80.95270993114464 91.15688171328213 l -17.921920173425285 -8.320640859975061 a40.75925826095997,40.75925826095997 0 0,0 0.3009232865928449,-0.6338211865706104 l 17.77603869299069 8.627904462186201" fill="#ffe015" stroke="none" /><path d="M 81.10775173730289 90.83032412892265 l -14.204586107132059 -6.894438855241583 a36.78934937239638,36.78934937239638 0 0,0 0.28142098126829174,-0.5673275256958225 l 14.083805112910355 7.137925969436369" fill="#ffab0f" stroke="none" /><path d="M 81.26839172434947 90.50648371742162 l -15.385827519267895 -7.797814364129372 a38.2490462724779,38.2490462724779 0 0,0 0.30269669910038716,-0.5847136762377162 l 15.249321387007395 8.061500762627423" fill="#ffbe11" stroke="none" /><path d="M 81.43458229118936 90.18545643968196 l -14.337942963448405 -7.579703725886971 a37.21815393302593,37.21815393302593 0 0,0 0.3042883615400307,-0.5638001205407082 l 14.2053465026899 7.825384829760152" fill="#ffb010" stroke="none" /><path d="M 81.6062741919709 89.86733742301443 l -15.110563577696167 -8.324047214732778 a38.25163452165326,38.25163452165326 0 0,0 0.3226659411231254,-0.5739867052247979 l 14.965039995280613 8.582917429892362" fill="#ffbe11" stroke="none" /><line stroke="#e1ed5e" stroke-width="0.3" x1="26.266209847984243" x2="21.928928074336255" y1="57.71137044288968" y2="55.22380399835378" /><path d="M 25.398753493254645 57.2138571539825 a86.0,86.0 0 0,1 29.58750427330803,-30.4925239686951" fill="none" id="id59" stroke="none" /><text fill="#e1ed5e" style="font-size:6.75px; font-family:Arial;" text-anchor="middle"><textPath startOffset="21.46611528233685" xlink:href="#id59">November</textPath></text><path d="M 81.78341655067845 89.55222093294921 l -25.305429046280512 -14.513453228372263 a50.171991084402976,50.171991084402976 0 0,0 0.4361148373818511,-0.7454616257871798 l 25.051854534428337 14.946894266513333" fill="#a9ff21" stroke="none" /><path d="M 81.96595687620814 89.24020034530311 l -18.08990448106551 -10.793128676291108 a42.06504855814606,42.06504855814606 0 0,0 0.37635038420946637,-0.6186210769697519 l 17.901438298569825 11.102917526467936" fill="#fff116" stroke="none" /><path d="M 82.15384107792192 88.93136811851018 l -17.36081376948294 -10.767608739591473 a41.428882806154505,41.428882806154505 0 0,0 0.3810912798337701,-0.6027948854282191 l 17.172894893403207 11.06485127273391" fill="#ffe815" stroke="none" /><path d="M 82.34701348167596 88.62581576622439 l -16.980418770418154 -10.940834926765348 a41.199913131335435,41.199913131335435 0 0,0 0.389247685153255,-0.592850929237085 l 16.78957444990698 11.231503919980103" fill="#ffe515" stroke="none" /><path d="M 82.54541684631803 88.32363383020207 l -18.013120258594487 -12.05000349467451 a42.671988502955955,42.671988502955955 0 0,0 0.4136653743079346,-0.6070028931707235 l 17.803030418617812 12.358284411115646" fill="#fff917" stroke="none" /><path d="M 82.7489923806493 88.02491185347247 l -27.016802212992303 -18.754184977286542 a53.8880990021957,53.8880990021957 0 0,0 0.5355126764055935,-0.7574447034735851 l 26.689976916782832 19.21645618109191" fill="#7fff26" stroke="none" /><path d="M 82.95767976084542 87.72973835380427 l -16.04682977039446 -11.553520712650956 a40.77333018329671,40.77333018329671 0 0,0 0.4149897653569931,-0.5660455735720604 l 15.845577392523834 11.82802872989452" fill="#ffe015" stroke="none" /><path d="M 83.17141714833178 87.43820079747577 l -16.436878908474874 -12.269409384284488 a41.51120169300264,41.51120169300264 0 0,0 0.43235707430806586,-0.5689312294628316 l 16.223245893942696 12.550525389628346" fill="#ffea15" stroke="none" /><path d="M 83.39014120810768 87.1503855733568 l -16.103953697814045 -12.45823931160889 a41.360379452423174,41.360379452423174 0 0,0 0.44048000426759093,-0.5593648739750646 l 15.887119612952482 12.733596579537002" fill="#ffe815" stroke="none" /><path d="M 83.6137871275137 86.86637796730984 l -15.503922751905945 -12.426462601950947 a40.869287694699885,40.869287694699885 0 0,0 0.4446997079048885,-0.5451492600060498 l 15.287724551924663 12.691496031565078" fill="#ffe115" stroke="none" /><path d="M 83.84228863543731 86.58626213691792 l -15.161873408638487 -12.587017482114543 a40.705720345996895,40.705720345996895 0 0,0 0.45220059652772865,-0.5352628748784309 l 14.942962198623635 12.84613930662209" fill="#ffdf14" stroke="none" /><path d="M 84.07557802195018 86.31012108654704 l -21.01491372357552 -18.066063851420367 a48.71298002548482,48.71298002548482 0 0,0 0.5520993140683511,-0.6311449559967227 l 20.700822545929324 18.425124363620036" fill="#bbff1f" stroke="none" /><path d="M 84.5562425177563 85.77008943001954 l -25.158396335427376 -23.180999206240095 a55.20970082257589,55.20970082257589 0 0,0 0.6499829613131062,-0.6933565043774383 l 24.755646052143813 23.610625127495585" fill="#70ff27" stroke="none" /><path d="M 84.80347519578584 85.50635884689758 l -14.456579735944596 -13.787920705126506 a40.97747368994839,40.97747368994839 0 0,0 0.49121402432977845,-0.5062392310035952 l 14.2171014479117 14.034724131680223" fill="#ffe315" stroke="none" /><path d="M 85.05521093208273 85.24692304244772 l -14.023183630049278 -13.843293896207276 a40.70498579088175,40.70498579088175 0 0,0 0.4965314340153385,-0.4943991702405021 l 13.782816395866627 14.08262891709789" fill="#ffdf14" stroke="none" /><path d="M 85.31137513191541 84.99185889309783 l -13.815764456907349 -14.116293685157453 a40.75209090031637,40.75209090031637 0 0,0 0.5055525017791394,-0.4863411061628092 l 13.570728711515782 14.352017878082574" fill="#ffe015" stroke="none" /><path d="M 85.57189188830299 84.74124197986013 l -19.120603585905304 -20.221408174770847 a48.829890945888096,48.829890945888096 0 0,0 0.6157033408394335,-0.5722291535361079 l 18.769692361271016 20.5475419143816" fill="#b9ff1f" stroke="none" /><path d="M 85.83668400450813 84.49514656593477 l -13.333408616303975 -14.596337922425628 a40.76949331862022,40.76949331862022 0 0,0 0.5222164639994427,-0.46885109754385496 l 13.080181164708561 14.823688028738763" fill="#ffe015" stroke="none" /><path d="M 86.10567301691215 84.25364557470407 l -13.28353654102124 -15.054149412986195 a41.07684630576125,41.07684630576125 0 0,0 0.534206736101751,-0.4632588173868491 l 13.022436006272716 15.280573223792723" fill="#ffe415" stroke="none" /><path d="M 86.37877921826538 84.01681056812373 l -12.956494916568337 -15.203197712083616 a40.975184134214274,40.975184134214274 0 0,0 0.5407601645004823,-0.4528710863393598 l 12.692877215108746 15.423969955816789" fill="#ffe315" stroke="none" /><path d="M 86.65592168130627 83.78471172551755 l -13.086304615518292 -15.902050086970092 a41.594333333678,41.594333333678 0 0,0 0.5567631304320094,-0.4501970645289565 l 12.810638086521783 16.124953248763187" fill="#ffeb16" stroke="none" /><path d="M 86.93701828274178 83.55741782278169 l -12.474510805056067 -15.701864510898439 a41.05397638734205,41.05397638734205 0 0,0 0.5570974643641017,-0.43482340746973513 l 12.202380785532538 15.914266307591395" fill="#ffe415" stroke="none" /><path d="M 87.22198572758235 83.33499621200491 l -16.861623099444934 -21.99082007840246 a48.711198120406195,48.711198120406195 0 0,0 0.6697878958240179,-0.5044703569753313 l 16.480589049862527 22.277807024883646" fill="#bbff1f" stroke="none" /><path d="M 87.51073957382395 83.11751280151077 l -10.267719196157364 -13.879495820545031 a38.26460140645203,38.26460140645203 0 0,0 0.5328886618653604,-0.387166275537054 l 10.027285217938221 14.054181330898754" fill="#ffbf11" stroke="none" /><path d="M 88.09926311788651 82.69761687909137 l -31.412023052103184 -45.66968103186738 a76.42954950004888,76.42954950004888 0 0,0 1.0903778208970398,-0.7362279720113989 l 30.621240536799608 46.20362091617744" fill="#43ffe0" stroke="none" /><line stroke="#e1ed5e" stroke-width="0.3" x1="56.76296977257108" x2="54.21961505331056" y1="26.818313649435495" y2="22.513508569990535" /><path d="M 56.25429882871898 25.957352633546506 a86.0,86.0 0 0,1 42.26535254187918,-11.944610805530505" fill="none" id="id60" stroke="none" /><text fill="#e1ed5e" style="font-size:6.75px; font-family:Arial;" text-anchor="middle"><textPath startOffset="22.20632615414155" xlink:href="#id60">December</textPath></text><path d="M 89.3179101791058 81.91981866633112 l -14.776352849869003 -25.010006792242308 a50.04894220607419,50.04894220607419 0 0,0 0.7454986980340113,-0.4318409645126877 l 14.343657419369668 25.260651914145043" fill="#abff21" stroke="none" /><path d="M 89.63071344664047 81.73862282372117 l -14.605364842142906 -25.721545528426113 a50.57895512933142,50.57895512933142 0 0,0 0.760793977393414,-0.42338102472527556 l 14.160446775677446 25.969141950711574" fill="#a4ff21" stroke="none" /><path d="M 90.26544431104013 81.39251694778311 l -13.107471293659515 -25.054769600917346 a49.27626714170667,49.27626714170667 0 0,0 0.7549581982675462,-0.3867189118881454 l 12.674252607803204 25.276681038118" fill="#b4ff20" stroke="none" /><path d="M 90.58718382345135 81.22770947309562 l -8.944678486683427 -17.838668053468826 a40.95558446029548,40.95558446029548 0 0,0 0.6329173301784394,-0.3105697851887721 l 8.636289889494563 17.989992998792427" fill="#ffe215" stroke="none" /><path d="M 90.91171255644093 81.06846463323043 l -11.997665643009332 -24.991972673606284 a48.7226023129094,48.7226023129094 0 0,0 0.7591950989984785,-0.3564522786746592 l 11.565692332711246 25.194789934920948" fill="#baff1f" stroke="none" /><path d="M 91.23893434514133 80.91482961587045 l -11.583153126658878 -25.23282665792484 a48.76445528917342,48.76445528917342 0 0,0 0.7658756827427083,-0.3436260941063517 l 11.147095325449396 25.428473082547722" fill="#baff1f" stroke="none" /><path d="M 91.56875222667455 80.76684994638697 l -11.131289319560937 -25.392416820037823 a48.72508672445068,48.72508672445068 0 0,0 0.7710541772195613,-0.3301251590099535 l 10.692551384551068 25.58026150701056" fill="#baff1f" stroke="none" /><path d="M 91.90106846888425 80.62456947434976 l -5.359332788337825 -12.821367819363868 a34.89639955871924,34.89639955871924 0 0,0 0.5562089440758214,-0.22689159386339716 l 5.137839974673622 12.911720299410842" fill="#ff900d" stroke="none" /><path d="M 92.23578459929587 80.48803036053334 l -10.551478465448989 -26.51653990056171 a49.538755861195405,49.538755861195405 0 0,0 0.7950187957235119,-0.308454941382667 l 10.0934765047258 26.69423754583493" fill="#b1ff20" stroke="none" /><path d="M 92.57280143429618 80.3572730644239 l -6.103171022574932 -16.1410686380646 a38.25638413195276,38.25638413195276 0 0,0 0.6179638880758208,-0.22760131519010665 l 5.824424808726542 16.243733221061028" fill="#ffbe11" stroke="none" /><path d="M 92.91201910852362 80.23233633223022 l -11.173838092117075 -31.162707217326698 a54.10542219669872,54.10542219669872 0 0,0 0.8793882987374754,-0.3068013101876317 l 10.635767789316313 31.350429380686542" fill="#7cff26" stroke="none" /><path d="M 93.25333710446033 80.11325718540243 l -5.545685758546108 -16.34669289371114 a38.26177856114043,38.26177856114043 0 0,0 0.6255202776950772,-0.20622420088349827 l 5.263482658608622 16.43973081885387" fill="#ffbf11" stroke="none" /><path d="M 93.59665428221793 80.00007090966166 l -8.897345118396087 -27.78957740264333 a50.17915972699268,50.17915972699268 0 0,0 0.8248847582305995,-0.25629570971549237 l 8.41767498745476 27.938613247241353" fill="#a9ff21" stroke="none" /><path d="M 94.28887869178378 79.79150937346287 l -7.5468116956513525 -26.70398073884459 a48.74990007315707,48.74990007315707 0 0,0 0.8094853836020254,-0.22126293382595277 l 7.086028422825605 26.829930213496837" fill="#baff1f" stroke="none" /><path d="M 94.98787191387505 79.60689891045804 l -6.630567520895299 -26.97812813462895 a48.78099752164435,48.78099752164435 0 0,0 0.8171428311644687,-0.1933913073106159 l 6.165201002768297 27.088265354080434" fill="#baff1f" stroke="none" /><path d="M 95.33964822691252 79.52364482259891 l -5.9422684067449705 -26.108758390002166 a47.776441482865266,47.776441482865266 0 0,0 0.8034570439870197,-0.17560459007094384 l 5.49196863860443 26.20717647816898" fill="#c6ff1e" stroke="none" /><path d="M 95.692805502759 79.44645832069477 l -12.498131116276028 -59.639948689651035 a81.935431081628,81.935431081628 0 0,0 1.3828890014342572,-0.27739452414343346 l 11.469675705374634 59.84624716987168" fill="#4ae6ff" stroke="none" /></svg>