<?xml version="1.0" encoding="utf-8" ?>
<svg baseProfile="full" height="200mm" version="1.1" viewBox="0,0,200,200" width="200mm" xmlns="http://www.w3.org/2000/svg" xmlns:ev="http://www.w3.org/2001/xml-events" xmlns:xlink="http://www.w3.org/1999/xlink"><defs /><rect fill="#1a1a1a" height="200" width="200" x="0" y="0" /><text alignment-baseline="middle" fill="#e1ed5e" style="dominant-baseline: central; font-size:9.0px; font-family:Arial;" text-anchor="middle" x="100.0" y="100.0">2024</text><line stroke="#e1ed5e" stroke-width="0.3" x1="100.0" x2="100.0" y1="15.0" y2="10.0" /><path d="M 100.0 14.0 a86.0,86.0 0 0,1 42.35913384403234,11.155469271406648" fill="none" id="id73" stroke="none" /><text fill="#e1ed5e" style="font-size:6.75px; font-family:Arial;" text-anchor="middle"><textPath startOffset="22.145653131862478" xlink:href="#id73">January</textPath></text><path d="M 100.36049292484886 79.00309439819443 l 0.2436508882504652 -14.191442737845863 a35.1935341876822,35.1935341876822 0 0,0 0.6039657691446119,0.015556015799091286 l -0.4872299714658185 14.185169004696727" fill="#ffb510" stroke="none" /><path d="M 100.72087961077811 79.0123766808444 l 0.48724878992295195 -14.18571688354343 a35.19408238962035,35.19408238962035 0 0,0 0.603619136001572,0.025922002913196268 l -0.7306936865253602 14.175262312204401" fill="#ffb510" stroke="none" /><path d="M 101.08105385017728 79.02784411241856 l 0.7300412032502056 -14.162604310978711 a35.18140758274001,35.18140758274001 0 0,0 0.6028680104085146,0.03626704245284351 l -0.9730535657911826 14.147985290701175" fill="#ffb510" stroke="none" /><path d="M 101.80034050326958 79.07731436759882 l 1.6401426114449917 -19.06094329891917 a40.13137807975393,40.13137807975393 0 0,0 0.6858651959421337,0.06495214714707562 l -1.9671073707721383 19.02997939626691" fill="#fff316" stroke="none" /><path d="M 102.15924093988457 79.11130261209362 l 1.4533533578477518 -14.05987536129351 a35.13479151448212,35.13479151448212 0 0,0 0.5994064002085674,0.06716473738547706 l -1.694495659657116 14.032854863401063" fill="#ffb410" stroke="none" /><path d="M 102.87502721639298 79.19773525538626 l 0.14246195166261777 -1.0307837148888621 a22.040581796185002,22.040581796185002 0 0,0 0.37434867545235867,0.05501636388686706 l -0.16013573272265844 1.0281862777031125" fill="#ff0000" stroke="none" /><path d="M 103.23170211078529 79.25015418208739 l 1.505804466128343 -9.668344863782885 a30.784903652834245,30.784903652834245 0 0,0 0.5214706093169927,0.08580779032027162 l -1.6715525784984062 9.641071074966945" fill="#ff7b0b" stroke="none" /><path d="M 103.58742460773223 79.30868818359171 l 3.416682747127084 -19.7065181373216 a41.00051444566117,41.00051444566117 0 0,0 0.6924503990673472,0.12618752944649952 l -3.754467879745485 19.644962433943736" fill="#fffe18" stroke="none" /><path d="M 104.9986988182912 79.60360301121754 l 4.766534069450454 -19.44908558709742 a41.0246542344549,41.0246542344549 0 0,0 0.6825617636560453,0.17350453118435316 l -5.099701126331894 19.3643958240778" fill="#fffe18" stroke="none" /><path d="M 105.69591212413111 79.78721728523813 l 2.5646856917898346 -9.101164745885992 a30.455623323156942,30.455623323156942 0 0,0 0.501995670475622,0.14612362351216315 l -2.7205413746470613 9.055797428071314" fill="#ff760a" stroke="none" /><path d="M 106.72888874123014 80.10723608172694 l 6.482769532763155 -19.165156210957807 a41.231893470590855,41.231893470590855 0 0,0 0.6685343683043278,0.23255095670579437 l -6.810809673112501 19.05104682168342" fill="#fdff18" stroke="none" /><path d="M 107.06938296918511 80.22567764915836 l 5.658089371948783 -15.826682981878871 a37.807672936782595,37.807672936782595 0 0,0 0.6092631748819043,0.2237298769909474 l -5.928941698484812 15.727222255879202" fill="#ffd614" stroke="none" /><path d="M 107.74402155503746 80.48000691201159 l 5.36063412815756 -13.512299828349857 a35.53680311853989,35.53680311853989 0 0,0 0.5651122316661937,0.22982622494906746 l -5.591800821014194 13.418286346821496" fill="#ffba11" stroke="none" /><path d="M 108.4095320186766 80.7573450057729 l 8.139745271378683 -18.625330119461307 a41.32629762504338,41.32629762504338 0 0,0 0.6476157456190914,0.2896702856756882 l -8.458274419853407 18.482856082875767" fill="#fcff18" stroke="none" /><path d="M 109.06512990194946 81.05736502329252 l 7.494365252376965 -15.66034098721166 a38.36121511795118,38.36121511795118 0 0,0 0.5915660162762636,0.28936458231183015 l -7.762091517915295 15.529382654802609" fill="#ffdd14" stroke="none" /><path d="M 109.3889696526874 81.21577127319529 l 9.501203262779766 -19.0087711293043 a42.251029228885116,42.251029228885116 0 0,0 0.6459835876180443,0.3298438226530662 l -9.82611407211139 18.8428693549784" fill="#f1ff19" stroke="none" /><path d="M 109.71004243097381 81.37971332152246 l 7.036588125849137 -13.493585540237616 a36.21809525481263,36.21809525481263 0 0,0 0.5488096657613865,0.2922102351905808 l -7.267186607397083 13.370804837324462" fill="#ffc212" stroke="none" /><path d="M 110.02825361518725 81.54914285379988 l 4.515390438335893 -8.307809827513802 a30.45560441964183,30.45560441964183 0 0,0 0.4572050617386117,0.2536039406468647 l -4.657339688230604 8.22907297143379" fill="#ff760a" stroke="none" /><path d="M 110.34350942703115 81.72400993836675 l 6.319510432344233 -11.165969410158015 a33.83024103332015,33.83024103332015 0 0,0 0.5029550507000383,0.29038123391194903 l -6.510257950904668 11.055841278969893" fill="#ffa30f" stroke="none" /><line stroke="#e1ed5e" stroke-width="0.3" x1="143.13028292997686" x2="145.6673583964461" y1="26.7553504044142" y2="22.446841604673864" /><path d="M 143.63769802327073 25.89364864446614 a86.0,86.0 0 0,1 29.32050498858742,28.57503671076993" fill="none" id="id74" stroke="none" /><text fill="#e1ed5e" style="font-size:6.75px; font-family:Arial;" text-anchor="middle"><textPath startOffset="20.669276256404974" xlink:href="#id74">February</textPath></text><path d="M 111.27062007382361 82.28071324371311 l 12.107284454630427 -19.034662129175125 a43.558916180463754,43.558916180463754 0 0,0 0.6274856184715717,0.4067285968271047 l -12.432255705359006 18.824019690644125" fill="#e1ff1b" stroke="none" /><path d="M 111.5731344415666 82.4767994020092 l 7.8348938118474045 -11.86302782726286 a35.21678551126582,35.21678551126582 0 0,0 0.5015938698910172,0.3374947410858467 l -8.037383969835423 11.726783412119893" fill="#ffb510" stroke="none" /><path d="M 111.8722381534696 82.67804972795209 l 5.352221386328016 -7.80905095572657 a30.46718282264587,30.46718282264587 0 0,0 0.42886899049907595,0.2993838630126652 l -5.485485468000852 7.716022276908777" fill="#ff770a" stroke="none" /><path d="M 112.16784306229584 82.88440491214696 l 5.533136909904742 -7.783049997500157 a30.549422565125987,30.549422565125987 0 0,0 0.4248100719584189,0.3075297316793152 l -5.665927992237129 7.686919494447768" fill="#ff780b" stroke="none" /><path d="M 113.31354834802062 83.75963576809568 l 12.128732434204121 -14.79508146542102 a40.131141785815075,40.131141785815075 0 0,0 0.5290157164619881,0.4413237257685344 l -12.380922484828002 14.584695555740614" fill="#fff316" stroke="none" /><path d="M 113.59037401385872 83.9905735841838 l 12.954831782094459 -15.260759264846099 a41.017952938348884,41.017952938348884 0 0,0 0.5328828218906123,0.46029148972418543 l -13.21489408374793 15.036123642657195" fill="#fffe18" stroke="none" /><path d="M 114.39649973595853 84.71141617570332 l 20.327745477741406 -21.58736126109651 a50.651836408980245,50.651836408980245 0 0,0 0.6279079361288907,0.6015215989593256 l -20.695325899735607 21.235227531831605" fill="#91ff24" stroke="none" /><path d="M 115.16444852881244 85.47280134310134 l 14.543471722953605 -13.932316923949541 a41.14006019419311,41.14006019419311 0 0,0 0.48416789889209216,0.514169530303025 l -14.780495455581958 13.68060593370202" fill="#feff18" stroke="none" /><path d="M 115.41159269507618 85.73525988315684 l 10.422031735592489 -9.646476982564963 a35.20117120778609,35.20117120778609 0 0,0 0.40666119371750514,0.44699188845131993 l -10.58609063015187 9.466147518555971" fill="#ffb510" stroke="none" /><path d="M 115.8921839302757 86.27271002978787 l 23.921573977273898 -20.662885854494533 a52.6100704425988,52.6100704425988 0 0,0 0.5844864499300995,0.688523568347388 l -24.27275499071111 20.249195503697596" fill="#7cff26" stroke="none" /><path d="M 116.35404254752997 86.82634096563983 l 11.850346791033083 -9.545800532821314 a36.21686652633057,36.21686652633057 0 0,0 0.38585375328162713,0.4875136124237018 l -12.01246697495627 9.340966976482935" fill="#ffc212" stroke="none" /><path d="M 116.57777611688842 87.10902102172516 l 9.804277043230812 -7.6238651294558215 a33.41962832988794,33.41962832988794 0 0,0 0.3482771227404747,0.45590593351311653 l -9.933706143325594 7.454438282701823" fill="#ff9e0e" stroke="none" /><path d="M 116.7966241395341 87.39550010848427 l 3.970178109881924 -2.979295669153009 a25.963720067491668,25.963720067491668 0 0,0 0.26445653745368397,0.35878608340453244 l -4.020736666919434 2.9107032764796017" fill="#ff3805" stroke="none" /><path d="M 117.01052211995028 87.68569379921539 l 16.1712769808665 -11.706757440827559 a40.96392669216841,40.96392669216841 0 0,0 0.40746408528188155,0.573149264074357 l -16.369856164678342 11.427430950043698" fill="#fffd18" stroke="none" /><path d="M 117.21940702142032 87.97951657250589 l 12.48166346765381 -8.713170475258087 a36.222064992985445,36.222064992985445 0 0,0 0.35154421901489363,0.5129135215690015 l -12.62939742348403 8.497622218619036" fill="#ffc212" stroke="none" /><path d="M 117.42321728460499 88.27688183743584 l 11.811510155436935 -7.947311163527912 a35.23627503534282,35.23627503534282 0 0,0 0.3333612720471623,0.5047514544290579 l -11.946195866404821 7.743379830759796" fill="#ffb610" stroke="none" /><path d="M 117.62189284568427 88.57770195909679 l 16.73897756737656 -10.850003024583927 a40.947830349053405,40.947830349053405 0 0,0 0.37727051137363304,0.5931319068457004 l -16.92276577037608 10.561057443059555" fill="#fffd17" stroke="none" /><line stroke="#e1ed5e" stroke-width="0.3" x1="172.87174338648825" x2="177.1583165268699" y1="56.24261187166439" y2="53.66864786411523" /><path d="M 173.72905801456457 55.72781907015455 a86.0,86.0 0 0,1 12.242430191666344,42.057860355516425" fill="none" id="id75" stroke="none" /><text fill="#e1ed5e" style="font-size:6.75px; font-family:Arial;" text-anchor="middle"><textPath startOffset="22.145653131862474" xlink:href="#id75">March</textPath></text><path d="M 118.00360718960297 89.18935116829356 l 10.983184996985614 -6.595087018153093 a33.81114848306042,33.81114848306042 0 0,0 0.2945213308694179,0.5001616083293243 l -11.0947800379848 6.405574241530212" fill="#ffa30f" stroke="none" /><path d="M 118.18653347947321 89.5 l 10.101392351163446 -5.832041593134243 a32.664083186268485,32.664083186268485 0 0,0 0.27619292076416885,0.4880064266957603 l -10.200018636948991 5.657778396339365" fill="#ff940d" stroke="none" /><path d="M 118.36410011445183 89.81374322990088 l 17.68402448355057 -9.809030281663903 a41.22230938843077,41.22230938843077 0 0,0 0.3379339171815969,0.6217603453238061 l -17.849803750347508 9.504015102865493" fill="#fdff18" stroke="none" /><path d="M 118.53625476483649 90.13048839642627 l 13.433732890571738 -7.1527061062152635 a36.21927672450692,36.21927672450692 0 0,0 0.2874981513113763,0.5513156131917353 l -13.55453911085806 6.92104424991903" fill="#ffc212" stroke="none" /><path d="M 118.8641267826498 90.77261029715802 l 25.484442250473464 -12.465717746393238 a49.36989453188821,49.36989453188821 0 0,0 0.3658561724520632,0.7644986893397359 l -25.69467768088544 12.0264065549884" fill="#9fff22" stroke="none" /><path d="M 119.0197475246899 91.09779779509293 l 30.824313113538395 -14.42733494794703 a55.033605048858824,55.033605048858824 0 0,0 0.39313789106477626,0.8590772420695955 l -31.06743546945822 13.896068723662749" fill="#62ff29" stroke="none" /><path d="M 119.16976305983485 91.42560881287824 l 8.636220234966581 -3.8628714628138985 a30.460765079266487,30.460765079266487 0 0,0 0.20940487644222552,0.47915933758709417 l -8.701258993425778 3.714050055450955" fill="#ff770a" stroke="none" /><path d="M 119.31412917781788 91.75594674310238 l 26.091233017945928 -11.136795894743695 a49.36865635164859,49.36865635164859 0 0,0 0.3260074631396882,0.7822992326854296 l -26.278566325622098 10.687264152616988" fill="#9fff22" stroke="none" /><path d="M 119.4528033332814 92.08871423366111 l 18.658496881195745 -7.588248247229998 a41.14251765115723,41.14251765115723 0 0,0 0.26045432437021215,0.6565150387702724 l -18.78600988053208 7.266832191246161" fill="#feff18" stroke="none" /><path d="M 120.26092885502905 94.47779374421319 l 19.343409231718166 -5.272132202424895 a41.049011413672375,41.049011413672375 0 0,0 0.17946338334961018,0.6814516978585571 l -19.431062095872505 4.939300000193539" fill="#ffff18" stroke="none" /><path d="M 120.65975698304385 96.23510406497455 l 4.838666952345872 -0.881766303194192 a25.91835436799473,25.91835436799473 0 0,0 0.07600888495494768,0.43839904984498657 l -4.853090654793054 0.7985742204286128" fill="#ff3805" stroke="none" /><path d="M 120.77682067341334 96.94652285012252 l 39.99774263811476 -5.878290769888961 a61.42738822284003,61.42738822284003 0 0,0 0.14437040202328158,1.0445923110051685 l -40.09275755669325 5.190810150683707" fill="#31ff3f" stroke="none" /><path d="M 120.99303781780057 99.45929381324524 l 62.97911345340172 -1.6221185602642854 a84.0,84.0 0 0,0 0.024754273605335886,1.4418123361237345 l -62.99767915860572 0.5407593081714844" fill="#4dd2ff" stroke="none" /><line stroke="#e1ed5e" stroke-width="0.3" x1="184.99686870605535" x2="189.99668451229388" y1="99.2704041080226" y2="99.22748670261217" /><path d="M 185.99683186730306 99.26182062694052 a86.0,86.0 0 0,1 -10.086455211305974,41.156179273409016" fill="none" id="id76" stroke="none" /><text fill="#e1ed5e" style="font-size:6.75px; font-family:Arial;" text-anchor="middle"><textPath startOffset="21.40746469413373" xlink:href="#id76">April</textPath></text><path d="M 120.96210409425399 101.26102812881392 l 9.444239708045687 0.5681420087199862 a30.46131328120464,30.46131328120464 0 0,0 -0.03588058229937934,0.5216957919276134 l -9.433095164581243 -0.7301812248019431" fill="#ff770a" stroke="none" /><path d="M 120.86939407059847 102.33845913500097 l 9.402460858971123 1.0535653509043001 a30.461303829447086,30.461303829447086 0 0,0 -0.06268923815805816,0.5191568214150619 l -9.382989534553401 -1.2148158492427705" fill="#ff770a" stroke="none" /><path d="M 120.82617615685814 102.69636545807757 l 14.286166555412798 1.8496302796167945 a35.40540478501977,35.40540478501977 0 0,0 -0.08321194617729165,0.6020801905542483 l -14.252310092680295 -2.094598778371128" fill="#ffb811" stroke="none" /><path d="M 120.77682067341334 103.0534771498775 l 4.754307942487742 0.6987195439600626 a25.805377509947974,25.805377509947974 0 0,0 -0.06817351614574395,0.4377228780363726 l -4.74161293420373 -0.7802306039278858" fill="#ff3605" stroke="none" /><path d="M 120.7213421655516 103.40968896794604 l 15.018976500944724 2.471366867839604 a36.220949685594036,36.220949685594036 0 0,0 -0.10622256176151935,0.6126635086931351 l -14.97433912169097 -2.728823409453327" fill="#ffc212" stroke="none" /><path d="M 120.592083275326 104.11899336999214 l 56.44132959171096 11.289846649967851 a78.55939822009901,78.55939822009901 0 0,0 -0.27586427909573563,1.3201104394662504 l -56.23920760179086 -12.257073540719512" fill="#46fff9" stroke="none" /><path d="M 120.26092885502905 105.52220625578681 l 9.195905740285172 2.5063850018911555 a30.53135080468213,30.53135080468213 0 0,0 -0.14216197717532442,0.5044827048458193 l -9.151525271035267 -2.6638756306399833" fill="#ff780b" stroke="none" /><path d="M 120.05942366710727 106.21446072829308 l 7.748243772373527 2.400425726867379 a29.111555043660367,29.111555043660367 0 0,0 -0.1519835053037045,0.4760861656852742 l -7.705895551292568 -2.5330809262440366" fill="#ff6409" stroke="none" /><path d="M 119.94978838288452 106.5578916946017 l 9.477511831938221 3.115446386462889 a30.97643406791493,30.97643406791493 0 0,0 -0.17039189154983925,0.5037333507121199 l -9.422634518816016 -3.2776814116491693" fill="#ff7e0b" stroke="none" /><path d="M 119.71291397450082 107.23885506374661 l 14.293162225256042 5.248647150039948 a36.226384446187765,36.226384446187765 0 0,0 -0.2193754541855658,0.581919455599052 l -14.200956087256035 -5.493234885833158" fill="#ffc212" stroke="none" /><path d="M 119.58574465831526 107.57618678355244 l 8.821483096441987 3.412339168744375 a30.45846830218079,30.45846830218079 0 0,0 -0.19281853021877202,0.4860286545377944 l -8.76160589125709 -3.563268840495734" fill="#ff770a" stroke="none" /><path d="M 119.4528033332814 107.91128576633889 l 13.30934784971513 5.412795903948658 a35.367919114559356,35.367919114559356 0 0,0 -0.23355315779587663,0.5604425566683705 l -13.214468847382767 -5.640470970058307" fill="#ffb711" stroke="none" /><path d="M 119.31412917781788 108.2440532568976 l 9.140002113889171 3.901323404298168 a30.937804734790433,30.937804734790433 0 0,0 -0.2126843223085159,0.48666335151284495 l -9.071683909563689 -4.057648825586858" fill="#ff7d0b" stroke="none" /><path d="M 119.0197475246899 108.90220220490707 l 17.95439601182463 8.403563904134733 a40.823728772365214,40.823728772365214 0 0,0 -0.30252471259041747,0.6321602959932517 l -17.8074920412743 -8.710536702193089" fill="#fffc17" stroke="none" /><path d="M 118.70294669586154 109.54985784667822 l 9.93871807325295 5.074780264372946 a32.1593687846255,32.1593687846255 0 0,0 -0.25527177539314116,0.4895172881615866 l -9.85013822888486 -5.2446437956390355" fill="#ff8d0d" stroke="none" /><path d="M 118.5362547648365 109.86951160357373 l 19.198394667801157 10.22206380672405 a42.75014819005594,42.75014819005594 0 0,0 -0.3504588959786443,0.6448048955926026 l -19.020090422207172 -10.550123535791256" fill="#ebff1a" stroke="none" /><line stroke="#e1ed5e" stroke-width="0.3" x1="174.33088141563837" x2="178.70328620479359" y1="141.23008692659167" y2="143.65538615756765" /><path d="M 175.20536237346943 141.71514677278685 a86.0,86.0 0 0,1 -30.301960400862466,31.631185727798858" fill="none" id="id77" stroke="none" /><text fill="#e1ed5e" style="font-size:6.75px; font-family:Arial;" text-anchor="middle"><textPath startOffset="22.145653131862474" xlink:href="#id77">May</textPath></text><path d="M 117.81537515405839 111.11811171558189 l 8.345472761707809 5.208192231802443 a30.837285293200267,30.837285293200267 0 0,0 -0.2841175782152087,0.4466800236297153 l -8.25483749186671 -5.3506859301108305" fill="#ff7c0b" stroke="none" /><path d="M 117.423217284605 111.72311816256416 l 12.62616655822007 8.495448348280505 a36.21817086887307,36.21817086887307 0 0,0 -0.35150642556441514,0.5128583797952787 l -12.478470395840336 -8.710941463145828" fill="#ffc212" stroke="none" /><path d="M 117.21940702142032 112.02048342749411 l 12.15970572669415 8.48841896757 a35.829420080664,35.829420080664 0 0,0 -0.3563916611084833,0.5013095034995659 l -12.012198967055708 -8.69590569777907" fill="#ffbd11" stroke="none" /><path d="M 117.01052211995028 112.31430620078461 l 12.324945390388159 8.922309989955334 a36.215514925000306,36.215514925000306 0 0,0 -0.368877404866157,0.5004530446578046 l -12.169965965938173 -9.132569343882016" fill="#ffc212" stroke="none" /><path d="M 116.57777611688842 112.89097897827486 l 15.750054644992808 12.247337755300267 a40.95147872746937,40.95147872746937 0 0,0 -0.4362962145810896,0.5512460144503672 l -15.537491999770157 -12.515903713665317" fill="#fffd18" stroke="none" /><path d="M 115.6541949942343 113.99807769240083 l 7.047297268351147 6.301736673151024 a30.453903103282055,30.453903103282055 0 0,0 -0.3518184243426113,0.38671007786918743 l -6.938081143166656 -6.421784326577883" fill="#ff760a" stroke="none" /><path d="M 115.16444852881244 114.52719865689866 l 10.2595426047221 9.8284097350809 a35.207598402923026,35.207598402923026 0 0,0 -0.4218426884741522,0.43284776068699515 l -10.08931311509714 -10.003080187835632" fill="#ffb510" stroke="none" /><path d="M 114.91283532996324 114.78537596483092 l 6.732717169336125 6.675172923923927 a30.480897322857185,30.480897322857185 0 0,0 -0.3715883807781125,0.36841243079565816 l -6.617136868428047 -6.789765364948246" fill="#ff770a" stroke="none" /><path d="M 114.39649973595853 115.28858382429668 l 13.60463714122963 14.447653189845362 a40.844919612802,40.844919612802 0 0,0 -0.5145880820296024,0.4762950463726061 l -13.35461928788606 -14.679065982350348" fill="#fffc17" stroke="none" /><path d="M 114.13192950727249 115.5334660781643 l 8.358947106364413 9.18794714190033 a33.42136745327794,33.42136745327794 0 0,0 -0.42769001362298464,0.38244304744917007 l -8.199992065918051 -9.330085719232887" fill="#ff9e0e" stroke="none" /><path d="M 113.59037401385872 116.0094264158162 l 8.037782447787839 9.468487512777587 a33.420072562493,33.420072562493 0 0,0 -0.44054923045094796,0.36752183671852195 l -7.874058883174995 -9.60507153340798" fill="#ff9e0e" stroke="none" /><path d="M 113.31354834802062 116.24036423190432 l 7.1988445623437896 8.781419850306758 a32.355029617757424,32.355029617757424 0 0,0 -0.43255474477706596,0.34843548344860964 l -7.047039047211471 -8.90370362754877" fill="#ff900d" stroke="none" /><path d="M 113.03279911837588 116.46651593811092 l 12.907528018127362 16.308239995230903 a41.798148265669994,41.798148265669994 0 0,0 -0.5664446347177077,0.44047077406623514 l -12.625673438774424 -16.527411820917933" fill="#f6ff19" stroke="none" /><path d="M 112.45986205192187 116.90419585922612 l 10.719128010200595 14.542555813978584 a39.06614609986727,39.06614609986727 0 0,0 -0.5432407863174379,0.3932644357589817 l -10.46790621350919 -14.724421021110643" fill="#ffe615" stroke="none" /><path d="M 112.16784306229584 117.11559508785304 l 9.36754728807383 13.176628390762302 a37.16708006853874,37.16708006853874 0 0,0 -0.5231795864284768,0.3652199835013852 l -9.139972610471593 -13.33549319006881" fill="#ffce13" stroke="none" /><path d="M 111.8722381534696 117.32195027204791 l 8.821724390240092 12.871159525787759 a36.60415229211872,36.60415229211872 0 0,0 -0.521354181982633,0.3507903609357937 l -8.599473920160456 -13.020699560780674" fill="#ffc712" stroke="none" /><path d="M 111.5731344415666 117.5232005979908 l 9.621518504122744 14.568205325557471 a38.45870054536641,38.45870054536641 0 0,0 -0.5540147371285008,0.3591056591905348 l -9.370018134737233 -14.7312248264519" fill="#ffdf14" stroke="none" /><path d="M 110.96478420261333 117.91015095944535 l 5.142047427150996 8.399148032384641 a30.84816426614529,30.84816426614529 0 0,0 -0.45400748071432917,0.27261844747450414 l -4.99710718987923 -8.486180480395069" fill="#ff7c0b" stroke="none" /><line stroke="#e1ed5e" stroke-width="0.3" x1="143.1302829299769" x2="145.66735839644613" y1="173.24464959558577" y2="177.55315839532614" /><path d="M 143.63769802327073 174.10635135553383 a86.0,86.0 0 0,1 -40.68552437913181,11.842963189579606" fill="none" id="id78" stroke="none" /><text fill="#e1ed5e" style="font-size:6.75px; font-family:Arial;" text-anchor="middle"><textPath startOffset="21.407464694133747" xlink:href="#id78">June</textPath></text><path d="M 110.65571695917076 118.09573695890943 l 7.72156030192894 13.112897486997165 a36.21744308354138,36.21744308354138 0 0,0 -0.5384456440723301,0.31087173754914244 l -7.495322189996211 -13.243516121822479" fill="#ffc212" stroke="none" /><path d="M 110.34350942703117 118.27599006163325 l 14.863690396965465 26.262716720132026 a51.177136738576536,51.177136738576536 0 0,0 -0.7682804662079291,0.42615222371210626 l -14.410665742601442 -26.514001859277275" fill="#8bff24" stroke="none" /><path d="M 110.02825361518725 118.45085714620011 l 7.2273860933210665 13.297576374249912 a36.13474965669866,36.13474965669866 0 0,0 -0.5475467371197382,0.29153779682364445 l -6.998050540414774 -13.419684638796125" fill="#ffc112" stroke="none" /><path d="M 109.71004243097381 118.62028667847754 l 7.0376719681249025 13.495663950711362 a36.2204392906861,36.2204392906861 0 0,0 -0.5537808130388148,0.2827644289821315 l -6.804963933372505 -13.61448633136633" fill="#ffc212" stroke="none" /><path d="M 109.3889696526874 118.78422872680471 l 6.772577232527294 13.549691234685097 a36.14800102078981,36.14800102078981 0 0,0 -0.5574361733450969,0.2726699658659549 l -6.538980809920128 -13.663954950648275" fill="#ffc112" stroke="none" /><path d="M 109.06512990194946 118.94263497670748 l 4.1011488512976735 8.569823765963738 a30.50059478560038,30.50059478560038 0 0,0 -0.4742280205300196,0.22196265878455163 l -3.9534321168961473 -8.638962656318824" fill="#ff770b" stroke="none" /><path d="M 108.73861861582097 119.09545874513695 l 3.935528601364788 8.599840243812682 a30.45757038521313,30.45757038521313 0 0,0 -0.4772941997788105,0.2134876246239333 l -3.78732099873035 -8.666131619346466" fill="#ff770a" stroke="none" /><path d="M 108.4095320186766 119.2426549942271 l 7.270884935942425 16.63720763704053 a39.156608871419635,39.156608871419635 0 0,0 -0.6182360989063371,0.2638882280322551 l -6.984213761865656 -16.75957051473219" fill="#ffe715" stroke="none" /><path d="M 108.07796709384702 119.3841803445677 l 3.8663012479023946 9.277715517416839 a31.051084049078927,31.051084049078927 0 0,0 -0.49377957111383664,0.2008158528996389 l -3.706467215598117 -9.34271862689577" fill="#ff7f0b" stroke="none" /><path d="M 107.74402155503746 119.51999308798841 l 7.580414164936219 19.107595588675824 a41.55633450040035,41.55633450040035 0 0,0 -0.6653520156253189,0.2573724530330987 l -7.2512898868173705 -19.234907929846965" fill="#f9ff18" stroke="none" /><path d="M 107.407793817531 119.65005319985036 l 4.863277752426525 12.900422030466437 a34.78667324126421,34.78667324126421 0 0,0 -0.5605803620336619,0.20585287378585315 l -4.641108238738736 -12.982005753261014" fill="#ffb010" stroke="none" /><path d="M 107.06938296918513 119.77432235084164 l 0.3864822186493258 1.0810595504237 a22.148067183092696,22.148067183092696 0 0,0 -0.35910900172391125,0.12491675203531726 l -0.36786744488039275 -1.0875347350276077" fill="#ff0200" stroke="none" /><path d="M 106.38641147887787 120.00534299687104 l 2.943675931211892 9.221022928180435 a30.679488200830946,30.679488200830946 0 0,0 -0.5030842447933626,0.1558567850290685 l -2.784951053546905 -9.27019630101615" fill="#ff7a0b" stroke="none" /><path d="M 106.0420521117495 120.11202640906438 l 2.7535606831208583 9.165707967032521 a30.57038656338146,30.57038656338146 0 0,0 -0.5038872965018263,0.14667424827953573 l -2.595813374237425 -9.211625909614574" fill="#ff780b" stroke="none" /><path d="M 105.69591212413111 120.21278271476187 l 2.565518873868196 9.104121415150676 a30.458695144362096,30.458695144362096 0 0,0 -0.5044809844985347,0.1374985356523689 l -2.4088564884349664 -9.146820444947187" fill="#ff770a" stroke="none" /><path d="M 105.3480935250658 120.30758222061773 l 2.5359580450512413 9.62944575792201 a30.957776298502708,30.957776298502708 0 0,0 -0.5150706272480523,0.1309289392784329 l -2.3702821245777916 -9.671559929035713" fill="#ff7d0b" stroke="none" /><path d="M 104.9986988182912 120.39639698878246 l 2.2536687896108023 9.195737727972263 a30.467872800947333,30.467872800947333 0 0,0 -0.5090569957045574,0.12013606489593938 l -2.095479640166366 -9.233069936514427" fill="#ff770a" stroke="none" /><path d="M 104.29559338865022 120.5559693870025 l 4.866120819076325 23.286149674846154 a44.78915506076636,44.78915506076636 0 0,0 -0.7539582725752265,0.15081277034797336 l -4.46566606097014 -23.36625184185699" fill="#d3ff1c" stroke="none" /><path d="M 103.58742460773223 120.69131181640829 l 2.121832446224262 12.238165694791252 a33.42074363727935,33.42074363727935 0 0,0 -0.5661195417369599,0.09315475515906255 l -1.9114354014342299 -12.272786448445986" fill="#ff9e0e" stroke="none" /><path d="M 102.51750503828377 120.84855314841334 l 2.4934314513807614 20.64918931462241 a41.799187959000975,41.799187959000975 0 0,0 -0.7131023041881053,0.07990460057334643 l -2.138593245591857 -20.688949675702727" fill="#f6ff19" stroke="none" /><path d="M 102.15924093988457 120.88869738790638 l 1.2787867529655275 12.37110181311602 a33.437019563787885,33.437019563787885 0 0,0 -0.5714552819308218,0.05411740933866564 l -1.0662319076496904 -12.39123097795987" fill="#ff9e0e" stroke="none" /><path d="M 101.08105385017728 120.97215588758144 l 0.7314079635185973 14.189119095052511 a35.20795756971009,35.20795756971009 0 0,0 -0.6038571113556475,0.025932222598844715 l -0.4877250915621202 -14.199583886077187" fill="#ffb510" stroke="none" /><path d="M 100.72087961077811 120.9876233191556 l 0.32523907018061343 9.46898066135511 a30.474564645295793,30.474564645295793 0 0,0 -0.5229822551264299,0.013470167746283719 l -0.16264350098343966 -9.473168546451438" fill="#ff770a" stroke="none" /><line stroke="#e1ed5e" stroke-width="0.3" x1="101.45913802915013" x2="101.54496967792366" y1="184.9874750549273" y2="189.98673829345242" /><path d="M 101.47630435890484 185.9873277026323 a86.0,86.0 0 0,1 -42.54439059252881,-10.42667462771756" fill="none" id="id79" stroke="none" /><text fill="#e1ed5e" style="font-size:6.75px; font-family:Arial;" text-anchor="middle"><textPath startOffset="22.145653131862474" xlink:href="#id79">July</textPath></text><path d="M 100.36049292484886 120.99690560180557 l 0.16676713523149322 9.713349568253893 a30.714781063538766,30.714781063538766 0 0,0 -0.5272600600803443,0.004525893479308474 l -1.1897175533880069e-15 -9.714781063538766" fill="#ff7a0b" stroke="none" /><path d="M 100.0 121.0 l 1.1581836048023006e-15 9.457286832486503 a30.457286832486503,30.457286832486503 0 0,0 -0.5228398292001663,-0.004487951113420591 l 0.16234690435131294 -9.455893279567517" fill="#ff770a" stroke="none" /><path d="M 99.27912038922189 120.98762331915562 l -0.32478904949019644 9.455878799969332 a30.461455057567953,30.461455057567953 0 0,0 -0.5224491145881558,-0.022436212940601424 l 0.48706392467919096 -9.448910018602902" fill="#ff770a" stroke="none" /><path d="M 98.91894614982273 120.97215588758144 l -0.5852692262135168 11.354066632611632 a32.36914109178602,32.36914109178602 0 0,0 -0.5546770589762339,-0.03336799448336502 l 0.780090637322197 -11.342346660303575" fill="#ff900d" stroke="none" /><path d="M 98.19965949673042 120.92268563240118 l -0.539975986663259 6.2753394691077995 a27.298528361348794,27.298528361348794 0 0,0 -0.4665454165635536,-0.04418233601400951 l 0.6476209666118279 -6.265145377588606" fill="#ff4b07" stroke="none" /><path d="M 97.48249496171623 120.84855314841334 l -1.1331219575737241 9.38387530386626 a30.452041107043854,30.452041107043854 0 0,0 -0.518441907831495,-0.0671226845373788 l 1.294041687296013 -9.363041023128485" fill="#ff760a" stroke="none" /><path d="M 96.76829788921471 120.74984581791261 l -0.7279256609126709 4.673804921694892 a25.730150971573163,25.730150971573163 0 0,0 -0.43584731192522136,-0.07171850931794017 l 0.8080504758909557 -4.660620413881283" fill="#ff3505" stroke="none" /><path d="M 96.41257539226777 120.69131181640829 l -2.6002280631861807 14.9974244847396 a36.221167076017785,36.221167076017785 0 0,0 -0.6117328510527392,-0.1114781033552436 l 2.8572956477899774 -14.95057820745299" fill="#ffc212" stroke="none" /><path d="M 96.05791012581884 120.62667999033965 l -0.6391010582500247 3.344046795165696 a24.404570329852838,24.404570329852838 0 0,0 -0.4108143514623754,-0.0821743758194059 l 0.6964118952433582 -3.3325830226834285" fill="#ff2203" stroke="none" /><path d="M 95.70440661134978 120.55596938700252 l -3.8286210870943793 18.32133787818178 a39.71709809439065,39.71709809439065 0 0,0 -0.6661835548413745,-0.14519160513649654 l 4.14256705855489 -18.252914814911563" fill="#ffee16" stroke="none" /><path d="M 95.35216902796893 120.47920084513623 l -4.8132531706878 21.208081574861797 a42.747416632122736,42.747416632122736 0 0,0 -0.7142235241379333,-0.1685548069667218 l 5.176608848565621 -21.12233062424885" fill="#ebff1a" stroke="none" /><path d="M 95.00130118170881 120.39639698878247 l -2.92556786369401 11.937315236353024 a33.290583483998844,33.290583483998844 0 0,0 -0.5538835073689442,-0.14079502162857999 l 3.130056664288333 -11.88533498288918" fill="#ff9c0e" stroke="none" /><path d="M 94.6519064749342 120.30758222061772 l -1.5685679575253806 5.956108025556848 a27.159190551483047,27.159190551483047 0 0,0 -0.44983198139830943,-0.12260370684407693 l 1.670581339858385 -5.928303824568626" fill="#ff4906" stroke="none" /><path d="M 93.95794788825049 120.11202640906438 l -4.080204269560455 13.581672998847388 a35.18132251692202,35.18132251692202 0 0,0 -0.5769056169841054,-0.17872683483714344 l 4.312750519416194 -13.509629576203595" fill="#ffb510" stroke="none" /><path d="M 93.27111125876986 119.89276391827306 l -3.9383949341299194 11.643164815836506 a33.291226203512544,33.291226203512544 0 0,0 -0.5397843030399783,-0.18776500063131615 l 4.13768500921492 -11.573841382636601" fill="#ff9c0e" stroke="none" /><path d="M 92.59220618246901 119.65005319985036 l -3.3369478704517888 8.851650679629723 a30.459753741208175,30.459753741208175 0 0,0 -0.4876863850195578,-0.1886475704223463 l 3.488406517964875 -8.793063221069335" fill="#ff770a" stroke="none" /><path d="M 92.25597844496254 119.51999308798841 l -3.585389381824423 9.037523391891076 a30.722748895157054,30.722748895157054 0 0,0 -0.4885583301668576,-0.19869241966080128 l 3.7400021731817215 -8.974643715650984" fill="#ff7a0b" stroke="none" /><path d="M 91.92203290615298 119.3841803445677 l -3.6410912880479827 8.73729359857343 a30.465613830891854,30.465613830891854 0 0,0 -0.48101566474887286,-0.20531698432182285 l 3.7905420279672866 -8.673501964592203" fill="#ff770a" stroke="none" /><path d="M 91.59046798132341 119.24265499422711 l -3.80783566202554 8.71307318366127 a30.50879891115753,30.50879891115753 0 0,0 -0.47809699126831123,-0.21384670304609002 l 3.9568460561494865 -8.646422729705325" fill="#ff770b" stroke="none" /><path d="M 91.26138138417905 119.09545874513695 l -2.362021187462128 5.161442571559712 a26.676234095730102,26.676234095730102 0 0,0 -0.41476626207914513,-0.1941315534293467 l 2.450276163412763 -5.120134786559839" fill="#ff4206" stroke="none" /><path d="M 89.97174638481275 118.45085714620012 l -7.272314004084581 13.380238669718736 a36.22883245139434,36.22883245139434 0 0,0 -0.5438738088867076,-0.30167763371601297 l 7.500932001127391 -13.253428120569575" fill="#ffc212" stroke="none" /><line stroke="#e1ed5e" stroke-width="0.3" x1="58.13341422392154" x2="55.67067388415222" y1="173.97424548756322" y2="178.32567169271397" /><path d="M 57.64086615596768 174.84453072859336 a86.0,86.0 0 0,1 -31.369924170532247,-30.572349798747897" fill="none" id="id80" stroke="none" /><text fill="#e1ed5e" style="font-size:6.75px; font-family:Arial;" text-anchor="middle"><textPath startOffset="22.145653131862474" xlink:href="#id80">August</textPath></text><path d="M 87.54013794807813 116.9041958592261 l -5.610566006496422 7.611810328213276 a30.456114814549764,30.456114814549764 0 0,0 -0.418187127436474,-0.31381541663481544 l 5.740406122843662 -7.514375884314446" fill="#ff760a" stroke="none" /><path d="M 87.2517909369889 116.68781488649013 l -1.7826133299061058 2.333498071503734 a23.93648148873283,23.93648148873283 0 0,0 -0.3243849805769671,-0.2522437229216632 l 1.8224082551183012 -2.302553296961278" fill="#ff1c02" stroke="none" /><path d="M 86.96720088162412 116.46651593811092 l -1.1733049861868867 1.48243252119726 a22.890568901287196,22.890568901287196 0 0,0 -0.3060242659602943,-0.24651148633645686 l 1.198580022502443 -1.4620727410673926" fill="#ff0c01" stroke="none" /><path d="M 85.86807049272751 115.53346607816431 l -6.363705856042575 6.994827492974902 a30.456445626064166,30.456445626064166 0 0,0 -0.3837080373453104,-0.35515443093844257 l 6.482843664701853 -6.884555315904082" fill="#ff770a" stroke="none" /><path d="M 85.60350026404147 115.28858382429668 l -6.48230585543108 6.883984181095726 a30.455661130187156,30.455661130187156 0 0,0 -0.3775450739690472,-0.3616796404472596 l 6.599523415265441 -6.771692410342884" fill="#ff760a" stroke="none" /><path d="M 85.34317274990678 115.03919595460226 l -10.054293405927469 10.316590769386806 a35.4055843684133,35.4055843684133 0 0,0 -0.43162455575400493,-0.4279354791542381 l 10.229909881811436 -10.142475280003909" fill="#ffb811" stroke="none" /><path d="M 85.08716467003676 114.78537596483092 l -3.3572671481609473 3.3285727295734624 a25.72764625582127,25.72764625582127 0 0,0 -0.30825787491845663,-0.31629973570292824 l 3.4139118242302136 -3.270450301802797" fill="#ff3505" stroke="none" /><path d="M 84.83555147118756 114.52719865689866 l -6.826328914112059 6.5394686819121155 a30.453222576738142,30.453222576738142 0 0,0 -0.35839696684629835,-0.38060515892743735 l 6.93758171469461 -6.421322063040188" fill="#ff760a" stroke="none" /><path d="M 84.58840730492382 114.26474011684316 l -7.711064624267509 7.1372462967115196 a31.507178609862503,31.507178609862503 0 0,0 -0.3639863795589613,-0.4000847921639679 l 7.832448704668351 -7.003823928989878" fill="#ff850c" stroke="none" /><path d="M 84.3458050057657 113.99807769240083 l -9.258843197798832 8.279314680332075 a33.42067747497647,33.42067747497647 0 0,0 -0.3787500701929849,-0.43094805368819367 l 9.399604331950409 -8.11915434883258" fill="#ff9e0e" stroke="none" /><path d="M 83.8745106332314 113.45245675266167 l -19.755219403726212 16.480506645313973 a46.726946825762255,46.726946825762255 0 0,0 -0.5085520154426366,-0.6203507694389647 l 20.035218238407477 -16.138953594176513" fill="#bdff1f" stroke="none" /><path d="M 83.64595745247003 113.17365903436017 l -7.700508743020569 6.20298475296458 a30.88811684532739,30.88811684532739 0 0,0 -0.3290813634555049,-0.4157835524860498 l 7.805856537117635 -6.06988125656385" fill="#ff7c0b" stroke="none" /><path d="M 83.4222238831116 112.89097897827486 l -6.628986936101265 5.154740336581376 a29.39731002980004,29.39731002980004 0 0,0 -0.30635919862497557,-0.40103402526248183 l 6.7164981120805365 -5.040185398078024" fill="#ff6809" stroke="none" /><path d="M 83.20337586046588 112.60449989151573 l -12.175681240225702 9.136858192256462 a36.22266045371137,36.22266045371137 0 0,0 -0.36895018649283406,-0.5005517869125096 l 12.330733446302366 -8.926500096075072" fill="#ffc212" stroke="none" /><path d="M 82.98947788004972 112.3143062007846 l -12.343021580882121 8.935395757876899 a36.237830524586045,36.237830524586045 0 0,0 -0.360454078981721,-0.5070238029888029 l 12.494590758393802 -8.722194728178591" fill="#ffc312" stroke="none" /><path d="M 82.78059297857968 112.02048342749411 l -7.754351648501228 5.4131396839519175 a30.456852051639,30.456852051639 0 0,0 -0.29559138249625017,-0.43127666091751865 l 7.8461327678128026 -5.279228287964348" fill="#ff770a" stroke="none" /><path d="M 82.576782715395 111.72311816256416 l -10.761902407572364 7.241088228259147 a33.97119509372768,33.97119509372768 0 0,0 -0.3213926783704668,-0.4866294781458406 l 10.884619524863558 -7.055278871774245" fill="#ffa50f" stroke="none" /><path d="M 82.37810715431573 111.42229804090323 l -12.773147704147137 8.279400021035707 a36.22175308498615,36.22175308498615 0 0,0 -0.333727066678103,-0.5246743794104007 l 12.91339246245113 -8.058911966946635" fill="#ffc212" stroke="none" /><path d="M 81.99639281039703 110.81064883170644 l -10.64960344376732 6.394780880022025 a33.42204797982185,33.42204797982185 0 0,0 -0.29113196365779165,-0.49440572181753717 l 10.757809117554883 -6.211023989910929" fill="#ff9e0e" stroke="none" /><line stroke="#e1ed5e" stroke-width="0.3" x1="26.387840678322732" x2="22.057713659400548" y1="142.50000000000003" y2="145.00000000000006" /><path d="M 25.521815274538298 143.00000000000003 a86.0,86.0 0 0,1 -11.493303480769221,-40.785679425670985" fill="none" id="id81" stroke="none" /><text fill="#e1ed5e" style="font-size:6.75px; font-family:Arial;" text-anchor="middle"><textPath startOffset="21.40746469413373" xlink:href="#id81">September</textPath></text><path d="M 81.63589988554817 110.18625677009913 l -8.46447852088489 4.695103549934885 a30.679431490285616,30.679431490285616 0 0,0 -0.2515050858195508,-0.4627410302997865 l 8.543828956319771 -4.549107686160511" fill="#ff7a0b" stroke="none" /><path d="M 81.29705330413844 109.54985784667822 l -9.520163681038488 4.86106340939012 a31.68940849550974,31.68940849550974 0 0,0 -0.24322388626547517,-0.4866107017531252 l 9.6022074805157 -4.696920851473242" fill="#ff870c" stroke="none" /><path d="M 81.1358732173502 109.22738970284198 l -8.494044283974201 4.154862701278859 a30.45577455127781,30.45577455127781 0 0,0 -0.2256928683369277,-0.47161129161901383 l 8.56411641027104 -4.008438907594741" fill="#ff760a" stroke="none" /><path d="M 80.9802524753101 108.90220220490708 l -4.284801838400872 2.00550361269972 a25.73091656393506,25.73091656393506 0 0,0 -0.18381129610041047,-0.4016608546367844 l 4.318597599356339 -1.9316537758482466" fill="#ff3505" stroke="none" /><path d="M 80.68587082218212 108.24405325689762 l -4.348251968162893 1.8560102021640728 a25.727797483942137,25.727797483942137 0 0,0 -0.16989431371533373,-0.40768450506354004 l 4.379472126414713 -1.7810931876592515" fill="#ff3505" stroke="none" /><path d="M 80.5471966667186 107.91128576633889 l -10.529529173712742 4.282267848548284 a32.36700499457874,32.36700499457874 0 0,0 -0.20490059673130318,-0.5164833547393708 l 10.601488445410169 -4.100883476595348" fill="#ff900d" stroke="none" /><path d="M 80.28708602549918 107.23885506374661 l -8.874998646552218 3.259022434554383 a30.45446075697776,30.45446075697776 0 0,0 -0.17599753232715357,-0.4922964213934748 l 8.929636348923314 -3.106191056779987" fill="#ff760a" stroke="none" /><path d="M 80.16572619554312 106.89939002012753 l -10.726158281053449 3.731114641665341 a32.356570254238775,32.356570254238775 0 0,0 -0.1779835986801177,-0.5261768838848425 l 10.788627301305933 -3.5464360833063373" fill="#ff900d" stroke="none" /><path d="M 79.94057633289273 106.21446072829308 l -9.030252253956885 2.7975952315527244 a30.453676261100753,30.453676261100753 0 0,0 -0.150417493867594,-0.500690916446664 l 9.076946067828107 -2.642166711515337" fill="#ff760a" stroke="none" /><path d="M 79.83685265289637 105.86919833188381 l -4.53763358681054 1.320839004940069 a25.7259638429766,25.7259638429766 0 0,0 -0.11978683511434343,-0.4250812192129009 l 4.559638913999459 -1.2427498618241724" fill="#ff3505" stroke="none" /><path d="M 79.73907114497094 105.5222062557868 l -4.582117529230402 1.248876508363328 a25.749262425347993,25.749262425347993 0 0,0 -0.11257395962697092,-0.4274616609284363 l 4.602880969662106 -1.170034343062089" fill="#ff3505" stroke="none" /><path d="M 79.56144815229197 104.8234425847677 l -6.443986752272007 1.5207633274699583 a27.621003425586988,27.621003425586988 0 0,0 -0.10494552696382527,-0.46240935555185364 l 6.4691431407934985 -1.4099196379790784" fill="#ff5007" stroke="none" /><path d="M 79.22317932658666 103.0534771498775 l -10.328463775626522 1.517928494833172 a31.439409508198047,31.439409508198047 0 0,0 -0.07389082169027439,-0.5346371770791866 l 10.35299911387201 -1.3404030095538997" fill="#ff840c" stroke="none" /><path d="M 79.17382384314188 102.69636545807758 l -9.374693967338207 1.2137418219837266 a30.452939024011513,30.452939024011513 0 0,0 -0.06267202342283443,-0.5190142587123756 l 9.394148077020702 -1.0526338863479519" fill="#ff760a" stroke="none" /><path d="M 79.13060592940153 102.33845913500099 l -9.401465203731862 1.053453785658003 a30.460301943146327,30.460301943146327 0 0,0 -0.05376621511040441,-0.5201393584147005 l 9.418163811323932 -0.8919099049603713" fill="#ff770a" stroke="none" /><path d="M 79.0935383218832 101.97986365728391 l -11.292059460027424 1.069369771174552 a32.34258165305839,32.34258165305839 0 0,0 -0.04759962054754994,-0.5531797430148877 l 11.308752703272717 -0.8753689807840024" fill="#ff900d" stroke="none" /><path d="M 79.06263194458094 101.62068470465958 l -3.0658635927525872 0.23731723195555776 a24.075034802721564,24.075034802721564 0 0,0 -0.02835814265869077,-0.4123211705005644 l 3.0694856965763444 -0.18465263730065004" fill="#ff1d03" stroke="none" /><path d="M 79.03789590574601 101.26102812881392 l -9.49700799199771 0.5713164176473338 a30.514176961205933,30.514176961205933 0 0,0 -0.026966410640040545,-0.5231411622822881 l 9.505415992094324 -0.4082034619883149" fill="#ff770b" stroke="none" /><path d="M 79.00696218219943 100.54070618675478 l -2.8392359198952444 0.07312864583333406 a23.840177531011893,23.840177531011893 0 0,0 -0.007025550921457731,-0.4092031197570733 l 2.840072902415368 -0.02437861010720839" fill="#ff1a02" stroke="none" /><line stroke="#e1ed5e" stroke-width="0.3" x1="15.003131293944662" x2="10.003315487706104" y1="100.72959589197737" y2="100.7725132973878" /><path d="M 14.003168132696942 100.73817937305945 a86.0,86.0 0 0,1 10.791469493833604,-42.45332614584628" fill="none" id="id82" stroke="none" /><text fill="#e1ed5e" style="font-size:6.75px; font-family:Arial;" text-anchor="middle"><textPath startOffset="22.145653131862435" xlink:href="#id82">October</textPath></text><path d="M 79.00077361379809 100.18025310272382 l -4.727661123419202 0.04058128477928323 a25.727835290972354,25.727835290972354 0 0,0 0.0,-0.44166877500619983 l 4.727661123419202 0.040581284779281496" fill="#ff3505" stroke="none" /><path d="M 79.00077361379809 99.81974689727619 l -15.221466425466371 -0.13065798238165105 a36.22202718595523,36.22202718595523 0 0,0 0.010674404422631551,-0.6217305432871614 l 15.216980589445074 0.3919354416378648" fill="#ffc212" stroke="none" /><path d="M 79.00696218219943 99.45929381324524 l -20.8119549390391 -0.5360421341430583 a41.81885706647151,41.81885706647151 0 0,0 0.02464387836340746,-0.7174796297208281 l 20.799686373678842 0.8932280284280251" fill="#f6ff19" stroke="none" /><path d="M 79.01933749520258 99.09900007780938 l -11.331664875674242 -0.48663044691454016 a32.34210906518067,32.34210906518067 0 0,0 0.028581816089142904,-0.5544795964357992 l 11.32164147012853 0.6810818367270514" fill="#ff900d" stroke="none" /><path d="M 79.03789590574601 98.7389718711861 l -13.539532164724259 -0.8145046334054861 a34.56400932753446,34.56400932753446 0 0,0 0.04071317509604719,-0.5919606305828102 l 13.523555028463146 1.0468086881426213" fill="#ffad10" stroke="none" /><path d="M 79.06263194458094 98.37931529534042 l -9.94834758869427 -0.7700650211123765 a30.97810702900204,30.97810702900204 0 0,0 0.045591479235620604,-0.5298420969981437 l 9.933662486760907 0.9407281654862009" fill="#ff7e0b" stroke="none" /><path d="M 79.0935383218832 98.0201363427161 l -14.118682928678226 -1.3370539524851175 a35.18185181534506,35.18185181534506 0 0,0 0.06210033689807033,-0.6007644266045445 l 14.093650199298493 1.5792229013725747" fill="#ffb510" stroke="none" /><path d="M 79.13060592940154 97.66154086499901 l -9.39910756726909 -1.0531896075747953 a30.457929552000195,30.457929552000195 0 0,0 0.06268229390892588,-0.5190993130705428 l 9.379643187100495 1.2143825975687743" fill="#ff770a" stroke="none" /><path d="M 79.22317932658666 96.9465228501225 l -1.1118424885338156 -0.1634025574155943 a22.123785617935656,22.123785617935656 0 0,0 0.058447362587425104,-0.3752739951201762 l 1.108873633808123 0.18246473446722045" fill="#ff0100" stroke="none" /><path d="M 79.2786578344484 96.59031103205396 l -15.013679140843093 -2.470495189250764 a36.21558108730318,36.21558108730318 0 0,0 0.10620681766125492,-0.6125727009066336 l 14.969057505689603 2.72786092307799" fill="#ffc212" stroke="none" /><path d="M 79.34024301695615 96.23510406497455 l -9.310773016681761 -1.6967330018073226 a30.46411100144072,30.46411100144072 0 0,0 0.09817234970454078,-0.513679217340502 l 9.280274374695061 1.8563147841811392" fill="#ff770a" stroke="none" /><path d="M 79.407916724674 95.88100663000787 l -2.4385087387070277 -0.4877700421616573 a23.486814123086187,23.486814123086187 0 0,0 0.08247483042280797,-0.39467191979783933 l 2.429776197459853 0.5295584132449057" fill="#ff1502" stroke="none" /><path d="M 79.83685265289637 94.1308016681162 l -18.15935534815691 -5.285923684567908 a39.9130424802492,39.9130424802492 0 0,0 0.19713941170966207,-0.6562129854626712 l 18.065939616443618 5.596874273621302" fill="#fff116" stroke="none" /><path d="M 79.94057633289273 93.78553927170692 l -9.935938154574742 -3.078179038693082 a31.401829320162083,31.401829320162083 0 0,0 0.16394040393476328,-0.5135409803467264 l 9.881633034862721 3.2482890527312" fill="#ff830c" stroke="none" /><path d="M 80.16572619554312 93.10060997987247 l -8.954792869389728 -3.114941800465296 a30.481095809765826,30.481095809765826 0 0,0 0.1761514573498788,-0.49272697707711755 l 8.900001241995906 3.2682037339233347" fill="#ff770a" stroke="none" /><path d="M 80.28708602549916 92.7611449362534 l -8.888005674558054 -3.2637987954042336 a30.46831703355239,30.46831703355239 0 0,0 0.18450643059437288,-0.48942522783420267 l 8.830668560149245 3.415892303432581" fill="#ff770a" stroke="none" /><path d="M 80.41425534168474 92.42381321644754 l -12.755805848061357 -4.934219727949645 a34.67688221624811,34.67688221624811 0 0,0 0.21952336523197222,-0.5533422836604354 l 12.669223807863254 5.1524630288236635" fill="#ffae10" stroke="none" /><path d="M 80.5471966667186 92.08871423366112 l -11.616283148037368 -4.724241229005837 a33.54019494925081,33.54019494925081 0 0,0 0.22148372422234403,-0.5314803098149042 l 11.533473579278546 4.922954048262005" fill="#ffa00e" stroke="none" /><path d="M 80.83023694016515 91.42560881287825 l -25.3340878225293 -11.331615246429385 a48.75286489522727,48.75286489522727 0 0,0 0.34827081510033925,-0.761034583869289 l 25.13583254257391 11.764838812513345" fill="#a6ff21" stroke="none" /><path d="M 81.29705330413844 90.45014215332179 l -8.685453995635768 -4.434854696481507 a30.752181668181198,30.752181668181198 0 0,0 0.24410193073821795,-0.4680976382365456 l 8.60804399592261 4.583298577822539" fill="#ff7a0b" stroke="none" /><path d="M 81.63589988554816 89.8137432299009 l -4.96938735404878 -2.756435396395422 a26.68267074262459,26.68267074262459 0 0,0 0.2256167645719342,-0.3986432048177688 l 4.921337224455477 2.841335371312296" fill="#ff4306" stroke="none" /><line stroke="#e1ed5e" stroke-width="0.3" x1="26.387840678322718" x2="22.05771365940052" y1="57.49999999999999" y2="54.99999999999999" /><path d="M 25.521815274538284 56.99999999999999 a86.0,86.0 0 0,1 29.574782752854787,-30.34633250058573" fill="none" id="id83" stroke="none" /><text fill="#e1ed5e" style="font-size:6.75px; font-family:Arial;" text-anchor="middle"><textPath startOffset="21.40746469413373" xlink:href="#id83">November</textPath></text><path d="M 81.99639281039701 89.18935116829357 l -17.256474293074543 -10.362016994212823 a41.128519598219285,41.128519598219285 0 0,0 0.36865261728138465,-0.602166345009369 l 17.076053711337764 10.656720455346735" fill="#ffff18" stroke="none" /><path d="M 82.18462484594161 88.88188828441811 l -16.950445321152866 -10.578331529914987 a40.98045781613091,40.98045781613091 0 0,0 0.3775711226901357,-0.5936045177654551 l 16.76635650683684 10.867749722359115" fill="#fffe18" stroke="none" /><path d="M 82.78059297857968 87.97951657250589 l -11.63498017540452 -8.122119780529857 a35.189488835448955,35.189488835448955 0 0,0 0.35002632896063784,-0.4923558666812373 l 11.493838747913909 8.320652873920615" fill="#ffb510" stroke="none" /><path d="M 83.42222388311158 87.10902102172516 l -39.005048101594845 -30.330561323724446 a70.40988491810052,70.40988491810052 0 0,0 0.7501454700401669,-0.947784296076637 l 38.478636200913115 30.995665563715765" fill="#3cffa5" stroke="none" /><path d="M 85.08716467003674 85.21462403516908 l -7.102959125164058 -7.042250437605811 a31.002265721310877,31.002265721310877 0 0,0 0.3779443104253832,-0.37471403658433694 l 6.9810228946086985 7.1631444844188215" fill="#ff7e0b" stroke="none" /><path d="M 85.86807049272753 84.46653392183569 l -6.361377894368251 -6.992268655295965 a30.452986282799287,30.452986282799287 0 0,0 0.38970392627884193,-0.34847565391219726 l 6.240408941266017 7.100439839091564" fill="#ff760a" stroke="none" /><path d="M 86.40962598614128 83.9905735841838 l -6.3625606299252215 -7.495080423620775 a30.83150081757703,30.83150081757703 0 0,0 0.4064262258387337,-0.3390552126442985 l 6.232960069924579 7.6031978201769554" fill="#ff7c0b" stroke="none" /><path d="M 86.68645165197937 83.75963576809568 l -3.5955842700211145 -4.3860281756013055 a26.67146095816517,26.67146095816517 0 0,0 0.3565710532145246,-0.28722840012913337 l 3.5197624464513444 4.447104869523838" fill="#ff4206" stroke="none" /><path d="M 88.12776184653039 82.6780497279521 l -6.981572335141465 -10.186322683788424 a33.34923163962338,33.34923163962338 0 0,0 0.4749942367868895,-0.31959732082948394 l 6.805681810257586 10.304669678675017" fill="#ff9d0e" stroke="none" /><path d="M 89.03521579738668 82.08984904055464 l -2.4762111378317644 -4.044704799156625 a25.742494966939102,25.742494966939102 0 0,0 0.3788648551793329,-0.22749745986373118 l 2.406413526094997 4.08661625955628" fill="#ff3505" stroke="none" /><line stroke="#e1ed5e" stroke-width="0.3" x1="56.869717070023135" x2="54.33264160355391" y1="26.7553504044142" y2="22.446841604673864" /><path d="M 56.362301976729285 25.89364864446614 a86.0,86.0 0 0,1 42.16139366436587,-11.88097634709845" fill="none" id="id84" stroke="none" /><text fill="#e1ed5e" style="font-size:6.75px; font-family:Arial;" text-anchor="middle"><textPath startOffset="22.145653131862474" xlink:href="#id84">December</textPath></text><path d="M 89.34428304082924 81.90426304109057 l -7.723334808772184 -13.115910987561255 a36.22094023383648,36.22094023383648 0 0,0 0.5384976362943831,-0.31090175527253755 l 7.497044704617401 13.246559640109966" fill="#ffc212" stroke="none" /><path d="M 89.97174638481275 81.54914285379989 l -7.269353113039694 -13.374790963688241 a36.22263209843871,36.22263209843871 0 0,0 0.5488784121605655,-0.29224683877598545 l 7.038685885092566 13.497608270186802" fill="#ffc212" stroke="none" /><path d="M 90.28995756902619 81.37971332152246 l -7.055078999513553 -13.529044228602201 a36.25808564102495,36.25808564102495 0 0,0 0.5543563948624165,-0.28305832516244944 l 6.821795382937554 13.648160505437485" fill="#ffc312" stroke="none" /><path d="M 90.61103034731259 81.2157712731953 l -6.350147148590637 -12.704548092116902 a35.20316552863005,35.20316552863005 0 0,0 0.5428659214275353,-0.2655429255284433 l 6.131120977901048 12.811684767742559" fill="#ffb510" stroke="none" /><path d="M 91.26138138417902 80.90454125486306 l -9.836168620893108 -21.493803582458895 a44.63755075256244,44.63755075256244 0 0,0 0.6995056991438279,-0.3128800018737423 l 9.465749518893663 21.659487335242485" fill="#d5ff1c" stroke="none" /><path d="M 91.5904679813234 80.7573450057729 l -8.87664181792437 -20.311493627742653 a43.16645085153584,43.16645085153584 0 0,0 0.68154671579756,-0.29091176570113014 l 8.526660026956378 20.460880043103188" fill="#e6ff1a" stroke="none" /><path d="M 92.592206182469 80.34994680014964 l -3.434604456105863 -9.110696375377476 a30.73659571997413,30.73659571997413 0 0,0 0.49531416346955115,-0.1818862216420637 l 3.277701140982185 9.168313446028263" fill="#ff7a0b" stroke="none" /><path d="M 92.93061703081487 80.22567764915836 l -5.911282220556796 -16.534908441883854 a38.559796544167384,38.559796544167384 0 0,0 0.6252089597337135,-0.21748013059655302 l 5.626567488778078 16.63394700504899" fill="#ffe015" stroke="none" /><path d="M 93.95794788825049 79.88797359093562 l -5.8365339748199325 -19.427923372377325 a41.285692874590026,41.285692874590026 0 0,0 0.6805061533536502,-0.19808542343830665 l 5.502167809084658 19.525252490118152" fill="#fdff18" stroke="none" /><path d="M 95.00130118170881 79.60360301121753 l -2.970827750627389 -12.121991020015502 a33.48072449071905,33.48072449071905 0 0,0 0.5593956996802941,-0.1320158619690275 l 2.762299897207189 12.17120302563076" fill="#ff9f0e" stroke="none" /><path d="M 95.35216902796891 79.52079915486377 l -3.1381789960480395 -13.827395689471699 a35.179035191593876,35.179035191593876 0 0,0 0.5900656353122865,-0.12860205885340092 l 2.9003509441166346 13.879229206458813" fill="#ffb510" stroke="none" /><path d="M 95.70440661134978 79.44403061299748 l -2.90037414463507 -13.879340229338208 a35.17914861268453,35.17914861268453 0 0,0 0.5921882224100974,-0.11845422968045803 l 2.6616894366939956 13.927083855681532" fill="#ffb510" stroke="none" /></svg>