<?xml version="1.0" encoding="utf-8" ?>
<svg baseProfile="full" height="200mm" version="1.1" viewBox="0,0,200,200" width="200mm" xmlns="http://www.w3.org/2000/svg" xmlns:ev="http://www.w3.org/2001/xml-events" xmlns:xlink="http://www.w3.org/1999/xlink"><defs /><rect fill="#1a1a1a" height="200" width="200" x="0" y="0" /><text alignment-baseline="middle" fill="#e1ed5e" style="dominant-baseline: central; font-size:9.0px; font-family:Arial;" text-anchor="middle" x="100.0" y="100.0">2018</text><line stroke="#e1ed5e" stroke-width="0.3" x1="100.0" x2="100.0" y1="15.0" y2="10.0" /><path d="M 100.0 14.0 a86.0,86.0 0 0,1 42.46469731375804,11.215312516191453" fill="none" id="id1" stroke="none" /><text fill="#e1ed5e" style="font-size:6.75px; font-family:Arial;" text-anchor="middle"><textPath startOffset="22.20632615414155" xlink:href="#id1">January</textPath></text><line stroke="#e1ed5e" stroke-width="0.3" x1="143.23703022742887" x2="145.7803849466894" y1="26.818313649435467" y2="22.513508569990506" /><path d="M 143.74570117128098 25.957352633546478 a86.0,86.0 0 0,1 28.547481713284135,27.462654790039114" fill="none" id="id2" stroke="none" /><text fill="#e1ed5e" style="font-size:6.75px; font-family:Arial;" text-anchor="middle"><textPath startOffset="19.985693538727396" xlink:href="#id2">February</textPath></text><line stroke="#e1ed5e" stroke-width="0.3" x1="172.23445277983987" x2="176.4835382374775" y1="55.19839476539836" y2="52.563006222186495" /><path d="M 173.08426987136738 54.67131705675599 a86.0,86.0 0 0,1 12.851231095245387,41.99856678651699" fill="none" id="id3" stroke="none" /><text fill="#e1ed5e" style="font-size:6.75px; font-family:Arial;" text-anchor="middle"><textPath startOffset="22.20632615414155" xlink:href="#id3">March</textPath></text><line stroke="#e1ed5e" stroke-width="0.3" x1="184.98032266829074" x2="189.97916517819016" y1="98.17113171792111" y2="98.06355123074" /><path d="M 185.9800911702706 98.14961562048488 a86.0,86.0 0 0,1 -9.607161424134198,41.387399972396054" fill="none" id="id4" stroke="none" /><text fill="#e1ed5e" style="font-size:6.75px; font-family:Arial;" text-anchor="middle"><textPath startOffset="21.466115282336823" xlink:href="#id4">April</textPath></text><line stroke="#e1ed5e" stroke-width="0.3" x1="174.80103733775053" x2="179.2010983576182" y1="140.37084112569926" y2="142.7455964860345" /><path d="M 175.68104954172406 140.8457921977663 a86.0,86.0 0 0,1 -30.038265399797805,32.042727171017184" fill="none" id="id5" stroke="none" /><text fill="#e1ed5e" style="font-size:6.75px; font-family:Arial;" text-anchor="middle"><textPath startOffset="22.206326154141568" xlink:href="#id5">May</textPath></text><line stroke="#e1ed5e" stroke-width="0.3" x1="143.8653032363475" x2="146.44561519142675" y1="172.8068346515853" y2="177.08958963109032" /><path d="M 144.38136562736335 173.6633856474863 a86.0,86.0 0 0,1 -40.68145358897372,12.25698825130547" fill="none" id="id6" stroke="none" /><text fill="#e1ed5e" style="font-size:6.75px; font-family:Arial;" text-anchor="middle"><textPath startOffset="21.466115282336833" xlink:href="#id6">June</textPath></text><path d="M 104.13013068566511 120.58985236759428 l 5.629448455902641 28.064369251151465 a49.62340845152164,49.62340845152164 0 0,0 -0.8389484321726859,0.16078646373999225 l -5.1455324091582515 -28.157112913239924" fill="#b7ff1f" stroke="none" /><path d="M 101.98527174616119 120.90594882070398 l 3.072661438672118 32.356730459918786 a53.502296140004304,53.502296140004304 0 0,0 -0.9175788556522532,0.07917256463614353 l -2.515238265278323 -32.40482727683359" fill="#89ff24" stroke="none" /><line stroke="#e1ed5e" stroke-width="0.3" x1="102.19456741930631" x2="102.32365962044197" y1="184.97166512339345" y2="189.96999836594603" /><path d="M 102.22038585953345 185.97133177190398 a86.0,86.0 0 0,1 -42.740103519485714,-10.115201625700543" fill="none" id="id7" stroke="none" /><text fill="#e1ed5e" style="font-size:6.75px; font-family:Arial;" text-anchor="middle"><textPath startOffset="22.20632615414155" xlink:href="#id7">July</textPath></text><path d="M 95.86986931433489 120.58985236759428 l -6.42672965754647 32.03903821121154 a53.67725238741257,53.67725238741257 0 0,0 -0.904355724841732,-0.18951653502660148 l 6.977276843817589 -31.9236656954584" fill="#87ff25" stroke="none" /><path d="M 93.76903079525671 120.05430185196036 l -9.857589552972682 31.726537225951454 a54.22266148496474,54.22266148496474 0 0,0 -0.8889383315063302,-0.2846099820010491 l 10.402249229569954 -31.552154397290696" fill="#81ff25" stroke="none" /><path d="M 92.40401165467489 119.57807347666478 l -11.899692153912294 30.670537755941595 a53.898093555653354,53.898093555653354 0 0,0 -0.8620587460413386,-0.3430309659147675 l 12.425871975995491 -30.46115994562076" fill="#84ff25" stroke="none" /><path d="M 92.06813273071674 119.44442032107085 l -12.864581025101836 31.53662463254459 a55.05959685852768,55.05959685852768 0 0,0 -0.8744736657563291,-0.3655300632080598 l 13.405526150355627 -31.310509526316558" fill="#77ff27" stroke="none" /><path d="M 91.40352486487194 119.15986991738527 l -13.726532422949568 30.59376913286069 a54.53202054921631,54.53202054921631 0 0,0 -0.8531197145660144,-0.39162541807760815 l 14.251120133283 -30.352956644449005" fill="#7dff26" stroke="none" /><path d="M 91.07499286063937 119.00905698771935 l -19.761066065550704 42.08839557354687 a67.49658884264973,67.49658884264973 0 0,0 -1.0474420598578928,-0.5028358416809477 l 20.482620793408838 -41.74200545536636" fill="#37ff78" stroke="none" /><path d="M 90.7491055286396 118.85261126421891 l -14.356816311901301 29.258087178273673 a53.59070174060598,53.59070174060598 0 0,0 -0.8246488500959795,-0.413496052867429 l 14.85831906968004 -29.006623284496943" fill="#88ff25" stroke="none" /><path d="M 90.42595943632237 118.69057910512821 l -14.932819695227094 29.15206447266691 a53.75411374268415,53.75411374268415 0 0,0 -0.8199015075432028,-0.4289337178082556 l 15.432412105296793 -28.89070133591394" fill="#86ff25" stroke="none" /><path d="M 90.10565033884886 118.52300852407294 l -15.507939229375792 29.03209411169252 a53.91441428389975,53.91441428389975 0 0,0 -0.8148192954844401,-0.4443044474631268 l 16.005381336728874 -28.760849012469627" fill="#84ff25" stroke="none" /><line stroke="#e1ed5e" stroke-width="0.3" x1="58.666819895761336" x2="56.23545636021788" y1="174.27360380694188" y2="178.64263932499728" /><path d="M 58.180547188652646 175.14741091055294 a86.0,86.0 0 0,1 -31.652253787137756,-30.449443065178592" fill="none" id="id8" stroke="none" /><text fill="#e1ed5e" style="font-size:6.75px; font-family:Arial;" text-anchor="middle"><textPath startOffset="22.20632615414155" xlink:href="#id8">August</textPath></text><path d="M 89.7882731507175 118.34994917583269 l -15.963312770902101 28.685253958252556 a53.82790199313825,53.82790199313825 0 0,0 -0.805755588837496,-0.45752905227104457 l 16.454717126660807 -28.40622174018688" fill="#85ff25" stroke="none" /><path d="M 89.1626897886671 117.98757091392108 l -17.342652068122003 28.785019329296922 a54.605727466369984,54.605727466369984 0 0,0 -0.8009380886890279,-0.49200159113636227 l 17.835569356743342 -28.482229271332184" fill="#7cff26" stroke="none" /><path d="M 88.8546689885994 117.79835938074946 l -17.379952928550658 27.754639851112014 a53.74725632879145,53.74725632879145 0 0,0 -0.7798936711157819,-0.4977650402980255 l 17.855128401713362 -27.451360381990188" fill="#86ff25" stroke="none" /><path d="M 88.54995079064634 117.60387380957326 l -17.958535939384838 27.610344261521487 a53.93691125964773,53.93691125964773 0 0,0 -0.773931239730919,-0.5129194245130286 l 18.431141877855715 -27.29712681591714" fill="#84ff25" stroke="none" /><path d="M 88.24862548938628 117.40417183066458 l -18.499554227731096 27.398447754288668 a54.059165838981016,54.059165838981016 0 0,0 -0.76672144610333,-0.5273580019692674 l 18.96843255845732 -27.0759489629543" fill="#83ff25" stroke="none" /><path d="M 87.07902340077011 116.55440617244103 l -17.792985718528048 22.79644346871674 a49.9183017413219,49.9183017413219 0 0,0 -0.6728095849597724,-0.534520625337229 l 18.18275279620518 -22.486788929374374" fill="#b3ff20" stroke="none" /><path d="M 84.9287848128048 114.62390073753433 l -26.801599953449163 26.006127074567196 a58.34493815074893,58.34493815074893 0 0,0 -0.6931752299434182,-0.7267914573176241 l 27.245281734771538 -25.54092850066707" fill="#53ff2b" stroke="none" /><path d="M 84.67929136418377 114.36230785411684 l -24.549711860993625 23.013982437677825 a54.6501372968901,54.6501372968901 0 0,0 -0.6374641635428422,-0.6918414488244107 l 24.942222432532198 -22.58798973405207" fill="#7cff26" stroke="none" /><path d="M 84.4343377721795 114.09645910891817 l -24.554609618726243 22.236962704174562 a54.12719975842953,54.12719975842953 0 0,0 -0.6194758788216853,-0.6959877168748526 l 24.93374434719626 -21.811000817558842" fill="#82ff25" stroke="none" /><path d="M 84.19399662182784 113.82643327865904 l -25.171072093263998 22.018605242768043 a54.442515562695725,54.442515562695725 0 0,0 -0.6109422185789735,-0.7106638235709434 l 25.546356821413756 -21.58206432003557" fill="#7eff26" stroke="none" /><path d="M 83.72743513129214 113.27417163493433 l -30.012725577104522 24.482561523462152 a59.731892741211254,59.731892741211254 0 0,0 -0.6430624298975303,-0.8023192566659346 l 30.42970591905691 -23.962314433217962" fill="#44ff2d" stroke="none" /><path d="M 83.50135304334701 112.99209946851258 l -26.891861689001995 21.176387547107943 a55.22881263856112,55.22881263856112 0 0,0 -0.5817255642281096,-0.7519587091600352 l 27.252394070448176 -20.710350843834657" fill="#75ff27" stroke="none" /><path d="M 83.28015986056508 112.70617746262583 l -26.57897542150628 20.198588961619276 a54.38300361707261,54.38300361707261 0 0,0 -0.5599862769272567,-0.7501931295935549 l 26.92272296512862 -19.738082952516415" fill="#7fff26" stroke="none" /><path d="M 83.06392112726016 112.41649034213515 l -26.617224147158495 19.514110027534038 a54.00419839151955,54.00419839151955 0 0,0 -0.5431799046116974,-0.7544293796486444 l 26.9491838441458 -19.053047042434255" fill="#83ff25" stroke="none" /><path d="M 82.6465618267979 111.8261652097733 l -28.111483037764007 19.15764699641605 a55.01868482204717,55.01868482204717 0 0,0 -0.5265992758865363,-0.7871944675223648 l 28.437085419061273 -18.670915614687868" fill="#78ff26" stroke="none" /><path d="M 82.44556493220864 111.52570212397912 l -28.8637859848579 18.951074081679995 a55.52913769889139,55.52913769889139 0 0,0 -0.5177302429671088,-0.803528834365748 l 29.185721091202055 -18.451423647392797" fill="#72ff27" stroke="none" /><path d="M 82.24976979558568 111.22182372390057 l -29.49233380765869 18.645266421033387 a55.891886067303425,55.891886067303425 0 0,0 -0.507113364355772,-0.8176282117519185 l 29.808911811682417 -18.134841877916205" fill="#6eff28" stroke="none" /><path d="M 82.05923443525364 110.91462005526583 l -30.172663378771613 18.356137347998462 a56.317664046582266,56.317664046582266 0 0,0 -0.49671944844900656,-0.8325303668498305 l 30.484163702918853 -17.83404488726252" fill="#69ff28" stroke="none" /><line stroke="#e1ed5e" stroke-width="0.3" x1="26.63291911575756" x2="22.317208475507996" y1="142.92168965132927" y2="145.44649492493687" /><path d="M 25.769776987707644 143.4266507060508 a86.0,86.0 0 0,1 -11.730757126820373,-40.83630448921669" fill="none" id="id9" stroke="none" /><text fill="#e1ed5e" style="font-size:6.75px; font-family:Arial;" text-anchor="middle"><textPath startOffset="21.46611528233685" xlink:href="#id9">September</textPath></text><path d="M 81.69416730710424 110.29060199501025 l -29.900046047183736 16.808275191079254 a55.30059574588695,55.30059574588695 0 0,0 -0.45932040330799007,-0.8337999506338967 l 30.18494285994324 -16.291104722047535" fill="#75ff27" stroke="none" /><path d="M 81.35079622478065 109.6543875284942 l -45.45257590314899 23.530054538863876 a72.18202929577362,72.18202929577362 0 0,0 -0.5617182497639043,-1.1083233970083624 l 45.850872822699166 -22.74417693015283" fill="#3dffaf" stroke="none" /><path d="M 81.18737489456691 109.33194174019688 l -33.84794613185107 16.7901640285456 a58.78350255667357,58.78350255667357 0 0,0 -0.4418468782548221,-0.9103354399272935 l 34.131946266720604 -16.205039632653023" fill="#4eff2b" stroke="none" /><path d="M 80.58989483394504 108.01547362559985 l -32.16339994260416 13.281993154803773 a55.797925771979045,55.797925771979045 0 0,0 -0.3589597096026046,-0.8909085611621331 l 32.38726226646415 -12.726385225798836" fill="#6fff27" stroke="none" /><path d="M 80.45479744820244 107.68017299344265 l -34.55520547687789 13.578265826770435 a58.12723432214812,58.12723432214812 0 0,0 -0.3579135194886794,-0.9343992586820956 l 34.78381327596007 -12.981443001255181" fill="#55ff2b" stroke="none" /><path d="M 80.32549172779594 107.34259656027581 l -36.12803878140234 13.483112747504432 a59.562021673564104,59.562021673564104 0 0,0 -0.35021260200791277,-0.9636346703982287 l 36.354775644415476 -12.859230280100086" fill="#46ff2d" stroke="none" /><path d="M 80.0844068197444 106.66101706037122 l -32.774018034201795 10.961676676503112 a55.55856787638019,55.55856787638019 0 0,0 -0.295539169249112,-0.9095760357884438 l 32.95784945446716 -10.395901740736864" fill="#72ff27" stroke="none" /><path d="M 79.97269907076064 106.31721596034903 l -33.32070639514591 10.510357785766509 a55.93904829064954,55.93904829064954 0 0,0 -0.2817549371732111,-0.9207914369136201 l 33.49668810482525 -9.935239376300842" fill="#6dff28" stroke="none" /><path d="M 79.86692584326677 105.97154293290107 l -45.40715488086646 13.467927089579616 a68.36237720454102,68.36237720454102 0 0,0 -0.32490802880870223,-1.1310474722120378 l 45.63225554656126 -12.684322141862983" fill="#38ff83" stroke="none" /><path d="M 79.58551787078972 104.9243191809786 l -33.9335548796351 8.185348720332259 a55.90681997035325,55.90681997035325 0 0,0 -0.21760913452376243,-0.937454456168192 l 34.06942458008942 -7.6000256068154926" fill="#6eff28" stroke="none" /><path d="M 79.50377843672027 104.57218783832718 l -34.081763544481774 7.602778117211523 a55.919462215239186,55.919462215239186 0 0,0 -0.201485707739447,-0.9412741485127148 l 34.207583290945664 -7.014990149282644" fill="#6eff28" stroke="none" /><path d="M 79.29508885075956 103.50808413554451 l -5.406749569440107 0.9160789076900128 a26.483807205925032,26.483807205925032 0 0,0 -0.07228596985130614,-0.45012480326643645 l 5.421717293652704 -0.822874874730362" fill="#ff0601" stroke="none" /><path d="M 79.10278846688536 102.07522291339032 l -62.69163459934394 6.225668740170943 a84.0,84.0 0 0,0 -0.13050161489169865,-1.4400744458057364 l 62.78951081051271 -5.145612905816641" fill="#4dd2ff" stroke="none" /><path d="M 79.04373962182676 101.35467743843564 l -35.01347490024837 2.2633792304852887 a56.08655454916192,56.08655454916192 0 0,0 -0.05398637778971788,-0.9639630414327559 l 35.04724762892562 -1.6603444727170953" fill="#6cff28" stroke="none" /><line stroke="#e1ed5e" stroke-width="0.3" x1="15.007084014347285" x2="10.007500721073583" y1="101.09737516637583" y2="101.16192664675087" /><path d="M 14.007167355692545 101.11028546245083 a86.0,86.0 0 0,1 10.666146001902526,-42.60595125391555" fill="none" id="id10" stroke="none" /><text fill="#e1ed5e" style="font-size:6.75px; font-family:Arial;" text-anchor="middle"><textPath startOffset="22.20632615414155" xlink:href="#id10">October</textPath></text><path d="M 79.01574976396665 99.18683210126434 l -5.089493163589843 -0.19722470018772273 a26.093313091160987,26.093313091160987 0 0,0 0.02125535410587496,-0.4486669308869845 l 5.085344201250469 0.28480273769771614" fill="#ff0000" stroke="none" /><path d="M 79.16333360222342 97.38593545837743 l -33.26090324910428 -4.1727475089345365 a54.52162744735994,54.52162744735994 0 0,0 0.12483895169272793,-0.9301951940558599 l 33.18414829835372 4.744661045055056" fill="#7dff26" stroke="none" /><path d="M 79.21141760316559 97.0276538004421 l -9.405490771150745 -1.3447946673296927 a30.50114358082648,30.50114358082648 0 0,0 0.07878606107721403,-0.5191017042306497 l 9.380948816634229 1.506495483952434" fill="#ff4406" stroke="none" /><path d="M 79.32604984820605 96.31383870115002 l -9.531300804791323 -1.6994290832838637 a30.68161940175954,30.68161940175954 0 0,0 0.09717931922767525,-0.5191358091616595 l 9.500635761653786 1.8632429699080952" fill="#ff4606" stroke="none" /><path d="M 79.3925641242962 95.95851677861259 l -38.461833600641334 -7.54304689328447 a60.19451747831208,60.19451747831208 0 0,0 0.20816039244438994,-1.0150640002175175 l 38.32629391228195 8.20398654966539" fill="#3fff2d" stroke="none" /><path d="M 79.46518482838121 95.60439243477599 l -32.65405582598588 -6.989807973647106 a54.39378351422706,54.39378351422706 0 0,0 0.20386171784598586,-0.9138721078377544 l 32.528899721137854 7.5508582510348194" fill="#7fff26" stroke="none" /><path d="M 79.62865764111835 94.90015583598534 l -33.03438969117983 -8.269962602876701 a55.05382773964929,55.05382773964929 0 0,0 0.23805188111144673,-0.9173110053962097 l 32.88714147819808 8.837370033821774" fill="#77ff27" stroke="none" /><path d="M 79.71946130924805 94.55025226153421 l -13.80256970643955 -3.709000248449334 a35.29222212758114,35.29222212758114 0 0,0 0.16270257133621296,-0.5853277163935423 l 13.736680364536976 3.9460392682618193" fill="#ff8a0c" stroke="none" /><path d="M 80.65960295795067 91.81776055985345 l -31.412037809986288 -13.289324624796329 a55.10751043918665,55.10751043918665 0 0,0 0.3771172003596525,-0.8704384929705327 l 31.178629899783957 13.828062262353459" fill="#77ff27" stroke="none" /><path d="M 80.95270993114464 91.15688171328213 l -21.525629402117996 -9.99374117319886 a44.73241630753634,44.73241630753634 0 0,0 0.3302568865782439,-0.6956052291405326 l 21.350414321698 10.362788817979924" fill="#f4ff19" stroke="none" /><line stroke="#e1ed5e" stroke-width="0.3" x1="26.266209847984243" x2="21.928928074336255" y1="57.71137044288968" y2="55.22380399835378" /><path d="M 25.398753493254645 57.2138571539825 a86.0,86.0 0 0,1 29.58750427330803,-30.4925239686951" fill="none" id="id11" stroke="none" /><text fill="#e1ed5e" style="font-size:6.75px; font-family:Arial;" text-anchor="middle"><textPath startOffset="21.46611528233685" xlink:href="#id11">November</textPath></text><path d="M 82.54541684631803 88.32363383020207 l -28.28907112287817 -18.924173102610258 a55.035215183877085,55.035215183877085 0 0,0 0.5335153970520776,-0.7828680128317105 l 27.959131260157353 19.40831913871238" fill="#78ff26" stroke="none" /><path d="M 84.5562425177563 85.77008943001954 l -17.77829323853744 -16.380956717440124 a45.17443801733709,45.17443801733709 0 0,0 0.5318379661669423,-0.5673276609770755 l 17.49368795040004 16.68455379529525" fill="#efff19" stroke="none" /><path d="M 85.83668400450813 84.49514656593477 l -16.244645455578464 -17.7833246788582 a45.08599473991334,45.08599473991334 0 0,0 0.5775065332544056,-0.5184910676339071 l 15.936127934728086 18.060314755261388" fill="#f0ff19" stroke="none" /><path d="M 87.22198572758235 83.33499621200491 l -15.611646310036956 -20.36060841277966 a46.65692646144983,46.65692646144983 0 0,0 0.6415412842645519,-0.48319559476241236 l 15.258858872014015 20.626320597047926" fill="#dcff1b" stroke="none" /><path d="M 88.09926311788651 82.69761687909137 l -15.10388796144306 -21.959418035444916 a47.652269547024474,47.652269547024474 0 0,0 0.6798283931982314,-0.4590231657760057 l 14.723654873838292 22.21615311351959" fill="#cfff1d" stroke="none" /><path d="M 88.70189139769569 82.29822771554957 l -16.585892849334655 -25.986623840147487 a51.828500777996524,51.828500777996524 0 0,0 0.7561552380780228,-0.4735043407146451 l 16.13611845888439 26.268272522185065" fill="#9dff22" stroke="none" /><line stroke="#e1ed5e" stroke-width="0.3" x1="56.76296977257108" x2="54.21961505331056" y1="26.818313649435495" y2="22.513508569990535" /><path d="M 56.25429882871898 25.957352633546506 a86.0,86.0 0 0,1 42.26535254187918,-11.944610805530505" fill="none" id="id12" stroke="none" /><text fill="#e1ed5e" style="font-size:6.75px; font-family:Arial;" text-anchor="middle"><textPath startOffset="22.20632615414155" xlink:href="#id12">December</textPath></text></svg>