<?xml version="1.0" encoding="utf-8" ?>
<svg baseProfile="full" height="200mm" version="1.1" viewBox="0,0,200,200" width="200mm" xmlns="http://www.w3.org/2000/svg" xmlns:ev="http://www.w3.org/2001/xml-events" xmlns:xlink="http://www.w3.org/1999/xlink"><defs /><rect fill="#1a1a1a" height="200" width="200" x="0" y="0" /><text alignment-baseline="middle" fill="#e1ed5e" style="dominant-baseline: central; font-size:9.0px; font-family:Arial;" text-anchor="middle" x="100.0" y="100.0">2024</text><line stroke="#e1ed5e" stroke-width="0.3" x1="100.0" x2="100.0" y1="15.0" y2="10.0" /><path d="M 100.0 14.0 a86.0,86.0 0 0,1 42.35913384403234,11.155469271406648" fill="none" id="id73" stroke="none" /><text fill="#e1ed5e" style="font-size:6.75px; font-family:Arial;" text-anchor="middle"><textPath startOffset="22.145653131862478" xlink:href="#id73">January</textPath></text><path d="M 100.36049292484886 79.00309439819443 l 0.6804407550870094 -39.63226270854958 a60.63810347406487,60.63810347406487 0 0,0 1.0406269120025573,0.026802857895403914 l -1.360680981160308 39.614742133304134" fill="#32ff2f" stroke="none" /><path d="M 100.72087961077811 79.0123766808444 l 1.3607335352276184 -39.61627218763236 a60.6396344306865,60.6396344306865 0 0,0 1.0400397242150405,0.0446637807732986 l -2.040599020043495 39.58707583843323" fill="#31ff2f" stroke="none" /><path d="M 101.08105385017728 79.02784411241856 l 2.0387768382504565 -39.55172599844806 a60.60423765776206,60.60423765776206 0 0,0 1.0385132002786757,0.062474375272994515 l -2.7174343906615945 39.51089964535038" fill="#32ff2f" stroke="none" /><path d="M 101.80034050326958 79.07731436759882 l 4.580405534310128 -53.23125535932646 a74.42795768124176,74.42795768124176 0 0,0 1.272010786102831,0.120460743948566 l -5.493515883797972 53.14478285987271" fill="#41ffcd" stroke="none" /><path d="M 102.15924093988457 79.11130261209362 l 4.0587615474054255 -39.26483615948618 a60.47405355331512,60.47405355331512 0 0,0 1.031699155848742,0.11560404233135964 l -4.732196604854964 39.18937635664785" fill="#33ff2f" stroke="none" /><path d="M 102.87502721639298 79.19773525538626 l 0.39785169123140035 -2.8786566481521114 a23.906019625908613,23.906019625908613 0 0,0 0.406032239305316,0.05967275668980867 l -0.44720903614439833 2.8714028181634204" fill="#ff0000" stroke="none" /><path d="M 103.23170211078529 79.25015418208739 l 4.205241094350101 -27.000664462143497 a48.32617671864964,48.32617671864964 0 0,0 0.8186051547741249,0.13470116670228735 l -4.668123752177296 26.924497296945543" fill="#b7ff1f" stroke="none" /><path d="M 103.58742460773223 79.30868818359171 l 9.541726710054265 -55.03414404839279 a76.85518382163477,76.85518382163477 0 0,0 1.2979935356229926,0.23653766063013312 l -10.48505497922831 54.86223821383129" fill="#44ffe6" stroke="none" /><path d="M 104.9986988182912 79.60360301121754 l 13.311439431449017 -54.315215420156235 a76.92259870459449,76.92259870459449 0 0,0 1.2798261342253545,0.325326798598919 l -14.241870858899766 54.07870338972205" fill="#44ffe7" stroke="none" /><path d="M 105.69591212413111 79.78721728523813 l 7.162365305594127 -25.41670771787186 a47.40659970512117,47.40659970512117 0 0,0 0.7813961826171845,0.2274530405698784 l -7.597621500592916 25.290010982999462" fill="#c2ff1e" stroke="none" /><path d="M 106.72888874123014 80.10723608172694 l 18.104348511111976 -53.522289441190736 a77.50135309918161,77.50135309918161 0 0,0 1.256607780427251,0.4371134161486762 l -19.020462063584244 53.20361759247347" fill="#45ffed" stroke="none" /><path d="M 107.06938296918511 80.22567764915836 l 15.801274652612562 -44.198977463369935 a67.93857570756467,67.93857570756467 0 0,0 1.0948167162194016,0.40203186298741583 l -16.55768052048609 43.921214751373796" fill="#38ff85" stroke="none" /><path d="M 107.74402155503746 80.48000691201159 l 14.970575154066802 -37.735628891748505 a61.596746277248954,61.596746277248954 0 0,0 0.9795218392605561,0.39836300465249347 l -15.616151454517798 37.47307863051672" fill="#30ff39" stroke="none" /><path d="M 108.4095320186766 80.7573450057729 l 22.731763706846444 -52.014723940604675 a77.76499438774934,77.76499438774934 0 0,0 1.2186389228578731,0.5450816897330031 l -23.621316032559946 51.616838499961816" fill="#45ffef" stroke="none" /><path d="M 109.06512990194946 81.05736502329252 l 20.929419087457354 -43.734436277960064 a69.4844459583625,69.4844459583625 0 0,0 1.071515507586642,0.5241319290874524 l -21.677094844306065 43.368710598775394" fill="#3aff96" stroke="none" /><path d="M 109.3889696526874 81.21577127319529 l 26.53389022622894 -53.08555480086685 a80.34748064621957,80.34748064621957 0 0,0 1.2284470875902938,0.6272538359556462 l -27.441264535532817 52.622243013238375" fill="#48f5ff" stroke="none" /><path d="M 109.71004243097381 81.37971332152246 l 19.650990693976787 -37.683365735946175 a63.49938221249627,63.49938221249627 0 0,0 0.9622006481266817,0.5123176489604191 l -20.294980157890027 37.34047761926318" fill="#33ff50" stroke="none" /><path d="M 110.02825361518725 81.54914285379988 l 12.610073788097798 -23.201115467889025 a47.40654691351352,47.40654691351352 0 0,0 0.7116756873302679,0.39475450705466186 l -13.006493663584168 22.98122804540122" fill="#c2ff1e" stroke="none" /><path d="M 110.34350942703115 81.72400993836675 l 17.648416885491613 -31.18306159801926 a56.83085191828362,56.83085191828362 0 0,0 0.8449057155618348,0.48780654231947873 l -18.181115068913847 30.87550815842361" fill="#59ff2a" stroke="none" /><line stroke="#e1ed5e" stroke-width="0.3" x1="143.13028292997686" x2="145.6673583964461" y1="26.7553504044142" y2="22.446841604673864" /><path d="M 143.63769802327073 25.89364864446614 a86.0,86.0 0 0,1 29.32050498858742,28.57503671076993" fill="none" id="id74" stroke="none" /><text fill="#e1ed5e" style="font-size:6.75px; font-family:Arial;" text-anchor="middle"><textPath startOffset="20.669276256404974" xlink:href="#id74">February</textPath></text><path d="M 111.27062007382361 82.28071324371311 l 33.81186022147082 -53.157860268860695 a84.0,84.0 0 0,0 1.2100574709719707,0.7843446331844213 l -34.719403324699805 52.56960179397238" fill="#4dd2ff" stroke="none" /><path d="M 111.5731344415666 82.4767994020092 l 21.88040889011536 -33.12972782640996 a60.7030371514654,60.7030371514654 0 0,0 0.8645954159899502,0.5817383815454875 l -22.44590059420231 32.74923977080736" fill="#31ff2f" stroke="none" /><path d="M 111.8722381534696 82.67804972795209 l 14.947080996323518 -21.808237872563435 a47.43888177319468,47.43888177319468 0 0,0 0.6677698248278074,0.4661551993479241 l -15.319245912325085 21.548437857410384" fill="#c1ff1e" stroke="none" /><path d="M 112.16784306229584 82.88440491214696 l 15.452321491662753 -21.735625325260187 a47.668551662244326,47.668551662244326 0 0,0 0.6628629663497573,0.47986166910291367 l -15.823165468386478 21.4671628847842" fill="#bfff1e" stroke="none" /><path d="M 113.31354834802062 83.75963576809568 l 33.871757722854895 -41.31803695111574 a74.42729778614623,74.42729778614623 0 0,0 0.9811136317229057,0.8184798860987385 l -34.5760456887397 40.73049488110512" fill="#41ffcd" stroke="none" /><path d="M 113.59037401385872 83.9905735841838 l 36.17879492715827 -42.618529453906575 a76.90388407968516,76.90388407968516 0 0,0 0.9990932220417331,0.8629929295062292 l -36.90506762896287 41.99119239193563" fill="#44ffe6" stroke="none" /><line stroke="#e1ed5e" stroke-width="0.3" x1="172.87174338648825" x2="177.1583165268699" y1="56.24261187166439" y2="53.66864786411523" /><path d="M 173.72905801456457 55.72781907015455 a86.0,86.0 0 0,1 12.242430191666344,42.057860355516425" fill="none" id="id75" stroke="none" /><text fill="#e1ed5e" style="font-size:6.75px; font-family:Arial;" text-anchor="middle"><textPath startOffset="22.145653131862474" xlink:href="#id75">March</textPath></text><line stroke="#e1ed5e" stroke-width="0.3" x1="184.99686870605535" x2="189.99668451229388" y1="99.2704041080226" y2="99.22748670261217" /><path d="M 185.99683186730306 99.26182062694052 a86.0,86.0 0 0,1 -10.086455211305974,41.156179273409016" fill="none" id="id76" stroke="none" /><text fill="#e1ed5e" style="font-size:6.75px; font-family:Arial;" text-anchor="middle"><textPath startOffset="21.40746469413373" xlink:href="#id76">April</textPath></text><line stroke="#e1ed5e" stroke-width="0.3" x1="174.33088141563837" x2="178.70328620479359" y1="141.23008692659167" y2="143.65538615756765" /><path d="M 175.20536237346943 141.71514677278685 a86.0,86.0 0 0,1 -30.301960400862466,31.631185727798858" fill="none" id="id77" stroke="none" /><text fill="#e1ed5e" style="font-size:6.75px; font-family:Arial;" text-anchor="middle"><textPath startOffset="22.145653131862474" xlink:href="#id77">May</textPath></text><line stroke="#e1ed5e" stroke-width="0.3" x1="143.1302829299769" x2="145.66735839644613" y1="173.24464959558577" y2="177.55315839532614" /><path d="M 143.63769802327073 174.10635135553383 a86.0,86.0 0 0,1 -40.68552437913181,11.842963189579606" fill="none" id="id78" stroke="none" /><text fill="#e1ed5e" style="font-size:6.75px; font-family:Arial;" text-anchor="middle"><textPath startOffset="21.407464694133747" xlink:href="#id78">June</textPath></text><line stroke="#e1ed5e" stroke-width="0.3" x1="101.45913802915013" x2="101.54496967792366" y1="184.9874750549273" y2="189.98673829345242" /><path d="M 101.47630435890484 185.9873277026323 a86.0,86.0 0 0,1 -42.54439059252881,-10.42667462771756" fill="none" id="id79" stroke="none" /><text fill="#e1ed5e" style="font-size:6.75px; font-family:Arial;" text-anchor="middle"><textPath startOffset="22.145653131862474" xlink:href="#id79">July</textPath></text><line stroke="#e1ed5e" stroke-width="0.3" x1="58.13341422392154" x2="55.67067388415222" y1="173.97424548756322" y2="178.32567169271397" /><path d="M 57.64086615596768 174.84453072859336 a86.0,86.0 0 0,1 -31.369924170532247,-30.572349798747897" fill="none" id="id80" stroke="none" /><text fill="#e1ed5e" style="font-size:6.75px; font-family:Arial;" text-anchor="middle"><textPath startOffset="22.145653131862474" xlink:href="#id80">August</textPath></text><line stroke="#e1ed5e" stroke-width="0.3" x1="26.387840678322732" x2="22.057713659400548" y1="142.50000000000003" y2="145.00000000000006" /><path d="M 25.521815274538298 143.00000000000003 a86.0,86.0 0 0,1 -11.493303480769221,-40.785679425670985" fill="none" id="id81" stroke="none" /><text fill="#e1ed5e" style="font-size:6.75px; font-family:Arial;" text-anchor="middle"><textPath startOffset="21.40746469413373" xlink:href="#id81">September</textPath></text><line stroke="#e1ed5e" stroke-width="0.3" x1="15.003131293944662" x2="10.003315487706104" y1="100.72959589197737" y2="100.7725132973878" /><path d="M 14.003168132696942 100.73817937305945 a86.0,86.0 0 0,1 10.791469493833604,-42.45332614584628" fill="none" id="id82" stroke="none" /><text fill="#e1ed5e" style="font-size:6.75px; font-family:Arial;" text-anchor="middle"><textPath startOffset="22.145653131862435" xlink:href="#id82">October</textPath></text><line stroke="#e1ed5e" stroke-width="0.3" x1="26.387840678322718" x2="22.05771365940052" y1="57.49999999999999" y2="54.99999999999999" /><path d="M 25.521815274538284 56.99999999999999 a86.0,86.0 0 0,1 29.574782752854787,-30.34633250058573" fill="none" id="id83" stroke="none" /><text fill="#e1ed5e" style="font-size:6.75px; font-family:Arial;" text-anchor="middle"><textPath startOffset="21.40746469413373" xlink:href="#id83">November</textPath></text><line stroke="#e1ed5e" stroke-width="0.3" x1="56.869717070023135" x2="54.33264160355391" y1="26.7553504044142" y2="22.446841604673864" /><path d="M 56.362301976729285 25.89364864446614 a86.0,86.0 0 0,1 42.16139366436587,-11.88097634709845" fill="none" id="id84" stroke="none" /><text fill="#e1ed5e" style="font-size:6.75px; font-family:Arial;" text-anchor="middle"><textPath startOffset="22.145653131862474" xlink:href="#id84">December</textPath></text></svg>