<?xml version="1.0" encoding="utf-8" ?>
<svg baseProfile="full" height="200mm" version="1.1" viewBox="0,0,200,200" width="200mm" xmlns="http://www.w3.org/2000/svg" xmlns:ev="http://www.w3.org/2001/xml-events" xmlns:xlink="http://www.w3.org/1999/xlink"><defs /><rect fill="#1a1a1a" height="200" width="200" x="0" y="0" /><text alignment-baseline="middle" fill="#e1ed5e" style="dominant-baseline: central; font-size:9.0px; font-family:Arial;" text-anchor="middle" x="100.0" y="100.0">2023</text><line stroke="#e1ed5e" stroke-width="0.3" x1="100.0" x2="100.0" y1="15.0" y2="10.0" /><path d="M 100.0 14.0 a86.0,86.0 0 0,1 42.46469731375804,11.215312516191453" fill="none" id="id61" stroke="none" /><text fill="#e1ed5e" style="font-size:6.75px; font-family:Arial;" text-anchor="middle"><textPath startOffset="22.20632615414155" xlink:href="#id61">January</textPath></text><path d="M 100.0 79.0 l 0.0 -29.51586245196537 a50.51586245196537,50.51586245196537 0 0,0 0.8695475319048362,0.007484470133058206 l -0.5080670526323079 29.51148935844087" fill="#9fff22" stroke="none" /><path d="M 101.08401301168833 79.027996857942 l 0.7526402927265751 -14.561056383739645 a35.58049486199562,35.58049486199562 0 0,0 0.6113710889178673,0.036879573665549205 l -1.0031734304840543 14.545943540693793" fill="#ffa50f" stroke="none" /><path d="M 101.44485096284872 79.0497635885617 l 1.0047834062805945 -14.569288075473843 a35.603894847597374,35.603894847597374 0 0,0 0.6110472857136041,0.04742902968719121 l -1.2554208813565397 14.549833783598187" fill="#ffa50f" stroke="none" /><path d="M 101.80526077348638 79.07773832637324 l 1.2582493757168984 -14.58261491971932 a35.63679778463556,35.63679778463556 0 0,0 0.6107041939836376,0.05799372188155351 l -1.5090786967907803 14.558795653322589" fill="#ffa50f" stroke="none" /><path d="M 102.16513564639614 79.11191278185805 l 2.423488274532959 -23.38053716627369 a44.505803827997546,44.505803827997546 0 0,0 0.7613317439086212,0.0855444922162669 l -2.8255867219513053 23.335356720586823" fill="#e6ff1a" stroke="none" /><path d="M 102.52436894288641 79.15227682838746 l 3.702992088073085 -30.58148618741465 a51.80486078259996,51.80486078259996 0 0,0 0.8843466467744563,0.11481357567003123 l -4.228853463355387 30.513214288580482" fill="#90ff24" stroke="none" /><path d="M 103.2404852339499 79.25152402106235 l 2.308962549919961 -14.784037125478703 a35.96325705802268,35.96325705802268 0 0,0 0.6108115926055547,0.1007891464155978 l -2.5631033486643906 14.74210171612348" fill="#ffaa0f" stroke="none" /><path d="M 103.59715602781102 79.31037775812273 l 5.550401468961399 -31.924027980919366 a53.402939974532735,53.402939974532735 0 0,0 0.9043021905901318,0.16525544517621016 l -6.099098780654432 31.823757054392416" fill="#7eff26" stroke="none" /><path d="M 103.95276090670814 79.375362276772 l 5.832196768930203 -30.43112101357573 a51.98495837167464,51.98495837167464 0 0,0 0.8773912118749839,0.1759964230341465 l -6.355154390272312 30.326220634464374" fill="#8eff24" stroke="none" /><path d="M 104.307194497241 79.44645832069477 l 6.459722890134179 -30.825212036322363 a52.49478872609811,52.49478872609811 0 0,0 0.8828055515545191,0.1929471004744688 l -6.9893711658422255 30.709451437752023" fill="#89ff25" stroke="none" /><path d="M 104.66035177308747 79.52364482259891 l 4.918766917359081 -21.611763089713943 a43.16444386474039,43.16444386474039 0 0,0 0.7230585198595951,0.17112459056693524 l -5.290049124181199 21.523892587006138" fill="#f7ff19" stroke="none" /><path d="M 105.01212808612495 79.60689891045804 l 7.497072426729025 -30.503720824123242 a52.41151188796347,52.41151188796347 0 0,0 0.8742517497587021,0.22286623704070962 l -8.021033065172752 30.370151590913665" fill="#89ff24" stroke="none" /><path d="M 105.36241919743992 79.69619591428918 l 3.726688610972676 -14.110414098502913 a35.594245236886465,35.594245236886465 0 0,0 0.5910375450281518,0.16155288762880335 l -3.9690240452245384 14.044174670047816" fill="#ffa50f" stroke="none" /><path d="M 105.71112130821622 79.79150937346287 l 4.75991049780011 -16.842683159183828 a38.50236338177568,38.50236338177568 0 0,0 0.6362236540115939,0.185731131007295 l -5.049124369535131 16.75825369925783" fill="#ffcc13" stroke="none" /><path d="M 106.40334571778207 80.00007090966166 l 4.450426836561235 -13.900267934275039 a35.59533307849531,35.59533307849531 0 0,0 0.581928061611911,0.1918525326146143 l -4.6890377204155635 13.821601677401189" fill="#ffa50f" stroke="none" /><path d="M 107.08798089147638 80.2323363322302 l 6.4665236869859095 -18.034482217315677 a40.158770248662236,40.158770248662236 0 0,0 0.6486935544564122,0.23891931065640232 l -6.775999567214898 17.920499638852952" fill="#ffe115" stroke="none" /><path d="M 107.4271985657038 80.35727306442388 l 5.163667044386456 -13.656360583582316 a35.59998773061483,35.59998773061483 0 0,0 0.5713235805248807,0.22166467319928113 l -5.397973789911004 13.565453206492489" fill="#ffa50f" stroke="none" /><path d="M 108.09893153111575 80.62456947434976 l 5.634098279118044 -13.478701401825333 a35.60884851377168,35.60884851377168 0 0,0 0.5634951775005012,0.24125922739242425 l -5.86527721440886 13.379722646470118" fill="#ffa50f" stroke="none" /><path d="M 110.05341064243156 81.56283822128135 l 14.787862035252445 -27.119772025882128 a51.88952732415113,51.88952732415113 0 0,0 0.7805072243398935,0.43435142530790893 l -15.252493348664373 26.861205203014038" fill="#8fff24" stroke="none" /><path d="M 110.36928655335952 81.73862282372117 l 11.021856783560573 -19.41062028441259 a43.321592837048385,43.321592837048385 0 0,0 0.6452921806778744,0.3737948817768656 l -11.354345696703776 19.218021245245676" fill="#f5ff19" stroke="none" /><line stroke="#e1ed5e" stroke-width="0.3" x1="143.23703022742887" x2="145.7803849466894" y1="26.81831364943548" y2="22.513508569990506" /><path d="M 143.74570117128098 25.957352633546492 a86.0,86.0 0 0,1 28.547481713284135,27.462654790039103" fill="none" id="id62" stroke="none" /><text fill="#e1ed5e" style="font-size:6.75px; font-family:Arial;" text-anchor="middle"><textPath startOffset="19.985693538727396" xlink:href="#id62">February</textPath></text><path d="M 110.68208982089419 81.91981866633111 l 15.753298223876707 -26.663554909821233 a51.96952639869472,51.96952639869472 0 0,0 0.766273179701894,0.4616710168812636 l -16.209933469796237 26.388437283481355" fill="#8eff24" stroke="none" /><path d="M 110.99172775467656 82.1063720568725 l 11.604146285030442 -18.8905948961133 a43.170042546947165,43.170042546947165 0 0,0 0.6298321060790063,0.3944008070457653 l -11.927597543481712 18.68804974774459" fill="#f7ff19" stroke="none" /><path d="M 111.2981086023043 82.29822771554956 l 12.552385687891567 -19.666962046048386 a44.33134763742319,44.33134763742319 0 0,0 0.6397076250266369,0.4160836339425751 l -12.889060338702484 19.447979487946284" fill="#e8ff1a" stroke="none" /><path d="M 111.60114157652 82.49532879139004 l 12.496030325715314 -18.854946370724395 a43.619897801362626,43.619897801362626 0 0,0 0.6223007910359357,0.42018027199833763 l -12.81873581115779 18.637054186427385" fill="#f1ff19" stroke="none" /><path d="M 111.90073688211348 82.69761687909136 l 26.409674726147678 -38.39680809153681 a67.60242258466002,67.60242258466002 0 0,0 0.9530939150487976,0.6677031957112443 l -27.066699780780127 37.93652005306163" fill="#38ff80" stroke="none" /><path d="M 112.19680574252982 82.90503203632743 l 12.75769567378731 -17.8811078439331 a42.965719123928935,42.965719123928935 0 0,0 0.5983583711438385,0.43473280362401173 l -13.063599361284936 17.658855805492415" fill="#f9ff18" stroke="none" /><path d="M 112.48926042617603 83.11751280151076 l 13.008756084076957 -17.58472083722429 a42.873503189432626,42.873503189432626 0 0,0 0.5895185213238526,0.44401312826046374 l -13.309520759159192 17.358191119457977" fill="#faff18" stroke="none" /><path d="M 112.77801427241765 83.33499621200491 l 11.660648091614668 -15.207742022694521 a40.16366695977849,40.16366695977849 0 0,0 0.5450160737597947,0.4253936904712336 l -11.920696720533893 15.004769943000065" fill="#ffe115" stroke="none" /><path d="M 113.06298171725822 83.55741782278167 l 11.3356571399571 -14.268371348194535 a39.22315954286301,39.22315954286301 0 0,0 0.5250236592886447,0.4245326195299538 l -11.579584197810236 14.071132631400452" fill="#ffd513" stroke="none" /><path d="M 114.42810811169701 84.74124197986012 l 13.17554797220783 -13.934085933808385 a40.17690838427056,40.17690838427056 0 0,0 0.4984170406643431,0.4794767982237943 l -13.413448256484592 13.70522604882229" fill="#ffe115" stroke="none" /><path d="M 114.94478906791727 85.2469230424477 l 22.42622655231496 -22.13854238358374 a52.512706901272225,52.512706901272225 0 0,0 0.6294916636540281,0.6487464932748868 l -22.803982479672097 21.749231694758738" fill="#88ff25" stroke="none" /><path d="M 115.4437574822437 85.77008943001954 l 26.866178532374374 -24.75455330818072 a57.5318964525656,57.5318964525656 0 0,0 0.6647847876968943,0.7340719665505653 l -27.288306960687304 24.288428554360607" fill="#52ff2b" stroke="none" /><path d="M 115.68641384162765 86.03803664274999 l 23.596432968013133 -21.002412392494982 a52.58944404573091,52.58944404573091 0 0,0 0.5960340748953067,0.6813699825132806 l -23.954458906486288 20.593126853778756" fill="#87ff25" stroke="none" /><path d="M 115.9244219780498 86.31012108654704 l 14.53705194202232 -12.497187095341824 a40.17043464455183,40.17043464455183 0 0,0 0.44625409781825476,0.5282240960286605 l -14.750016653327693 12.245104049684057" fill="#ffe115" stroke="none" /><path d="M 116.15771136456269 86.58626213691792 l 14.783683218566996 -12.2730532109657 a40.21419070963268,40.21419070963268 0 0,0 0.43757158176561606,0.5364110201984263 l -14.99275329240902 12.016758021159172" fill="#ffe215" stroke="none" /><path d="M 116.38621287248628 86.86637796730983 l 17.13380967504832 -13.732824173789151 a42.95809403771163,42.95809403771163 0 0,0 0.4574953541426176,0.5809726403805112 l -17.3676591097849 13.435859139455602" fill="#f9ff18" stroke="none" /><path d="M 116.60985879189232 87.15038557335679 l 24.436673049565393 -18.904545215648117 a51.895514553763945,51.895514553763945 0 0,0 0.5405141727313263,0.7112532929552693 l -24.758463162520833 18.481107146811812" fill="#8fff24" stroke="none" /><path d="M 117.04232023915458 87.72973835380427 l 3.7319085029145036 -2.6869283717142007 a25.59855685501966,25.59855685501966 0 0,0 0.25438551270835275,0.3598102673024628 l -3.7776066354267392 2.6222916040799444" fill="#ff1702" stroke="none" /><path d="M 117.2510076193507 88.02491185347247 l 16.858427950669732 -11.702572114958699 a41.52210484023828,41.52210484023828 0 0,0 0.40251831806716093,0.5906459636118763 l -17.057370734405627 11.410648128076415" fill="#fff316" stroke="none" /><line stroke="#e1ed5e" stroke-width="0.3" x1="172.23445277983987" x2="176.4835382374775" y1="55.19839476539836" y2="52.563006222186495" /><path d="M 173.08426987136738 54.67131705675599 a86.0,86.0 0 0,1 12.851231095245387,41.99856678651699" fill="none" id="id63" stroke="none" /><text fill="#e1ed5e" style="font-size:6.75px; font-family:Arial;" text-anchor="middle"><textPath startOffset="22.20632615414155" xlink:href="#id63">March</textPath></text><path d="M 117.84615892207809 88.93136811851018 l 12.390865253436806 -7.685122988216934 a35.58062608644937,35.58062608644937 0 0,0 0.31833512041566175,0.5232592373792555 l -12.52131617213869 7.470695977630597" fill="#ffa50f" stroke="none" /><path d="M 118.03404312379186 89.2402003453031 l 18.815174229238725 -11.225852338555235 a42.90959931180064,42.90959931180064 0 0,0 0.37298724889161466,0.6375561139489012 l -19.005621152600668 10.900316812252438" fill="#faff18" stroke="none" /><path d="M 118.3937258080291 89.86733742301442 l 38.334271460466084 -21.11743112284067 a64.76599439784985,64.76599439784985 0 0,0 0.5295141278177666,0.9811092595875944 l -38.69209368750232 20.454440879920618" fill="#34ff5f" stroke="none" /><path d="M 118.56541770881063 90.18545643968196 l 27.341537545940067 -14.45400881679873 a51.92697926167614,51.92697926167614 0 0,0 0.41094162465623046,0.7938084187437819 l -27.586288603756415 13.981227675794603" fill="#8fff24" stroke="none" /><path d="M 118.89224826269711 90.83032412892265 l 5.286412606019752 -2.5658507893786284 a26.87620187829175,26.87620187829175 0 0,0 0.1984254705659018,0.4179346458158155 l -5.32979627042741 2.474473727922273" fill="#ff2a04" stroke="none" /><path d="M 119.196687751892 91.48605970444005 l 14.137021481036872 -6.269923145191211 a36.465035163293436,36.465035163293436 0 0,0 0.24954115804183744,0.5759753979211448 l -14.24285334892139 6.025648602683464" fill="#ffb110" stroke="none" /><path d="M 119.34039704204932 91.81776055985345 l 13.531708398007979 -5.724788271203514 a35.69286673589701,35.69286673589701 0 0,0 0.23451626392451558,0.5678997347564094 l -13.62824634881869 5.491013965993802" fill="#ffa60f" stroke="none" /><path d="M 119.47837535516314 92.15188598940014 l 13.554783889823389 -5.461414898146424 a35.61366548780666,35.61366548780666 0 0,0 0.22420744237350085,0.5705834853657719 l -13.64678488207859 5.227282407884868" fill="#ffa50f" stroke="none" /><path d="M 119.61058180528143 92.48833698450437 l 29.25129161764041 -11.20445316622536 a52.323758268355625,52.323758268355625 0 0,0 0.31492775987953797,0.8438498242458176 l -29.43982396602157 10.699280204950208" fill="#8aff24" stroke="none" /><path d="M 119.7369772167798 92.82701384747503 l 15.271048869227885 -5.549939125449098 a37.248284766784984,37.248284766784984 0 0,0 0.21381742732165865,0.6044906600027475 l -15.364319377359353 5.286250839019736" fill="#ffbb11" stroke="none" /><path d="M 119.85752413597 93.16781622104841 l 13.934649112742298 -4.794358198009537 a35.73636035207035,35.73636035207035 0 0,0 0.19512513279598126,0.583399311064301 l -14.015111539310048 4.553785784022922" fill="#ffa70f" stroke="none" /><path d="M 119.97218684219823 93.5106431181261 l 14.394204158472858 -4.676960442685439 a36.13496192060759,36.13496192060759 0 0,0 0.18711804538622684,0.5932153384912927 l -14.472577687627291 4.428494937767727" fill="#ffac0f" stroke="none" /><path d="M 120.28053869075195 94.5502522615342 l 29.92834736476718 -8.042288513841806 a51.990069062943995,51.990069062943995 0 0,0 0.22480423701102903,0.866262428623154 l -30.062347933648514 7.525929659669801" fill="#8eff24" stroke="none" /><path d="M 120.37134235888165 94.90015583598534 l 60.067950091039236 -15.037653352409071 a82.92164118050167,82.92164118050167 0 0,0 0.33471596764991646,1.387613777422278 l -60.317898858949974 14.001454343327387" fill="#4cdcff" stroke="none" /><path d="M 120.6074358757038 95.95851677861258 l 14.309922750656998 -2.806429341571607 a35.58252155078143,35.58252155078143 0 0,0 0.11270217440057419,0.6020595221977834 l -14.356110648967432 2.559691741911261" fill="#ffa50f" stroke="none" /><path d="M 120.67395015179393 96.31383870115 l 14.35859391093629 -2.560134507038259 a35.585043976392555,35.585043976392555 0 0,0 0.1023292649264451,0.6039531141234379 l -14.400535037382959 2.3125956045989833" fill="#ffa50f" stroke="none" /><path d="M 120.73433829027371 96.67025291283417 l 14.396979214645421 -2.3120245716469285 a35.58144259416164,35.58144259416164 0 0,0 0.09190874112672086,0.6055637697868356 l -14.434643849211442 2.063861689468011" fill="#ffa50f" stroke="none" /><path d="M 120.83666639777658 97.38593545837742 l 30.76296660411439 -3.8593688001606594 a52.00411007949609,52.00411007949609 0 0,0 0.10378447122829451,0.8891619693755577 l -30.824841428346275 3.3292630924602493" fill="#8eff24" stroke="none" /><path d="M 120.91429891909075 98.10471618934814 l 14.532143927995001 -1.31692375763314 a35.591692682049626,35.591692682049626 0 0,0 0.050041099913115554,0.610628168398123 l -14.552659511727612 1.0665816720272483" fill="#ffa50f" stroke="none" /><path d="M 120.94382443527127 98.46500227214037 l 16.170400457361065 -1.185147824235384 a37.21377273544664,37.21377273544664 0 0,0 0.04132396127079101,0.6392633904409478 l -16.18840500963627 0.9066253695414008" fill="#ffbb11" stroke="none" /><path d="M 120.98425023603335 99.18683210126433 l 14.582599410620249 -0.5650953256588498 a35.5935444048971,35.5935444048971 0 0,0 0.018454923185099274,0.6124290548782485 l -14.590166028260994 0.3139961233556022" fill="#ffa50f" stroke="none" /><line stroke="#e1ed5e" stroke-width="0.3" x1="184.98032266829074" x2="189.97916517819016" y1="98.17113171792111" y2="98.06355123074" /><path d="M 185.9800911702706 98.14961562048488 a86.0,86.0 0 0,1 -9.607161424134198,41.387399972396054" fill="none" id="id64" stroke="none" /><text fill="#e1ed5e" style="font-size:6.75px; font-family:Arial;" text-anchor="middle"><textPath startOffset="21.466115282336823" xlink:href="#id64">April</textPath></text><path d="M 120.99980553446 99.90962569577887 l 62.109256474259375 -0.267292038983029 a83.10983162768544,83.10983162768544 0 0,0 -0.006156866206292306,1.4306388762617104 l -62.10465531076358 -0.801856315482366" fill="#4cdaff" stroke="none" /><path d="M 120.99824983174949 100.27111621757518 l 14.929940539378377 0.19276601812492308 a35.931184924416335,35.931184924416335 0 0,0 -0.013308119237881685,0.6183760077339407 l -14.924410357455487 -0.4497318416489787" fill="#ffa90f" stroke="none" /><path d="M 120.9904718944345 100.63252640178507 l 21.8688347485087 0.6589949680156623 a42.87876156516752,42.87876156516752 0 0,0 -0.0285814860901976,0.7375611570095159 l -21.8542511295673 -1.0353333720391844" fill="#faff18" stroke="none" /><path d="M 120.9764740272857 100.99374915477107 l 27.733016283307805 1.313836703677669 a48.7641199942326,48.7641199942326 0 0,0 -0.046938133849611166,0.8381119111396114 l -27.706291798570664 -1.7910203311527038" fill="#b3ff20" stroke="none" /><path d="M 120.95626037817324 101.35467743843564 l 7.2774637891436065 0.4704377511196286 a28.292653212650038,28.292653212650038 0 0,0 -0.035599488685461735,0.48572673918768067 l -7.268287741793808 -0.5956376268040795" fill="#ff3e05" stroke="none" /><path d="M 120.92983693683757 101.71520430193887 l 21.800198524002642 1.786530607205988 a42.87327929909941,42.87327929909941 0 0,0 -0.06660752600280127,0.7350084991252896 l -21.766216401722765 -2.1615204948798485" fill="#faff18" stroke="none" /><path d="M 120.89721153311464 102.0752229133903 l 21.769524482878413 2.1618490078875614 a42.876603651927944,42.876603651927944 0 0,0 -0.07925576539140175,0.7338099551233755 l -21.72908641598596 -2.536255284895728" fill="#faff18" stroke="none" /><path d="M 120.8583938346157 102.4346265915055 l 26.091537926981708 3.0454479167462964 a47.26867153871203,47.26867153871203 0 0,0 -0.10128661329278602,0.8073539647312729 l -26.035249804442074 -3.494119635764964" fill="#c5ff1e" stroke="none" /><path d="M 120.70491114924044 103.5080841355445 l 31.649936635616676 5.362526784205431 a53.10101528845889,53.10101528845889 0 0,0 -0.1604499207358975,0.8998883646757725 l -31.55294027254159 -5.9065338996144225" fill="#82ff25" stroke="none" /><path d="M 120.64145759157962 103.86396538481128 l 18.83786954424344 3.5263437923221295 a40.165083602937486,40.165083602937486 0 0,0 -0.13306131229973406,0.6784767647290686 l -18.77437829896804 -3.8500842841191427" fill="#ffe115" stroke="none" /><path d="M 120.02730092923936 106.31721596034902 l 7.231257269020195 2.2809570792712517 a28.582469709021925,28.582469709021925 0 0,0 -0.15204206436148313,0.4679373584434802 l -7.190922953642464 -2.405093337692527" fill="#ff4306" stroke="none" /><path d="M 119.9155931802556 106.66101706037122 l 13.901143876371222 4.649409921216078 a35.658063094661436,35.658063094661436 0 0,0 -0.19970072241604667,0.5804237771771094 l -13.819052323011945 -4.888006401482488" fill="#ffa60f" stroke="none" /><path d="M 119.26925614724726 108.34839909993367 l 27.24598712134412 11.804315258590183 a50.693192366948935,50.693192366948935 0 0,0 -0.3537875849909025,0.7976976069597363 l -27.03875845162194 -12.271561202042607" fill="#9dff22" stroke="none" /><path d="M 119.12269723197855 108.67885076344098 l 13.338937258565794 6.05388687618819 a35.648439968052514,35.648439968052514 0 0,0 -0.2584094015809078,0.5565908618257002 l -13.232753240145055 -6.2825978052927205" fill="#ffa60f" stroke="none" /><path d="M 118.81262510543309 109.33194174019688 l 13.231139217492705 6.563263746664321 a35.76954555837625,35.76954555837625 0 0,0 -0.27835746268049993,0.5492256816479533 l -13.116203085025937 -6.790043640014968" fill="#ffa70f" stroke="none" /><path d="M 118.64920377521936 109.65438752849418 l 25.948190650758708 13.432953557971814 a50.2190492545317,50.2190492545317 0 0,0 -0.40401821004208016,0.7642501951618186 l -25.713119932491736 -13.877618768219767" fill="#a2ff22" stroke="none" /><line stroke="#e1ed5e" stroke-width="0.3" x1="174.80103733775053" x2="179.2010983576182" y1="140.37084112569926" y2="142.7455964860345" /><path d="M 175.68104954172406 140.8457921977663 a86.0,86.0 0 0,1 -30.038265399797805,32.042727171017184" fill="none" id="id65" stroke="none" /><text fill="#e1ed5e" style="font-size:6.75px; font-family:Arial;" text-anchor="middle"><textPath startOffset="22.206326154141568" xlink:href="#id65">May</textPath></text><path d="M 118.48025628344425 109.97397251340804 l 9.577042753563639 5.168822321438864 a31.882852204003804,31.882852204003804 0 0,0 -0.2648153123023426,0.480716712635863 l -9.486651031809787 -5.3329095524725325" fill="#ff720a" stroke="none" /><path d="M 118.30583269289576 110.29060199501025 l 13.337740900736728 7.497795124901214 a36.30072756669361,36.30072756669361 0 0,0 -0.31088635195648257,0.5420565593247186 l -13.206702552627865 -7.726271530084248" fill="#ffae10" stroke="none" /><path d="M 118.12598468904814 110.60418214915192 l 25.257305634233752 14.776194184034747 a50.26204713387972,50.26204713387972 0 0,0 -0.4433091597976967,0.7430116509161696 l -24.999215598737827 -15.20876792883702" fill="#a2ff22" stroke="none" /><path d="M 117.94076556474637 110.91462005526583 l 18.834710286108063 11.458469031434714 a43.04637893410102,43.04637893410102 0 0,0 -0.39056463434277855,0.6297145490474495 l -18.63468101209732 -11.780979911847437" fill="#f8ff18" stroke="none" /><path d="M 117.75023020441432 111.22182372390056 l 18.587282332974773 11.751014124602229 a42.99030235086178,42.99030235086178 0 0,0 -0.4008234343928046,0.6220868712987085 l -18.38225403520492 -12.06922259582239" fill="#f9ff18" stroke="none" /><path d="M 117.55443506779139 111.5257021239791 l 12.196397632884617 8.007779547412005 a35.590292954542875,35.590292954542875 0 0,0 -0.34064468387551483,0.5092175831162515 l -12.05674984359838 -8.216534044734063" fill="#ffa50f" stroke="none" /><path d="M 116.93607887273984 112.41649034213515 l 11.850313738960258 8.68792045648214 a35.69387279004249,35.69387279004249 0 0,0 -0.36754275423168137,0.4923835822718201 l -11.699009718033485 -8.890616918263275" fill="#ffa60f" stroke="none" /><path d="M 116.71984013943494 112.70617746262583 l 18.63448900103194 14.161207415734475 a44.4047853184137,44.4047853184137 0 0,0 -0.4677159902537292,0.6045859661529158 l -18.387966193560146 -14.479871376000643" fill="#e7ff1a" stroke="none" /><path d="M 116.498646956653 112.99209946851258 l 19.780570441566706 15.576497842274508 a46.17733607878651,46.17733607878651 0 0,0 -0.49713659792556086,0.6202543441585017 l -19.509515931586293 -15.914680020011259" fill="#d2ff1c" stroke="none" /><path d="M 116.0416608686014 113.55231037782055 l 5.5888737914138655 4.721590420350973 a28.316346516800778,28.316346516800778 0 0,0 -0.31775995991778533,0.36962662134918056 l -5.506771321925301 -4.817094140861681" fill="#ff3f05" stroke="none" /><path d="M 115.32070863581623 114.36230785411682 l 10.745757546059934 10.073546966451355 a35.72914300711366,35.72914300711366 0 0,0 -0.4244851002437592,0.44507093053651503 l -10.570765894437212 -10.257025013570377" fill="#ffa70f" stroke="none" /><path d="M 114.81725581225074 114.88116024355365 l 10.305226815302813 10.349671594243256 a35.60525254227129,35.60525254227129 0 0,0 -0.4380294614270315,0.42870402098710125 l -10.125547401499988 -10.52552571815293" fill="#ffa50f" stroke="none" /><path d="M 114.0293411484842 115.62618273729858 l 41.403407964383014 46.11600872420689 a82.97522449911949,82.97522449911949 0 0,0 -1.0710032914180472,0.9450358812589719 l -40.603462320058384 -46.82186774723815" fill="#4cdcff" stroke="none" /><path d="M 113.20401910651253 116.32954008644616 l 9.176923169672989 11.349190997118423 a35.59520658131137,35.59520658131137 0 0,0 -0.47975983419134366,0.38115022781516517 l -8.980205842764295 -11.505475138938715" fill="#ffa50f" stroke="none" /><path d="M 112.92097659922987 116.55440617244103 l 8.98237686201981 11.508256657370236 a35.59873506106797,35.59873506106797 0 0,0 -0.4862978281424673,0.37287243781645424 l -8.78295030538385 -11.66116843701406" fill="#ffa50f" stroke="none" /><path d="M 112.34349029814194 116.9893568818739 l 8.777393002605153 12.081045037655919 a35.93299290577922,35.93299290577922 0 0,0 -0.5035284686081297,0.3592541928418719 l -8.568137206148139 -12.230343492342008" fill="#ffa90f" stroke="none" /><path d="M 112.04921762599082 117.19931262002967 l 8.601073689897616 12.277357738261996 a35.9903963140509,35.9903963140509 0 0,0 -0.5104519886587627,0.35109353234923296 l -8.38846481661597 -12.423592059976324" fill="#ffaa0f" stroke="none" /><path d="M 111.7513745106137 117.40417183066458 l 4.245818244498223 6.288196348629402 a28.587383335790417,28.587383335790417 0 0,0 -0.41019532837586553,0.27185509637992444 l -4.136948217382394 -6.3603494661006446" fill="#ff4306" stroke="none" /><path d="M 111.45004920935366 117.60387380957326 l 12.086481785433849 18.582356832027408 a43.16725123650697,43.16725123650697 0 0,0 -0.626373667017896,0.39978131013515245 l -11.764826316369021 -18.78765257098637" fill="#f7ff19" stroke="none" /><path d="M 111.1453310114006 117.79835938074945 l 12.389965426386722 19.785958546078145 a44.345136513933284,44.345136513933284 0 0,0 -0.6504392584825105,0.3995529175479137 l -12.047546967971902 -19.996299930454438" fill="#e8ff1a" stroke="none" /><line stroke="#e1ed5e" stroke-width="0.3" x1="143.8653032363475" x2="146.44561519142675" y1="172.8068346515853" y2="177.08958963109032" /><path d="M 144.38136562736335 173.6633856474863 a86.0,86.0 0 0,1 -40.68145358897372,12.25698825130547" fill="none" id="id66" stroke="none" /><text fill="#e1ed5e" style="font-size:6.75px; font-family:Arial;" text-anchor="middle"><textPath startOffset="21.466115282336833" xlink:href="#id66">June</textPath></text><path d="M 110.8373102113329 117.98757091392108 l 11.33778111617503 18.818243443880394 a42.969787594590954,42.969787594590954 0 0,0 -0.6368370702153695,0.3762545662441769 l -11.012176174931279 -19.010616582418322" fill="#f9ff18" stroke="none" /><path d="M 110.5260780823613 118.17145234162733 l 1.549458681583688 2.674872290269249 a24.091239876681414,24.091239876681414 0 0,0 -0.36062433150628487,0.20477190714618276 l -1.503185583156204 -2.7011473632100604" fill="#ff0000" stroke="none" /><path d="M 110.21172684928248 118.3499491758327 l 14.971816892642707 26.90358673951122 a51.788931136322766,51.788931136322766 0 0,0 -0.7826964447797289,0.4267885080242927 l -14.50649763599433 -27.157315899295284" fill="#90ff24" stroke="none" /><path d="M 109.89434966115114 118.52300852407294 l 14.501791864929467 27.148506322058587 a51.7789434973423,51.7789434973423 0 0,0 -0.7897746028459662,0.4131727451561108 l -14.032326359557006 -27.394108486159414" fill="#91ff24" stroke="none" /><path d="M 109.57404056367764 118.69057910512821 l 14.06366859218561 27.45529524157162 a51.8476905306166,51.8476905306166 0 0,0 -0.7978275519353475,0.4000472971686734 l -13.588987132567503 -27.693310379649596" fill="#90ff24" stroke="none" /><path d="M 109.2508944713604 118.85261126421891 l 13.592365621032089 27.700195479234363 a51.855359870914015,51.855359870914015 0 0,0 -0.8047145180104744,0.3863118710657535 l -13.11353843502138 -27.930061626799677" fill="#90ff24" stroke="none" /><path d="M 108.92500713936063 119.00905698771935 l 10.60414760153333 22.58539885920752 a45.95091557407458,45.95091557407458 0 0,0 -0.7188736376129915,0.3299996285027522 l -10.213805968152917 -22.764585558044345" fill="#d5ff1c" stroke="none" /><path d="M 108.59647513512805 119.15986991738527 l 8.960618191423649 19.971473915567362 a42.889551131365394,42.889551131365394 0 0,0 -0.6761830310859156,0.29641876964052616 l -8.615514485679979 -20.12275723850234" fill="#faff18" stroke="none" /><path d="M 108.2653958097858 119.30500536409082 l 8.723356906674525 20.37463852328139 a43.16354779081202,43.16354779081202 0 0,0 -0.6855369094086247,0.2865544837314947 l -8.371348537768439 -20.52177805003286" fill="#f7ff19" stroke="none" /><path d="M 107.93186726928326 119.44442032107085 l 8.37453168147702 20.529581305194696 a43.17197531684225,43.17197531684225 0 0,0 -0.6905026959318136,0.2747652730628224 l -8.01990790950334 -20.67069342266359" fill="#f7ff19" stroke="none" /><path d="M 107.59598834532513 119.57807347666477 l 4.273093174062208 11.013567732224288 a32.813466869065536,32.813466869065536 0 0,0 -0.5283433480251032,0.1997742456799105 l -4.082879605276829 -11.08549022801083" fill="#ff7f0b" stroke="none" /><path d="M 107.2578585660854 119.70592522655815 l 10.636851159888684 28.880280828598362 a51.776829325587315,51.776829325587315 0 0,0 -0.8389829634338135,0.3008294411032958 l -10.138148635825134 -29.05909781074162" fill="#91ff24" stroke="none" /><path d="M 106.91757812671514 119.82793768551818 l 10.174713408015556 29.1639038586382 a51.88783063297168,51.88783063297168 0 0,0 -0.8458464246615777,0.28695703171663833 l -9.671197250416752 -29.33472387725296" fill="#8fff24" stroke="none" /><path d="M 106.57524785965236 119.94407469862006 l 7.405113935907283 22.461228632274796 a44.650422915353744,44.650422915353744 0 0,0 -0.7320089305913637,0.23436614349522136 l -7.017383660224979 -22.585367622429725" fill="#e4ff1a" stroke="none" /><path d="M 106.2309692047433 120.05430185196036 l 6.576667329406692 21.166927241984535 a43.165093323267385,43.165093323267385 0 0,0 -0.711453287133576,0.2143550392730404 l -6.21133906783287 -21.276997650363302" fill="#f7ff19" stroke="none" /><path d="M 105.88484417918355 120.15858648285463 l 6.809020714776226 23.324361489110547 a45.297913531185245,45.297913531185245 0 0,0 -0.7503682032091421,0.2120615494522975 l -6.406521343462478 -23.438111831901363" fill="#ddff1b" stroke="none" /><path d="M 105.53697534728816 120.25689768951611 l 8.118274715376108 29.700522398984944 a51.79005383442714,51.79005383442714 0 0,0 -0.8619580372590162,0.22765095185479603 l -7.605826235305595 -29.835864700143325" fill="#90ff24" stroke="none" /><path d="M 105.18746579009965 120.34920634021253 l 3.698764396707442 14.509381450973486 a35.973410037536674,35.973410037536674 0 0,0 -0.6013498776315642,0.1477971691520052 l -3.4484612343326666 -14.57089987843952" fill="#ffaa0f" stroke="none" /><path d="M 104.48393922423573 120.51570834832081 l 4.680981411208532 21.417250460756197 a42.922823820640474,42.922823820640474 0 0,0 -0.7231648365383374,0.15154622269661164 l -4.311625113240817 -21.494652664179352" fill="#faff18" stroke="none" /><path d="M 104.13013068566511 120.58985236759428 l 2.8755427484050964 14.335381897687498 a35.620941154742795,35.620941154742795 0 0,0 -0.6022184623509181,0.11541660160157394 l -2.6283566714824738 -14.38275569763754" fill="#ffa50f" stroke="none" /><path d="M 103.7750983002368 120.6578951692458 l 2.6292137665323794 14.387445848272801 a35.62570897656266,35.62570897656266 0 0,0 -0.6041968044781055,0.1050473590964624 l -2.381167990582224 -14.43057178589027" fill="#ffa50f" stroke="none" /><path d="M 103.41894727170886 120.7198165907248 l 4.298762369557212 26.051752421386762 a47.404036853010794,47.404036853010794 0 0,0 -0.8062391373369346,0.12591797210671998 l -3.8496873686117605 -26.12188870084059" fill="#c3ff1e" stroke="none" /><path d="M 103.06178313531738 120.77559828337769 l 2.2602403210140074 15.336763858819841 a36.5024195521196,36.5024195521196 0 0,0 -0.6224034663865167,0.08625944908786926 l -1.9959082634406602 -15.373397873400314" fill="#ffb110" stroke="none" /><path d="M 102.70371172650421 120.8252237178851 l 1.8885523783754272 14.546493768943245 a35.66857563145693,35.66857563145693 0 0,0 -0.6095463644260805,0.07380757596118064 l -1.6378785908979665 -14.576846873629776" fill="#ffa60f" stroke="none" /><path d="M 102.34483914955558 120.86867818915974 l 2.303502580387503 20.50078960303808 a41.629796375288976,41.629796375288976 0 0,0 -0.7127960850714358,0.07388422866500952 l -1.9502738987104642 -20.53740320015885" fill="#fff417" stroke="none" /><path d="M 101.98527174616119 120.90594882070398 l 3.455558559198525 36.38883720842739 a57.552542433290185,57.552542433290185 0 0,0 -0.9870416755128809,0.08516610901802119 l -2.8286725659441023 -36.44292756972407" fill="#52ff2b" stroke="none" /><path d="M 101.62511606390274 120.93702456842531 l 1.3947800125935101 17.969512479674034 a39.02356207969699,39.02356207969699 0 0,0 -0.6701595091901879,0.046218123418742 l -1.0852577426243921 -17.990858947609063" fill="#ffd213" stroke="none" /><path d="M 101.26447882468166 120.96189622390904 l 0.8802597750405275 14.592505381912098 a35.619031109915866,35.619031109915866 0 0,0 -0.6123283439157661,0.031650381116865356 l -0.6289433627112818 -14.605495569791165" fill="#ffa50f" stroke="none" /><path d="M 100.90346689309514 120.98055641714683 l 0.8243277246864412 19.1427649050344 a40.16050532755082,40.16050532755082 0 0,0 -0.690913011490753,0.02379644110003092 l -0.49469436152103585 -19.154118144560528" fill="#ffe115" stroke="none" /><line stroke="#e1ed5e" stroke-width="0.3" x1="102.19456741930631" x2="102.32365962044197" y1="184.97166512339345" y2="189.96999836594603" /><path d="M 102.22038585953345 185.97133177190398 a86.0,86.0 0 0,1 -42.740103519485714,-10.115201625700543" fill="none" id="id67" stroke="none" /><text fill="#e1ed5e" style="font-size:6.75px; font-family:Arial;" text-anchor="middle"><textPath startOffset="22.20632615414155" xlink:href="#id67">July</textPath></text><path d="M 100.54218724476979 120.99299961872073 l 0.9441632973352563 36.557148719691476 a57.569339163371204,57.569339163371204 0 0,0 -0.9908514190420507,0.017058405760373378 l -0.3147521884005377 -36.56798460273101" fill="#52ff2b" stroke="none" /><path d="M 99.81925306533755 120.99922214144158 l -0.1255301652750668 14.584124654649887 a35.584664883526145,35.584664883526145 0 0,0 -0.6124634433603419,-0.010544113607201467 l 0.37655329852807656 -14.579803063763526" fill="#ffa50f" stroke="none" /><path d="M 99.45781275523022 120.99299961872073 l -0.7986410846293648 30.922660292825547 a51.932971845064415,51.932971845064415 0 0,0 -0.8934440859369303,-0.030772020809530128 l 1.330805522240938 -30.904331473589924" fill="#8fff24" stroke="none" /><path d="M 99.09653310690486 120.98055641714683 l -0.7096982093370083 16.480806805363756 a37.4960802769646,37.4960802769646 0 0,0 -0.6445967794147558,-0.03331829064895951 l 0.993283057165253 -16.466148707952595" fill="#ffbe11" stroke="none" /><path d="M 98.73552117531835 120.96189622390904 l -0.8790227584523282 14.571998740881234 a35.59848719265532,35.59848719265532 0 0,0 -0.6113400067431348,-0.04216158615224563 l 1.129725525974393 -14.554708810212702" fill="#ffa50f" stroke="none" /><path d="M 98.01472825383883 120.90594882070398 l -0.5520545046448327 5.813422390491712 a26.839575675198414,26.839575675198414 0 0,0 -0.4595541206542273,-0.047634663609240326 l 0.6520412219046534 -5.803058358426711" fill="#ff2904" stroke="none" /><path d="M 96.22490169976321 120.6578951692458 l -3.4446912164313166 18.84985883281407 a40.162021699016464,40.162021699016464 0 0,0 -0.6789913508297696,-0.13013030839955697 l 3.7686501818327813 -18.787771326066046" fill="#ffe115" stroke="none" /><path d="M 95.86986931433489 120.58985236759428 l -3.769639499713181 18.79270335138252 a40.16705196974385,40.16705196974385 0 0,0 -0.6767355217192831,-0.14181650835251 l 4.092566482861851 -18.72503086230347" fill="#ffe115" stroke="none" /><path d="M 94.81253420990036 120.34920634021253 l -3.607115395162449 14.14986400666134 a35.60239476527833,35.60239476527833 0 0,0 -0.5925417728220468,-0.15649566773067006 l 3.850147610795985 -14.085676989627089" fill="#ffa50f" stroke="none" /><path d="M 94.46302465271185 120.25689768951611 l -5.053052035767741 18.4864753205883 a40.16463160759676,40.16463160759676 0 0,0 -0.6653344514687233,-0.18803016183126675 l 5.370517655341078 -18.39675636541851" fill="#ffe115" stroke="none" /><path d="M 93.76903079525671 120.05430185196036 l -4.338168755818688 13.96234564082002 a35.620766188804446,35.620766188804446 0 0,0 -0.5839747366815098,-0.18697026937105177 l 4.577864837591138 -13.885602524789261" fill="#ffa50f" stroke="none" /><path d="M 93.08242187328487 119.8279376855182 l -3.270450628308066 9.374132112975353 a30.92825262489409,30.92825262489409 0 0,0 -0.501156161531132,-0.17969676924289082 l 3.4313263504689244 -9.316447802692505" fill="#ff6409" stroke="none" /><path d="M 92.7421414339146 119.70592522655815 l -6.62165303032532 17.978553633097565 a40.159193083013236,40.159193083013236 0 0,0 -0.6466199567430684,-0.24449633856994446 l 6.930143207828672 -17.86190904442099" fill="#ffe115" stroke="none" /><path d="M 92.40401165467489 119.57807347666478 l -6.931720123421206 17.865973422607684 a40.163552650976975,40.163552650976975 0 0,0 -0.6423852784164916,-0.2556183596031506 l 7.2382264778795555 -17.744008218598466" fill="#ffe115" stroke="none" /><path d="M 92.06813273071674 119.44442032107085 l -9.423305940257494 23.100578375281813 a45.94865559737097,45.94865559737097 0 0,0 -0.7297708590211858,-0.30504427825702585 l 9.819548258776141 -22.934949054004814" fill="#d5ff1c" stroke="none" /><path d="M 91.7346041902142 119.30500536409082 l -7.233338714259382 16.894489494833042 a39.37783894385375,39.37783894385375 0 0,0 -0.6208184929031972,-0.2721485831150157 l 7.523077881820322 -16.767476358423576" fill="#ffd714" stroke="none" /><path d="M 91.40352486487194 119.15986991738527 l -13.824333045358399 30.811747684969255 a54.77093394549811,54.77093394549811 0 0,0 -0.8568573668002274,-0.39334119089806974 l 14.352658407926045 -30.56921942373711" fill="#6fff27" stroke="none" /><path d="M 90.7491055286396 118.85261126421891 l -6.443657450480381 13.131678175530016 a35.62742947495638,35.62742947495638 0 0,0 -0.5482316482923902,-0.27489472955613103 l 6.668743006455531 -13.018815605064583" fill="#ffa50f" stroke="none" /><path d="M 90.42595943632237 118.69057910512821 l -14.083796753458016 27.494589726277493 a51.891840269058726,51.891840269058726 0 0,0 -0.791496596324831,-0.414073610757815 l 14.554984252309342 -27.24808669657496" fill="#8fff24" stroke="none" /><line stroke="#e1ed5e" stroke-width="0.3" x1="58.666819895761336" x2="56.23545636021788" y1="174.27360380694188" y2="178.64263932499728" /><path d="M 58.180547188652646 175.14741091055294 a86.0,86.0 0 0,1 -31.652253787137756,-30.449443065178592" fill="none" id="id68" stroke="none" /><text fill="#e1ed5e" style="font-size:6.75px; font-family:Arial;" text-anchor="middle"><textPath startOffset="22.20632615414155" xlink:href="#id68">August</textPath></text><path d="M 89.7882731507175 118.34994917583269 l -10.657251982824505 19.15053498053686 a42.91620427597313,42.91620427597313 0 0,0 -0.6424172253911196,-0.36478126663676347 l 10.985317975136832 -18.964250548105465" fill="#faff18" stroke="none" /><path d="M 89.4739219176387 118.17145234162733 l -9.606582435647903 16.584102220162347 a40.16556475926792,40.16556475926792 0 0,0 -0.595276868160683,-0.3517000663124784 l 9.890627174836968 -16.41628358155612" fill="#ffe115" stroke="none" /><path d="M 89.1626897886671 117.98757091392108 l -11.301182215497182 18.757497252392234 a42.898868067582214,42.898868067582214 0 0,0 -0.6292258887702384,-0.3865219332568744 l 11.622387304199728 -18.56018685230698" fill="#faff18" stroke="none" /><path d="M 88.8546689885994 117.79835938074946 l -7.927430957065457 12.659584986359114 a35.936842156422784,35.936842156422784 0 0,0 -0.5214576086680621,-0.33281891776479416 l 8.144170367780443 -12.521251639770515" fill="#ffa90f" stroke="none" /><path d="M 88.54995079064634 117.60387380957326 l -7.996056238966542 12.293533628661462 a35.66519295664895,35.66519295664895 0 0,0 -0.5117535720076019,-0.33916236245727466 l 8.206484509714105 -12.154073245112869" fill="#ffa60f" stroke="none" /><path d="M 87.65650970185807 116.9893568818739 l -18.137173936085492 24.963678294069073 a51.856803339905355,51.856803339905355 0 0,0 -0.7176364969821566,-0.5308903242018138 l 18.564195403486213 -24.647778021127493" fill="#90ff24" stroke="none" /><path d="M 87.36589467227662 116.77436683061367 l -11.414034499554383 15.154472496969932 a39.97203785096466,39.97203785096466 0 0,0 -0.5460394915720337,-0.4186797978190283 l 11.673202719619903 -14.955753357323538" fill="#ffdf14" stroke="none" /><path d="M 86.51685102203217 116.09983520530335 l -11.281401724035648 13.470792983047929 a38.570779392252575,38.570779392252575 0 0,0 -0.5053406193399476,-0.43066223893211614 l 11.511607819952653 -13.27460635389286" fill="#ffcc13" stroke="none" /><path d="M 85.97065885151581 115.62618273729859 l -9.757660301379083 10.868292483878173 a35.60587950355035,35.60587950355035 0 0,0 -0.4525345371964988,-0.4133795702386833 l 9.943294388042437 -10.698720147052915" fill="#ffa50f" stroke="none" /><path d="M 85.70375840098266 115.38237550388516 l -19.970741515986525 21.487986402737413 a50.33537244254069,50.33537244254069 0 0,0 -0.6295856477736864,-0.595312526724785 l 20.33766299815103 -21.141039239266696" fill="#a1ff22" stroke="none" /><path d="M 85.44109423537348 115.13401014063109 l -10.164333268477405 10.56584370039963 a35.66119790105676,35.66119790105676 0 0,0 -0.4387177226702019,-0.42937762947333696 l 10.344700943523401 -10.389315968003725" fill="#ffa60f" stroke="none" /><path d="M 85.18274418774928 114.88116024355367 l -10.34163519157924 10.386236993966554 a35.65685291358788,35.65685291358788 0 0,0 -0.43120914659150317,-0.43681258889303415 l 10.518884963226277 -10.206683911092856" fill="#ffa60f" stroke="none" /><path d="M 84.9287848128048 114.62390073753433 l -10.573465628251727 10.259644619145048 a35.732904774788054,35.732904774788054 0 0,0 -0.42452979245281847,-0.44511779013903596 l 10.748501972083503 -10.07611971242351" fill="#ffa70f" stroke="none" /><path d="M 84.67929136418377 114.36230785411682 l -5.585683481613657 5.236266000845881 a28.656261593518483,28.656261593518483 0 0,0 -0.33425972432125656,-0.36277291365339637 l 5.674989613930642 -5.139341832391141" fill="#ff4406" stroke="none" /><path d="M 84.43433777217949 114.09645910891817 l -22.864079384906272 20.705997303239617 a51.846465769048194,51.846465769048194 0 0,0 -0.5933732964095759,-0.6666611888232907 l 23.217111530964186 -20.30936194467546" fill="#90ff24" stroke="none" /><path d="M 84.19399662182784 113.82643327865904 l -11.242355856672981 9.834344547964163 a35.93669635147417,35.93669635147417 0 0,0 -0.4032738893573978,-0.4690986404960642 l 11.409972255601158 -9.639368808306568" fill="#ffa90f" stroke="none" /><path d="M 83.72743513129214 113.27417163493432 l -11.360298949527053 9.267042982890294 a35.66064384225201,35.66064384225201 0 0,0 -0.3839158484440143,-0.47899405069419615 l 11.51813271002593 -9.070121098617838" fill="#ffa60f" stroke="none" /><path d="M 83.50135304334701 112.99209946851258 l -22.925837642221936 18.0532842377483 a50.18073171403437,50.18073171403437 0 0,0 -0.5285540839120703,-0.6832274032638773 l 23.233198543352074 -17.65597884037117" fill="#a3ff22" stroke="none" /><path d="M 83.28015986056508 112.70617746262583 l -17.664149237730104 13.423801487882592 a43.186045494384075,43.186045494384075 0 0,0 -0.44469027495971625,-0.5957352935546736 l 17.892600779384907 -13.11775331481861" fill="#f7ff19" stroke="none" /><path d="M 83.06392112726016 112.41649034213515 l -25.48803553277661 18.686258455143868 a52.60405370158263,52.60405370158263 0 0,0 -0.5290971021301418,-0.7348695987184765 l 25.80591242728236 -18.24475525097425" fill="#87ff25" stroke="none" /><path d="M 82.6465618267979 111.8261652097733 l -18.08900443171144 12.327445014330964 a42.89013435115987,42.89013435115987 0 0,0 -0.41051351490950916,-0.6136620055845914 l 18.29852105203168 -12.014246094540551" fill="#faff18" stroke="none" /><path d="M 82.24976979558568 111.22182372390057 l -26.016686371321256 16.44793701133898 a51.779905810003186,51.779905810003186 0 0,0 -0.46980490530801244,-0.7574750964949548 l 26.295955916297224 -15.997665583478762" fill="#91ff24" stroke="none" /><path d="M 82.05923443525364 110.91462005526583 l -32.410299145020716 19.71744738365679 a58.936858356972635,58.936858356972635 0 0,0 -0.5198206330464674,-0.8712492810128304 l 32.74490065376541 -19.15663600875785" fill="#43ff2d" stroke="none" /><line stroke="#e1ed5e" stroke-width="0.3" x1="26.63291911575756" x2="22.317208475507996" y1="142.92168965132927" y2="145.44649492493687" /><path d="M 25.769776987707644 143.4266507060508 a86.0,86.0 0 0,1 -11.730757126820373,-40.83630448921669" fill="none" id="id69" stroke="none" /><text fill="#e1ed5e" style="font-size:6.75px; font-family:Arial;" text-anchor="middle"><textPath startOffset="21.46611528233685" xlink:href="#id69">September</textPath></text><path d="M 81.87401531095188 110.60418214915194 l -53.112767474922165 31.0723787099924 a82.53420827102872,82.53420827102872 0 0,0 -0.706838695556594,-1.2324328453138944 l 53.63975816663114 -30.153526018820198" fill="#4be0ff" stroke="none" /><path d="M 81.69416730710424 110.29060199501025 l -26.823946254355928 15.079049364755093 a51.7717698938702,51.7717698938702 0 0,0 -0.43001038066374847,-0.7805937458630162 l 27.07953304447119 -14.615085100494253" fill="#91ff24" stroke="none" /><path d="M 81.51974371655577 109.97397251340807 l -6.423885361027082 3.4670328721343524 a28.29976849414269,28.29976849414269 0 0,0 -0.2276749954715143,-0.4306752898698435 l 6.482612864723483 -3.355942567178383" fill="#ff3e05" stroke="none" /><path d="M 81.35079622478065 109.6543875284942 l -19.802350516845966 10.251352720953344 a43.29850485125465,43.29850485125465 0 0,0 -0.336947583764658,-0.6648295489932344 l 19.975876770396887 -9.908968960257424" fill="#f5ff19" stroke="none" /><path d="M 81.18737489456691 109.33194174019688 l -22.33599676857012 11.079698839760816 a45.93303988737378,45.93303988737378 0 0,0 -0.3452562266670556,-0.711330088450526 l 22.523406251851895 -10.693579795345006" fill="#d5ff1c" stroke="none" /><path d="M 80.87730276802145 108.67885076344099 l -8.019613484083084 3.6397077130125566 a29.806910506542593,29.806910506542593 0 0,0 -0.2080223081595571,-0.469035388614302 l 8.08107687697392 -3.5011239879055585" fill="#ff5407" stroke="none" /><path d="M 80.73074385275274 108.34839909993369 l -19.50708462623996 8.45143821284957 a42.25918997706407,42.25918997706407 0 0,0 -0.28343644970844695,-0.6699600413370458 l 19.649672057140712 -8.114403645846366" fill="#fffc17" stroke="none" /><path d="M 80.58989483394504 108.01547362559985 l -28.41979804852493 11.736059117351237 a51.74768291635818,51.74768291635818 0 0,0 -0.33290365143988687,-0.8262395616440457 l 28.617604314222206 -11.245120187864387" fill="#91ff24" stroke="none" /><path d="M 80.45479744820244 107.68017299344265 l -36.13634730057623 14.199566255916098 a59.826064416626295,59.826064416626295 0 0,0 -0.3683739218322378,-0.961708068389259 l 36.375415502001985 -13.575434620693681" fill="#3aff2e" stroke="none" /><path d="M 80.32549172779594 107.34259656027581 l -13.989131119195585 5.220793557629579 a35.931593178272465,35.931593178272465 0 0,0 -0.21127047718794428,-0.5813256161618116 l 14.076925857388753 -4.97922014446165" fill="#ffa90f" stroke="none" /><path d="M 80.20201598880116 107.00284435728193 l -14.080156149530467 4.980362747318799 a35.935019594565034,35.935019594565034 0 0,0 -0.20125179974074273,-0.5849319339258722 l 14.163798780214439 -4.73725811030363" fill="#ffa90f" stroke="none" /><path d="M 79.97269907076064 106.31721596034903 l -35.25751365974018 11.121285329485179 a57.969923679209664,57.969923679209664 0 0,0 -0.2919840916725383,-0.9542209056723399 l 35.443724523918846 -10.512737451260792" fill="#4dff2c" stroke="none" /><path d="M 79.86692584326677 105.97154293290107 l -21.600498911353906 6.406786445878881 a43.530611748962755,43.530611748962755 0 0,0 -0.2068893130189881,-0.7202088399470912 l 21.707580861258997 -6.034020130427193" fill="#f2ff19" stroke="none" /><path d="M 79.76711848015287 105.62410040840567 l -15.693810984483017 4.3623825247378445 a37.288833122996195,37.288833122996195 0 0,0 -0.1665779602970864,-0.6198985587877265 l 15.76657702112188 -4.091593032774579" fill="#ffbc11" stroke="none" /><path d="M 79.67330655649465 105.27499134158121 l -15.485530502700605 4.018658496944924 a36.998477148314414,36.998477148314414 0 0,0 -0.15466893723499206,-0.61782552002884 l 15.552410754230655 -3.751505137518692" fill="#ffb811" stroke="none" /><path d="M 79.50377843672027 104.57218783832718 l -28.833424575139606 6.432006639504828 a50.5421238596838,50.5421238596838 0 0,0 -0.18211039936911205,-0.8507591581788002 l 28.93986901323316 -5.934733661909864" fill="#9fff22" stroke="none" /><path d="M 79.35854240842038 103.8639653848113 l -21.609449070290964 4.045167974305688 a42.98480550429881,42.98480550429881 0 0,0 -0.12988280164789442,-0.728451727731414 l 21.675878314278048 -3.6725974958410603" fill="#f9ff18" stroke="none" /><path d="M 79.29508885075956 103.50808413554451 l -14.522156922804468 2.4605248458961464 a35.7291284266188,35.7291284266188 0 0,0 -0.0975205218863774,-0.6072603828770895 l 14.562359199052137 -2.210185233325843" fill="#ffa70f" stroke="none" /><path d="M 79.23777060512086 103.15116336523772 l -14.762718962134896 2.2405946047515255 a35.93178272470568,35.93178272470568 0 0,0 -0.08754684579880664,-0.6123024356120165 l 14.799099858950301 -1.9861466971591086" fill="#ffa90f" stroke="none" /><path d="M 79.18660465613746 102.79330883721812 l -34.99274765099457 4.696280911268525 a56.306478761889174,56.306478761889174 0 0,0 -0.12065269351949584,-0.9617206785944162 l 35.06840185376092 -4.0932424783867" fill="#5fff29" stroke="none" /><path d="M 79.1416061653843 102.43462659150553 l -19.033692711118544 2.221644426529643 a40.162911109203044,40.162911109203044 0 0,0 -0.07423960829890941,-0.68736657030772 l 19.069114620918505 -1.893681534337141" fill="#ffe115" stroke="none" /><path d="M 79.10278846688536 102.07522291339032 l -30.6199473957451 3.040750979706691 a51.770559712796654,51.770559712796654 0 0,0 -0.08043025769484617,-0.8875411915173615 l 30.667752249717022 -2.513228399640763" fill="#91ff24" stroke="none" /><path d="M 79.04373962182676 101.35467743843564 l -19.997183970422466 1.2926797753092047 a41.0389218210066,41.0389218210066 0 0,0 -0.03950220788780233,-0.705338457919051 l 20.0164725291978 -0.9482696010547161" fill="#ffec16" stroke="none" /><path d="M 79.0235259727143 100.99374915477108 l -43.69666159659863 2.07010579907059 a64.74566918801224,64.74566918801224 0 0,0 -0.04315720360732824,-1.1136956603816583 l 43.725820933057165 -1.317632891674935" fill="#34ff5e" stroke="none" /><path d="M 79.0095281055655 100.63252640178507 l -27.290886270284332 0.8223829450278171 a48.303274293129505,48.303274293129505 0 0,0 -0.017890468550516767,-0.8312997742961843 l 27.300998801519857 -0.3524933549415039" fill="#b9ff1f" stroke="none" /><line stroke="#e1ed5e" stroke-width="0.3" x1="15.007084014347285" x2="10.007500721073583" y1="101.09737516637583" y2="101.16192664675087" /><path d="M 14.007167355692545 101.11028546245083 a86.0,86.0 0 0,1 10.666146001902534,-42.60595125391555" fill="none" id="id70" stroke="none" /><text fill="#e1ed5e" style="font-size:6.75px; font-family:Arial;" text-anchor="middle"><textPath startOffset="22.20632615414155" xlink:href="#id70">October</textPath></text><path d="M 79.00175016825051 100.2711162175752 l -30.02576412322817 0.3876738139664595 a51.02826671937245,51.02826671937245 0 0,0 -0.003780229183204329,-0.8783921315594273 l 30.02798864970088 0.12922779579664317" fill="#99ff23" stroke="none" /><path d="M 79.01574976396665 99.18683210126434 l -30.750833137583992 -1.1916361121123709 a51.77391322661491,51.77391322661491 0 0,0 0.04217451633044345,-0.8902373825140347 l 30.725765013020048 1.7207846012494148" fill="#91ff24" stroke="none" /><path d="M 79.05617556472873 98.46500227214037 l -38.46321968398953 -2.8190149799794733 a59.56638580313416,59.56638580313416 0 0,0 0.08374896608783415,-1.0219495146238766 l 38.408996234082196 3.4806784118111285" fill="#3dff2e" stroke="none" /><path d="M 79.21141760316559 97.0276538004421 l -14.468043444104852 -2.0686371550121736 a35.615181859272305,35.615181859272305 0 0,0 0.09199589142633322,-0.6061379813724278 l 14.430291659239217 2.317374248776693" fill="#ffa50f" stroke="none" /><path d="M 79.26566170972629 96.67025291283419 l -14.429370312457019 -2.3172262888215047 a35.614248707601135,35.614248707601135 0 0,0 0.10241324680037311,-0.6044487798973192 l 14.387345204136421 2.5652608570346516" fill="#ffa50f" stroke="none" /><path d="M 79.32604984820605 96.31383870115002 l -14.536010777613061 -2.591767899926664 a35.76525889288682,35.76525889288682 0 0,0 0.11328096687794052,-0.605151454755684 l 14.48924408682526 2.8415974321449204" fill="#ffa70f" stroke="none" /><path d="M 79.46518482838121 95.60439243477599 l -13.132751798234386 -2.811148903658605 a34.43025420282764,34.43025420282764 0 0,0 0.1290406791766296,-0.5784640624143742 l 13.08241673205572 3.0367911356229382" fill="#ff950d" stroke="none" /><path d="M 79.54389044137918 95.25157060432595 l -61.3683286758625 -14.245288187022146 a84.0,84.0 0 0,0 0.3390687989567409,-1.4056590733624128 l 61.114027076644945 15.299532492043955" fill="#4dd2ff" stroke="none" /><path d="M 79.71946130924805 94.55025226153421 l -28.51218235123509 -7.661739348088604 a50.5236649531885,50.5236649531885 0 0,0 0.23292186509244553,-0.8379438768116226 l 28.376073715576283 8.15139452831917" fill="#9fff22" stroke="none" /><path d="M 79.81627453868168 94.20196356495316 l -29.717834019660188 -8.536832545948144 a51.919689014245144,51.919689014245144 0 0,0 0.2541446597361187,-0.8568494505521862 l 29.56648346281236 9.04711138324687" fill="#8fff24" stroke="none" /><path d="M 80.2630227832202 92.82701384747504 l -13.703662348802233 -4.9803057067557175 a35.58059692545965,35.58059692545965 0 0,0 0.2141535328452951,-0.5738249975875302 l 13.61590422745531 5.2154538413725895" fill="#ffa50f" stroke="none" /><line stroke="#e1ed5e" stroke-width="0.3" x1="26.266209847984243" x2="21.928928074336255" y1="57.711370442889674" y2="55.22380399835377" /><path d="M 25.398753493254645 57.213857153982495 a86.0,86.0 0 0,1 29.58750427330803,-30.492523968695096" fill="none" id="id71" stroke="none" /><text fill="#e1ed5e" style="font-size:6.75px; font-family:Arial;" text-anchor="middle"><textPath startOffset="21.46611528233685" xlink:href="#id71">November</textPath></text><line stroke="#e1ed5e" stroke-width="0.3" x1="56.762969772571076" x2="54.21961505331055" y1="26.818313649435495" y2="22.513508569990535" /><path d="M 56.25429882871897 25.957352633546506 a86.0,86.0 0 0,1 42.265352541879196,-11.944610805530505" fill="none" id="id72" stroke="none" /><text fill="#e1ed5e" style="font-size:6.75px; font-family:Arial;" text-anchor="middle"><textPath startOffset="22.20632615414155" xlink:href="#id72">December</textPath></text></svg>