<?xml version="1.0" encoding="utf-8" ?>
<svg baseProfile="full" height="200mm" version="1.1" viewBox="0,0,200,200" width="200mm" xmlns="http://www.w3.org/2000/svg" xmlns:ev="http://www.w3.org/2001/xml-events" xmlns:xlink="http://www.w3.org/1999/xlink"><defs /><rect fill="#1a1a1a" height="200" width="200" x="0" y="0" /><text alignment-baseline="middle" fill="#e1ed5e" style="dominant-baseline: central; font-size:9.0px; font-family:Arial;" text-anchor="middle" x="100.0" y="100.0">2021</text><line stroke="#e1ed5e" stroke-width="0.3" x1="100.0" x2="100.0" y1="15.0" y2="10.0" /><path d="M 100.0 14.0 a86.0,86.0 0 0,1 42.46469731375804,11.215312516191453" fill="none" id="id37" stroke="none" /><text fill="#e1ed5e" style="font-size:6.75px; font-family:Arial;" text-anchor="middle"><textPath startOffset="22.20632615414155" xlink:href="#id37">January</textPath></text><line stroke="#e1ed5e" stroke-width="0.3" x1="143.23703022742887" x2="145.7803849466894" y1="26.81831364943548" y2="22.513508569990506" /><path d="M 143.74570117128098 25.957352633546492 a86.0,86.0 0 0,1 28.547481713284135,27.462654790039103" fill="none" id="id38" stroke="none" /><text fill="#e1ed5e" style="font-size:6.75px; font-family:Arial;" text-anchor="middle"><textPath startOffset="19.985693538727396" xlink:href="#id38">February</textPath></text><path d="M 115.68641384162765 86.03803664274999 l 11.152967899607258 -9.926891557946085 a35.93090315328886,35.93090315328886 0 0,0 0.407230823784719,0.4655352285518261 l -11.322190586969826 9.733440773191312" fill="#ff760a" stroke="none" /><line stroke="#e1ed5e" stroke-width="0.3" x1="172.23445277983987" x2="176.4835382374775" y1="55.19839476539836" y2="52.563006222186495" /><path d="M 173.08426987136738 54.67131705675599 a86.0,86.0 0 0,1 12.851231095245387,41.99856678651699" fill="none" id="id39" stroke="none" /><text fill="#e1ed5e" style="font-size:6.75px; font-family:Arial;" text-anchor="middle"><textPath startOffset="22.20632615414155" xlink:href="#id39">March</textPath></text><line stroke="#e1ed5e" stroke-width="0.3" x1="184.98032266829074" x2="189.97916517819016" y1="98.17113171792111" y2="98.06355123074" /><path d="M 185.9800911702706 98.14961562048488 a86.0,86.0 0 0,1 -9.607161424134198,41.387399972396054" fill="none" id="id40" stroke="none" /><text fill="#e1ed5e" style="font-size:6.75px; font-family:Arial;" text-anchor="middle"><textPath startOffset="21.466115282336823" xlink:href="#id40">April</textPath></text><path d="M 120.9764740272857 100.99374915477107 l 15.858573333833455 0.7512913669796182 a36.87635937180409,36.87635937180409 0 0,0 -0.03549551375652468,0.6337962426601609 l -15.843291469189401 -1.0241593259752022" fill="#ff840c" stroke="none" /><path d="M 120.95626037817324 101.35467743843564 l 14.993733936813873 0.9692413014329578 a36.02502865449406,36.02502865449406 0 0,0 -0.04532882053655133,0.6184757423056533 l -14.974828557612984 -1.2271901802353813" fill="#ff770b" stroke="none" /><path d="M 120.92983693683757 101.71520430193887 l 7.689926234632043 0.6301909851967722 a28.715705163619553,28.715705163619553 0 0,0 -0.0446124511500743,0.492294680945474 l -7.677939187204894 -0.7624670546908168" fill="#ff0400" stroke="none" /><path d="M 120.89721153311464 102.0752229133903 l 14.798046287179744 1.4695379180089376 a35.87083439521738,35.87083439521738 0 0,0 -0.06630586830758314,0.6139099913667934 l -14.770558117371108 -1.7240442312605224" fill="#ff750a" stroke="none" /><line stroke="#e1ed5e" stroke-width="0.3" x1="174.80103733775053" x2="179.2010983576182" y1="140.37084112569926" y2="142.7455964860345" /><path d="M 175.68104954172406 140.8457921977663 a86.0,86.0 0 0,1 -30.038265399797805,32.042727171017184" fill="none" id="id41" stroke="none" /><text fill="#e1ed5e" style="font-size:6.75px; font-family:Arial;" text-anchor="middle"><textPath startOffset="22.206326154141568" xlink:href="#id41">May</textPath></text><path d="M 117.75023020441432 111.22182372390056 l 12.80864531407635 8.09771806907516 a36.153693698502565,36.153693698502565 0 0,0 -0.33708178081536116,0.5231584094300384 l -12.667358669883937 -8.316998078426652" fill="#ff790b" stroke="none" /><path d="M 117.35343817320211 111.8261652097733 l 12.415762947444076 8.461197277240295 a36.024747216891996,36.024747216891996 0 0,0 -0.35362422433349877,0.5094220696933298 l -12.26827781594844 -8.673660609120645" fill="#ff770b" stroke="none" /><path d="M 117.14729908036423 112.12312394758627 l 12.230479705717551 8.64693738156358 a35.97845652637983,35.97845652637983 0 0,0 -0.3618750979765379,0.5026128605989176 l -12.07982481536541 -8.85618384761363" fill="#ff760a" stroke="none" /><path d="M 116.93607887273984 112.41649034213515 l 12.829275058770765 9.405634625392631 a36.90774217920263,36.90774217920263 0 0,0 -0.38004206752261427,0.5091284550336099 l -12.66547172455306 -9.625075959935556" fill="#ff840c" stroke="none" /><path d="M 116.71984013943494 112.70617746262583 l 11.98485831922366 9.1078464505959 a36.052896594991175,36.052896594991175 0 0,0 -0.3797454736359029,0.4908722148793981 l -11.82630602836969 -9.312796659588551" fill="#ff770b" stroke="none" /><path d="M 116.498646956653 112.99209946851258 l 11.717430127049457 9.227060747826041 a35.91431590205727,35.91431590205727 0 0,0 -0.38664683458374616,0.48240137581182807 l -11.556865380410857 -9.42738995721612" fill="#ff750a" stroke="none" /><path d="M 116.27256486870786 113.27417163493432 l 12.151779462987593 9.912684789584493 a36.682061849602135,36.682061849602135 0 0,0 -0.40333499110598,0.48584297949158367 l -11.979348471988068 -10.120389026189846" fill="#ff810b" stroke="none" /><path d="M 116.0416608686014 113.55231037782055 l 11.435829252117744 9.661213307146253 a35.97054552278479,35.97054552278479 0 0,0 -0.40365373748902494,0.4695404896880037 l -11.26783300505794 -9.856630895995783" fill="#ff760a" stroke="none" /><path d="M 115.32070863581623 114.36230785411682 l 10.96015477468451 10.274532382581329 a36.02301595438652,36.02301595438652 0 0,0 -0.42797649905668933,0.4487316482334438 l -10.781671724248856 -10.46167114739728" fill="#ff770b" stroke="none" /><path d="M 115.07121518719521 114.62390073753431 l 10.89759151491295 10.574150432652774 a36.18453681210835,36.18453681210835 0 0,0 -0.4375905881646666,0.4432769555153071 l -10.713960301692747 -10.760167882148744" fill="#ff790b" stroke="none" /><path d="M 114.81725581225074 114.88116024355365 l 10.489027443423248 10.53426492478862 a35.865747011654605,35.865747011654605 0 0,0 -0.44123416421612777,0.43184049716675893 l -10.306143326831327 -10.71325552487795" fill="#ff750a" stroke="none" /><path d="M 114.55890576462653 115.13401014063108 l 10.41566778769099 10.827106409559448 a36.02372685679113,36.02372685679113 0 0,0 -0.45057819795107124,0.4260498098358397 l -10.227753755349111 -11.00479085614121" fill="#ff770b" stroke="none" /><path d="M 114.29624159901734 115.38237550388516 l 13.261861369753792 14.269409904491512 a40.48058074116294,40.48058074116294 0 0,0 -0.5144897732218752,0.4699742094033994 l -13.014272047065052 -14.495576880481496" fill="#ffb911" stroke="none" /><path d="M 114.0293411484842 115.62618273729858 l 21.054270111355756 23.450700120442587 a52.51535540115095,52.51535540115095 0 0,0 -0.6778423176814427,0.5981170339789975 l -20.647485440767724 -23.809640296193873" fill="#a4ff21" stroke="none" /><path d="M 113.48314897796784 116.09983520530334 l 9.560691323394025 11.416142846670285 a35.89077352177525,35.89077352177525 0 0,0 -0.47705652378879665,0.3925850412353959 l -9.362764671060537 -11.57902300676286" fill="#ff750a" stroke="none" /><path d="M 113.20401910651253 116.32954008644616 l 9.423157750084052 11.653711720623624 a35.986824174933446,35.986824174933446 0 0,0 -0.4850381401720479,0.38534363331442834 l -9.221162117194654 -11.81418926794318" fill="#ff770a" stroke="none" /><path d="M 112.63410532772338 116.77436683061366 l 8.944532154444603 11.87570149171057 a35.86731116853717,35.86731116853717 0 0,0 -0.49636093791671376,0.3671959555566886 l -8.738786246109326 -12.027907396007029" fill="#ff750a" stroke="none" /><path d="M 112.34349029814194 116.9893568818739 l 11.876431601119211 16.34650573549299 a41.205392283659535,41.205392283659535 0 0,0 -0.5774105187784496,0.41196707394829757 l -11.593293754491878 -16.548517071285506" fill="#ffc312" stroke="none" /><path d="M 111.7513745106137 117.40417183066458 l 9.127004280360458 13.517393276091651 a37.31018479705996,37.31018479705996 0 0,0 -0.535357270192462,0.35480560654388 l -8.89297231142803 -13.672496903726849" fill="#ff8a0c" stroke="none" /><path d="M 111.45004920935366 117.60387380957326 l 4.127938813255693 6.346497961146733 a28.570859608843797,28.570859608843797 0 0,0 -0.41457432637985825,0.2646009500009883 l -4.018082684828904 -6.41661333997153" fill="#ff0200" stroke="none" /><path d="M 111.1453310114006 117.79835938074945 l 11.996369591341095 19.15741192725252 a43.603524396042545,43.603524396042545 0 0,0 -0.6395615462019105,0.3928709382219727 l -11.664828845206877 -19.361071332302874" fill="#ffe515" stroke="none" /><line stroke="#e1ed5e" stroke-width="0.3" x1="143.8653032363475" x2="146.44561519142675" y1="172.8068346515853" y2="177.08958963109032" /><path d="M 144.38136562736335 173.6633856474863 a86.0,86.0 0 0,1 -40.68145358897372,12.25698825130547" fill="none" id="id42" stroke="none" /><text fill="#e1ed5e" style="font-size:6.75px; font-family:Arial;" text-anchor="middle"><textPath startOffset="21.466115282336833" xlink:href="#id42">June</textPath></text><path d="M 110.8373102113329 117.98757091392108 l 7.663580921663984 12.719872606290293 a35.85010544282923,35.85010544282923 0 0,0 -0.5313192686108918,0.31391278915462195 l -7.443493782024709 -12.849903967738664" fill="#ff740a" stroke="none" /><path d="M 110.5260780823613 118.17145234162733 l 7.5051560227645995 12.956353156136808 a35.973124391140814,35.973124391140814 0 0,0 -0.5384855242882002,0.30576613429974614 l -7.2810217315551995 -13.083622456231183" fill="#ff760a" stroke="none" /><path d="M 110.21172684928248 118.3499491758327 l 7.237671947320159 13.00572511827485 a35.883977326949626,35.883977326949626 0 0,0 -0.5423217058569731,0.29571703468900357 l -7.012727429594537 -13.128382804723625" fill="#ff750a" stroke="none" /><path d="M 109.57404056367764 118.69057910512821 l 6.926560425155366 13.522130462238966 a36.19293426435919,36.19293426435919 0 0,0 -0.5569335846201141,0.2792580610800866 l -6.692772932852492 -13.639356364228354" fill="#ff7a0b" stroke="none" /><path d="M 109.2508944713604 118.85261126421891 l 19.6093718640966 39.962391316194555 a65.51426944939213,65.51426944939213 0 0,0 -1.0166795466083935,0.4880679658863296 l -18.918579649487974 -40.294013558580446" fill="#33ff56" stroke="none" /><path d="M 108.92500713936063 119.00905698771935 l 6.327311648462841 13.476317254050619 a35.887780204872584,35.887780204872584 0 0,0 -0.5614421122935772,0.25773053675731655 l -6.094401540401844 -13.583234861142008" fill="#ff750a" stroke="none" /><path d="M 108.59647513512805 119.15986991738527 l 6.0919663508209805 13.577807297534822 a35.881831373474334,35.881831373474334 0 0,0 -0.5657015487225775,0.24798693452391682 l -5.8573441274406495 -13.680658785353193" fill="#ff750a" stroke="none" /><path d="M 108.2653958097858 119.30500536409082 l 5.911958580066887 13.808218593155518 a36.020591032605616,36.020591032605616 0 0,0 -0.5720902454830377,0.23913376900980246 l -5.673396875086389 -13.907937405185294" fill="#ff770b" stroke="none" /><path d="M 107.93186726928326 119.44442032107085 l 5.609003109875358 13.750080573456847 a35.850105442829246,35.850105442829246 0 0,0 -0.5733949923772914,0.22816570099091874 l -5.3714870414562 -13.844593118853833" fill="#ff740a" stroke="none" /><path d="M 107.59598834532513 119.57807347666477 l 2.7065923082686347 6.976032699585579 a28.482691637964656,28.482691637964656 0 0,0 -0.458611725509436,0.1734077127422387 l -2.586110361998924 -7.021588662434448" fill="#ff0100" stroke="none" /><path d="M 107.2578585660854 119.70592522655815 l 5.150521806821902 13.984262255709995 a35.90259929405012,35.90259929405012 0 0,0 -0.5817596315387594,0.20859830585352604 l -4.9090426146534085 -14.07084810260348" fill="#ff750a" stroke="none" /><path d="M 106.91757812671514 119.82793768551818 l 4.975320835070208 14.260822165817332 a36.10380303953116,36.10380303953116 0 0,0 -0.5885440255478314,0.19966608793474358 l -4.72910707658515 -14.344351240650198" fill="#ff780b" stroke="none" /><path d="M 106.2309692047433 120.05430185196036 l 4.409929495637713 14.193306746574642 a35.86261869788957,35.86261869788957 0 0,0 -0.5910928482593688,0.17809142637197709 l -4.164961672938099 -14.267113542052344" fill="#ff750a" stroke="none" /><path d="M 105.88484417918355 120.15858648285463 l 4.297160016074595 14.719960151387188 a36.33436699254902,36.33436699254902 0 0,0 -0.601885419207457,0.17009883153897998 l -4.043143428762532 -14.791747776264685" fill="#ff7c0b" stroke="none" /><path d="M 105.53697534728816 120.25689768951611 l 3.9269713929599983 14.366735039881943 a35.89376312512381,35.89376312512381 0 0,0 -0.5973911074138584,0.15777642107128342 l -3.679089842734643 -14.432202810256811" fill="#ff750a" stroke="none" /><path d="M 105.18746579009965 120.34920634021253 l 3.701314046186166 14.519383125285591 a35.9837315781925,35.9837315781925 0 0,0 -0.6015224177717363,0.14783957532057876 l -3.4508383436712187 -14.5809439589202" fill="#ff760a" stroke="none" /><path d="M 104.83641907484287 120.43548508189849 l 5.135650208618002 21.69983651126673 a43.299278187443264,43.299278187443264 0 0,0 -0.726767766995567,0.16540997761548662 l -4.761362292229573 -21.785023222459905" fill="#ffe115" stroke="none" /><path d="M 104.13013068566511 120.58985236759428 l 6.167295206511554 30.745685178965612 a52.35813590263819,52.35813590263819 0 0,0 -0.8851825660044059,0.1696473455270076 l -5.637145025935444 -30.84728972284109" fill="#a6ff21" stroke="none" /><path d="M 103.7750983002368 120.6578951692458 l 2.6914975873638434 14.728272110040809 a35.972179487642784,35.972179487642784 0 0,0 -0.6100727963293335,0.10606897559868309 l -2.43757581956246 -14.772419664160498" fill="#ff760a" stroke="none" /><path d="M 103.41894727170886 120.7198165907248 l 2.4554568066892855 14.88078365584726 a36.08200882978284,36.08200882978284 0 0,0 -0.6136761677599643,0.09584359651628392 l -2.198944775320804 -14.92084555971065" fill="#ff780b" stroke="none" /><path d="M 103.06178313531738 120.77559828337769 l 2.2269200411776855 15.11067052758938 a36.27388413806904,36.27388413806904 0 0,0 -0.6185067045925746,0.08571939341060322 l -1.9664847453982803 -15.146764486492586" fill="#ff7b0b" stroke="none" /><path d="M 102.70371172650421 120.8252237178851 l 1.9574339851774976 15.077051393721991 a36.20358597618542,36.20358597618542 0 0,0 -0.618689247335932,0.07491465175435418 l -1.6976173147901854 -15.108511574201696" fill="#ff7a0b" stroke="none" /><path d="M 102.34483914955558 120.86867818915974 l 7.03179670572328 62.5818204080842 a83.97563346644736,83.97563346644736 0 0,0 -1.4378524035204825,0.14903928064867825 l -5.953511705597195 -62.69358905718864" fill="#4dd2ff" stroke="none" /><path d="M 101.62511606390274 120.93702456842531 l 0.5839191219794784 7.52286515062681 a28.54549280137014,28.54549280137014 0 0,0 -0.4902175102900498,0.03380826964612096 l -0.45433885091049825 -7.531801764789217" fill="#ff0200" stroke="none" /><path d="M 101.26447882468166 120.96189622390904 l 0.8953813457044214 14.843183201747356 a35.870164602816956,35.870164602816956 0 0,0 -0.6166455909328277,0.03187353347429476 l -0.6397476863581142 -14.856396541983854" fill="#ff750a" stroke="none" /><path d="M 100.90346689309514 120.98055641714683 l 0.6446377846892538 14.969955748974149 a35.98382905000231,35.98382905000231 0 0,0 -0.6190583383135365,0.021321620870007666 l -0.386859094701065 -14.97883416827025" fill="#ff760a" stroke="none" /><line stroke="#e1ed5e" stroke-width="0.3" x1="102.19456741930631" x2="102.32365962044197" y1="184.97166512339345" y2="189.96999836594603" /><path d="M 102.22038585953345 185.97133177190398 a86.0,86.0 0 0,1 -42.740103519485714,-10.115201625700543" fill="none" id="id43" stroke="none" /><text fill="#e1ed5e" style="font-size:6.75px; font-family:Arial;" text-anchor="middle"><textPath startOffset="22.20632615414155" xlink:href="#id43">July</textPath></text><path d="M 100.54218724476979 120.99299961872073 l 0.4096336443550567 15.860644127495283 a36.86593305991293,36.86593305991293 0 0,0 -0.6345159179795751,0.010923766956680346 l -0.13655803648281375 -15.865345371731122" fill="#ff840c" stroke="none" /><path d="M 100.18074693466247 120.99922214144158 l 0.12906015959654923 14.994240240029278 a35.99479566051196,35.99479566051196 0 0,0 -0.6196141885179991,0.0 l 0.1290601595965389 -14.994240240029278" fill="#ff770a" stroke="none" /><path d="M 99.81925306533755 120.99922214144158 l -0.269132704187941 31.26790200522069 a52.26906023884548,52.26906023884548 0 0,0 -0.8996259686546253,-0.015487876901580402 l 0.8073183627352342 -31.25863665103995" fill="#a7ff21" stroke="none" /><path d="M 99.45781275523022 120.99299961872073 l -0.1993162022147433 7.717343035016724 a28.719916480674286,28.719916480674286 0 0,0 -0.4940914917176966,-0.01701750999784673 l 0.332128045607083 -7.712768726592784" fill="#ff0500" stroke="none" /><path d="M 99.09653310690486 120.98055641714683 l -0.7084458875592164 16.45172504496701 a37.466971565251285,37.466971565251285 0 0,0 -0.644096370260393,-0.033292425211555995 l 0.9915303262330984 -16.437092812993253" fill="#ff8d0d" stroke="none" /><path d="M 98.73552117531835 120.96189622390904 l -0.8959629951723729 14.85282549511607 a35.87982442359748,35.87982442359748 0 0,0 -0.6161714678029959,-0.04249479199428066 l 1.1514972237542989 -14.835202358605505" fill="#ff750a" stroke="none" /><path d="M 98.37488393609728 120.93702456842531 l -0.6955222377475232 8.9606930256015 a29.98764544707148,29.98764544707148 0 0,0 -0.5142962335864181,-0.04437564307952767 l 0.849662789075483 -8.94739313024331" fill="#ff1902" stroke="none" /><path d="M 98.01472825383883 120.90594882070398 l -0.8561690826221786 9.015907800923891 a30.0564683499032,30.0564683499032 0 0,0 -0.5146345847514695,-0.053343978923349106 l 1.0112362639792416 -8.99983445354478" fill="#ff1a02" stroke="none" /><path d="M 97.65516085044442 120.86867818915974 l -0.861559324733957 7.66773460437591 a28.715985901566942,28.715985901566942 0 0,0 -0.4907323742912048,-0.059420856403949306 l 0.9934191220765511 -7.651768219246612" fill="#ff0400" stroke="none" /><path d="M 97.2962882734958 120.8252237178851 l -0.9650450787022417 7.433218365999136 a28.4956018624627,28.4956018624627 0 0,0 -0.4858790620891038,-0.06733841066544992 l 1.0928527319781765 -7.415505389841081" fill="#ff0100" stroke="none" /><path d="M 96.93821686468263 120.77559828337769 l -1.4408376998968868 9.776742480326208 a30.882343183884032,30.882343183884032 0 0,0 -0.5252412110960637,-0.08203187504212486 l 1.6089147746014676 -9.750492297936978" fill="#ff2703" stroke="none" /><path d="M 96.58105272829116 120.7198165907248 l -2.4722208935933914 14.982378906770993 a36.18497790096436,36.18497790096436 0 0,0 -0.6136817665090286,-0.1066964413244615 l 2.72975163157447 -14.937603886925526" fill="#ff790b" stroke="none" /><path d="M 96.22490169976321 120.6578951692458 l -2.8053642108592776 15.351367082507442 a36.605593217095695,36.605593217095695 0 0,0 -0.6188652895182697,-0.11860700564797633 l 3.069197114949242 -15.300802878510998" fill="#ff800b" stroke="none" /><path d="M 95.51606077576429 120.51570834832081 l -4.161059429553393 19.0384118534297 a40.48783059955848,40.48783059955848 0 0,0 -0.6795783086256885,-0.15466981052618414 l 4.488157887571944 -18.96396530932583" fill="#ffb911" stroke="none" /><path d="M 95.16358092515715 120.4354850818985 l -3.4247049070836306 14.470521465488629 a35.87025874636248,35.87025874636248 0 0,0 -0.5996255480153176,-0.1473733708850627 l 3.673283739842159 -14.409426836289537" fill="#ff750a" stroke="none" /><path d="M 94.11515582081647 120.15858648285463 l -8.778808559034697 30.07188740522914 a52.327079209989556,52.327079209989556 0 0,0 -0.862462458524996,-0.2598528638661534 l 9.29514599199994 -29.91631917225726" fill="#a7ff21" stroke="none" /><path d="M 93.42475214034765 119.94407469862007 l -4.676030814142309 14.183360055910386 a35.934288287374216,35.934288287374216 0 0,0 -0.5857806907679778,-0.19872861474463824 l 4.919481237847513 -14.100768454267625" fill="#ff760a" stroke="none" /><path d="M 93.08242187328487 119.8279376855182 l -6.0082899570279205 17.221634028880175 a39.239633407292104,39.239633407292104 0 0,0 -0.6358323665029435,-0.22798686479592042 l 6.30384188416059 -17.115659623044294" fill="#ffa70f" stroke="none" /><path d="M 92.7421414339146 119.70592522655815 l -5.735844080455218 15.573479908910743 a37.59617979501728,37.59617979501728 0 0,0 -0.6053518083021858,-0.22889225600469518 l 6.003066109517686 -15.472439402799415" fill="#ff8f0d" stroke="none" /><path d="M 92.40401165467489 119.57807347666478 l -5.493129101063613 14.158116135554176 a36.18639917257516,36.18639917257516 0 0,0 -0.5787737531430638,-0.2303060209045891 l 5.736023930248535 -14.06146327024352" fill="#ff7a0b" stroke="none" /><path d="M 92.06813273071674 119.44442032107085 l -6.7386022194268085 16.519214137439263 a38.840773402244565,38.840773402244565 0 0,0 -0.616881260230496,-0.2578564168068998 l 7.021954939154766 -16.40077267761239" fill="#ffa10e" stroke="none" /><path d="M 91.7346041902142 119.30500536409082 l -5.8891829693104025 13.755022920746976 a35.96272473837203,35.96272473837203 0 0,0 -0.566976887802357,-0.24854600569772758 l 6.125080531770503 -13.651612361754797" fill="#ff760a" stroke="none" /><path d="M 91.40352486487194 119.15986991738527 l -7.328838779703671 16.3345552051689 a38.903339677546164,38.903339677546164 0 0,0 -0.6086186740764341,-0.2793869824075897 l 7.608925449547524 -16.205981152427235" fill="#ffa20f" stroke="none" /><path d="M 91.07499286063937 119.00905698771935 l -6.447124215051726 13.731501801308712 a36.16969190074903,36.16969190074903 0 0,0 -0.5612973520375407,-0.26945683896193334 l 6.682534235089509 -13.618490685847215" fill="#ff790b" stroke="none" /><path d="M 90.7491055286396 118.85261126421891 l -9.834343130871737 20.04163474778044 a43.32445807134329,43.32445807134329 0 0,0 -0.6666728251198414,-0.33428359441591265 l 10.177869863674339 -19.869383312455223" fill="#ffe115" stroke="none" /><path d="M 90.42595943632237 118.69057910512821 l -8.875468053933302 17.326815846846287 a40.46772920930724,40.46772920930724 0 0,0 -0.617246753325494,-0.3229143284567367 l 9.172405709785291 -17.171472099444834" fill="#ffb811" stroke="none" /><path d="M 90.10565033884886 118.52300852407294 l -14.73070881006712 27.57705702739078 a52.26480219574326,52.26480219574326 0 0,0 -0.7898883790060331,-0.4307101239952423 l 15.203220000941796 -27.319406251635773" fill="#a7ff21" stroke="none" /><line stroke="#e1ed5e" stroke-width="0.3" x1="58.666819895761336" x2="56.23545636021788" y1="174.27360380694188" y2="178.64263932499728" /><path d="M 58.180547188652646 175.14741091055294 a86.0,86.0 0 0,1 -31.652253787137756,-30.449443065178592" fill="none" id="id44" stroke="none" /><text fill="#e1ed5e" style="font-size:6.75px; font-family:Arial;" text-anchor="middle"><textPath startOffset="22.20632615414155" xlink:href="#id44">August</textPath></text><path d="M 89.4739219176387 118.17145234162733 l -7.490081177811469 12.930329044926559 a35.94304939630051,35.94304939630051 0 0,0 -0.5326967516829825,-0.31472663043371535 l 7.711545800522834 -12.799483842199093" fill="#ff760a" stroke="none" /><path d="M 89.1626897886671 117.98757091392108 l -7.69921525504822 12.779017826480542 a35.9191558793745,35.9191558793745 0 0,0 -0.5268498634152882,-0.32363421686509164 l 7.9180443183958165 -12.644595142787074" fill="#ff750a" stroke="none" /><path d="M 88.8546689885994 117.79835938074946 l -7.8979342450597 12.612480680502973 a35.88126453818181,35.88126453818181 0 0,0 -0.5206511557310662,-0.3323042013444033 l 8.113867202837689 -12.474662050334766" fill="#ff750a" stroke="none" /><path d="M 88.54995079064634 117.60387380957326 l -8.135688180626703 12.508210704351509 a35.92128537348049,35.92128537348049 0 0,0 -0.5154281969910387,-0.3415977035251206 l 8.349791076357704 -12.36631497973507" fill="#ff760a" stroke="none" /><path d="M 88.24862548938628 117.40417183066458 l -8.643020871857987 12.800597943157621 a36.445294347915286,36.445294347915286 0 0,0 -0.5169038099723265,-0.35553115387954604 l 8.862081566453202 -12.649925999912975" fill="#ff7d0b" stroke="none" /><path d="M 87.95078237400918 117.19931262002967 l -11.261078029121915 16.074305193362193 a40.62638952602651,40.62638952602651 0 0,0 -0.5692969621750387,-0.4061782667400559 l 11.53610231914584 -15.878082664777917" fill="#ffbb11" stroke="none" /><path d="M 87.65650970185807 116.9893568818739 l -17.5479567153693 24.15269036424503 a50.85436712971101,50.85436712971101 0 0,0 -0.703763971797436,-0.5206277617153949 l 17.9611056575853 -23.84705265378987" fill="#b9ff1f" stroke="none" /><path d="M 87.36589467227662 116.77436683061367 l -9.023125239121077 11.980049935744818 a35.997946044168955,35.997946044168955 0 0,0 -0.4917512644435051,-0.37705390022563534 l 9.22800523205807 -11.822956693691815" fill="#ff770a" stroke="none" /><path d="M 87.07902340077011 116.55440617244103 l -9.33555003821395 11.960743523438648 a36.172734761719,36.172734761719 0 0,0 -0.48754388296318685,-0.3873343469332526 l 9.540051413894496 -11.798275262500265" fill="#ff790b" stroke="none" /><path d="M 86.51685102203217 116.09983520530335 l -20.108999842215944 24.011570600619674 a52.31976049338155,52.31976049338155 0 0,0 -0.6854748747118607,-0.5841765592892748 l 20.519340193504863 -23.661869651107445" fill="#a7ff21" stroke="none" /><path d="M 85.97065885151581 115.62618273729859 l -18.1507033721044 20.216644866009943 a48.16911412873979,48.16911412873979 0 0,0 -0.6122075363211024,-0.5592370691287393 l 18.496010457892357 -19.90121503029463" fill="#dcff1b" stroke="none" /><path d="M 85.70375840098266 115.38237550388516 l -10.150150749559186 10.921292087109999 a35.90973444065146,35.90973444065146 0 0,0 -0.44915240162386,-0.42470163041474096 l 10.336638985573863 -10.744955819949327" fill="#ff750a" stroke="none" /><path d="M 85.18274418774928 114.88116024355367 l -10.581055612349619 10.626689996344856 a35.99617545076248,35.99617545076248 0 0,0 -0.4353126770412856,-0.4409694435737372 l 10.762408914446437 -10.442980058790456" fill="#ff770a" stroke="none" /><path d="M 84.9287848128048 114.62390073753433 l -10.665775831434114 10.349215050701739 a35.86152839556132,35.86152839556132 0 0,0 -0.4260579234395255,-0.4467200293692111 l 10.842340306252597 -10.164087904750028" fill="#ff750a" stroke="none" /><path d="M 84.67929136418377 114.36230785411682 l -11.08435963977831 10.39096750003314 a36.193262790154435,36.193262790154435 0 0,0 -0.422174748895374,-0.45818730940036945 l 11.261580796669413 -10.198628935831428" fill="#ff7a0b" stroke="none" /><path d="M 84.43433777217949 114.09645910891817 l -11.107720896576481 10.059291478907442 a35.985686790196226,35.985686790196226 0 0,0 -0.4118495885404932,-0.4627173787127597 l 11.279229334765313 -9.866599930453818" fill="#ff760a" stroke="none" /><path d="M 84.19399662182784 113.82643327865904 l -23.57775714425887 20.624839702724422 a52.32562281450647,52.32562281450647 0 0,0 -0.5871869027434571,-0.6830310244805773 l 23.92928655657311 -20.215931579082316" fill="#a7ff21" stroke="none" /><path d="M 83.95833913139862 113.55231037782056 l -11.344255915714461 9.583850352809105 a35.85066765725574,35.85066765725574 0 0,0 -0.394193455645132,-0.47483141113435495 l 11.50754537125313 -9.387157684560988" fill="#ff740a" stroke="none" /><path d="M 83.72743513129214 113.27417163493432 l -11.555451614617418 9.426236692814037 a35.912491415143144,35.912491415143144 0 0,0 -0.38662719249749733,-0.4823768692891228 l 11.715996719169777 -9.225931989946654" fill="#ff750a" stroke="none" /><path d="M 83.50135304334701 112.99209946851258 l -17.51634490475436 13.7935005170575 a43.29535815671907,43.29535815671907 0 0,0 -0.4560303843032549,-0.5894807452263935 l 17.75118210627568 -13.489941777717855" fill="#ffe015" stroke="none" /><path d="M 83.28015986056508 112.70617746262583 l -15.38137203665291 11.689013835450922 a40.31889360639711,40.31889360639711 0 0,0 -0.4151669753191879,-0.556184009057512 l 15.580300278667183 -11.422516946884102" fill="#ffb610" stroke="none" /><path d="M 83.06392112726016 112.41649034213515 l -12.050711068549656 8.834839440866508 a35.9423567486376,35.9423567486376 0 0,0 -0.3615120026170105,-0.5021085529017507 l 12.201002863542275 -8.62609728251362" fill="#ff760a" stroke="none" /><path d="M 82.85270091963577 112.12312394758628 l -13.841900950233883 9.786210650635791 a37.951936196632616,37.951936196632616 0 0,0 -0.372541795191163,-0.5366742414529072 l 14.00830365258718 -9.546495146995872" fill="#ff940d" stroke="none" /><path d="M 82.6465618267979 111.8261652097733 l -26.054365534417098 17.75574547075384 a52.52929527634922,52.52929527634922 0 0,0 -0.502772629786142,-0.7515768644440707 l 26.35614126961397 -17.304631692103946" fill="#a4ff21" stroke="none" /><path d="M 82.24976979558568 111.22182372390057 l -12.560765695225623 7.941006783899914 a35.860431473961356,35.860431473961356 0 0,0 -0.32536572535970487,-0.5245931479821655 l 12.695596060253283 -7.723617304552484" fill="#ff750a" stroke="none" /><path d="M 82.05923443525364 110.91462005526583 l -19.252980561443675 11.712932037443247 a43.535972076063025,43.535972076063025 0 0,0 -0.38398545826450586,-0.6435817148536067 l 19.451746895406412 -11.37978822870353" fill="#ffe415" stroke="none" /><line stroke="#e1ed5e" stroke-width="0.3" x1="26.63291911575756" x2="22.317208475507996" y1="142.92168965132927" y2="145.44649492493687" /><path d="M 25.769776987707644 143.4266507060508 a86.0,86.0 0 0,1 -11.730757126820373,-40.83630448921669" fill="none" id="id45" stroke="none" /><text fill="#e1ed5e" style="font-size:6.75px; font-family:Arial;" text-anchor="middle"><textPath startOffset="21.46611528233685" xlink:href="#id45">September</textPath></text><path d="M 81.87401531095188 110.60418214915194 l -16.82082566687687 9.840629479206488 a40.487897902608466,40.487897902608466 0 0,0 -0.3467460770366898,-0.6045810126272901 l 16.987723740065938 -9.54962862072089" fill="#ffb911" stroke="none" /><path d="M 81.69416730710424 110.29060199501025 l -6.485694609205066 3.645925482013959 a28.440228973914067,28.440228973914067 0 0,0 -0.2362212787452906,-0.4288102360313161 l 6.547492297401872 -3.5337447275848204" fill="#ff0000" stroke="none" /><path d="M 81.51974371655577 109.97397251340807 l -19.822724768003518 10.698515699376015 a43.525511212796374,43.525511212796374 0 0,0 -0.3501679022681688,-0.6623857068719131 l 20.003945178496572 -10.355714977417975" fill="#ffe415" stroke="none" /><path d="M 81.35079622478065 109.6543875284942 l -55.6801227680842 28.824688137705497 a83.69879359050626,83.69879359050626 0 0,0 -0.651341342183106,-1.285158260896431 l 56.168042780053575 -27.86197566510638" fill="#4dd5ff" stroke="none" /><path d="M 81.18737489456691 109.33194174019688 l -9.324730122431252 4.625502169841073 a31.408931846226164,31.408931846226164 0 0,0 -0.23608560024462108,-0.48640626274887744 l 9.402968979290591 -4.46430695112691" fill="#ff3004" stroke="none" /><path d="M 81.02952815118164 109.00673069616217 l -13.545493608499543 6.431079524568622 a35.99463840675152,35.99463840675152 0 0,0 -0.2609189344371257,-0.5619961723394588 l 13.654187159776495 -6.196963284950336" fill="#ff770a" stroke="none" /><path d="M 80.87730276802145 108.67885076344099 l -13.817885000474131 6.271257675144231 a36.174406700572625,36.174406700572625 0 0,0 -0.25246103840597356,-0.5692329938378092 l 13.923787123611385 -6.032476344813726" fill="#ff790b" stroke="none" /><path d="M 80.73074385275274 108.34839909993369 l -20.666208716570438 8.953628356489798 a43.52242534593,43.52242534593 0 0,0 -0.29190909076692034,-0.6899868620215684 l 20.817268788529667 -8.596566968802069" fill="#ffe415" stroke="none" /><path d="M 80.58989483394504 108.01547362559985 l -20.81814986380684 8.596930812046914 a43.523378590678675,43.523378590678675 0 0,0 -0.2799949841088889,-0.6949245883367366 l 20.96304746217312 -8.237306855867372" fill="#ffe415" stroke="none" /><path d="M 80.45479744820244 107.68017299344265 l -14.328159116155994 5.630166297740917 a36.394639203245454,36.394639203245454 0 0,0 -0.22409690671952237,-0.5850463089821772 l 14.422950302469026 -5.382696421925582" fill="#ff7d0b" stroke="none" /><path d="M 80.32549172779594 107.34259656027581 l -29.547465359596483 11.027219308995578 a52.53810829560389,52.53810829560389 0 0,0 -0.30891341653272575,-0.8499970492648864 l 29.732903037134434 -10.516974462724574" fill="#a4ff21" stroke="none" /><path d="M 80.20201598880116 107.00284435728193 l -14.426269396416126 5.102788202181412 a36.30214678188307,36.30214678188307 0 0,0 -0.2033078722854391,-0.5909078431669843 l 14.511968099644793 -4.853707655925131" fill="#ff7b0b" stroke="none" /><path d="M 79.97269907076064 106.31721596034903 l -14.174197012341581 4.470970097661411 a35.86261869788953,35.86261869788953 0 0,0 -0.18063356790751295,-0.5903209513100481 l 14.249057352755225 -4.226322173799315" fill="#ff750a" stroke="none" /><path d="M 79.86692584326677 105.97154293290107 l -21.60072436342613 6.406853315782509 a43.530846908952725,43.530846908952725 0 0,0 -0.20689043067129803,-0.7202127306414042 l 21.707807430983532 -6.0340831096365095" fill="#ffe415" stroke="none" /><path d="M 79.76711848015287 105.62410040840567 l -21.705330490715347 6.0333945986718085 a43.528276056868165,43.528276056868165 0 0,0 -0.19445101478195542,-0.7236245635567037 l 21.805969581839076 -5.658879101939566" fill="#ffe415" stroke="none" /><path d="M 79.67330655649465 105.27499134158121 l -21.810762695395 5.660122965462031 a43.53322793873494,43.53322793873494 0 0,0 -0.18198689834453233,-0.726947195203905 l 21.90496090803459 -5.283847930860733" fill="#ffe415" stroke="none" /><path d="M 79.50377843672027 104.57218783832718 l -12.319975334749664 2.7482744182933003 a33.62278909461318,33.62278909461318 0 0,0 -0.12114765036234747,-0.5659614903633654 l 12.365457023836452 -2.535799108513771" fill="#ff5207" stroke="none" /><path d="M 79.4281124754447 104.21870165774334 l -23.425315401369634 4.803857536113717 a44.91280930549403,44.91280930549403 0 0,0 -0.14878986445877768,-0.7586763133304109 l 23.504535198804078 -4.399917495715351" fill="#fff717" stroke="none" /><path d="M 79.35854240842038 103.8639653848113 l -22.152797170034876 4.146879698877402 a43.53759156817043,43.53759156817043 0 0,0 -0.13155309890398825,-0.7378196417784568 l 22.220896711278055 -3.764941306365732" fill="#ffe415" stroke="none" /><path d="M 79.23777060512086 103.15116336523772 l -22.27295540566293 3.380452059122771 a43.528026958139876,43.528026958139876 0 0,0 -0.10605489555658514,-0.7417476925109306 l 22.327844352236113 -2.99655889463144" fill="#ffe415" stroke="none" /><path d="M 79.18660465613746 102.79330883721812 l -22.33595060331525 2.9976468124075626 a43.53620588665439,43.53620588665439 0 0,0 -0.09328874085799686,-0.7436030522490923 l 22.384240853420096 -2.6127260058710617" fill="#ffe415" stroke="none" /><path d="M 79.1416061653843 102.43462659150553 l -34.819554859022126 4.064196641233033 a56.05594236244493,56.05594236244493 0 0,0 -0.1036172699857048,-0.9593672316798746 l 34.88435443050888 -3.4642330876683767" fill="#79ff26" stroke="none" /><path d="M 79.07016306316243 101.71520430193888 l -15.004046800603888 1.2295846210628223 a36.05434484576018,36.05434484576018 0 0,0 -0.04536570790132226,-0.6189790410907667 l 15.022989067169545 -0.9711324434752949" fill="#ff780b" stroke="none" /><path d="M 79.04373962182676 101.35467743843564 l -22.489188886855132 1.453770674918284 a43.53612801622987,43.53612801622987 0 0,0 -0.0419059054969321,-0.7482580934427865 l 22.510881143239594 -1.0664408651400599" fill="#ffe415" stroke="none" /><path d="M 79.0235259727143 100.99374915477108 l -54.85263583526756 2.5986140677102316 a75.91415530761974,75.91415530761974 0 0,0 -0.050601726700446,-1.3058057224202575 l 54.88923969481921 -1.6540310982759772" fill="#42ffd5" stroke="none" /><path d="M 79.0095281055655 100.63252640178507 l -19.4569346170748 0.5863148244117815 a40.465766611321754,40.465766611321754 0 0,0 -0.014987628385998994,-0.6964161983424499 l 19.46414430814581 -0.2513088102792027" fill="#ffb811" stroke="none" /><line stroke="#e1ed5e" stroke-width="0.3" x1="15.007084014347285" x2="10.007500721073583" y1="101.09737516637583" y2="101.16192664675087" /><path d="M 14.007167355692545 101.11028546245083 a86.0,86.0 0 0,1 10.666146001902534,-42.60595125391555" fill="none" id="id46" stroke="none" /><text fill="#e1ed5e" style="font-size:6.75px; font-family:Arial;" text-anchor="middle"><textPath startOffset="22.20632615414155" xlink:href="#id46">October</textPath></text><path d="M 79.00175016825051 100.2711162175752 l -14.96102416379548 0.19316735036681484 a35.96227113960043,35.96227113960043 0 0,0 -0.002664123937500188,-0.6190485790111936 l 14.962132585022484 0.06439070684805413" fill="#ff760a" stroke="none" /><path d="M 79.00019446554 99.90962569577889 l -15.110272511606865 -0.06502823859902497 a36.11041243801232,36.11041243801232 0 0,0 0.008025097039264729,-0.621552609658267 l 15.106914407449885 0.32511710631776397" fill="#ff780b" stroke="none" /><path d="M 79.00486145842228 99.54816195383935 l -15.255021411444494 -0.32830452892872247 a36.258553736424204,36.258553736424204 0 0,0 0.018799724365647575,-0.6238713274364321 l 15.247109992623201 0.5908460037901491" fill="#ff7b0b" stroke="none" /><path d="M 79.01574976396665 99.18683210126434 l -15.395140186726339 -0.5965823727589855 a36.40669503483609,36.40669503483609 0 0,0 0.029656532770925715,-0.6260025343639312 l 15.382590045721916 0.8614960137459257" fill="#ff7d0b" stroke="none" /><path d="M 79.03285615573316 98.82574320788736 l -46.93169059141887 -2.6283912034767516 a68.00523398609126,68.00523398609126 0 0,0 0.07551627929344014,-1.1682034163731163 l 46.879493721121015 3.43585368410288" fill="#37ff76" stroke="none" /><path d="M 79.05617556472873 98.46500227214037 l -15.660971744213139 -1.1478111897727872 a36.70297763165986,36.70297763165986 0 0,0 0.051603540949343336,-0.6296939065581554 l 15.6388937194443 1.4172190135387208" fill="#ff810b" stroke="none" /><path d="M 79.08570108090925 98.10471618934814 l -15.786430452646599 -1.4305890042324818 a36.85111893007174,36.85111893007174 0 0,0 0.06268704238134269,-0.631249961907999 l 15.759466284583027 1.7021144968449111" fill="#ff830c" stroke="none" /><path d="M 79.16333360222342 97.38593545837743 l -62.18756884233053 -7.801743116537819 a83.67504219524741,83.67504219524741 0 0,0 0.19159194322628895,-1.427582516453468 l 62.044060900046404 8.871043975055946" fill="#4dd5ff" stroke="none" /><path d="M 79.26566170972629 96.67025291283419 l -22.24682421445331 -3.572638638847435 a43.53186486894886,43.53186486894886 0 0,0 0.1251813468566201,-0.7388273952575386 l 22.182031006076464 3.9550518224208013" fill="#ffe415" stroke="none" /><path d="M 79.3925641242962 95.95851677861259 l -14.731298670724607 -2.8890686238734604 a36.01192452817235,36.01192452817235 0 0,0 0.12453387212818824,-0.6072713878015288 l 14.679385502681425 3.142215667838392" fill="#ff770a" stroke="none" /><path d="M 79.46518482838121 95.60439243477599 l -22.02712928038471 -4.7150468750673245 a43.526120202308775,43.526120202308775 0 0,0 0.16313095104503372,-0.731284066769861 l 21.942703942337637 5.093509111387145" fill="#ffe415" stroke="none" /><path d="M 79.54389044137918 95.25157060432595 l -32.323887246197444 -7.503269179432654 a54.18332013352355,54.18332013352355 0 0,0 0.2187127771566956,-0.9067056615546153 l 32.18994166877993 8.058560072646666" fill="#90ff24" stroke="none" /><path d="M 79.62865764111835 94.90015583598534 l -30.494394091882477 -7.634089840763313 a52.43544812354172,52.43544812354172 0 0,0 0.2267300490305618,-0.8736833679225889 l 30.358467710981607 8.157869634234766" fill="#a5ff21" stroke="none" /><path d="M 79.71946130924805 94.55025226153421 l -30.25662997682286 -8.130503992232603 a52.32999764957039,52.32999764957039 0 0,0 0.2412493366052219,-0.867902222545651 l 30.11219386965128 8.650117518197197" fill="#a7ff21" stroke="none" /><path d="M 79.81627453868168 94.20196356495316 l -25.712130103671818 -7.386142238679497 a47.751985564405345,47.751985564405345 0 0,0 0.23374392939179844,-0.788068329577446 l 25.581180277168315 7.827639955003482" fill="#e1ff1b" stroke="none" /><path d="M 80.02781315780177 93.51064311812611 l -14.25584957536553 -4.6320063135697715 a35.98948730292,35.98948730292 0 0,0 0.196507238567583,-0.5875316314036451 l 14.174005043026176 4.876711047895739" fill="#ff770a" stroke="none" /><path d="M 80.14247586403 93.16781622104843 l -33.897930506589475 -11.662928840541236 a56.8482022111165,56.8482022111165 0 0,0 0.3263274113357651,-0.9225715355680228 l 33.692150014443904 12.24469800253587" fill="#70ff27" stroke="none" /><path d="M 80.2630227832202 92.82701384747504 l -59.210931650339425 -21.518958457574875 a84.0,84.0 0 0,0 0.5055816459934896,-1.3547074518826343 l 58.83174541584431 22.534989046486853" fill="#4dd2ff" stroke="none" /><path d="M 81.6062741919709 89.86733742301443 l -13.390231241063718 -7.376357373680312 a36.28754201280921,36.28754201280921 0 0,0 0.30609813256424007,-0.5445144224843086 l 13.261275467207048 7.605755306099406" fill="#ff7b0b" stroke="none" /><line stroke="#e1ed5e" stroke-width="0.3" x1="26.266209847984243" x2="21.928928074336255" y1="57.711370442889674" y2="55.22380399835377" /><path d="M 25.398753493254645 57.213857153982495 a86.0,86.0 0 0,1 29.58750427330803,-30.492523968695096" fill="none" id="id47" stroke="none" /><text fill="#e1ed5e" style="font-size:6.75px; font-family:Arial;" text-anchor="middle"><textPath startOffset="21.46611528233685" xlink:href="#id47">November</textPath></text><path d="M 81.78341655067845 89.55222093294921 l -14.264178288286482 -8.180951370142367 a37.44368412371929,37.44368412371929 0 0,0 0.32547534709400205,-0.5563428725675307 l 14.121243266722155 8.425273655063789" fill="#ff8c0c" stroke="none" /><path d="M 81.96595687620814 89.24020034530311 l -12.870854060171872 -7.679243646123253 a35.98765049014578,35.98765049014578 0 0,0 0.3219767135188416,-0.52924505894844 l 12.736761548366813 7.899656478278768" fill="#ff770a" stroke="none" /><path d="M 82.15384107792192 88.93136811851018 l -12.956010613848886 -8.035640204904638 a36.2456460843365,36.2456460843365 0 0,0 0.33341231332044724,-0.5273782105327167 l 12.815770704282475 8.25746606315157" fill="#ff7a0b" stroke="none" /><path d="M 82.34701348167596 88.62581576622439 l -12.650478010705406 -8.150964562836535 a36.04901382828649,36.04901382828649 0 0,0 0.3405831255029,-0.5187314662060698 l 12.508298249844586 8.367514093020272" fill="#ff770b" stroke="none" /><path d="M 82.54541684631803 88.32363383020206 l -12.47377065961805 -8.344416618683812 a36.00747291101719,36.00747291101719 0 0,0 0.34905907322755625,-0.5122011183340958 l 12.328287120721754 8.557895760288325" fill="#ff770a" stroke="none" /><path d="M 82.7489923806493 88.02491185347247 l -25.872142799851826 -17.95959965957247 a52.494681979471395,52.494681979471395 0 0,0 0.5216656026916404,-0.7378589997071662 l 25.55916457735631 18.40228515961142" fill="#a4ff21" stroke="none" /><path d="M 83.17141714833178 87.43820079747576 l -18.046939130374682 -13.471248742342622 a43.52035867062327,43.52035867062327 0 0,0 0.4532833110162679,-0.5964677040249307 l 17.81237987913431 13.77990122224858" fill="#ffe415" stroke="none" /><path d="M 83.39014120810768 87.1503855733568 l -14.349643729355343 -11.10108107432669 a39.14238893250283,39.14238893250283 0 0,0 0.4168588362170461,-0.5293683893180405 l 14.156430812544325 11.346441857597776" fill="#ffa50f" stroke="none" /><path d="M 83.6137871275137 86.86637796730984 l -13.005272690736746 -10.423783535669834 a37.66710475634339,37.66710475634339 0 0,0 0.4098566779019501,-0.5024358251086898 l 12.823917520758403 10.646103530386606" fill="#ff900d" stroke="none" /><path d="M 83.84228863543731 86.58626213691792 l -25.326825169065643 -21.025712494595655 a53.91699650712095,53.91699650712095 0 0,0 0.5989649065601482,-0.7089855261104604 l 24.96114964901837 21.458556970335234" fill="#93ff23" stroke="none" /><path d="M 84.07557802195018 86.31012108654704 l -11.810147566298966 -10.152926765913556 a36.574386262442616,36.574386262442616 0 0,0 0.4145238816718137,-0.4738724544493056 l 11.633631821049308 10.354714776565803" fill="#ff7f0b" stroke="none" /><path d="M 84.31358615837235 86.03803664274999 l -33.85518330099641 -30.13339017278201 a66.32322406503295,66.32322406503295 0 0,0 0.7663691473441528,-0.8462439536915374 l 33.33147051303621 30.711686913743105" fill="#35ff61" stroke="none" /><path d="M 84.5562425177563 85.77008943001954 l -10.92220609657251 -10.063743629736289 a35.85171780842416,35.85171780842416 0 0,0 0.4220817240826763,-0.4502473544542523 l 10.747357050519376 10.25026040106859" fill="#ff740a" stroke="none" /><path d="M 84.80347519578584 85.50635884689758 l -17.270088619680667 -16.471296586606215 a44.86544724440691,44.86544724440691 0 0,0 0.537820780779032,-0.5542715903741045 l 16.984003575198518 16.766132372530443" fill="#fff617" stroke="none" /><path d="M 85.31137513191541 84.99185889309783 l -22.328061371853618 -22.81375545511148 a52.92193231292383,52.92193231292383 0 0,0 0.6565261975202654,-0.6315776818494641 l 21.932051930720924 23.19471622372326" fill="#9fff22" stroke="none" /><path d="M 85.57189188830299 84.74124197986013 l -10.313122212288649 -10.906865616141609 a36.010669782996814,36.010669782996814 0 0,0 0.45406387894306455,-0.4220028898083707 l 10.123850449550728 11.082773092024627" fill="#ff770a" stroke="none" /><path d="M 88.09926311788651 82.69761687909137 l -8.692840328434823 -12.63844880038666 a36.339356605009804,36.339356605009804 0 0,0 0.518433364149888,-0.3500485217106807 l 8.474002269878396 12.786209234396008" fill="#ff7c0b" stroke="none" /><path d="M 88.39885842347998 82.49532879139004 l -9.039503372073513 -13.639479647203213 a37.36300786103212,37.36300786103212 0 0,0 0.5391534951320773,-0.3506804307640563 l 8.80338285115715 13.793059002126803" fill="#ff8b0c" stroke="none" /><path d="M 88.70189139769569 82.29822771554957 l -8.801359718892625 -13.789889177166843 a37.35924742828621,37.35924742828621 0 0,0 0.5450551378006409,-0.3413134772873084 l 8.562685428719742 13.939346995777083" fill="#ff8b0c" stroke="none" /><path d="M 89.00827224532344 82.1063720568725 l -8.761959848312143 -14.263749346558743 a37.73996672054306,37.73996672054306 0 0,0 0.5564631103030303,-0.335262797649342 l 8.515134671791465 14.412458753666705" fill="#ff910d" stroke="none" /><line stroke="#e1ed5e" stroke-width="0.3" x1="56.762969772571076" x2="54.21961505331055" y1="26.818313649435495" y2="22.513508569990535" /><path d="M 56.25429882871897 25.957352633546506 a86.0,86.0 0 0,1 42.265352541879196,-11.944610805530505" fill="none" id="id48" stroke="none" /><text fill="#e1ed5e" style="font-size:6.75px; font-family:Arial;" text-anchor="middle"><textPath startOffset="22.20632615414155" xlink:href="#id48">December</textPath></text><path d="M 89.3179101791058 81.91981866633112 l -9.05872124177345 -15.332516899648354 a38.80860761020243,38.80860761020243 0 0,0 0.578069488997265,-0.334855159830936 l 8.793455020310864 15.486176216869339" fill="#ffa00e" stroke="none" /><path d="M 90.26544431104013 81.39251694778311 l -16.422918703758643 -31.392206404931112 a56.42856025468807,56.42856025468807 0 0,0 0.8645379744005431,-0.4428499293250609 l 15.880120241769337 31.67024885956868" fill="#75ff27" stroke="none" /><path d="M 90.91171255644093 81.06846463323043 l -13.55183616751528 -28.229418059593417 a52.313771850329275,52.313771850329275 0 0,0 0.815152666596616,-0.3827251069710486 l 13.063905289619054 28.458508149204473" fill="#a7ff21" stroke="none" /><path d="M 91.23893434514133 80.91482961587045 l -14.42475518031649 -31.422993641535097 a55.575686419911065,55.575686419911065 0 0,0 0.8728502457033297,-0.3916224622731177 l 13.881722816146386 31.666636434324744" fill="#7fff26" stroke="none" /><path d="M 91.56875222667455 80.76684994638697 l -8.134348841046666 -18.555871687611088 a41.2605035760448,41.2605035760448 0 0,0 0.6529302619081312,-0.2795506631091811 l 7.813734821348226 18.693141878683054" fill="#ffc412" stroke="none" /><path d="M 91.90106846888425 80.62456947434976 l -9.324792894587041 -22.30811264436727 a45.17857837592442,45.17857837592442 0 0,0 0.72009518721369,-0.2937449073778349 l 8.93941383778497 22.465318437928683" fill="#fffa17" stroke="none" /><path d="M 92.23578459929587 80.48803036053334 l -5.763259417663017 -14.483439340388825 a36.58798172445696,36.58798172445696 0 0,0 0.587179323801246,-0.22781645525675762 l 5.513096928862095 14.580498499536136" fill="#ff800b" stroke="none" /><path d="M 92.57280143429618 80.3572730644239 l -18.290942448831608 -48.37409216117958 a72.71664498094174,72.71664498094174 0 0,0 1.1746081518122293,-0.4326180952384119 l 17.45555197124681 48.68177352422432" fill="#3dffb0" stroke="none" /><path d="M 92.91201910852362 80.23233633223022 l -7.070356511327011 -19.71851104948823 a41.94778315731891,41.94778315731891 0 0,0 0.6817872991068554,-0.23786220141384204 l 6.729887208156871 19.837294104074285" fill="#ffce13" stroke="none" /><path d="M 93.25333710446033 80.11325718540243 l -6.2608714128745095 -18.45480373199261 a40.48790116033324,40.48790116033324 0 0,0 0.6619139028425661,-0.218222606899922 l 5.942274687789534 18.559840063151764" fill="#ffb911" stroke="none" /><path d="M 94.63758080256005 79.69619591428918 l -3.8238976424701545 -14.47847803722453 a35.97492969781434,35.97492969781434 0 0,0 0.600080862063162,-0.15297397309764785 l 3.574107891721993 14.54215500649104" fill="#ff760a" stroke="none" /><path d="M 94.98787191387505 79.60689891045804 l -7.483428777704237 -30.44820821370874 a52.35434722165863,52.35434722165863 0 0,0 0.8770009160532558,-0.20755778206663403 l 6.958204174688447 30.572511907916244" fill="#a6ff21" stroke="none" /><path d="M 97.47563105711357 79.15227682838746 l -3.7809184484065192 -31.225047895215003 a52.45312322126328,52.45312322126328 0 0,0 0.8972813507612081,-0.10082001458645247 l 3.242870394135593 31.28550386327205" fill="#a5ff21" stroke="none" /><path d="M 97.83486435360386 79.11191278185805 l -3.300405165785136 -31.84056900678484 a53.01116225528477,53.01116225528477 0 0,0 0.9084469180675937,-0.0862679811757986 l 2.751833120627306 31.89266253247582" fill="#9eff22" stroke="none" /><path d="M 98.19473922651362 79.07773832637324 l -2.694913830264725 -31.232990365034222 a52.349039023467256,52.349039023467256 0 0,0 0.8984336781672196,-0.0697357448270218 l 2.156889962735171 31.274751372049707" fill="#a6ff21" stroke="none" /><path d="M 98.55514903715128 79.0497635885617 l -2.201896691197616 -31.927345740353665 a53.00318351450034,53.00318351450034 0 0,0 0.9107409592547512,-0.05493838178791966 l 1.6519936831032418 31.960517391521893" fill="#9eff22" stroke="none" /><path d="M 98.91598698831166 79.02799685794201 l -1.5457913079835859 -29.905858895094358 a50.94578212405099,50.94578212405099 0 0,0 0.8761683935808147,-0.037729654096769025 l 1.0307820820134472 29.928036275715318" fill="#b8ff1f" stroke="none" /><path d="M 99.27714615592234 79.0124445844662 l -0.9228165148759869 -26.793331602243963 a47.809218725429744,47.809218725429744 0 0,0 0.8227132495005973,-0.021248255994087018 l 0.4614766301805106 26.805246650380408" fill="#e0ff1b" stroke="none" /><path d="M 99.63851952072746 79.00311137660856 l -0.33509063597018224 -19.46401303983716 a40.466897270732844,40.466897270732844 0 0,0 0.6965711152427132,-0.005995607504243472 l 4.768014686386664e-15 19.466897270732844" fill="#ffb811" stroke="none" /></svg>