<?xml version="1.0" encoding="utf-8" ?>
<svg baseProfile="full" height="200mm" version="1.1" viewBox="0,0,200,200" width="200mm" xmlns="http://www.w3.org/2000/svg" xmlns:ev="http://www.w3.org/2001/xml-events" xmlns:xlink="http://www.w3.org/1999/xlink"><defs /><rect fill="#1a1a1a" height="200" width="200" x="0" y="0" /><text alignment-baseline="middle" fill="#e1ed5e" style="dominant-baseline: central; font-size:9.0px; font-family:Arial;" text-anchor="middle" x="100.0" y="100.0">2023</text><line stroke="#e1ed5e" stroke-width="0.3" x1="100.0" x2="100.0" y1="15.0" y2="10.0" /><path d="M 100.0 14.0 a86.0,86.0 0 0,1 42.46469731375804,11.215312516191453" fill="none" id="id61" stroke="none" /><text fill="#e1ed5e" style="font-size:6.75px; font-family:Arial;" text-anchor="middle"><textPath startOffset="22.20632615414155" xlink:href="#id61">January</textPath></text><path d="M 100.0 79.0 l 0.0 -23.370096084216726 a44.370096084216726,44.370096084216726 0 0,0 0.7637582665662284,0.006573908527425781 l -0.40227778729370006 23.36663355229786" fill="#e3ff1b" stroke="none" /><path d="M 101.08401301168833 79.027996857942 l 0.5959262070182825 -11.529166302678505 a32.54455731845222,32.54455731845222 0 0,0 0.5592053040101006,0.033732791061333464 l -0.794293559867995 11.517200242236866" fill="#ff830c" stroke="none" /><path d="M 101.44485096284872 79.0497635885617 l 0.7955683079503062 -11.535683998953749 a32.56308498007052,32.56308498007052 0 0,0 0.5588597757831052,0.043378274507248654 l -0.9940182730957526 11.520280462258036" fill="#ff830c" stroke="none" /><path d="M 101.80526077348638 79.07773832637324 l 0.9962578209010322 -11.546235939660985 a32.58913689711298,32.58913689711298 0 0,0 0.5584767380517699,0.053034095627578604 l -1.1948596860430463 11.52737629951823" fill="#ff830c" stroke="none" /><path d="M 102.16513564639614 79.11191278185805 l 1.9188717228568246 -18.512262718585507 a39.611446468523354,39.611446468523354 0 0,0 0.6776071663636046,0.07613706039772769 l -2.2372455927301544 18.476489704717178" fill="#ffe015" stroke="none" /><path d="M 102.52436894288641 79.15227682838746 l 2.9319584016288815 -24.213836602644754 a45.390700340262086,45.390700340262086 0 0,0 0.7748522635570407,0.10059806221857087 l -3.3483253936937687 24.159780217262046" fill="#d6ff1c" stroke="none" /><path d="M 103.2404852339499 79.25152402106235 l 1.8281924417524327 -11.705718194660385 a32.84762111383057,32.84762111383057 0 0,0 0.5578946237675902,0.09205739314724845 l -2.029416271658898 11.672514538573513" fill="#ff870c" stroke="none" /><path d="M 103.59715602781102 79.31037775812273 l 4.394701860625059 -25.2768355498157 a46.65602891829147,46.65602891829147 0 0,0 0.7900529292051711,0.14437712292100927 l -4.829149910933131 25.19744294554395" fill="#c7ff1e" stroke="none" /><path d="M 103.95276090670814 79.375362276772 l 4.61782199635103 -24.09478033024023 a45.533298171108484,45.533298171108484 0 0,0 0.7685014456947598,0.1541541603201285 l -5.031889851512916 24.011722213842894" fill="#d5ff1c" stroke="none" /><path d="M 104.307194497241 79.44645832069477 l 5.114685192259991 -24.4068140742145 a45.93697210707825,45.93697210707825 0 0,0 0.7725226633319583,0.16884353261966367 l -5.534050579745477 24.315157043498964" fill="#d0ff1d" stroke="none" /><path d="M 104.66035177308747 79.52364482259891 l 3.8945856880049914 -17.111781191483104 a38.54938327196737,38.54938327196737 0 0,0 0.6457504722514883,0.1528282734209381 l -4.188559847219003 17.0422070059213" fill="#ffd213" stroke="none" /><path d="M 105.01212808612495 79.60689891045804 l 5.936038740122353 -24.152263473446787 a45.87103509737834,45.87103509737834 0 0,0 0.765153136258518,0.19505457127755194 l -6.350900765065895 24.046505906000366" fill="#d1ff1d" stroke="none" /><path d="M 105.36241919743992 79.69619591428918 l 2.95072085581522 -11.172356349293853 a32.555444602634275,32.555444602634275 0 0,0 0.5405786785809106,0.1477605733340496 l -3.1425974236198413 11.119909235133509" fill="#ff830c" stroke="none" /><path d="M 105.71112130821622 79.79150937346287 l 3.7688062094371673 -13.335714800362721 a34.858036999550315,34.858036999550315 0 0,0 0.5760038014191751,0.1681513046984814 l -3.9978002285797696 13.268865166745536" fill="#ffa20f" stroke="none" /><path d="M 106.40334571778207 80.00007090966166 l 3.523762958154294 -11.00596663062216 a32.55630593484046,32.55630593484046 0 0,0 0.5322447177029458,0.17547271526864366 l -3.712690498099658 10.94368019109428" fill="#ff830c" stroke="none" /><path d="M 107.08798089147638 80.2323363322302 l 5.120069933299924 -14.279358529118673 a36.16954831644621,36.16954831644621 0 0,0 0.5842547646553004,0.2151859605513352 l -5.365107023727801 14.189109300761013" fill="#ffb310" stroke="none" /><path d="M 107.4271985657038 80.35727306442388 l 4.088492930559088 -10.812845449406053 a32.559991399476594,32.559991399476594 0 0,0 0.5225364404328411,0.20273602079726716 l -4.274012535991597 10.74086672471824" fill="#ff830c" stroke="none" /><path d="M 108.09893153111575 80.62456947434976 l 4.460971396149778 -10.672178302895901 a32.56700719832354,32.56700719832354 0 0,0 0.5153593072458396,0.22064995985793628 l -4.644014461185932 10.593808815075175" fill="#ff830c" stroke="none" /><path d="M 110.05341064243156 81.56283822128135 l 11.708746685156687 -21.472917454414947 a45.457737690581396,45.457737690581396 0 0,0 0.6837621096065182,0.38051287370249887 l -12.07663288383524 21.26818918315227" fill="#d6ff1c" stroke="none" /><path d="M 110.36928655335952 81.73862282372117 l 8.726895664237484 -15.368958363971602 a38.67381082641714,38.67381082641714 0 0,0 0.5760616378343354,0.3336920828395466 l -8.990154034537147 15.216462123742007" fill="#ffd413" stroke="none" /><line stroke="#e1ed5e" stroke-width="0.3" x1="143.23703022742887" x2="145.7803849466894" y1="26.81831364943548" y2="22.513508569990506" /><path d="M 143.74570117128098 25.957352633546492 a86.0,86.0 0 0,1 28.547481713284135,27.462654790039103" fill="none" id="id62" stroke="none" /><text fill="#e1ed5e" style="font-size:6.75px; font-family:Arial;" text-anchor="middle"><textPath startOffset="19.985693538727396" xlink:href="#id62">February</textPath></text><path d="M 110.68208982089419 81.91981866633111 l 12.473160617768258 -21.111693456472878 a45.521079429681,45.521079429681 0 0,0 0.6711929989594871,0.40438627184336695 l -12.834715682945383 20.893860575170894" fill="#d5ff1c" stroke="none" /><path d="M 110.99172775467656 82.1063720568725 l 9.187941368740532 -14.957212194922171 a38.553816201593946,38.553816201593946 0 0,0 0.5624833755775392,0.35222703818433104 l -9.444043896690335 14.796840815414896" fill="#ffd313" stroke="none" /><path d="M 111.2981086023043 82.29822771554956 l 9.938739214873912 -15.571924874253154 a39.4733153892488,39.4733153892488 0 0,0 0.5696055316456766,0.3704872823910094 l -10.205311772303869 15.398538667702617" fill="#ffde14" stroke="none" /><path d="M 111.60114157652 82.49532879139004 l 9.894118115589988 -14.92898637346921 a38.91000299900799,38.91000299900799 0 0,0 0.5551073447204844,0.3748109571010637 l -10.149630154717014 14.756463504069476" fill="#ffd714" stroke="none" /><path d="M 111.90073688211348 82.69761687909136 l 20.910675976601322 -30.401859199838306 a57.89890801372318,57.89890801372318 0 0,0 0.8162887483320972,0.571862433783944 l -21.43089586451707 30.037411923290424" fill="#4bff2c" stroke="none" /><path d="M 112.19680574252982 82.90503203632743 l 10.101299739921803 -14.15791962999653 a38.39203681818738,38.39203681818738 0 0,0 0.5346633801046041,0.3884556838130879 l -10.343508436380196 13.981944711366767" fill="#ffd013" stroke="none" /><path d="M 112.48926042617603 83.11751280151076 l 10.30008457709064 -13.92324605960125 a38.319022002740866,38.319022002740866 0 0,0 0.5268935708337418,0.3968453139026933 l -10.538224301682764 13.743884156192712" fill="#ffd013" stroke="none" /><path d="M 112.77801427241765 83.33499621200491 l 9.232678419909346 -12.041199638761903 a36.173425438772206,36.173425438772206 0 0,0 0.490868981829418,0.3831310263526341 l -9.438579956898193 11.880490223186044" fill="#ffb310" stroke="none" /><path d="M 113.06298171725822 83.55741782278167 l 8.97535679228966 -11.297423882336446 a35.428749631415954,35.428749631415954 0 0,0 0.4742333864047886,0.3834637510845981 l -9.168493577258939 11.141254033987718" fill="#ffaa0f" stroke="none" /><path d="M 114.42810811169701 84.74124197986012 l 10.432147208092198 -11.032743076668977 a36.18390974575037,36.18390974575037 0 0,0 0.4488816571611378,0.43182379854054376 l -10.620512108865753 10.851536191366131" fill="#ffb410" stroke="none" /><path d="M 114.94478906791727 85.2469230424477 l 17.756657803475928 -17.528874973951698 a45.951159375912226,45.951159375912226 0 0,0 0.5508356637710022,0.5676845713378427 l -18.055757730950038 17.22062620706374" fill="#d0ff1d" stroke="none" /><path d="M 115.4437574822437 85.77008943001954 l 21.272126970340388 -19.600182453605612 a49.92525778721622,49.92525778721622 0 0,0 0.5768895855215145,0.6370158889968489 l -21.60636019647794 19.231113777339214" fill="#a2ff22" stroke="none" /><path d="M 115.68641384162765 86.03803664274999 l 18.683204890410604 -16.62930894910269 a46.01191838107924,46.01191838107924 0 0,0 0.5214862355756582,0.5961489152738718 l -18.96668298956411 16.305244477625873" fill="#cfff1d" stroke="none" /><path d="M 115.9244219780498 86.31012108654704 l 11.510160044254079 -9.895034023683912 a36.178783962300976,36.178783962300976 0 0,0 0.40191077692130084,0.4757355906900679 l -11.678781434662497 9.695439483364739" fill="#ffb410" stroke="none" /><path d="M 116.15771136456269 86.58626213691792 l 11.705437977927952 -9.717569095389058 a36.21342917881365,36.21342917881365 0 0,0 0.3940391987830045,0.48304546598864834 l -11.870975668787365 9.514639459792308" fill="#ffb410" stroke="none" /><path d="M 116.38621287248628 86.86637796730983 l 13.566223214592151 -10.873387859541827 a38.38599942057317,38.38599942057317 0 0,0 0.4088034348920786,0.5191388476741449 l -13.751380730078195 10.638256617914644" fill="#ffd013" stroke="none" /><path d="M 116.60985879189232 87.15038557335679 l 19.348490936909947 -14.96825779145403 a45.46247826462214,45.46247826462214 0 0,0 0.4735113244529121,0.6230853986064696 l -19.603278201586974 14.632987616966528" fill="#d6ff1c" stroke="none" /><path d="M 117.04232023915458 87.72973835380427 l 2.954853866545578 -2.127458559632487 a24.641049477223962,24.641049477223962 0 0,0 0.24487028860403665,0.34635165760426834 l -2.9910367749534976 2.0762804016964256" fill="#ff1202" stroke="none" /><path d="M 117.2510076193507 88.02491185347247 l 13.348181225507854 -9.265873060770046 a37.249010603950765,37.249010603950765 0 0,0 0.3610946303338235,0.5298618132777982 l -13.50570032151041 9.03473322422184" fill="#ffc212" stroke="none" /><line stroke="#e1ed5e" stroke-width="0.3" x1="172.23445277983987" x2="176.4835382374775" y1="55.19839476539836" y2="52.563006222186495" /><path d="M 173.08426987136738 54.67131705675599 a86.0,86.0 0 0,1 12.851231095245387,41.99856678651699" fill="none" id="id63" stroke="none" /><text fill="#e1ed5e" style="font-size:6.75px; font-family:Arial;" text-anchor="middle"><textPath startOffset="22.20632615414155" xlink:href="#id63">March</textPath></text><path d="M 117.84615892207809 88.93136811851018 l 9.810850420199008 -6.0849335826096915 a32.54466121946808,32.54466121946808 0 0,0 0.29117274729833553,0.4786114378394985 l -9.914138965783568 5.915154371563112" fill="#ff830c" stroke="none" /><path d="M 118.03404312379186 89.2402003453031 l 14.897495551559198 -8.88841544800585 a38.347602222932,38.347602222932 0 0,0 0.3333325615741146,0.5697733990675387 l -15.04828778760364 8.630662636584416" fill="#ffd013" stroke="none" /><path d="M 118.3937258080291 89.86733742301442 l 30.352343889916927 -16.720378582728944 a55.653078356208965,55.653078356208965 0 0,0 0.4550087051105349,0.8430620267237534 l -30.635660694245928 16.195435572672732" fill="#63ff29" stroke="none" /><path d="M 118.56541770881063 90.18545643968196 l 21.648507157082623 -11.44440808397281 a45.487391419315365,45.487391419315365 0 0,0 0.35997977924017527,0.6953663542295696 l -21.842296369482913 11.070069007482896" fill="#d5ff1c" stroke="none" /><path d="M 118.89224826269711 90.83032412892265 l 4.1856805216027055 -2.0315916427354486 a25.652664401367975,25.652664401367975 0 0,0 0.18939216293139882,0.3989081961568871 l -4.22003087837586 1.9592410309380213" fill="#ff2103" stroke="none" /><path d="M 119.196687751892 91.48605970444005 l 11.193423566536117 -4.964405379725441 a33.24491943273344,33.24491943273344 0 0,0 0.2275049415721615,0.5251127720946264 l -11.27721921795096 4.770993463044211" fill="#ff8c0c" stroke="none" /><path d="M 119.34039704204932 91.81776055985345 l 10.71414822994581 -4.532777999543581 a32.633531221705525,32.633531221705525 0 0,0 0.21441521851988277,0.5192234589084715 l -10.790585135351892 4.347679970181805" fill="#ff840c" stroke="none" /><path d="M 119.47837535516314 92.15188598940014 l 10.732418963582488 -4.324243993654872 a32.570821186351694,32.570821186351694 0 0,0 0.20505107840406953,0.5218326285480712 l -10.805263591868258 4.138862360211016" fill="#ff830c" stroke="none" /><path d="M 119.61058180528143 92.48833698450437 l 23.160613951369744 -8.871471992117147 a45.801553457622404,45.801553457622404 0 0,0 0.27567172364480913,0.7386631640100405 l -23.30989026351618 8.471485691077774" fill="#d1ff1c" stroke="none" /><path d="M 119.7369772167798 92.82701384747503 l 12.091324790574125 -4.3943357858636 a33.865081507323374,33.865081507323374 0 0,0 0.19439672589678686,0.5495857218548555 l -12.165174597280721 4.18555243758213" fill="#ff950d" stroke="none" /><path d="M 119.85752413597 93.16781622104841 l 11.033188990991132 -3.7960812404509063 a32.66796863618647,32.66796863618647 0 0,0 0.17837131860971805,0.533307539113094 l -11.09689760337262 3.6056005984154984" fill="#ff840c" stroke="none" /><path d="M 119.97218684219823 93.5106431181261 l 11.397055897885283 -3.7031279402903396 a32.98357374415832,32.98357374415832 0 0,0 0.17079917954305682,0.5414800742362149 l -11.459110561196544 3.5063976996277058" fill="#ff890c" stroke="none" /><path d="M 120.28053869075195 94.5502522615342 l 23.696693758980796 -6.367730423305336 a45.53734471883231,45.53734471883231 0 0,0 0.19690275892173684,0.7587466518158859 l -23.802792849772835 5.9588873459405995" fill="#d5ff1c" stroke="none" /><path d="M 120.37134235888165 94.90015583598534 l 47.560655477849586 -11.906526678624735 a70.02837267370299,70.02837267370299 0 0,0 0.28267185970674075,1.1718573504951482 l -47.75856013781714 11.08608409647018" fill="#3bff9e" stroke="none" /><path d="M 120.6074358757038 95.95851677861258 l 11.330323489100845 -2.2220771448854046 a32.54616201191948,32.54616201191948 0 0,0 0.10308497170167913,0.5506840408233398 l -11.366894184712384 2.026715026599502" fill="#ff830c" stroke="none" /><path d="M 120.67395015179393 96.31383870115 l 11.368860384104632 -2.0270655995694624 a32.54815922033558,32.54815922033558 0 0,0 0.09359632125045023,0.552410786204119 l -11.402068566875304 1.8310690250495054" fill="#ff830c" stroke="none" /><path d="M 120.73433829027371 96.67025291283417 l 11.39925313435423 -1.8306168920658088 a32.54530771467792,32.54530771467792 0 0,0 0.08406624474884593,0.553891517366605 l -11.429075272542377 1.6341262623071218" fill="#ff830c" stroke="none" /><path d="M 120.83666639777658 97.38593545837742 l 24.357529329990225 -3.0557744951876584 a45.54846212752997,45.54846212752997 0 0,0 0.0909009509044848,0.7787838350744256 l -24.406520633898296 2.63604692178838" fill="#d5ff1c" stroke="none" /><path d="M 120.91429891909075 98.10471618934814 l 11.506273972499006 -1.0427150757176975 a32.553423538472785,32.553423538472785 0 0,0 0.045769363496000894,0.5585021641977512 l -11.522517819814501 0.8444989943121776" fill="#ff830c" stroke="none" /><path d="M 120.94382443527127 98.46500227214037 l 12.803414198849767 -0.9383774088070754 a33.837755540150596,33.837755540150596 0 0,0 0.037575069568256035,0.5812696951014746 l -12.81766985942244 0.7178486494525655" fill="#ff940d" stroke="none" /><path d="M 120.98425023603335 99.18683210126433 l 11.546223659852599 -0.4474316845350963 a32.554889697252236,32.554889697252236 0 0,0 0.016879408856497854,0.5601454045192175 l -11.552214763164743 0.24861613259087978" fill="#ff830c" stroke="none" /><line stroke="#e1ed5e" stroke-width="0.3" x1="184.98032266829074" x2="189.97916517819016" y1="98.17113171792111" y2="98.06355123074" /><path d="M 185.9800911702706 98.14961562048488 a86.0,86.0 0 0,1 -9.607161424134198,41.387399972396054" fill="none" id="id64" stroke="none" /><text fill="#e1ed5e" style="font-size:6.75px; font-family:Arial;" text-anchor="middle"><textPath startOffset="21.466115282336823" xlink:href="#id64">April</textPath></text><path d="M 120.99980553446 99.90962569577887 l 49.17692287951594 -0.2116367307154071 a70.17737827501225,70.17737827501225 0 0,0 -0.005198816076095662,1.208021766234837 l -49.173279766150344 -0.6348945137231146" fill="#3bff9f" stroke="none" /><path d="M 120.99824983174949 100.27111621757518 l 11.82124173077253 0.15262845097895292 a32.822227011075626,32.822227011075626 0 0,0 -0.012156629725266729,0.5648708147738815 l -11.816863038362253 -0.35608908154294916" fill="#ff860c" stroke="none" /><path d="M 120.9904718944345 100.63252640178507 l 17.3153256203928 0.5217796277037423 a38.32318548420348,38.32318548420348 0 0,0 -0.025544898053646594,0.659200312561755 l -17.303778589487955 -0.8197571872795035" fill="#ffd013" stroke="none" /><path d="M 120.9764740272857 100.99374915477107 l 21.958472543393146 1.0402708053639538 a42.98309986756743,42.98309986756743 0 0,0 -0.041373585642347326,0.7387531648468669 l -21.93731260686327 -1.418095686546244" fill="#f4ff19" stroke="none" /><path d="M 120.95626037817324 101.35467743843564 l 5.762156815796151 0.37248362514226585 a26.77418351118365,26.77418351118365 0 0,0 -0.03368886034847708,0.4596577335308063 l -5.754891396783336 -0.47161449516984244" fill="#ff3104" stroke="none" /><path d="M 120.92983693683757 101.71520430193887 l 17.260980768902353 1.414540808886914 a38.31884473065173,38.31884473065173 0 0,0 -0.059531799025408436,0.6569284415405791 l -17.23407437359987 -1.7114506389760638" fill="#ffd013" stroke="none" /><path d="M 120.89721153311464 102.0752229133903 l 17.236693649068705 1.7117107493003907 a38.321476889720344,38.321476889720344 0 0,0 -0.07083578742569392,0.6558514164272597 l -17.20467556014196 -2.008158487612442" fill="#ffd013" stroke="none" /><path d="M 120.8583938346157 102.4346265915055 l 20.65878133599803 2.411327487030603 a41.799032346200384,41.799032346200384 0 0,0 -0.08956635097719973,0.713931942407094 l -20.614213475773983 -2.766577183725092" fill="#fffc17" stroke="none" /><path d="M 120.70491114924044 103.5080841355445 l 25.059815258235183 4.245946273974515 a46.416970719154456,46.416970719154456 0 0,0 -0.140253425141336,0.7866156917482053 l -24.98301539075466 -4.676680716455938" fill="#caff1d" stroke="none" /><path d="M 120.64145759157962 103.86396538481128 l 14.915465268459215 2.7920916553485915 a36.1745471097651,36.1745471097651 0 0,0 -0.11984122223815971,0.6110678103201485 l -14.865194113245392 -3.048423192736685" fill="#ffb310" stroke="none" /><path d="M 120.02730092923936 106.31721596034902 l 5.7255713757888085 1.806018245046877 a27.00365467700253,27.00365467700253 0 0,0 -0.14364368944297842,0.4420898182177726 l -5.693635435329583 -1.9043069632424448" fill="#ff3405" stroke="none" /><path d="M 119.9155931802556 106.66101706037122 l 11.006660184841865 3.6813139636546537 a32.60597436338638,32.60597436338638 0 0,0 -0.18260769291258055,0.5307434323702827 l -10.941661660986053 -3.870230099114237" fill="#ff830c" stroke="none" /><path d="M 119.26925614724726 108.34839909993367 l 21.572852156069892 9.346431338423214 a44.51050252358526,44.51050252358526 0 0,0 -0.3106386175201236,0.7004080763078653 l -21.408772453818493 -9.716387751223767" fill="#e1ff1b" stroke="none" /><path d="M 119.12269723197855 108.67885076344098 l 10.561515724005677 4.793351988604213 a32.5983549555562,32.5983549555562 0 0,0 -0.23629986064289168,0.5089688776023127 l -10.477441246522954 -4.974440933485356" fill="#ff830c" stroke="none" /><path d="M 118.81262510543309 109.33194174019688 l 10.476163294217518 5.196666864646812 a32.69424404864327,32.69424404864327 0 0,0 -0.2544255644172209,0.5020057759547274 l -10.385159060014027 -5.376226852304234" fill="#ff850c" stroke="none" /><path d="M 118.64920377521936 109.65438752849418 l 20.545281700871527 10.635956033997529 a44.13508506414651,44.13508506414651 0 0,0 -0.3550719962318351,0.6716624044951162 l -20.3591571964148 -10.98803345357878" fill="#e6ff1a" stroke="none" /><line stroke="#e1ed5e" stroke-width="0.3" x1="174.80103733775053" x2="179.2010983576182" y1="140.37084112569926" y2="142.7455964860345" /><path d="M 175.68104954172406 140.8457921977663 a86.0,86.0 0 0,1 -30.038265399797805,32.042727171017184" fill="none" id="id65" stroke="none" /><text fill="#e1ed5e" style="font-size:6.75px; font-family:Arial;" text-anchor="middle"><textPath startOffset="22.206326154141568" xlink:href="#id65">May</textPath></text><path d="M 118.48025628344425 109.97397251340804 l 7.582919513792847 4.092574780454264 a29.6168344933781,29.6168344933781 0 0,0 -0.24599402919120905,0.4465506167779197 l -7.511349075150129 -4.222495915629988" fill="#ff5a08" stroke="none" /><path d="M 118.30583269289576 110.29060199501025 l 10.560568470729176 5.936610958730276 a33.1148238163118,33.1148238163118 0 0,0 -0.2836016648156818,0.4944834074616091 l -10.456814809761115 -6.1175142120502" fill="#ff8a0c" stroke="none" /><path d="M 118.12598468904814 110.60418214915192 l 19.998252141914538 11.699508303439142 a44.16912996367863,44.16912996367863 0 0,0 -0.3895698844306547,0.6529415343236634 l -19.793901381785656 -12.04201193164891" fill="#e5ff1a" stroke="none" /><path d="M 117.94076556474637 110.91462005526583 l 14.912963828215055 9.072596902036993 a38.4559017151364,38.4559017151364 0 0,0 -0.3489147185803294,0.562561623216494 l -14.754584469966762 -9.32795485661876" fill="#ffd113" stroke="none" /><path d="M 117.75023020441432 111.22182372390056 l 14.717055101236257 9.304228518677618 a38.41150134768964,38.41150134768964 0 0,0 -0.35813262639350035,0.55582978924528 l -14.554717611465707 -9.556179907844351" fill="#ffd113" stroke="none" /><path d="M 117.55443506779139 111.5257021239791 l 9.656874672921768 6.340406882868599 a32.55231526097022,32.55231526097022 0 0,0 -0.3115673466260099,0.4657509091931675 l -9.546304220885037 -6.505694706267574" fill="#ff830c" stroke="none" /><path d="M 116.93607887273984 112.41649034213515 l 9.382852056527794 6.8789294627743445 a32.6343277961605,32.6343277961605 0 0,0 -0.33603836689994737,0.4501783070675646 l -9.263052422932756 -7.039420649351224" fill="#ff840c" stroke="none" /><path d="M 116.71984013943494 112.70617746262583 l 14.754432439272945 11.212573527635483 a39.53146194226731,39.53146194226731 0 0,0 -0.41638523271585265,0.5382340425794611 l -14.559240389339024 -11.464885564328197" fill="#ffdf14" stroke="none" /><path d="M 116.498646956653 112.99209946851258 l 15.66187783170299 12.333173452816059 a40.93493377547155,40.93493377547155 0 0,0 -0.44069787132642324,0.5498383548751483 l -15.447262048321713 -12.600939641269457" fill="#fff116" stroke="none" /><path d="M 116.0416608686014 113.55231037782055 l 4.425163510653425 3.738465104094291 a26.792943416826137,26.792943416826137 0 0,0 -0.30066465746768434,0.3497409224486392 l -4.360156343614962 -3.814083125704458" fill="#ff3104" stroke="none" /><path d="M 115.32070863581623 114.36230785411682 l 8.50828556196892 7.976042065447494 a32.662254080313836,32.662254080313836 0 0,0 -0.388048495725428,0.40686729637066993 l -8.369730514864528 -8.12131647840067" fill="#ff840c" stroke="none" /><path d="M 114.81725581225074 114.88116024355365 l 8.159481744272627 8.194672271263673 a32.564159976778946,32.564159976778946 0 0,0 -0.4006167752782427,0.39208783326387886 l -8.017215016618591 -8.333910207450126" fill="#ff830c" stroke="none" /><path d="M 114.0293411484842 115.62618273729858 l 32.78242754777527 36.51377481038264 a70.07079892184831,70.07079892184831 0 0,0 -0.9044393278910388,0.7980625495063509 l -32.149045866977644 -37.07266050166128" fill="#3bff9e" stroke="none" /><path d="M 113.20401910651253 116.32954008644616 l 7.266112470260945 8.986072641869352 a32.556205776786534,32.556205776786534 0 0,0 -0.43879952907959613,0.34860888418427116 l -7.110355448463999 -9.10981544005875" fill="#ff830c" stroke="none" /><path d="M 112.92097659922987 116.55440617244103 l 7.112074420040207 9.112017793220904 a32.5589995596576,32.5589995596576 0 0,0 -0.44477340965041684,0.3410332844087909 l -6.954172281896296 -9.233090419457065" fill="#ff830c" stroke="none" /><path d="M 112.34349029814194 116.9893568818739 l 6.949772115710449 9.565540691458555 a32.82365853618312,32.82365853618312 0 0,0 -0.45995741462944645,0.3281674027113152 l -6.784087373232118 -9.68375235601409" fill="#ff860c" stroke="none" /><path d="M 112.04921762599082 117.19931262002967 l 6.810165851919778 9.72097733787817 a32.86910945834586,32.86910945834586 0 0,0 -0.466182760035485,0.32064475323376435 l -6.64182620726141 -9.836762880477027" fill="#ff870c" stroke="none" /><path d="M 111.7513745106137 117.40417183066458 l 3.361757783345299 4.978873753157246 a27.007545192818846,27.007545192818846 0 0,0 -0.3875265091200082,0.25683143907007494 l -3.275556575485327 -5.036003213318639" fill="#ff3405" stroke="none" /><path d="M 111.45004920935366 117.60387380957326 l 9.569845404497606 14.713155183671915 a38.55160609530637,38.55160609530637 0 0,0 -0.5593988541694442,0.3570348157716758 l -9.315164748281232 -14.8757044282674" fill="#ffd313" stroke="none" /><path d="M 111.1453310114006 117.79835938074945 l 9.81013795432904 15.666144029932811 a39.48423315827753,39.48423315827753 0 0,0 -0.5791411946415196,0.35575582342778483 l -9.539017559755212 -15.832688320188973" fill="#ffdf14" stroke="none" /><line stroke="#e1ed5e" stroke-width="0.3" x1="143.8653032363475" x2="146.44561519142675" y1="172.8068346515853" y2="177.08958963109032" /><path d="M 144.38136562736335 173.6633856474863 a86.0,86.0 0 0,1 -40.68145358897372,12.25698825130547" fill="none" id="id66" stroke="none" /><text fill="#e1ed5e" style="font-size:6.75px; font-family:Arial;" text-anchor="middle"><textPath startOffset="21.466115282336833" xlink:href="#id66">June</textPath></text><path d="M 110.8373102113329 117.98757091392108 l 8.977038516087314 14.899925697085044 a38.39525815554257,38.39525815554257 0 0,0 -0.5690399018173519,0.33619880413291553 l -8.71923074324158 -15.05224307351171" fill="#ffd113" stroke="none" /><path d="M 110.5260780823613 118.17145234162733 l 1.2268317866728427 2.117912784636883 a23.44758468619969,23.44758468619969 0 0,0 -0.35098938851554673,0.19930093505947594 l -1.1901936312360968 -2.1387168854909873" fill="#ff0000" stroke="none" /><path d="M 110.21172684928248 118.3499491758327 l 11.854398627374712 21.30174607418833 a45.37808755062426,45.37808755062426 0 0,0 -0.6858080871235908,0.3739572502809098 l -11.485967728382473 -21.50264397622901" fill="#d7ff1c" stroke="none" /><path d="M 109.89434966115114 118.52300852407294 l 11.482241788741877 21.495668721251523 a45.370179528861115,45.370179528861115 0 0,0 -0.6920229170047795,0.3620336831539892 l -11.110527969210601 -21.690131823350228" fill="#d7ff1c" stroke="none" /><path d="M 109.57404056367764 118.69057910512821 l 11.13534415031378 21.738578327510222 a45.424612116617624,45.424612116617624 0 0,0 -0.698989804786253,0.3504879989101443 l -10.759500437844766 -21.92703416732967" fill="#d6ff1c" stroke="none" /><path d="M 109.2508944713604 118.85261126421891 l 10.76217546047591 21.93248565766329 a45.43068455376713,45.43068455376713 0 0,0 -0.7050135514357242,0.3384493482921124 l -10.383049241039954 -22.11448928245496" fill="#d6ff1c" stroke="none" /><path d="M 108.92500713936063 119.00905698771935 l 8.396161512893508 17.882687395600477 a40.75565834487331,40.75565834487331 0 0,0 -0.6375970533266441,0.29268953502161305 l -8.087096463799444 -18.024564000956165" fill="#ffef16" stroke="none" /><path d="M 108.59647513512805 119.15986991738527 l 7.094846320291313 15.813031555822247 a38.33172845661913,38.33172845661913 0 0,0 -0.6043258474580783,0.2649186920260517 l -6.821599798175481 -15.932814801142754" fill="#ffd013" stroke="none" /><path d="M 108.2653958097858 119.30500536409082 l 6.906987367137714 16.132249591052144 a38.54867377774748,38.54867377774748 0 0,0 -0.6122420430190766,0.25591722363627395 l -6.6282738646211765 -16.248751857708392" fill="#ffd213" stroke="none" /><path d="M 107.93186726928326 119.44442032107085 l 6.63079421700595 16.254930326089543 a38.55534653187755,38.55534653187755 0 0,0 -0.6166632526647616,0.24538303471442674 l -6.350009888299322 -16.366660205210035" fill="#ffd313" stroke="none" /><path d="M 107.59598834532513 119.57807347666477 l 3.3833535515745994 8.720332551724972 a30.35367740878563,30.35367740878563 0 0,0 -0.48873724958792947,0.1847986082100985 l -3.232746081226395 -8.777279410041702" fill="#ff6409" stroke="none" /><path d="M 107.2578585660854 119.70592522655815 l 8.422055565703387 22.866854695569426 a45.36850556804994,45.36850556804994 0 0,0 -0.7351435718223027,0.26359632970000163 l -8.027192433251349 -23.008438566309387" fill="#d7ff1c" stroke="none" /><path d="M 106.91757812671514 119.82793768551818 l 8.056143721419815 23.091421993052762 a45.45639428291531,45.45639428291531 0 0,0 -0.7410047425991004,0.25138904087614383 l -7.657469245883488 -23.22667402082703" fill="#d6ff1c" stroke="none" /><path d="M 106.57524785965236 119.94407469862006 l 5.8632277636597445 17.784371781786408 a39.725953099411285,39.725953099411285 0 0,0 -0.6512760808593193,0.2085180344703863 l -5.556230337709485 -17.882662662916502" fill="#ffe215" stroke="none" /><path d="M 106.2309692047433 120.05430185196036 l 5.207279565430051 16.759568664403517 a38.549897500823235,38.549897500823235 0 0,0 -0.6353849646570641,0.19143627770883156 l -4.918019626332741 -16.84672031121807" fill="#ffd313" stroke="none" /><path d="M 105.88484417918355 120.15858648285463 l 5.3912525376044576 18.46778389046266 a40.23862380080911,40.23862380080911 0 0,0 -0.6665601456507464,0.1883765552502348 l -5.072561223849106 -18.557849239051414" fill="#ffe815" stroke="none" /><path d="M 105.53697534728816 120.25689768951611 l 6.427894846209164 23.516306302934773 a45.37897648153778,45.37897648153778 0 0,0 -0.7552564750347496,0.19947009947595945 l -6.022147928362918 -23.623467751714315" fill="#d7ff1c" stroke="none" /><path d="M 105.18746579009965 120.34920634021253 l 2.9286109963619587 11.488251077996997 a32.85566004906987,32.85566004906987 0 0,0 -0.5492319779914135,0.13498785744265454 l -2.7304257336273343 -11.536960193753682" fill="#ff870c" stroke="none" /><path d="M 104.48393922423573 120.51570834832081 l 3.7063116663593036 16.957769807410077 a38.35807313641983,38.35807313641983 0 0,0 -0.6462577999419874,0.13542960542473595 l -3.4138624049879382 -17.019055393561352" fill="#ffd013" stroke="none" /><path d="M 104.13013068566511 120.58985236759428 l 2.276799820227682 11.350481555404796 a32.576581920453606,32.576581920453606 0 0,0 -0.5507495994437587,0.10555247152849066 l -2.081082606212219 -11.387991225281755" fill="#ff830c" stroke="none" /><path d="M 103.7750983002368 120.6578951692458 l 2.0817612377007007 11.39170479696457 a32.580356990696735,32.580356990696735 0 0,0 -0.5525489358116396,0.09606771510271502 l -1.885363330417011 -11.42585109058829" fill="#ff830c" stroke="none" /><path d="M 103.41894727170886 120.7198165907248 l 3.403677930240446 20.627279932641574 a41.906212016344895,41.906212016344895 0 0,0 -0.7127331440122003,0.11131425899727496 l -3.0481089226197287 -20.682812498985957" fill="#fffd17" stroke="none" /><path d="M 103.06178313531738 120.77559828337769 l 1.7896151115855647 12.14335666406034 a33.274519677697945,33.274519677697945 0 0,0 -0.5673644827892779,0.07863154747765268 l -1.5803220376094564 -12.172362777030596" fill="#ff8d0c" stroke="none" /><path d="M 102.70371172650421 120.8252237178851 l 1.495319698502352 11.517635902454446 a32.614297989212986,32.614297989212986 0 0,0 -0.5573512935599547,0.06748747976738576 l -1.296840981891017 -11.541668910947184" fill="#ff830c" stroke="none" /><path d="M 102.34483914955558 120.86867818915974 l 1.823869342171721 16.23213360629443 a37.33427870430485,37.33427870430485 0 0,0 -0.63924712625284,0.06626057835991293 l -1.5441896193132782 -16.2611235531101" fill="#ffc312" stroke="none" /><path d="M 101.98527174616119 120.90594882070398 l 2.736045259884645 28.811986210392522 a49.941604880379145,49.941604880379145 0 0,0 -0.8565120370845383,0.07390346257434927 l -2.239688905058565 -28.854813925245534" fill="#a1ff22" stroke="none" /><path d="M 101.62511606390274 120.93702456842531 l 1.1043601712029547 14.227916731891074 a35.27071217274616,35.27071217274616 0 0,0 -0.6057110601590547,0.04177338103932427 l -0.8592863502649696 -14.244818457446684" fill="#ffa70f" stroke="none" /><path d="M 101.26447882468166 120.96189622390904 l 0.6969728753563263 11.554067018699888 a32.575069583444886,32.575069583444886 0 0,0 -0.559999466280226,0.028945575864847667 l -0.49798534066262073 -11.564352401326937" fill="#ff830c" stroke="none" /><path d="M 100.90346689309514 120.98055641714683 l 0.6526869462871855 15.156875591092097 a36.17092211876711,36.17092211876711 0 0,0 -0.6222770486986534,0.021432479763708667 l -0.3916895459138798 -15.1658648692819" fill="#ffb310" stroke="none" /><line stroke="#e1ed5e" stroke-width="0.3" x1="102.19456741930631" x2="102.32365962044197" y1="184.97166512339345" y2="189.96999836594603" /><path d="M 102.22038585953345 185.97133177190398 a86.0,86.0 0 0,1 -42.740103519485714,-10.115201625700543" fill="none" id="id67" stroke="none" /><text fill="#e1ed5e" style="font-size:6.75px; font-family:Arial;" text-anchor="middle"><textPath startOffset="22.20632615414155" xlink:href="#id67">July</textPath></text><path d="M 100.54218724476979 120.99299961872073 l 0.7475704636388347 28.94525204996346 a49.95490421041001,49.95490421041001 0 0,0 -0.8597960032948886,0.014802167926984716 l -0.2492147704512782 -28.953831695169608" fill="#a1ff22" stroke="none" /><path d="M 99.81925306533755 120.99922214144158 l -0.09939238701631008 11.547431318940403 a32.547859061845294,32.547859061845294 0 0,0 -0.5601956320306238,-0.009644275834621024 l 0.29814770893960185 -11.544009565826622" fill="#ff830c" stroke="none" /><path d="M 99.45781275523022 120.99299961872073 l -0.632348755350312 24.48397174227942 a45.49213623237324,45.49213623237324 0 0,0 -0.7826372847429064,-0.026955610531762986 l 1.0537063917678615 -24.46945933332156" fill="#d5ff1c" stroke="none" /><path d="M 99.09653310690486 120.98055641714683 l -0.5619254856602723 13.049188015887276 a34.061281258950466,34.061281258950466 0 0,0 -0.5855489971240542,-0.03026619477233366 l 0.7864625511978154 -13.037582014352742" fill="#ff970d" stroke="none" /><path d="M 98.73552117531835 120.96189622390904 l -0.6959934292509976 11.537830252044808 a32.558803302183186,32.558803302183186 0 0,0 -0.5591389016781524,-0.03856149231875892 l 0.8944950917080801 -11.524140415209764" fill="#ff830c" stroke="none" /><path d="M 98.01472825383883 120.90594882070398 l -0.4371062115589762 4.602956802127316 a25.623664473384025,25.623664473384025 0 0,0 -0.43873497619734286,-0.045476674161938554 l 0.5162737843619124 -4.594750759509617" fill="#ff2003" stroke="none" /><path d="M 96.22490169976321 120.6578951692458 l -2.727440705467064 14.924958158132803 a36.17212275272823,36.17212275272823 0 0,0 -0.6115369060431699,-0.1172025035132738 l 2.983945226081929 -14.87579845627106" fill="#ffb310" stroke="none" /><path d="M 95.86986931433489 120.58985236759428 l -2.984728549081905 14.87970353970622 a36.17610562500309,36.17610562500309 0 0,0 -0.609495955350404,-0.1277258034618529 l 3.2404159658616956 -14.826121755517827" fill="#ffb310" stroke="none" /><path d="M 94.81253420990036 120.34920634021253 l -2.8560450675968863 11.203592033010585 a32.561897243544536,32.561897243544536 0 0,0 -0.5419378231813828,-0.14313070469842953 l 3.0484733335897585 -11.152769979008573" fill="#ff830c" stroke="none" /><path d="M 94.46302465271185 120.25689768951611 l -4.000910079677369 14.637238034421122 a36.17418922848823,36.17418922848823 0 0,0 -0.5992320453179456,-0.16934896157396861 l 4.252273293099929 -14.566200279508632" fill="#ffb310" stroke="none" /><path d="M 93.76903079525671 120.05430185196036 l -3.434879154150513 11.055118572870336 a32.576443385765785,32.576443385765785 0 0,0 -0.5340654338367894,-0.1709908866840092 l 3.6246659330782425 -10.99435483952662" fill="#ff830c" stroke="none" /><path d="M 93.08242187328487 119.8279376855182 l -2.5894803360949106 7.4222587445276575 a28.861000781181712,28.861000781181712 0 0,0 -0.467658763166015,-0.16768579396950856 l 2.7168586598906526 -7.376585409518191" fill="#ff4f07" stroke="none" /><path d="M 92.7421414339146 119.70592522655815 l -5.242898384110857 14.235075344469786 a36.169883108608445,36.169883108608445 0 0,0 -0.5823864090781021,-0.22020870708924375 l 5.487155013949242 -14.14271838727391" fill="#ffb310" stroke="none" /><path d="M 92.40401165467489 119.57807347666478 l -5.48840358559353 14.145936484285313 a36.173334931246664,36.173334931246664 0 0,0 -0.5785648006040284,-0.23022287437701797 l 5.731089462239416 -14.049366765502228" fill="#ffb310" stroke="none" /><path d="M 92.06813273071674 119.44442032107085 l -7.4611936416624625 18.290596695586892 a40.75386893848895,40.75386893848895 0 0,0 -0.6472656393755203,-0.2705570897537661 l 7.774930740535445 -18.159454562813153" fill="#ffef16" stroke="none" /><path d="M 91.7346041902142 119.30500536409082 l -5.727219424369906 13.376734067337004 a35.55122182646991,35.55122182646991 0 0,0 -0.5604892636857414,-0.2457020219387015 l 5.956629362713391 -13.276167492103852" fill="#ffab0f" stroke="none" /><path d="M 91.40352486487194 119.15986991738527 l -10.945842836068833 24.396153258006063 a47.73918041339411,47.73918041339411 0 0,0 -0.7468499343634819,-0.34284217419019714 l 11.364160766199735 -24.204124013481792" fill="#bbff1f" stroke="none" /><path d="M 90.7491055286396 118.85261126421891 l -5.1019648840204646 10.397411941073521 a32.58171924846032,32.58171924846032 0 0,0 -0.5013645360055875,-0.25139458651023694 l 5.280183327708813 -10.308049513653982" fill="#ff830c" stroke="none" /><path d="M 90.42595943632237 118.69057910512821 l -11.15128124392574 21.769690949906074 a45.459569036177896,45.459569036177896 0 0,0 -0.6933863585482194,-0.36274697132929007 l 11.524358505000455 -21.574514559632068" fill="#d6ff1c" stroke="none" /><line stroke="#e1ed5e" stroke-width="0.3" x1="58.666819895761336" x2="56.23545636021788" y1="174.27360380694188" y2="178.64263932499728" /><path d="M 58.180547188652646 175.14741091055294 a86.0,86.0 0 0,1 -31.652253787137756,-30.449443065178592" fill="none" id="id68" stroke="none" /><text fill="#e1ed5e" style="font-size:6.75px; font-family:Arial;" text-anchor="middle"><textPath startOffset="22.20632615414155" xlink:href="#id68">August</textPath></text><path d="M 89.7882731507175 118.34994917583269 l -8.438208547612122 15.163027788452744 a38.35283190739726,38.35283190739726 0 0,0 -0.5741076191501903,-0.32599328944195205 l 8.697964933683519 -15.01553133321616" fill="#ffd013" stroke="none" /><path d="M 89.4739219176387 118.17145234162733 l -7.606308469806922 13.130975352199435 a36.17492808015661,36.17492808015661 0 0,0 -0.5361333277039192,-0.3167570201214347 l 7.8312096685392225 -12.998099759784251" fill="#ffb310" stroke="none" /><path d="M 89.1626897886671 117.98757091392108 l -8.948060205634414 14.85182802302456 a38.33910542874562,38.33910542874562 0 0,0 -0.5623448537162757,-0.3454381389810195 l 9.202384259282999 -14.695601417215162" fill="#ffd013" stroke="none" /><path d="M 88.8546689885994 117.79835938074946 l -6.276788403832589 10.023617571704058 a32.82670629931519,32.82670629931519 0 0,0 -0.47632832325058244,-0.30401527259312094 l 6.448398529130095 -9.914087870287133" fill="#ff860c" stroke="none" /><path d="M 88.54995079064634 117.60387380957326 l -6.331124591177435 9.73378509890831 a32.611619651915106,32.611619651915106 0 0,0 -0.46793838648529057,-0.3101240466621284 l 6.497737676402687 -9.623363031154863" fill="#ff830c" stroke="none" /><path d="M 87.65650970185807 116.9893568818739 l -14.360667870446898 19.765763622774386 a45.43182746494165,45.43182746494165 0 0,0 -0.6287224706029857,-0.46511385312066095 l 14.698775311468449 -19.515639820913957" fill="#d6ff1c" stroke="none" /><path d="M 87.36589467227662 116.77436683061367 l -9.037414488472402 11.999021845835456 a36.02169717086879,36.02169717086879 0 0,0 -0.49207571758236673,-0.37730267705712284 l 9.242618934548256 -11.841679826950967" fill="#ffb110" stroke="none" /><path d="M 86.51685102203217 116.09983520530335 l -8.932398390337593 10.665916567972756 a34.91220748977894,34.91220748977894 0 0,0 -0.45740731282586883,-0.38981243522994086 l 9.114671179740517 -10.510579742519864" fill="#ffa30f" stroke="none" /><path d="M 85.97065885151581 115.62618273729859 l -7.725929038038054 8.605306385099068 a32.56465639274364,32.56465639274364 0 0,0 -0.41388197441335006,-0.37807137057969525 l 7.8729105619182596 -8.471042247932797" fill="#ff830c" stroke="none" /><path d="M 85.70375840098266 115.38237550388516 l -15.812451655824264 17.013777175089032 a44.227187542433114,44.227187542433114 0 0,0 -0.5531855863368594,-0.5230714999848688 l 16.10297307655194 -16.739071038358233" fill="#e4ff1a" stroke="none" /><path d="M 85.44109423537348 115.13401014063109 l -8.047924925212557 8.365833215648196 a32.608456443209846,32.608456443209846 0 0,0 -0.40116172738357636,-0.3926211835961657 l 8.190736604971928 -8.226061929129461" fill="#ff830c" stroke="none" /><path d="M 85.18274418774928 114.88116024355367 l -8.188309201143838 8.223624056300691 a32.60501616512895,32.60501616512895 0 0,0 -0.3943023583500182,-0.39942620725683414 l 8.328652184549389 -8.081457355063192" fill="#ff830c" stroke="none" /><path d="M 84.9287848128048 114.62390073753433 l -8.37186811252917 8.123390632055594 a32.665232576102,32.665232576102 0 0,0 -0.38808388216286227,-0.40690439890884617 l 8.51045854607099 -7.978079116564247" fill="#ff840c" stroke="none" /><path d="M 84.67929136418377 114.36230785411682 l -4.422637484294186 4.14597539751501 a27.062081681591213,27.062081681591213 0 0,0 -0.31566448166755956,-0.34259145035783595 l 4.493348373957474 -4.06923269235583" fill="#ff3505" stroke="none" /><path d="M 84.43433777217949 114.09645910891817 l -18.103341312557127 16.39461314348349 a45.42364237380287,45.42364237380287 0 0,0 -0.5198652600610604,-0.5840741307323898 l 18.382865422266526 -16.080564843010233" fill="#d6ff1c" stroke="none" /><path d="M 84.19399662182784 113.82643327865904 l -8.901482618405057 7.786646159679191 a32.826590853742005,32.826590853742005 0 0,0 -0.3683729533304604,-0.42850096711739694 l 9.034198081306295 -7.632268093400263" fill="#ff860c" stroke="none" /><path d="M 83.72743513129214 113.27417163493432 l -8.994867706404943 7.337467616918362 a32.60801775003175,32.60801775003175 0 0,0 -0.3510518446037778,-0.4379911528319057 l 9.119837463063583 -7.181548630508197" fill="#ff830c" stroke="none" /><path d="M 83.50135304334701 112.99209946851258 l -18.15224032100757 14.29424560974533 a44.104745967513615,44.104745967513615 0 0,0 -0.4645556731591856,-0.6005008302931868 l 18.395602811384826 -13.97966678533889" fill="#e6ff1a" stroke="none" /><path d="M 83.28015986056508 112.70617746262583 l -13.986135949898635 10.628709599721633 a38.56648702968985,38.56648702968985 0 0,0 -0.39712230015812217,-0.532010217860594 l 14.167019516751843 -10.386386502351732" fill="#ffd313" stroke="none" /><path d="M 83.06392112726016 112.41649034213515 l -20.180939668231055 14.795422504150507 a46.023486027512334,46.023486027512334 0 0,0 -0.4629090606823564,-0.6429401981172006 l 20.43262852128902 -14.445848700582168" fill="#cfff1d" stroke="none" /><path d="M 82.6465618267979 111.8261652097733 l -14.322528177006376 9.760635486313895 a38.33219023891186,38.33219023891186 0 0,0 -0.36688815242030465,-0.5484480078301415 l 14.488419434837411 -9.512650564277932" fill="#ffd013" stroke="none" /><path d="M 82.24976979558568 111.22182372390057 l -20.599515304023377 13.023162340849748 a45.37094146964414,45.37094146964414 0 0,0 -0.4116556515010823,-0.6637199842326929 l 20.820635595192414 -12.66664602525179" fill="#d7ff1c" stroke="none" /><path d="M 82.05923443525364 110.91462005526583 l -25.661855768910662 15.611898200212124 a51.03767978586495,51.03767978586495 0 0,0 -0.450150207444379,-0.7544776402683366 l 25.926786852053272 -15.167858466057677" fill="#95ff23" stroke="none" /><line stroke="#e1ed5e" stroke-width="0.3" x1="26.63291911575756" x2="22.317208475507996" y1="142.92168965132927" y2="145.44649492493687" /><path d="M 25.769776987707644 143.4266507060508 a86.0,86.0 0 0,1 -11.730757126820373,-40.83630448921669" fill="none" id="id69" stroke="none" /><text fill="#e1ed5e" style="font-size:6.75px; font-family:Arial;" text-anchor="middle"><textPath startOffset="21.46611528233685" xlink:href="#id69">September</textPath></text><path d="M 81.87401531095188 110.60418214915194 l -42.05367473871463 24.602515925105195 a69.72161069663707,69.72161069663707 0 0,0 -0.597109167087202,-1.041110163298027 l 42.47093590195421 -23.87498591594886" fill="#3bff9a" stroke="none" /><path d="M 81.69416730710424 110.29060199501025 l -21.238688259316692 11.93930325046316 a45.364499606660445,45.364499606660445 0 0,0 -0.37679232880137997,-0.6839875235047181 l 21.44105699756959 -11.571945208560619" fill="#d7ff1c" stroke="none" /><path d="M 81.51974371655577 109.97397251340807 l -5.0863097212732695 2.7451304016875335 a26.779817255155056,26.779817255155056 0 0,0 -0.2154468074025887,-0.4075441663564298 l 5.132809036900744 -2.6571712202449773" fill="#ff3104" stroke="none" /><path d="M 81.35079622478065 109.6543875284942 l -15.679122879271096 8.116825265457342 a38.655530200287075,38.655530200287075 0 0,0 -0.300816103116574,-0.5935387098801064 l 15.816517652173937 -7.84573234387455" fill="#ffd413" stroke="none" /><path d="M 81.18737489456691 109.33194174019688 l -17.685215584255438 8.772693899451113 a40.74150471760089,40.74150471760089 0 0,0 -0.30623399239473165,-0.6309327278455362 l 17.83360283326489 -8.466972215640293" fill="#ffee16" stroke="none" /><path d="M 80.87730276802145 108.67885076344099 l -6.349776767875608 2.8818510422996035 a27.973143511491507,27.973143511491507 0 0,0 -0.19522445570002056,-0.44017960985242477 l 6.398442308306908 -2.772123095954483" fill="#ff4206" stroke="none" /><path d="M 80.73074385275274 108.34839909993369 l -15.445336987190728 6.691687339495773 a37.83262053565784,37.83262053565784 0 0,0 -0.253747022922438,-0.5997830065298145 l 15.558234991305472 -6.424829807299799" fill="#ffc912" stroke="none" /><path d="M 80.58989483394504 108.01547362559985 l -22.502253226343974 9.292387429603407 a45.34542799797036,45.34542799797036 0 0,0 -0.2917166084716976,-0.7240166987218102 l 22.65887244907306 -8.903671363038791" fill="#d7ff1c" stroke="none" /><path d="M 80.45479744820244 107.68017299344265 l -28.612069524360418 11.242945324569508 a51.74173615848808,51.74173615848808 0 0,0 -0.3185953556693277,-0.8317519399162968 l 28.801359159623253 -10.748769817820053" fill="#8dff24" stroke="none" /><path d="M 80.32549172779594 107.34259656027581 l -11.076326802998027 4.133724612527412 a32.82255025868054,32.82255025868054 0 0,0 -0.19298993566113062,-0.5310254170601978 l 11.145840999664381 -3.942451398461097" fill="#ff860c" stroke="none" /><path d="M 80.20201598880116 107.00284435728193 l -11.148398683277891 3.94335608957765 a32.82526322965038,32.82526322965038 0 0,0 -0.18383580630995136,-0.5343129047701756 l 11.214625320531072 -3.7508704817181773" fill="#ff860c" stroke="none" /><path d="M 79.97269907076064 106.31721596034903 l -27.916225834825497 8.805621287639255 a50.27207937817715,50.27207937817715 0 0,0 -0.2532114327932288,-0.8275096130837268 l 28.06366404012486 -8.323784702003481" fill="#9eff22" stroke="none" /><path d="M 79.86692584326677 105.97154293290107 l -17.102862430223382 5.072771126878488 a38.83930800823951,38.83930800823951 0 0,0 -0.18459280559384797,-0.6425917725732047 l 17.187647872703334 -4.777621878800686" fill="#ffd614" stroke="none" /><path d="M 79.76711848015287 105.62410040840567 l -12.426059757927964 3.454051153854827 a33.89718692122599,33.89718692122599 0 0,0 -0.1514266815086971,-0.5635150140020729 l 12.483674515778437 -3.2396452066772152" fill="#ff950d" stroke="none" /><path d="M 79.67330655649465 105.27499134158121 l -12.261147250978745 3.181897034386105 a33.66728860678633,33.66728860678633 0 0,0 -0.14074319133517724,-0.5621990874939683 l 12.31410175660898 -2.970370107494745" fill="#ff920d" stroke="none" /><path d="M 79.50377843672027 104.57218783832718 l -22.829754809118224 5.092739994441146 a44.39088936520878,44.39088936520878 0 0,0 -0.15994663408073914,-0.7472174254489183 l 22.914035481923406 -4.699008749576064" fill="#e2ff1b" stroke="none" /><path d="M 79.35854240842038 103.8639653848113 l -17.109948995105857 3.2028867321823897 a38.407149049580575,38.407149049580575 0 0,0 -0.1160509641335683,-0.6508754373590667 l 17.162546401578613 -2.9078925440901093" fill="#ffd113" stroke="none" /><path d="M 79.29508885075956 103.50808413554451 l -11.49836645255863 1.9481965725980865 a32.66224253575652,32.66224253575652 0 0,0 -0.08914964003693283,-0.5551348936099666 l 11.530197846956852 -1.749982449294906" fill="#ff840c" stroke="none" /><path d="M 79.23777060512086 103.15116336523772 l -11.688838880139437 1.7740600087169074 a32.82270033792568,32.82270033792568 0 0,0 -0.07997164814227446,-0.5593215208455782 l 11.71764457929831 -1.5725930158909287" fill="#ff860c" stroke="none" /><path d="M 79.18660465613746 102.79330883721812 l -27.706589166600427 3.718425518259257 a48.954995467386894,48.954995467386894 0 0,0 -0.10490004337427625,-0.8361565577662887 l 27.76649071922155 -3.2409512062055597" fill="#adff20" stroke="none" /><path d="M 79.1416061653843 102.43462659150553 l -15.070514311421617 1.7590556195827896 a36.17282697072466,36.17282697072466 0 0,0 -0.06686409005734326,-0.6190784314811332 l 15.098560702980013 -1.4993808662168744" fill="#ffb310" stroke="none" /><path d="M 79.10278846688536 102.07522291339032 l -24.2442894527236 2.4076085420024596 a45.36354140840301,45.36354140840301 0 0,0 -0.07047637394051232,-0.7777009137320415 l 24.28214042294119 -1.989926239721852" fill="#d7ff1c" stroke="none" /><path d="M 79.04373962182676 101.35467743843564 l -15.833388286148931 1.0235191536166077 a36.86643551897458,36.86643551897458 0 0,0 -0.03548596150514252,-0.6336256807949409 l 15.848660598541606 -0.7508217564862293" fill="#ffbd11" stroke="none" /><path d="M 79.0235259727143 100.99374915477108 l -34.59818196855754 1.6390702290168904 a55.63698524330704,55.63698524330704 0 0,0 -0.037085672761690947,-0.9570164274966193 l 34.62126977417043 -1.0432765545062743" fill="#63ff29" stroke="none" /><path d="M 79.0095281055655 100.63252640178507 l -21.608402444547487 0.6511471069022231 a42.61821104440312,42.61821104440312 0 0,0 -0.01578484638002335,-0.7334597859168046 l 21.616409353612518 -0.2790975051952896" fill="#f8ff18" stroke="none" /><line stroke="#e1ed5e" stroke-width="0.3" x1="15.007084014347285" x2="10.007500721073583" y1="101.09737516637583" y2="101.16192664675087" /><path d="M 14.007167355692545 101.11028546245083 a86.0,86.0 0 0,1 10.666146001902534,-42.60595125391555" fill="none" id="id70" stroke="none" /><text fill="#e1ed5e" style="font-size:6.75px; font-family:Arial;" text-anchor="middle"><textPath startOffset="22.20632615414155" xlink:href="#id70">October</textPath></text><path d="M 79.00175016825051 100.2711162175752 l -23.77382648749758 0.3069527206421726 a44.775807995320605,44.775807995320605 0 0,0 -0.003317040279191091,-0.7707633426704995 l 23.775587825066275 0.10232010023200226" fill="#deff1b" stroke="none" /><path d="M 79.01574976396665 99.18683210126434 l -24.347922282962152 -0.9435147112102837 a45.366196656586254,45.366196656586254 0 0,0 0.036954853950652435,-0.7800585594023655 l 24.328073820778002 1.3624843772356583" fill="#d7ff1c" stroke="none" /><path d="M 79.05617556472873 98.46500227214037 l -30.454442630163328 -2.2320422129687687 a51.53612759264645,51.53612759264645 0 0,0 0.07245860805319741,-0.8841785491730817 l 30.411509538290634 2.755934679349629" fill="#8fff24" stroke="none" /><path d="M 79.21141760316559 97.0276538004421 l -11.455520433787555 -1.6379073847051389 a32.57202182031281,32.57202182031281 0 0,0 0.0841352486913534,-0.5543461671316164 l 11.4256292916569 1.8348526642288474" fill="#ff830c" stroke="none" /><path d="M 79.26566170972629 96.67025291283419 l -11.424899786874112 -1.8347355123626266 a32.57128296864443,32.57128296864443 0 0,0 0.09366281649402387,-0.5528032448957859 l 11.391625108859866 2.0311245455742406" fill="#ff830c" stroke="none" /><path d="M 79.32604984820605 96.31383870115002 l -11.509335670162914 -2.0521123158046697 a32.690849948791644,32.690849948791644 0 0,0 0.10354324852929589,-0.5531321739612954 l 11.472306697723756 2.249922567228538" fill="#ff850c" stroke="none" /><path d="M 79.46518482838121 95.60439243477599 l -10.398262015022746 -2.2258140039938956 a31.63381873615684,31.63381873615684 0 0,0 0.1185599569093168,-0.5314810395531263 l 10.358407671111392 2.404473213096981" fill="#ff760a" stroke="none" /><path d="M 79.54389044137918 95.25157060432595 l -48.590270401778525 -11.279147076249412 a70.8821965884184,70.8821965884184 0 0,0 0.2861183483886979,-1.1861452711234355 l 48.38891925312901 12.113877579032245" fill="#3cffa7" stroke="none" /><path d="M 79.71946130924805 94.55025226153421 l -22.57540135252607 -6.066418863025023 a44.37627395564361,44.37627395564361 0 0,0 0.204581447232274,-0.7359883150064305 l 22.467633134727436 6.454118481450395" fill="#e3ff1b" stroke="none" /><path d="M 79.81627453868168 94.20196356495316 l -23.530013313502813 -6.759300941260215 a45.481619140656136,45.481619140656136 0 0,0 0.2226305827367031,-0.7505996493970256 l 23.410176833654404 7.16332997740378" fill="#d5ff1c" stroke="none" /><path d="M 80.2630227832202 92.82701384747504 l -10.850298083559688 -3.9433109259493766 a32.54463813035345,32.54463813035345 0 0,0 0.19588061564531645,-0.5248626642144469 l 10.780812879412744 4.129496727193165" fill="#ff830c" stroke="none" /><path d="M 80.38941819471856 92.48833698450439 l -3.2374231032872847 -1.240066798218338 a24.466795929059245,24.466795929059245 0 0,0 0.15403182074047686,-0.39199418273067943 l 3.215597732665117 1.2956099858447807" fill="#ff0f01" stroke="none" /><path d="M 81.10775173730289 90.83032412892265 l -56.676744788091334 -27.50902761323202 a84.0,84.0 0 0,0 0.6425599481863489,-1.295361646004154 l 56.19482482695157 28.480548847735136" fill="#4dd2ff" stroke="none" /><line stroke="#e1ed5e" stroke-width="0.3" x1="26.266209847984243" x2="21.928928074336255" y1="57.711370442889674" y2="55.22380399835377" /><path d="M 25.398753493254645 57.213857153982495 a86.0,86.0 0 0,1 29.58750427330803,-30.492523968695096" fill="none" id="id71" stroke="none" /><text fill="#e1ed5e" style="font-size:6.75px; font-family:Arial;" text-anchor="middle"><textPath startOffset="21.46611528233685" xlink:href="#id71">November</textPath></text><path d="M 81.96595687620814 89.24020034530311 l -5.158488274421003 -3.0777513380040467 a27.006875608494376,27.006875608494376 0 0,0 0.24162691735644787,-0.3971711206138507 l 5.104745558778339 3.1660902318249717" fill="#ff3405" stroke="none" /><path d="M 82.15384107792192 88.93136811851018 l -9.82142642176797 -6.091493081976253 a32.55710625225738,32.55710625225738 0 0,0 0.29948259400115024,-0.4737095428093077 l 9.715116231520858 6.259650272499777" fill="#ff830c" stroke="none" /><line stroke="#e1ed5e" stroke-width="0.3" x1="56.762969772571076" x2="54.21961505331055" y1="26.818313649435495" y2="22.513508569990535" /><path d="M 56.25429882871897 25.957352633546506 a86.0,86.0 0 0,1 42.265352541879196,-11.944610805530505" fill="none" id="id72" stroke="none" /><text fill="#e1ed5e" style="font-size:6.75px; font-family:Arial;" text-anchor="middle"><textPath startOffset="22.20632615414155" xlink:href="#id72">December</textPath></text></svg>