<?xml version="1.0" encoding="utf-8" ?>
<svg baseProfile="full" height="200mm" version="1.1" viewBox="0,0,200,200" width="200mm" xmlns="http://www.w3.org/2000/svg" xmlns:ev="http://www.w3.org/2001/xml-events" xmlns:xlink="http://www.w3.org/1999/xlink"><defs /><rect fill="#1a1a1a" height="200" width="200" x="0" y="0" /><text alignment-baseline="middle" fill="#e1ed5e" style="dominant-baseline: central; font-size:9.0px; font-family:Arial;" text-anchor="middle" x="100.0" y="100.0">2022</text><line stroke="#e1ed5e" stroke-width="0.3" x1="100.0" x2="100.0" y1="15.0" y2="10.0" /><path d="M 100.0 14.0 a86.0,86.0 0 0,1 42.46469731375804,11.215312516191453" fill="none" id="id73" stroke="none" /><text fill="#e1ed5e" style="font-size:6.75px; font-family:Arial;" text-anchor="middle"><textPath startOffset="22.20632615414155" xlink:href="#id73">January</textPath></text><path d="M 100.0 79.0 l 0.0 -30.145479124360094 a51.145479124360094,51.145479124360094 0 0,0 0.8803853479284182,0.007577754637193806 l -0.5189048686558898 30.14101274633146" fill="#a1ff22" stroke="none" /><path d="M 100.36148047927253 79.00311137660856 l 0.33721117577341203 -19.587186324767323 a40.590088807818574,40.590088807818574 0 0,0 0.6984846176295493,0.018039796943021536 l -0.6743224285978291 19.578479735681945" fill="#ffd814" stroke="none" /><path d="M 101.08401301168833 79.027996857942 l 1.1970308693825793 -23.158518286355868 a44.189434062126956,44.189434062126956 0 0,0 0.7592964214245217,0.045802833688911075 l -1.595489339646713 23.134482183286654" fill="#f7ff19" stroke="none" /><path d="M 101.44485096284872 79.0497635885617 l 1.6043888402074484 -23.26352430976559 a44.31878270539946,44.31878270539946 0 0,0 0.7606154325021223,0.059038396490950606 l -2.004594462071912 23.232460651086175" fill="#f5ff19" stroke="none" /><path d="M 101.80526077348638 79.07773832637324 l 2.073378472411414 -24.029640252183498 a45.11892429067301,45.11892429067301 0 0,0 0.7731984354728972,0.07342450808069757 l -2.4867020349745554 23.990390199587623" fill="#ebff1a" stroke="none" /><path d="M 102.16513564639614 79.11191278185805 l 1.6915037189577218 -16.318736089450525 a37.406167510676674,37.406167510676674 0 0,0 0.639882898282276,0.07189829932797395 l -1.972153320749723 16.287201836651953" fill="#ffad10" stroke="none" /><path d="M 102.52436894288641 79.15227682838746 l 7.569593339345963 -62.514153054000715 a83.97077159589278,83.97077159589278 0 0,0 1.4334421358552034,0.18610192929876815 l -8.644550203709013 62.37459280153781" fill="#4dd2ff" stroke="none" /><path d="M 102.88285421437855 79.19881850522331 l 2.0512200895023764 -14.800540781653309 a35.942004928554965,35.942004928554965 0 0,0 0.6120940889541615,0.09020675762135646 l -2.3056831588851936 14.763039539870984" fill="#ff990e" stroke="none" /><path d="M 103.2404852339499 79.25152402106235 l 2.790795066021777 -17.86915853923182 a39.08577794845256,39.08577794845256 0 0,0 0.6638454975978201,0.10954019515135445 l -3.097969769758472 17.81847208114084" fill="#ffc412" stroke="none" /><path d="M 103.59715602781102 79.31037775812273 l 3.8824565160205284 -22.330573949515514 a43.6655686342428,43.6655686342428 0 0,0 0.7394137736263278,0.13512314091631228 l -4.2662654107497575 22.260435327248462" fill="#feff18" stroke="none" /><path d="M 103.95276090670814 79.375362276772 l 8.04637162239434 -41.98419879550779 a63.74829873557999,63.74829873557999 0 0,0 1.0759304005339967,0.2158215165194305 l -8.767868432395462 41.83947332291115" fill="#32ff4c" stroke="none" /><path d="M 104.307194497241 79.44645832069477 l 3.060008035523572 -14.602080945596889 a35.919263290096886,35.919263290096886 0 0,0 0.604054722568705,0.13202296592076146 l -3.310905482245805 14.547244481580258" fill="#ff980e" stroke="none" /><path d="M 104.66035177308747 79.52364482259891 l 5.044396070255559 -22.163744416574183 a43.7305410907183,43.7305410907183 0 0,0 0.7325413577155594,0.1733688719092388 l -5.425161114933641 22.073629632524074" fill="#fdff18" stroke="none" /><path d="M 105.01212808612495 79.60689891045804 l 10.688153881649809 -43.487436638432115 a65.78162322626854,65.78162322626854 0 0,0 1.0972722811444082,0.2797191362501997 l -11.435135051479243 43.29701450601305" fill="#35ff65" stroke="none" /><path d="M 105.36241919743992 79.69619591428918 l 12.11338837691083 -45.86509471999917 a68.43776018789646,68.43776018789646 0 0,0 1.136399592110523,0.31062093626709414 l -12.901085858245064 45.64978724290578" fill="#38ff85" stroke="none" /><path d="M 105.71112130821622 79.79150937346287 l 5.327684458103842 -18.851720287896736 a40.590088807818574,40.590088807818574 0 0,0 0.6707218037994229,0.19580208693191675 l -5.651396479626691 18.757219872046115" fill="#ffd814" stroke="none" /><path d="M 106.0581310904928 79.89281104454417 l 4.306441231226557 -14.293257486244768 a35.92791497986575,35.92791497986575 0 0,0 0.5906115132883504,0.1835058721282223 l -4.551838117225627 14.217011479234024" fill="#ff980e" stroke="none" /><path d="M 106.40334571778207 80.00007090966166 l 9.603853981953163 -29.996256191451806 a52.49618067020013,52.49618067020013 0 0,0 0.8582305043212032,0.2829451038416298 l -10.118767308516784 29.82649736335094" fill="#92ff23" stroke="none" /><path d="M 106.74666289553966 80.11325718540242 l 5.8071605015947085 -17.117426669509918 a39.075657909944276,39.075657909944276 0 0,0 0.6351059641776795,0.22157600026908794 l -6.100948469835662 17.014929816068623" fill="#ffc412" stroke="none" /><path d="M 107.08798089147638 80.2323363322302 l 5.166334321222445 -14.40838523986325 a36.30661868405136,36.30661868405136 0 0,0 0.5864688928126582,0.2160014426374863 l -5.41358553980768 14.317320529419439" fill="#ff9e0e" stroke="none" /><path d="M 108.09893153111575 80.62456947434976 l 6.359635215792993 -15.21443536331518 a37.4901183592614,37.4901183592614 0 0,0 0.5932654882450505,0.25400532080412164 l -6.620584461828359 15.102710514548269" fill="#ffae10" stroke="none" /><path d="M 108.43124777332544 80.76684994638697 l 6.050762251078095 -13.802846440109057 a36.07084250028189,36.07084250028189 0 0,0 0.566514707550543,0.2541786357705701 l -6.287459077095418 13.696647473821956" fill="#ff9a0e" stroke="none" /><path d="M 108.76106565485865 80.91482961587045 l 6.257058115496002 -13.630421793656613 a35.99797234741028,35.99797234741028 0 0,0 0.5609200429098667,0.263359481262813 l -6.490756369705466 13.520697329753796" fill="#ff990e" stroke="none" /><path d="M 109.08828744355905 81.06846463323043 l 6.467194777156088 -13.471616892386898 a35.943529368289106,35.943529368289106 0 0,0 0.5554622878601999,0.27256293230676965 l -6.69812833202672 13.358298799945297" fill="#ff990e" stroke="none" /><path d="M 109.41281617654863 81.2277094730956 l 6.780394319781292 -13.522364579372622 a36.127064849110475,36.127064849110475 0 0,0 0.5535002014001054,0.2835243012215917 l -7.012155008770153 13.403647752838529" fill="#ff9b0e" stroke="none" /><path d="M 109.73455568895987 81.39251694778311 l 6.9348154684851036 -13.255814176134828 a35.960223095066375,35.960223095066375 0 0,0 0.5460045362766162,0.2916567139444161 l -7.161965051290031 13.134478735688658" fill="#ff990e" stroke="none" /><path d="M 110.05341064243156 81.56283822128135 l 7.210162902484087 -13.222869791366902 a36.060900856183906,36.060900856183906 0 0,0 0.5424176146109582,0.3018548152679074 l -7.43670460616708 13.096799578538814" fill="#ff9a0e" stroke="none" /><path d="M 110.36928655335952 81.73862282372117 l 7.435476575895751 -13.094636891274533 a36.058413834963574,36.058413834963574 0 0,0 0.5371042699854294,0.3111254608573581 l -7.6597775783465085 12.964707273027125" fill="#ff9a0e" stroke="none" /><line stroke="#e1ed5e" stroke-width="0.3" x1="143.23703022742887" x2="145.7803849466894" y1="26.81831364943548" y2="22.513508569990506" /><path d="M 143.74570117128098 25.957352633546492 a86.0,86.0 0 0,1 28.547481713284135,27.462654790039103" fill="none" id="id74" stroke="none" /><text fill="#e1ed5e" style="font-size:6.75px; font-family:Arial;" text-anchor="middle"><textPath startOffset="19.985693538727396" xlink:href="#id74">February</textPath></text><path d="M 110.68208982089419 81.91981866633111 l 15.334129319062159 -25.954082331369538 a51.145479124360094,51.145479124360094 0 0,0 0.7541228799226578,0.4543505972149059 l -15.778614265202455 25.686285124696017" fill="#a1ff22" stroke="none" /><path d="M 110.99172775467656 82.1063720568725 l 7.861873579831918 -12.798482996775768 a36.02032700056885,36.02032700056885 0 0,0 0.525520872298216,0.3290811220217654 l -8.081013604502397 12.661257533431058" fill="#ff9a0e" stroke="none" /><path d="M 111.2981086023043 82.29822771554956 l 8.21544945149671 -12.871890377752912 a36.27020535510199,36.27020535510199 0 0,0 0.5233842001986422,0.3404236426878786 l -8.435800677479632 12.728567810905504" fill="#ff9d0e" stroke="none" /><path d="M 111.60114157652 82.49532879139004 l 10.822256845528734 -16.32943159658734 a40.590088807818574,40.590088807818574 0 0,0 0.5790761933544767,0.3909948306933701 l -11.101737733289752 16.1407248535953" fill="#ffd814" stroke="none" /><path d="M 111.90073688211348 82.69761687909136 l 9.29750345602202 -13.51756353052788 a37.40634311224164,37.40634311224164 0 0,0 0.5273739703611586,0.3694591684881798 l -9.52880856596683 13.355519519275765" fill="#ffad10" stroke="none" /><path d="M 112.19680574252982 82.90503203632743 l 8.669259915220364 -12.150781413421416 a35.92640467207003,35.92640467207003 0 0,0 0.5003259672817146,0.36350809309558224 l -8.877131198855867 11.99975408550916" fill="#ff980e" stroke="none" /><path d="M 112.48926042617603 83.11751280151076 l 2.7383553675453056 -3.701600243726581 a25.604392954920428,25.604392954920428 0 0,0 0.35206509268643027,0.2651681287365976 l -2.8016666139901187 3.6539155254841362" fill="#ff0000" stroke="none" /><path d="M 112.77801427241765 83.33499621200491 l 9.168832592814233 -11.957932322909514 a36.06849815191735,36.06849815191735 0 0,0 0.4894451313137475,0.3820196884404106 l -9.373310279287411 11.79833424524588" fill="#ff9a0e" stroke="none" /><path d="M 113.06298171725822 83.55741782278167 l 10.941652487319098 -13.772431445695274 a38.5897591535425,38.5897591535425 0 0,0 0.5165452451559818,0.41767699826885485 l -11.177101131039572 13.582048350162289" fill="#ffbd11" stroke="none" /><path d="M 113.34407831869373 83.78471172551755 l 14.57754846652481 -17.71416092401044 a43.9411511597744,43.9411511597744 0 0,0 0.5799028029176959,0.4856519203317557 l -14.880308806401622 17.460607846284866" fill="#faff18" stroke="none" /><path d="M 113.6212207817346 84.01681056812373 l 9.895781536531187 -11.611745629065394 a36.256445482905605,36.256445482905605 0 0,0 0.4715171476384303,0.40889502402491806 l -10.094192482816382 11.439685611620806" fill="#ff9d0e" stroke="none" /><path d="M 113.89432698308785 84.25364557470407 l 25.669478667504805 -29.091060653970256 a59.79706103604319,59.79706103604319 0 0,0 0.7659405901308363,0.6876690244232025 l -26.166430245231634 28.644892620777753" fill="#41ff2d" stroke="none" /><path d="M 114.16331599549186 84.49514656593476 l 16.259820893147314 -17.799937521174105 a45.10849541624138,45.10849541624138 0 0,0 0.5687797123855718,0.528618754810005 l -16.563808489327734 17.51741418028946" fill="#ebff1a" stroke="none" /><path d="M 114.42810811169701 84.74124197986012 l 13.45942472556914 -14.234305938645434 a40.590088807818574,40.590088807818574 0 0,0 0.5035427751284182,0.48440775071712033 l -13.702450744309976 14.000515101166012" fill="#ffd814" stroke="none" /><path d="M 114.68862486808459 84.99185889309783 l 16.226522778054367 -16.579492342849846 a44.1986984077412,44.1986984077412 0 0,0 0.5391487719649933,0.5368334957972601 l -16.509507350186684 16.29772299640247" fill="#f7ff19" stroke="none" /><path d="M 114.94478906791727 85.2469230424477 l 12.864230355624303 -12.699207702009724 a39.07645703398066,39.07645703398066 0 0,0 0.4684257468249021,0.48275390788867456 l -13.080920366152313 12.475889598570937" fill="#ffc412" stroke="none" /><path d="M 115.4437574822437 85.77008943001954 l 25.888933797531834 -23.854117957665665 a56.203065728871024,56.203065728871024 0 0,0 0.649430062665976,0.7171168956646344 l -26.295707500813844 23.40494827473148" fill="#68ff28" stroke="none" /><path d="M 115.9244219780498 86.31012108654704 l 23.861633891668074 -20.513327209260893 a52.46703298968948,52.46703298968948 0 0,0 0.5828572351578971,0.6899191237912938 l -24.21120174031309 20.099549135840494" fill="#92ff23" stroke="none" /><path d="M 116.15771136456269 86.58626213691792 l 11.479049582537455 -9.52962697150188 a35.919194667753665,35.919194667753665 0 0,0 0.3908376259515584,0.47912071625552827 l -11.641385700565422 9.33062208563825" fill="#ff980e" stroke="none" /><path d="M 116.38621287248628 86.86637796730983 l 25.857335928857754 -20.72476901799151 a54.137861611559956,54.137861611559956 0 0,0 0.576557706418765,0.7321697368000403 l -26.210247715870484 20.27660688723843" fill="#7fff26" stroke="none" /><path d="M 116.60985879189232 87.15038557335679 l 24.948688778537868 -19.30064760159281 a52.542860834255535,52.542860834255535 0 0,0 0.5472565635194188,0.7201254888982342 l -25.277221282281403 18.868337336813543" fill="#91ff24" stroke="none" /><path d="M 116.82858285166822 87.43820079747576 l 11.955869462614864 -8.924532315332266 a35.91945346366604,35.91945346366604 0 0,0 0.3655871496791597,0.4986604613072714 l -12.10771922480765 8.717409410353502" fill="#ff980e" stroke="none" /><path d="M 117.04232023915458 87.72973835380427 l 12.125116645387777 -8.729935339891936 a35.940891027745096,35.940891027745096 0 0,0 0.35716239954734547,0.5051808850406274 l -12.273591664739007 8.519927954519515" fill="#ff990e" stroke="none" /><path d="M 117.2510076193507 88.02491185347247 l 26.55565000835679 -18.434068122588677 a53.32672910943172,53.32672910943172 0 0,0 0.516953208218632,0.758565044385381 l -26.869027682244155 17.97422505493289" fill="#88ff25" stroke="none" /><path d="M 117.45458315368197 88.32363383020206 l 26.198929326713998 -17.52595804677469 a52.520518766724976,52.520518766724976 0 0,0 0.4962022683840706,0.7557500972298028 l -26.496728230455997 17.072389885567215" fill="#91ff23" stroke="none" /><path d="M 117.65298651832404 88.62581576622439 l 13.799561077653605 -8.891342543061816 a37.41596351585716,37.41596351585716 0 0,0 0.3441776957681786,0.5444064602528378 l -13.95056636966774 8.65248843509477" fill="#ffad10" stroke="none" /><line stroke="#e1ed5e" stroke-width="0.3" x1="172.23445277983987" x2="176.4835382374775" y1="55.19839476539836" y2="52.563006222186495" /><path d="M 173.08426987136738 54.67131705675599 a86.0,86.0 0 0,1 12.851231095245387,41.99856678651699" fill="none" id="id75" stroke="none" /><text fill="#e1ed5e" style="font-size:6.75px; font-family:Arial;" text-anchor="middle"><textPath startOffset="22.20632615414155" xlink:href="#id75">March</textPath></text><path d="M 117.84615892207809 88.93136811851018 l 12.830649905760625 -7.957888374032209 a36.09813115513811,36.09813115513811 0 0,0 0.3229651693067768,0.5308698203668635 l -12.965730873353625 7.735850780458264" fill="#ff9b0e" stroke="none" /><path d="M 118.03404312379186 89.2402003453031 l 13.120040793541742 -7.827917978842965 a36.27781955344716,36.27781955344716 0 0,0 0.31534119003776045,0.5390203131231395 l -13.25284165804983 7.60091825336593" fill="#ff9d0e" stroke="none" /><path d="M 118.21658344932153 89.55222093294921 l 13.020352237121028 -7.467578315498429 a36.009806736823926,36.009806736823926 0 0,0 0.30375533818879175,0.5403468527063985 l -13.146965216602252 7.242347952857236" fill="#ff9a0e" stroke="none" /><path d="M 118.3937258080291 89.86733742301442 l 27.58071278872656 -15.193553456088102 a52.48872472103676,52.48872472103676 0 0,0 0.42913756747397885,0.7951267378280704 l -27.838158455419006 14.716545734927571" fill="#92ff23" stroke="none" /><path d="M 118.56541770881063 90.18545643968196 l 28.06416628926483 -14.836023990954113 a52.7443701681365,52.7443701681365 0 0,0 0.417410322659774,0.8063038843414065 l -28.31538604508472 14.350747384352362" fill="#8fff24" stroke="none" /><path d="M 118.73160827565052 90.50648371742162 l 56.19482482695156 -28.480548847735175 a84.0,84.0 0 0,0 0.6425599481863675,1.2953616460042006 l -56.676744788091334 27.509027613232025" fill="#4dd2ff" stroke="none" /><path d="M 118.89224826269711 90.83032412892265 l 13.741575202499059 -6.6697085922669 a36.27468172341722,36.27468172341722 0 0,0 0.2678139129625734,0.5640844017622556 l -13.854347309303389 6.432181774864104" fill="#ff9d0e" stroke="none" /><path d="M 119.04729006885535 91.15688171328212 l 17.768481142721768 -8.24940345594513 a40.590088807818574,40.590088807818574 0 0,0 0.2887650105780989,0.6362554235561899 l -17.907848470263215 7.942326023546878" fill="#ffd814" stroke="none" /><path d="M 119.196687751892 91.48605970444005 l 22.146702337099725 -9.822303924437229 a45.22713517509062,45.22713517509062 0 0,0 0.3095028329457809,0.7143752107369004 l -22.312495879888186 9.439629569113725" fill="#eaff1a" stroke="none" /><path d="M 119.34039704204932 91.81776055985345 l 21.157920921240432 -8.951169650596343 a43.97348593102972,43.97348593102972 0 0,0 0.2889232100236672,0.6996504702557589 l -21.308865818150295 8.58564460988728" fill="#faff18" stroke="none" /><path d="M 119.47837535516314 92.15188598940014 l 18.170623954270017 -7.321202401977918 a40.590088807818574,40.590088807818574 0 0,0 0.2555367405365817,0.6503131319409069 l -18.2939542446883 7.007340265141226" fill="#ffd814" stroke="none" /><path d="M 119.61058180528143 92.48833698450437 l 42.656030868563846 -16.339022097597216 a66.67822908745086,66.67822908745086 0 0,0 0.40132486683291674,1.075351116941777 l -42.93096032389839 15.602347843626106" fill="#36ff70" stroke="none" /><path d="M 119.7369772167798 92.82701384747503 l 14.161537795873238 -5.146710835836447 a36.06777306610577,36.06777306610577 0 0,0 0.2070409011985705,0.5853325081159557 l -14.248031777881618 4.902180701293877" fill="#ff9a0e" stroke="none" /><path d="M 119.85752413597 93.16781622104841 l 18.524317206050142 -6.3734803324285245 a40.590088807818574,40.590088807818574 0 0,0 0.22162711565469834,0.6626368665758168 l -18.63128161547661 6.053670362930394" fill="#ffd814" stroke="none" /><path d="M 119.97218684219823 93.5106431181261 l 18.63128161547661 -6.053670362930394 a40.590088807818574,40.590088807818574 0 0,0 0.21018807481960855,0.6663536362491581 l -18.732725174064427 5.732066560254816" fill="#ffd814" stroke="none" /><path d="M 120.08093135843002 93.85539295169968 l 14.319247595631099 -4.381577135640944 a35.97461418202681,35.97461418202681 0 0,0 0.176094199599718,0.5937020999343817 l -14.39254769234252 4.134445648960032" fill="#ff990e" stroke="none" /><path d="M 120.18372546131832 94.20196356495316 l 18.828617821897843 -5.40876422254931 a40.590088807818574,40.590088807818574 0 0,0 0.1871265514515732,0.6731937678563866 l -18.91893114391578 5.0838591512739715" fill="#ffd814" stroke="none" /><path d="M 120.28053869075195 94.5502522615342 l 21.65520331877313 -5.819144999650163 a43.42343147924412,43.42343147924412 0 0,0 0.18776223148066354,0.7235244709296232 l -21.752161882124096 5.44552410317169" fill="#fffd17" stroke="none" /><path d="M 120.37134235888165 94.90015583598534 l 32.35343569935814 -8.099489828919296 a54.35185957396182,54.35185957396182 0 0,0 0.21939309222390072,0.9095260067173467 l -32.48806159184286 7.541378590542544" fill="#7cff26" stroke="none" /><path d="M 120.45610955862082 95.25157060432595 l 16.015129767026547 -3.7175550288952675 a37.44094269947938,37.44094269947938 0 0,0 0.1403243974468624,0.629046758905011 l -16.076748551475447 3.4413301004402927" fill="#ffad10" stroke="none" /><path d="M 120.53481517161879 95.60439243477599 l 19.156135850673923 -4.100492503193223 a40.590088807818574,40.590088807818574 0 0,0 0.14036575371888518,0.684473265016076 l -19.223880900307805 3.7701435820137355" fill="#ffd814" stroke="none" /><path d="M 120.6074358757038 95.95851677861258 l 22.006935845467144 -4.3159499566108686 a43.426159932865815,43.426159932865815 0 0,0 0.13754569482424966,0.7347746017030528 l -22.077967264201252 3.936497277445253" fill="#fffd17" stroke="none" /><path d="M 120.73433829027371 96.67025291283417 l 19.34226326084834 -3.106192435483516 a40.590088807818574,40.590088807818574 0 0,0 0.10484633821902818,0.6908063699046938 l -19.392865492506672 2.7727869531867397" fill="#ffd814" stroke="none" /><path d="M 120.78858239683441 97.02765380044208 l 22.45152357604683 -3.2101131044755395 a43.67985310863614,43.67985310863614 0 0,0 0.10001438562043985,0.7452233423873371 l -22.503453960725107 2.823171420023538" fill="#fdff18" stroke="none" /><path d="M 120.83666639777658 97.38593545837742 l 32.92843564587213 -4.13103777685668 a54.18655371077508,54.18655371077508 0 0,0 0.108139968474793,0.9264772099262133 l -32.99466596735051 3.563616828605614" fill="#7eff26" stroke="none" /><path d="M 120.87857604477298 97.74499172005257 l 19.476817090376016 -2.103610117454112 a40.590088807818574,40.590088807818574 0 0,0 0.06904736385851806,0.695297531192971 l -19.510141579916763 1.7680370555567062" fill="#ffd814" stroke="none" /><path d="M 120.91429891909075 98.10471618934814 l 22.433101864533054 -2.0329199152711577 a43.52502658481056,43.52502658481056 0 0,0 0.06119518460413074,0.7467362538890059 l -22.464771532956682 1.6464697441743832" fill="#ffff18" stroke="none" /><path d="M 120.94382443527127 98.46500227214037 l 19.537684793444036 -1.4319400861223783 a40.590088807818574,40.590088807818574 0 0,0 0.04507318486079132,0.6972622199326131 l -19.559438569309243 1.09541880193673" fill="#ffd814" stroke="none" /><path d="M 120.96714384426684 98.82574320788733 l 18.085782238744855 -1.0128872483661546 a39.11412321270896,39.11412321270896 0 0,0 0.03186197691808995,0.6725559745851769 l -18.100537823896442 0.7014201671579781" fill="#ffc412" stroke="none" /><path d="M 120.98425023603335 99.18683210126433 l 18.321909200665115 -0.7099986055230569 a39.33566074013319,39.33566074013319 0 0,0 0.020395175853697954,0.676816595055837 l -18.33141607097446 0.39451186304222086" fill="#ffc712" stroke="none" /><line stroke="#e1ed5e" stroke-width="0.3" x1="184.98032266829074" x2="189.97916517819016" y1="98.17113171792111" y2="98.06355123074" /><path d="M 185.9800911702706 98.14961562048488 a86.0,86.0 0 0,1 -9.607161424134198,41.387399972396054" fill="none" id="id76" stroke="none" /><text fill="#e1ed5e" style="font-size:6.75px; font-family:Arial;" text-anchor="middle"><textPath startOffset="21.466115282336823" xlink:href="#id76">April</textPath></text><path d="M 120.99513854157772 99.54816195383933 l 31.525310930981473 -0.6784587235494274 a52.53261066791997,52.53261066791997 0 0,0 0.011674729527381076,0.9042206678990098 l -31.53231866762657 0.1357017975899548" fill="#91ff24" stroke="none" /><path d="M 120.99980553446 99.90962569577887 l 22.674518442946233 -0.09758156209912455 a43.67472841691319,43.67472841691319 0 0,0 -0.0032354711132576964,0.7518095411782052 l -22.67283867454347 -0.29273745728276535" fill="#fdff18" stroke="none" /><path d="M 120.99824983174949 100.27111621757518 l 19.588456143463528 0.2529138466446544 a40.590088807818574,40.590088807818574 0 0,0 -0.015033674588437778,0.698555784434729 l -19.58120040619008 -0.5900594468694982" fill="#ffd814" stroke="none" /><path d="M 120.9904718944345 100.63252640178507 l 22.65738547499539 0.682757137639961 a43.667670234753516,43.667670234753516 0 0,0 -0.029107345078264204,0.7511312408896288 l -22.642275997065923 -1.072665625543596" fill="#feff18" stroke="none" /><path d="M 120.9764740272857 100.99374915477107 l 15.076727452225438 0.7142518396024929 a36.09363661809385,36.09363661809385 0 0,0 -0.034742100275770134,0.6203435388467395 l -15.062199001062138 -0.9736670947846557" fill="#ff9b0e" stroke="none" /><path d="M 120.95626037817324 101.35467743843564 l 19.549285804199208 1.2637262535667801 a40.590088807818574,40.590088807818574 0 0,0 -0.05107284906774848,0.6968484479619229 l -19.52463639646712 -1.6000478380254732" fill="#ffd814" stroke="none" /><path d="M 120.92983693683757 101.71520430193887 l 19.52463639646712 1.6000478380254732 a40.590088807818574,40.590088807818574 0 0,0 -0.06306038259544984,0.6958660672038596 l -19.494201417594596 -1.9358952937779035" fill="#ffd814" stroke="none" /><path d="M 120.89721153311464 102.0752229133903 l 22.55683590670775 2.240033922851719 a43.667787675414345,43.667787675414345 0 0,0 -0.08071823886191984,0.747350643128471 l -22.51493536634478 -2.627980887864981" fill="#feff18" stroke="none" /><path d="M 120.8583938346157 102.4346265915055 l 31.43779607194231 3.669472103266975 a52.65122505334803,52.65122505334803 0 0,0 -0.1128202697002476,0.8992885543645069 l -31.369974292995213 -4.210078411918877" fill="#90ff24" stroke="none" /><path d="M 120.81339534386255 102.79330883721812 l 19.416012532309757 2.605769913750823 a40.590088807818574,40.590088807818574 0 0,0 -0.098896686341546,0.6916831939331041 l -19.368281794951614 -2.9395985796643367" fill="#ffd814" stroke="none" /><path d="M 120.76222939487914 103.15116336523771 l 22.926437907507598 3.4796336104134173 a44.18899319051002,44.18899319051002 0 0,0 -0.12061121743909553,0.7510461661256456 l -22.863144935707215 -3.8737590062322678" fill="#f7ff19" stroke="none" /><path d="M 120.70491114924044 103.5080841355445 l 19.314811817695862 3.272556179076962 a40.590088807818574,40.590088807818574 0 0,0 -0.12264693050592224,0.6878691196560042 l -19.255618444850754 -3.6045440494661842" fill="#ffd814" stroke="none" /><path d="M 120.64145759157962 103.86396538481128 l 15.285485411816314 2.8613573561486154 a36.55099450821185,36.55099450821185 0 0,0 -0.12108833989249672,0.6174268363715755 l -15.233967138948152 -3.124047919588136" fill="#ffa10e" stroke="none" /><path d="M 120.5718875245553 104.21870165774334 l 32.45261178693732 6.655096037261315 a54.12796877351273,54.12796877351273 0 0,0 -0.19503070424481753,0.9111185211671373 l -32.33324704396806 -7.212728377844622" fill="#7fff26" stroke="none" /><path d="M 120.49622156327973 104.57218783832717 l 22.122118789740956 4.934884323737638 a43.66586029772709,43.66586029772709 0 0,0 -0.16996298613770258,0.7321960959366016 l -22.0338952376727 -5.3149490770228045" fill="#feff18" stroke="none" /><path d="M 120.41448212921028 104.9243191809786 l 22.038030894495176 5.3159466675611275 a43.67011457137079,43.67011457137079 0 0,0 -0.18255914108594062,0.7292330205002789 l -21.943260439114173 -5.694507527458803" fill="#feff18" stroke="none" /><path d="M 120.32669344350535 105.2749913415812 l 18.963927894531963 4.92133930804121 a40.59209385884722,40.59209385884722 0 0,0 -0.18133440048636137,0.6748127622625101 l -18.876405417703822 -5.247043003479269" fill="#ffd814" stroke="none" /><path d="M 120.23288151984713 105.62410040840565 l 21.83950320928581 6.0706903659884155 a43.66753585964098,43.66753585964098 0 0,0 -0.20754007656345058,0.7224742332175169 l -21.73177049583626 -6.445722074710514" fill="#feff18" stroke="none" /><path d="M 120.13307415673323 105.97154293290107 l 18.781367176419092 5.570621732153975 a40.590088807818574,40.590088807818574 0 0,0 -0.20444498559360338,0.6681380420275956 l -18.682695418319355 -5.893086746733628" fill="#ffd814" stroke="none" /><path d="M 120.02730092923936 106.31721596034902 l 14.371510342420981 4.533208684996325 a36.06951527103773,36.06951527103773 0 0,0 -0.19186877894584423,0.5905113822595469 l -14.291349312458891 -4.779918967233667" fill="#ff9a0e" stroke="none" /><path d="M 119.9155931802556 106.66101706037122 l 21.50095191336563 7.19125994455123 a43.67168173671658,43.67168173671658 0 0,0 -0.24458048573175814,0.7108653771241046 l -21.37398059669064 -7.560298024764635" fill="#feff18" stroke="none" /><path d="M 119.79798401119884 107.00284435728193 l 18.468774523578922 6.532682993642099 a40.590088807818574,40.590088807818574 0 0,0 -0.23866148625756542,0.6566939091511019 l -18.35358877631613 -6.849624699799332" fill="#ffd814" stroke="none" /><path d="M 119.67450827220406 107.3425965602758 l 18.35358877631613 6.849624699799332 a40.590088807818574,40.590088807818574 0 0,0 -0.24993003212659615,0.6524884476985392 l -18.232964464596026 -7.164536714331015" fill="#ffd814" stroke="none" /><path d="M 119.54520255179757 107.68017299344265 l 29.423181729117626 11.561667120013626 a52.613221437536,52.613221437536 0 0,0 -0.33847184150990617,0.8400593527538979 l -29.21980727335033 -12.066425840610338" fill="#90ff24" stroke="none" /><path d="M 119.41010516605496 108.01547362559984 l 18.11675477616678 7.481379871335287 a40.600710405467005,40.600710405467005 0 0,0 -0.27231286778596386,0.6436671795252779 l -17.985290927188505 -7.792121576526728" fill="#ffd814" stroke="none" /><path d="M 119.26925614724726 108.34839909993367 l 20.794585811716424 9.009247692149595 a43.66233313362375,43.66233313362375 0 0,0 -0.30471924676979517,0.6870614579341147 l -20.636425480215355 -9.365857486576397" fill="#feff18" stroke="none" /><path d="M 119.12269723197855 108.67885076344098 l 17.83882557235648 8.096164628838709 a40.590088807818574,40.590088807818574 0 0,0 -0.29423056291787886,0.6337464565454212 l -17.69682039259877 -8.402031152662962" fill="#ffd814" stroke="none" /><path d="M 118.97047184881838 109.00673069616215 l 20.472743526601576 9.719973705724287 a43.66299001336713,43.66299001336713 0 0,0 -0.32819337047972635,0.6761755508535655 l -20.302396899507134 -10.070938212543128" fill="#feff18" stroke="none" /><path d="M 118.81262510543309 109.33194174019688 l 20.304706530256688 10.072083897394414 a43.665568188686564,43.665568188686564 0 0,0 -0.33980405894921584,0.6704656455262282 l -20.1283238015212 -10.420103754623335" fill="#feff18" stroke="none" /><path d="M 118.64920377521936 109.65438752849418 l 29.688709206374106 15.36935878624326 a54.43107302856006,54.43107302856006 0 0,0 -0.43790444108585214,0.8283501739370422 l -29.41975225706336 -15.878123975266437" fill="#7cff26" stroke="none" /><line stroke="#e1ed5e" stroke-width="0.3" x1="174.80103733775053" x2="179.2010983576182" y1="140.37084112569926" y2="142.7455964860345" /><path d="M 175.68104954172406 140.8457921977663 a86.0,86.0 0 0,1 -30.038265399797805,32.042727171017184" fill="none" id="id77" stroke="none" /><text fill="#e1ed5e" style="font-size:6.75px; font-family:Arial;" text-anchor="middle"><textPath startOffset="22.206326154141568" xlink:href="#id77">May</textPath></text><path d="M 118.48025628344425 109.97397251340804 l 19.97200604120975 10.779084241981069 a43.695146670727716,43.695146670727716 0 0,0 -0.36292687485005937,0.6588176970897329 l -19.78350275690818 -11.121272457468606" fill="#fdff18" stroke="none" /><path d="M 118.30583269289576 110.29060199501025 l 17.083205790064433 9.60330374114212 a40.597432556595905,40.597432556595905 0 0,0 -0.3476841526972463,0.6062166266120953 l -16.915369641214806 -9.89594021361253" fill="#ffd814" stroke="none" /><path d="M 118.12598468904814 110.60418214915192 l 19.56591040456041 11.44657691172534 a43.668237094122006,43.668237094122006 0 0,0 -0.38515203020835564,0.6455369565325901 l -19.365977498653827 -11.781675962144035" fill="#feff18" stroke="none" /><path d="M 117.94076556474637 110.91462005526583 l 16.736247175887367 10.181827437440724 a40.590088807818574,40.590088807818574 0 0,0 -0.36827843794795706,0.5937821043795818 l -16.558504098271445 -10.468405873185578" fill="#ffd814" stroke="none" /><path d="M 117.75023020441432 111.22182372390056 l 19.18371381936963 12.12808241761189 a43.695930450894934,43.695930450894934 0 0,0 -0.4074024129761848,0.6322975921600675 l -18.972106543016395 -12.456501609693412" fill="#fdff18" stroke="none" /><path d="M 117.55443506779139 111.5257021239791 l 16.37585437852942 10.75188229434351 a40.590088807818574,40.590088807818574 0 0,0 -0.38849913340355147,0.580753492183691 l -16.188352139715146 -11.032172700733007" fill="#ffd814" stroke="none" /><path d="M 117.35343817320211 111.8261652097733 l 19.131063953231276 13.037596393954473 a44.15116687586783,44.15116687586783 0 0,0 -0.43339435654878744,0.6243368946870467 l -18.903808689520353 -13.36497455082854" fill="#f7ff18" stroke="none" /><path d="M 117.14729908036423 112.12312394758627 l 12.468383797371922 8.815135345408894 a36.26981354425927,36.26981354425927 0 0,0 -0.36480559749126745,0.5066830681161463 l -12.314798407505053 -9.028452018976171" fill="#ff9d0e" stroke="none" /><path d="M 116.93607887273984 112.41649034213515 l 15.799013770152065 11.58286421351662 a40.590088807818574,40.590088807818574 0 0,0 -0.41795949469221,0.5599250451046736 l -15.597293008764764 -11.853102138130609" fill="#ffd814" stroke="none" /><path d="M 116.71984013943494 112.70617746262583 l 18.07115941504144 13.733107288589075 a43.69724737503954,43.69724737503954 0 0,0 -0.46026348693782854,0.5949526010095576 l -17.83208911088554 -14.042137883711884" fill="#fdff18" stroke="none" /><path d="M 116.498646956653 112.99209946851258 l 17.82888982252868 14.039618557571384 a43.693175219566996,43.693175219566996 0 0,0 -0.4703925848853725,0.5868870758108748 l -17.584579325588454 -14.344433466960508" fill="#fdff18" stroke="none" /><path d="M 116.27256486870786 113.27417163493432 l 15.180047186141689 12.382961960885222 a40.590088807818574,40.590088807818574 0 0,0 -0.4463054224000773,0.5376036321260511 l -14.964645763848068 -12.642426850125043" fill="#ffd814" stroke="none" /><path d="M 116.0416608686014 113.55231037782055 l 24.078789761451976 20.342234824836783 a52.52133617163154,52.52133617163154 0 0,0 -0.5893831560093414,0.6855857632038194 l -23.725064095871854 -20.75369768720213" fill="#91ff23" stroke="none" /><path d="M 115.80600337817218 113.82643327865902 l 17.056401210774496 14.920229211167237 a43.661289945117375,43.661289945117375 0 0,0 -0.4996954595831881,0.5614131460769084 l -16.79704690154297 -15.211616526985013" fill="#feff18" stroke="none" /><path d="M 115.56566222782051 114.09645910891815 l 14.520605018833857 13.150042181880467 a40.590088807818574,40.590088807818574 0 0,0 -0.473461335868943,0.5138487703362358 l -14.292097274969192 -13.398042207018037" fill="#ffd814" stroke="none" /><path d="M 115.32070863581623 114.36230785411682 l 23.016887326606213 21.577045128019066 a52.54910424500602,52.54910424500602 0 0,0 -0.6243170114301356,0.6545938904979781 l -22.64206376379711 -21.97004613509955" fill="#91ff24" stroke="none" /><path d="M 115.07121518719521 114.62390073753431 l 14.082254203590654 13.664292167296741 a40.62199693934829,40.62199693934829 0 0,0 -0.49125414055775424,0.49763785076836636 l -13.844959437977366 -13.904670512045772" fill="#ffd914" stroke="none" /><path d="M 114.81725581225074 114.88116024355365 l 12.935584559467044 12.99137364655023 a39.333170405562754,39.333170405562754 0 0,0 -0.48389173559467324,0.47358990898930853 l -12.710042871496576 -13.21211365846211" fill="#ffc712" stroke="none" /><path d="M 114.55890576462653 115.13401014063108 l 16.817609737992413 17.481937202612432 a45.257990964948064,45.257990964948064 0 0,0 -0.5660786873312595,0.5352627317218633 l -16.514195216270345 -17.76883457108022" fill="#e9ff1a" stroke="none" /><path d="M 114.29624159901734 115.38237550388516 l 15.437971906192487 16.610846930273297 a43.677107670894856,43.677107670894856 0 0,0 -0.5551161769212443,0.5070854659400386 l -15.14975617980438 -16.874125162799917" fill="#fdff18" stroke="none" /><path d="M 114.0293411484842 115.62618273729858 l 15.247729791527929 16.983250284501782 a43.823760733531145,43.823760733531145 0 0,0 -0.5656554986293154,0.49912520990328163 l -14.953131939992025 -17.243198636177354" fill="#fcff18" stroke="none" /><path d="M 113.75828350139079 115.86535959552629 l 14.990750031663982 17.286577924851898 a43.88117922799895,43.88117922799895 0 0,0 -0.5749155873396506,0.489955536058153 l -14.690968967747283 -17.542057851133" fill="#fbff18" stroke="none" /><path d="M 113.48314897796784 116.09983520530334 l 12.577908851782771 15.018914355387448 a40.590088807818574,40.590088807818574 0 0,0 -0.5395193462517128,0.4439876916750733 l -12.317519376986366 -15.2331971659197" fill="#ffd814" stroke="none" /><path d="M 113.20401910651253 116.32954008644616 l 15.031891404850512 18.590087706669816 a44.907093511108684,44.907093511108684 0 0,0 -0.6052674448647893,0.4808610643451816 l -14.709666467268372 -18.846082685020125" fill="#eeff19" stroke="none" /><path d="M 112.92097659922987 116.55440617244103 l 13.967423030383616 17.895117466667262 a43.7007518654231,43.7007518654231 0 0,0 -0.5969757263535357,0.45773553061700906 l -13.657318575536586 -18.132892339111642" fill="#fdff18" stroke="none" /><path d="M 112.63410532772338 116.77436683061366 l 14.43413865164237 19.16428036224218 a44.991956994323274,44.991956994323274 0 0,0 -0.6226351863253305,0.46061062573846034 l -14.102118494898473 -19.409900936720412" fill="#edff1a" stroke="none" /><path d="M 112.34349029814194 116.9893568818739 l 18.622074730403675 25.631086980590712 a52.68176584521996,52.68176584521996 0 0,0 -0.7382287623291544,0.5267066207325312 l -18.178118640225634 -25.947837863167464" fill="#90ff24" stroke="none" /><path d="M 112.04921762599082 117.19931262002967 l 13.314439053818575 19.005316922236837 a44.20509337694014,44.20509337694014 0 0,0 -0.6269610822344858,0.4312295492972506 l -12.985321086961205 -19.231687260899182" fill="#f7ff19" stroke="none" /><path d="M 111.7513745106137 117.40417183066458 l 10.96240334651705 16.23567960901207 a40.590088807818574,40.590088807818574 0 0,0 -0.5824200351517878,0.38599624090478557 l -10.681308612625298 -16.421973871008177" fill="#ffd814" stroke="none" /><path d="M 111.45004920935366 117.60387380957326 l 12.364863623173374 19.0103548827642 a43.67781835160324,43.67781835160324 0 0,0 -0.6337821951724786,0.40450978332578474 l -12.035799625953965 -19.220379094913795" fill="#fdff18" stroke="none" /><path d="M 111.1453310114006 117.79835938074945 l 12.032028655617097 19.214357103713976 a43.67071310035559,43.67071310035559 0 0,0 -0.6405470470808636,0.3934763133531578 l -11.699502408603925 -19.41862188389551" fill="#feff18" stroke="none" /><line stroke="#e1ed5e" stroke-width="0.3" x1="143.8653032363475" x2="146.44561519142675" y1="172.8068346515853" y2="177.08958963109032" /><path d="M 144.38136562736335 173.6633856474863 a86.0,86.0 0 0,1 -40.68145358897372,12.25698825130547" fill="none" id="id78" stroke="none" /><text fill="#e1ed5e" style="font-size:6.75px; font-family:Arial;" text-anchor="middle"><textPath startOffset="21.466115282336833" xlink:href="#id78">June</textPath></text><path d="M 110.8373102113329 117.98757091392108 l 17.395776215463908 28.873193825451388 a54.7086687933621,54.7086687933621 0 0,0 -0.8108140696076762,0.4790432440777055 l -16.89619427482785 -29.168355641822842" fill="#78ff26" stroke="none" /><path d="M 110.5260780823613 118.17145234162733 l 12.108268458645878 20.90283023879633 a45.156541082253,45.156541082253 0 0,0 -0.6759530652752268,0.3838237917546173 l -11.746666626449452 -21.108157196345577" fill="#ebff1a" stroke="none" /><path d="M 110.21172684928248 118.3499491758327 l 9.534369149507247 17.132772145132158 a40.607041501871,40.607041501871 0 0,0 -0.613702316676043,0.33463943506084504 l -9.238044020962557 -17.29435223195277" fill="#ffd814" stroke="none" /><path d="M 109.89434966115114 118.52300852407294 l 14.860751610834967 27.82050748038768 a52.54080808897009,52.54080808897009 0 0,0 -0.801395181881267,0.41925208288489724 l -14.379665526427205 -28.072188982217295" fill="#91ff24" stroke="none" /><path d="M 109.57404056367764 118.69057910512821 l 14.41199192328455 28.135297037131767 a52.6117138188434,52.6117138188434 0 0,0 -0.8095842728891502,0.40594236112043347 l -13.925553742712639 -28.379207239161502" fill="#90ff24" stroke="none" /><path d="M 109.2508944713604 118.85261126421891 l 9.98809595991839 20.354971185220535 a43.67348479735077,43.67348479735077 0 0,0 -0.6777445447495732,0.32535856794795265 l -9.636238747168584 -20.523884029668046" fill="#fdff18" stroke="none" /><path d="M 108.92500713936063 119.00905698771935 l 9.643659927946192 20.5396901400851 a43.69094638521241,43.69094638521241 0 0,0 -0.6835178182262883,0.3137695059157508 l -9.288674113952483 -20.702646716334925" fill="#fdff18" stroke="none" /><path d="M 108.59647513512805 119.15986991738527 l 9.297555522747821 20.72244164792339 a43.712642438742535,43.712642438742535 0 0,0 -0.6891596270259865,0.3021073279536515 l -8.93947522106408 -20.879413529171497" fill="#fdff18" stroke="none" /><line stroke="#e1ed5e" stroke-width="0.3" x1="102.19456741930631" x2="102.32365962044197" y1="184.97166512339345" y2="189.96999836594603" /><path d="M 102.22038585953345 185.97133177190398 a86.0,86.0 0 0,1 -42.740103519485714,-10.115201625700543" fill="none" id="id79" stroke="none" /><text fill="#e1ed5e" style="font-size:6.75px; font-family:Arial;" text-anchor="middle"><textPath startOffset="22.20632615414155" xlink:href="#id79">July</textPath></text><line stroke="#e1ed5e" stroke-width="0.3" x1="58.666819895761336" x2="56.23545636021788" y1="174.27360380694188" y2="178.64263932499728" /><path d="M 58.180547188652646 175.14741091055294 a86.0,86.0 0 0,1 -31.652253787137756,-30.449443065178592" fill="none" id="id80" stroke="none" /><text fill="#e1ed5e" style="font-size:6.75px; font-family:Arial;" text-anchor="middle"><textPath startOffset="22.20632615414155" xlink:href="#id80">August</textPath></text><line stroke="#e1ed5e" stroke-width="0.3" x1="26.63291911575756" x2="22.317208475507996" y1="142.92168965132927" y2="145.44649492493687" /><path d="M 25.769776987707644 143.4266507060508 a86.0,86.0 0 0,1 -11.730757126820373,-40.83630448921669" fill="none" id="id81" stroke="none" /><text fill="#e1ed5e" style="font-size:6.75px; font-family:Arial;" text-anchor="middle"><textPath startOffset="21.46611528233685" xlink:href="#id81">September</textPath></text><line stroke="#e1ed5e" stroke-width="0.3" x1="15.007084014347285" x2="10.007500721073583" y1="101.09737516637583" y2="101.16192664675087" /><path d="M 14.007167355692545 101.11028546245083 a86.0,86.0 0 0,1 10.666146001902534,-42.60595125391555" fill="none" id="id82" stroke="none" /><text fill="#e1ed5e" style="font-size:6.75px; font-family:Arial;" text-anchor="middle"><textPath startOffset="22.20632615414155" xlink:href="#id82">October</textPath></text><line stroke="#e1ed5e" stroke-width="0.3" x1="26.266209847984243" x2="21.928928074336255" y1="57.711370442889674" y2="55.22380399835377" /><path d="M 25.398753493254645 57.213857153982495 a86.0,86.0 0 0,1 29.58750427330803,-30.492523968695096" fill="none" id="id83" stroke="none" /><text fill="#e1ed5e" style="font-size:6.75px; font-family:Arial;" text-anchor="middle"><textPath startOffset="21.46611528233685" xlink:href="#id83">November</textPath></text><line stroke="#e1ed5e" stroke-width="0.3" x1="56.762969772571076" x2="54.21961505331055" y1="26.818313649435495" y2="22.513508569990535" /><path d="M 56.25429882871897 25.957352633546506 a86.0,86.0 0 0,1 42.265352541879196,-11.944610805530505" fill="none" id="id84" stroke="none" /><text fill="#e1ed5e" style="font-size:6.75px; font-family:Arial;" text-anchor="middle"><textPath startOffset="22.20632615414155" xlink:href="#id84">December</textPath></text></svg>