<?xml version="1.0" encoding="utf-8" ?>
<svg baseProfile="full" height="200mm" version="1.1" viewBox="0,0,200,200" width="200mm" xmlns="http://www.w3.org/2000/svg" xmlns:ev="http://www.w3.org/2001/xml-events" xmlns:xlink="http://www.w3.org/1999/xlink"><defs /><rect fill="#1a1a1a" height="200" width="200" x="0" y="0" /><text alignment-baseline="middle" fill="#e1ed5e" style="dominant-baseline: central; font-size:9.0px; font-family:Arial;" text-anchor="middle" x="100.0" y="100.0">2019</text><line stroke="#e1ed5e" stroke-width="0.3" x1="100.0" x2="100.0" y1="15.0" y2="10.0" /><path d="M 100.0 14.0 a86.0,86.0 0 0,1 42.46469731375804,11.215312516191453" fill="none" id="id13" stroke="none" /><text fill="#e1ed5e" style="font-size:6.75px; font-family:Arial;" text-anchor="middle"><textPath startOffset="22.20632615414155" xlink:href="#id13">January</textPath></text><path d="M 100.0 79.0 l 0.0 -32.87625545611012 a53.87625545611012,53.87625545611012 0 0,0 0.9273911735087552,0.007982348618232531 l -0.5659106942362269 32.871384484100446" fill="#8dff24" stroke="none" /><line stroke="#e1ed5e" stroke-width="0.3" x1="143.23703022742887" x2="145.7803849466894" y1="26.818313649435467" y2="22.513508569990506" /><path d="M 143.74570117128098 25.957352633546478 a86.0,86.0 0 0,1 28.547481713284135,27.462654790039114" fill="none" id="id14" stroke="none" /><text fill="#e1ed5e" style="font-size:6.75px; font-family:Arial;" text-anchor="middle"><textPath startOffset="19.985693538727396" xlink:href="#id14">February</textPath></text><line stroke="#e1ed5e" stroke-width="0.3" x1="172.23445277983987" x2="176.4835382374775" y1="55.19839476539836" y2="52.563006222186495" /><path d="M 173.08426987136738 54.67131705675599 a86.0,86.0 0 0,1 12.851231095245387,41.99856678651699" fill="none" id="id15" stroke="none" /><text fill="#e1ed5e" style="font-size:6.75px; font-family:Arial;" text-anchor="middle"><textPath startOffset="22.20632615414155" xlink:href="#id15">March</textPath></text><path d="M 117.84615892207809 88.93136811851018 l 27.13160285541403 -16.827695285725188 a52.9264029,52.9264029 0 0,0 0.47352547421181823,0.7783513744641039 l -27.41724412791207 16.358176138054002" fill="#98ff23" stroke="none" /><line stroke="#e1ed5e" stroke-width="0.3" x1="184.98032266829074" x2="189.97916517819016" y1="98.17113171792111" y2="98.06355123074" /><path d="M 185.9800911702706 98.14961562048488 a86.0,86.0 0 0,1 -9.607161424134198,41.387399972396054" fill="none" id="id16" stroke="none" /><text fill="#e1ed5e" style="font-size:6.75px; font-family:Arial;" text-anchor="middle"><textPath startOffset="21.466115282336823" xlink:href="#id16">April</textPath></text><path d="M 119.79798401119884 107.00284435728193 l 30.982176944311842 10.958861410740498 a53.863230693717036,53.863230693717036 0 0,0 -0.3167048673596507,0.8714357756455906 l -30.788947815946965 -11.490544983392217" fill="#8dff24" stroke="none" /><path d="M 119.41010516605496 108.01547362559984 l 37.26470452919188 15.388595464277788 a61.31708166535823,61.31708166535823 0 0,0 -0.4112595613674653,0.9720961189621895 l -36.99429398663211 -16.027766108906143" fill="#39ff2e" stroke="none" /><path d="M 119.26925614724726 108.34839909993367 l 31.028478732137938 13.443078546480196 a54.815423304131095,54.815423304131095 0 0,0 -0.3825566180690266,0.8625641817479817 l -30.792481029337637 -13.975191064720866" fill="#82ff25" stroke="none" /><path d="M 118.97047184881838 109.00673069616215 l 30.659854817734097 14.55657285319243 a54.93995448840248,54.93995448840248 0 0,0 -0.41295680465382234,0.8508133313520773 l -30.40474475646556 -15.082175140509783" fill="#80ff25" stroke="none" /><line stroke="#e1ed5e" stroke-width="0.3" x1="174.80103733775053" x2="179.2010983576182" y1="140.37084112569926" y2="142.7455964860345" /><path d="M 175.68104954172406 140.8457921977663 a86.0,86.0 0 0,1 -30.038265399797805,32.042727171017184" fill="none" id="id17" stroke="none" /><text fill="#e1ed5e" style="font-size:6.75px; font-family:Arial;" text-anchor="middle"><textPath startOffset="22.206326154141568" xlink:href="#id17">May</textPath></text><path d="M 116.0416608686014 113.55231037782055 l 25.803396193842026 21.79921623360618 a54.77900359003949,54.77900359003949 0 0,0 -0.614718214963899,0.7150561604353605 l -25.424335469307348 -22.240149493203074" fill="#82ff25" stroke="none" /><path d="M 111.7513745106137 117.40417183066458 l 17.79596956710566 26.356415750297575 a52.80184246291219,52.80184246291219 0 0,0 -0.7576443374867605,0.502125353803239 l -17.339650530878938 -26.65883912519213" fill="#9aff23" stroke="none" /><line stroke="#e1ed5e" stroke-width="0.3" x1="143.8653032363475" x2="146.44561519142675" y1="172.8068346515853" y2="177.08958963109032" /><path d="M 144.38136562736335 173.6633856474863 a86.0,86.0 0 0,1 -40.68145358897372,12.25698825130547" fill="none" id="id18" stroke="none" /><text fill="#e1ed5e" style="font-size:6.75px; font-family:Arial;" text-anchor="middle"><textPath startOffset="21.466115282336833" xlink:href="#id18">June</textPath></text><path d="M 103.06178313531737 120.77559828337769 l 4.609235697485088 31.275771343755924 a52.61358769361483,52.61358769361483 0 0,0 -0.8971153080079939,0.12433200715660447 l -4.070191798290264 -31.350477916405133" fill="#9cff22" stroke="none" /><path d="M 101.62511606390274 120.93702456842531 l 2.4579967099888056 31.667361272988078 a52.762611948960696,52.762611948960696 0 0,0 -0.9061029860650391,0.06249016699121364 l -1.9125309631448362 -31.704979784495578" fill="#9aff22" stroke="none" /><line stroke="#e1ed5e" stroke-width="0.3" x1="102.19456741930631" x2="102.32365962044197" y1="184.97166512339345" y2="189.96999836594603" /><path d="M 102.22038585953345 185.97133177190398 a86.0,86.0 0 0,1 -42.740103519485714,-10.115201625700543" fill="none" id="id19" stroke="none" /><text fill="#e1ed5e" style="font-size:6.75px; font-family:Arial;" text-anchor="middle"><textPath startOffset="22.20632615414155" xlink:href="#id19">July</textPath></text><path d="M 100.54218724476979 120.99299961872073 l 1.626561734309384 62.97899885616221 a84.0,84.0 0 0,0 -1.4457612404293283,0.02489009088336136 l -0.542240803987388 -62.99766642432473" fill="#4dd2ff" stroke="none" /><path d="M 100.18074693466247 120.99922214144158 l 0.40826936664515784 47.43283276000049 a68.43458977912549,68.43458977912549 0 0,0 -1.178032602615194,0.0 l 0.4082693666451251 -47.43283276000049" fill="#38ff7f" stroke="none" /><path d="M 99.81925306533755 120.99922214144158 l -0.273847134834205 31.815625686378556 a52.81680420892406,52.81680420892406 0 0,0 -0.9090534329596073,-0.01565017924915265 l 0.8214602576864802 -31.806198029850243" fill="#9aff23" stroke="none" /><path d="M 99.45781275523022 120.99299961872073 l -0.8478245370366739 32.826999075403194 a53.83794565349854,53.83794565349854 0 0,0 -0.9262168605836013,-0.031900781432928106 l 1.4127617492949185 -32.80754149554417" fill="#8dff24" stroke="none" /><path d="M 98.01472825383883 120.90594882070398 l -3.004979442349793 31.644003673808434 a52.78636295578572,52.78636295578572 0 0,0 -0.9038216886974549,-0.0936848135374081 l 3.5492337276528416 -31.587589491815265" fill="#9aff23" stroke="none" /><path d="M 91.07499286063937 119.00905698771935 l -2.728839208437447 5.812058098502141 a27.420793001325446,27.420793001325446 0 0,0 -0.4255280510723612,-0.20427932381181407 l 2.8284799275100503 -5.764224498190765" fill="#ff0000" stroke="none" /><line stroke="#e1ed5e" stroke-width="0.3" x1="58.666819895761336" x2="56.23545636021788" y1="174.27360380694188" y2="178.64263932499728" /><path d="M 58.180547188652646 175.14741091055294 a86.0,86.0 0 0,1 -31.652253787137756,-30.449443065178592" fill="none" id="id20" stroke="none" /><text fill="#e1ed5e" style="font-size:6.75px; font-family:Arial;" text-anchor="middle"><textPath startOffset="22.20632615414155" xlink:href="#id20">August</textPath></text><path d="M 84.19399662182784 113.82643327865904 l -23.998688770793144 20.993053153645914 a52.884876406051745,52.884876406051745 0 0,0 -0.5934627264528305,-0.6903312252814748 l 24.356494006816757 -20.57684482920291" fill="#99ff23" stroke="none" /><line stroke="#e1ed5e" stroke-width="0.3" x1="26.63291911575756" x2="22.317208475507996" y1="142.92168965132927" y2="145.44649492493687" /><path d="M 25.769776987707644 143.4266507060508 a86.0,86.0 0 0,1 -11.730757126820373,-40.83630448921669" fill="none" id="id21" stroke="none" /><text fill="#e1ed5e" style="font-size:6.75px; font-family:Arial;" text-anchor="middle"><textPath startOffset="21.46611528233685" xlink:href="#id21">September</textPath></text><line stroke="#e1ed5e" stroke-width="0.3" x1="15.007084014347285" x2="10.007500721073583" y1="101.09737516637583" y2="101.16192664675087" /><path d="M 14.007167355692545 101.11028546245083 a86.0,86.0 0 0,1 10.666146001902526,-42.60595125391555" fill="none" id="id22" stroke="none" /><text fill="#e1ed5e" style="font-size:6.75px; font-family:Arial;" text-anchor="middle"><textPath startOffset="22.20632615414155" xlink:href="#id22">October</textPath></text><path d="M 79.12142395522702 97.74499172005258 l -32.613731521232545 -3.5224736812821913 a53.80340385652627,53.80340385652627 0 0,0 0.10737531727773138,-0.9199261454343828 l 32.548265850951225 4.083343565041436" fill="#8eff24" stroke="none" /><path d="M 79.16333360222342 97.38593545837743 l -32.58803107149829 -4.088332311851385 a53.8434807870461,53.8434807870461 0 0,0 0.1232861895663728,-0.9186253126377382 l 32.51282888287408 4.648675966553784" fill="#8dff24" stroke="none" /><path d="M 79.21141760316559 97.0276538004421 l -32.67247165787718 -4.671501649734547 a54.00474711156352,54.00474711156352 0 0,0 0.13949710748110414,-0.9191116453673065 l 32.58721865695677 5.233212407493944" fill="#8bff24" stroke="none" /><path d="M 79.26566170972629 96.67025291283419 l -32.63338075222766 -5.240625622235299 a54.05150066535999,54.05150066535999 0 0,0 0.15543188129616745,-0.9173677619043213 l 32.538337009411265 5.801579172455449" fill="#8bff24" stroke="none" /><line stroke="#e1ed5e" stroke-width="0.3" x1="26.266209847984243" x2="21.928928074336255" y1="57.71137044288968" y2="55.22380399835378" /><path d="M 25.398753493254645 57.2138571539825 a86.0,86.0 0 0,1 29.58750427330803,-30.4925239686951" fill="none" id="id23" stroke="none" /><text fill="#e1ed5e" style="font-size:6.75px; font-family:Arial;" text-anchor="middle"><textPath startOffset="21.46611528233685" xlink:href="#id23">November</textPath></text><line stroke="#e1ed5e" stroke-width="0.3" x1="56.76296977257108" x2="54.21961505331056" y1="26.818313649435495" y2="22.513508569990535" /><path d="M 56.25429882871898 25.957352633546506 a86.0,86.0 0 0,1 42.26535254187918,-11.944610805530505" fill="none" id="id24" stroke="none" /><text fill="#e1ed5e" style="font-size:6.75px; font-family:Arial;" text-anchor="middle"><textPath startOffset="22.20632615414155" xlink:href="#id24">December</textPath></text><path d="M 94.98787191387505 79.60689891045804 l -10.789490800759232 -43.89975132791943 a66.20620840540414,66.20620840540414 0 0,0 1.1090369472877712,-0.2624732138763487 l 10.032230166508928 44.07897045393665" fill="#35ff63" stroke="none" /><path d="M 95.33964822691252 79.52364482259891 l -10.169516423937592 -44.6821700201838 a66.8248336822879,66.8248336822879 0 0,0 1.123794105815754,-0.24561786439339073 l 9.398879593968319 44.850601382673055" fill="#36ff6b" stroke="none" /><path d="M 95.692805502759 79.44645832069477 l -9.514847770116857 -45.40399100635241 a67.39024388159032,67.39024388159032 0 0,0 1.1373983859922572,-0.22815141614157292 l 8.731882974657465 45.5610463785712" fill="#36ff72" stroke="none" /><path d="M 96.04723909329186 79.375362276772 l -8.432640068012338 -43.999662655531566 a65.80044343884585,65.80044343884585 0 0,0 1.1142361295450809,-0.20361953065626218 l 7.6740088173643635 44.13829766753856" fill="#34ff5e" stroke="none" /><path d="M 96.40284397218896 79.31037775812273 l -7.885941354859509 -45.35726179020558 a67.03769399261355,67.03769399261355 0 0,0 1.1385898826173302,-0.18787708644642975 l 7.104022266103293 45.48628513959164" fill="#36ff6e" stroke="none" /><path d="M 96.75951476605007 79.25152402106235 l -6.999324928848199 -44.815919428821786 a66.35920175345066,66.35920175345066 0 0,0 1.1301004276679771,-0.16654742662295002 l 6.226855520751573 44.929761339605705" fill="#35ff65" stroke="none" /><path d="M 97.11714578562143 79.19881850522333 l -6.509935915447721 -46.97232271448151 a68.42128600973018,68.42128600973018 0 0,0 1.1680011090971274,-0.151640065817097 l 5.700420077842736 47.07742110346274" fill="#38ff7f" stroke="none" /><path d="M 97.83486435360386 79.11191278185805 l -4.861096437997747 -46.89729557670309 a68.14855873712546,68.14855873712546 0 0,0 1.1678549483098366,-0.11090189937697609 l 4.053116362597675 46.97402302059524" fill="#37ff7c" stroke="none" /><path d="M 98.19473922651362 79.07773832637324 l -3.813520460237566 -44.19720083582808 a65.36141904879929,65.36141904879929 0 0,0 1.1217569839231856,-0.08706993147048633 l 3.0521732869520464 44.256296029487025" fill="#34ff58" stroke="none" /><path d="M 98.55514903715128 79.0497635885617 l -3.0704799193524193 -44.52174089995929 a65.62749443670633,65.62749443670633 0 0,0 1.1276614586823888,-0.0680236186975822 l 2.3036564118304077 44.567997788037175" fill="#34ff5c" stroke="none" /><path d="M 98.91598698831166 79.02799685794201 l -2.292325265371858 -44.34877824309675 a65.40798224168302,65.40798224168302 0 0,0 1.1248901153095285,-0.048440134634448524 l 1.5285943176730052 44.381666104255395" fill="#34ff59" stroke="none" /></svg>