<?xml version="1.0" encoding="utf-8" ?>
<svg baseProfile="full" height="200mm" version="1.1" viewBox="0,0,200,200" width="200mm" xmlns="http://www.w3.org/2000/svg" xmlns:ev="http://www.w3.org/2001/xml-events" xmlns:xlink="http://www.w3.org/1999/xlink"><defs /><rect fill="#1a1a1a" height="200" width="200" x="0" y="0" /><text alignment-baseline="middle" fill="#e1ed5e" style="dominant-baseline: central; font-size:9.0px; font-family:Arial;" text-anchor="middle" x="100.0" y="100.0">2025</text><line stroke="#e1ed5e" stroke-width="0.3" x1="100.0" x2="100.0" y1="15.0" y2="10.0" /><path d="M 100.0 14.0 a86.0,86.0 0 0,1 42.46469731375804,11.215312516191453" fill="none" id="id85" stroke="none" /><text fill="#e1ed5e" style="font-size:6.75px; font-family:Arial;" text-anchor="middle"><textPath startOffset="22.20632615414155" xlink:href="#id85">January</textPath></text><path d="M 100.0 79.0 l 0.0 -55.36196945050456 a76.36196945050456,76.36196945050456 0 0,0 1.3144457769125029,0.011313849787227945 l -0.9529652976399744 55.35376697732589" fill="#41ffd1" stroke="none" /><path d="M 100.36148047927253 79.00311137660856 l 0.4457780561358972 -25.893382166235014 a46.89721911870133,46.89721911870133 0 0,0 0.807019327282318,0.020842928284768802 l -0.891424018613083 25.881872445807883" fill="#ffdb14" stroke="none" /><path d="M 101.08401301168833 79.027996857942 l 1.9893923553206792 -38.48804606283365 a59.53942619809243,59.53942619809243 0 0,0 1.0230516458373717,0.06171326910976875 l -2.6516060499976626 38.448099524343576" fill="#6fff27" stroke="none" /><path d="M 101.44485096284872 79.0497635885617 l 3.8804743733158524 -56.26660299219191 a77.40025437569321,77.40025437569321 0 0,0 1.3283719534690577,0.10310722965267471 l -4.848436516147252 56.191470500350775" fill="#43ffde" stroke="none" /><path d="M 102.16513564639614 79.11191278185805 l 4.067812082140796 -39.24410634511474 a60.454365765556105,60.454365765556105 0 0,0 1.03415338577093,0.1161991825079154 l -4.742732171421452 39.16827120913622" fill="#63ff29" stroke="none" /><path d="M 102.52436894288641 79.15227682838746 l 3.389518564493435 -27.992637493314483 a49.19710250949841,49.19710250949841 0 0,0 0.8398303166545172,0.10903407839323401 l -3.8708636096557982 27.93014509175711" fill="#fffe18" stroke="none" /><path d="M 102.88285421437855 79.19881850522331 l 5.28731979453793 -38.15055860908912 a59.51520313843945,59.51520313843945 0 0,0 1.013546798971227,0.1493704515083891 l -5.943235573937813 38.05389367341976" fill="#70ff27" stroke="none" /><path d="M 103.59715602781102 79.31037775812273 l 4.845377432823681 -27.868968687867394 a49.28704824105637,49.28704824105637 0 0,0 0.8346054676645872,0.15251881455180843 l -5.324378021591169 27.781434391964847" fill="#feff18" stroke="none" /><path d="M 103.95276090670814 79.375362276772 l 4.835650889512327 -25.231363623067057 a46.690566942064024,46.690566942064024 0 0,0 0.7880335850138711,0.15807212371871565 l -5.269250883993323 25.144387543271133" fill="#ffd814" stroke="none" /><path d="M 104.66035177308747 79.52364482259891 l 5.688723623000671 -24.994749555882347 a46.63394393807099,46.63394393807099 0 0,0 0.7811769933776662,0.18487935551609372 l -6.118124303340861 24.893124288225383" fill="#ffd714" stroke="none" /><path d="M 106.40334571778207 80.00007090966166 l 8.2406097944007 -25.738359103660507 a48.02537287684587,48.02537287684587 0 0,0 0.7851397846111561,0.2588482427138893 l -8.682432401254275 25.59269713668738" fill="#ffed16" stroke="none" /><path d="M 106.74666289553966 80.11325718540242 l 15.647870715489166 -46.124311431172366 a69.70634417535811,69.70634417535811 0 0,0 1.1329537951432822,0.3952653329945766 l -16.439506514695722 45.84812524500558" fill="#37ff78" stroke="none" /><path d="M 107.08798089147638 80.2323363322302 l 9.017697677504977 -25.149449113345025 a47.71729144407437,47.71729144407437 0 0,0 0.7707880297186211,0.2838877362931368 l -9.449268032996173 24.990498109245564" fill="#ffe815" stroke="none" /><path d="M 107.4271985657038 80.35727306442388 l 4.533782202701912 -11.990502880086861 a33.819022598424105,33.819022598424105 0 0,0 0.5427419028059823,0.2105754262873538 l -4.739507270507561 11.91068474990896" fill="#ff0000" stroke="none" /><path d="M 108.09893153111575 80.62456947434976 l 17.2568016666778 -41.28420650341986 a65.74575857419414,65.74575857419414 0 0,0 1.0403992109810172,0.4454446459228921 l -17.96488463544913 40.981042329534176" fill="#31ff3f" stroke="none" /><path d="M 108.43124777332544 80.76684994638697 l 20.584635003680795 -46.957150883076835 a72.27086128875547,72.27086128875547 0 0,0 1.135058207944691,0.5092675317521739 l -21.389875330092266 46.59586302080813" fill="#3bff9c" stroke="none" /><line stroke="#e1ed5e" stroke-width="0.3" x1="143.23703022742887" x2="145.7803849466894" y1="26.81831364943548" y2="22.513508569990506" /><path d="M 143.74570117128098 25.957352633546492 a86.0,86.0 0 0,1 28.547481713284135,27.462654790039103" fill="none" id="id86" stroke="none" /><text fill="#e1ed5e" style="font-size:6.75px; font-family:Arial;" text-anchor="middle"><textPath startOffset="19.985693538727396" xlink:href="#id86">February</textPath></text><path d="M 110.99172775467656 82.1063720568725 l 27.165387833173916 -44.22301513160796 a72.90022508098765,72.90022508098765 0 0,0 1.0635825120269424,0.6660152714580242 l -27.922589497573124 43.74885551882699" fill="#3cffa4" stroke="none" /><path d="M 111.2981086023043 82.29822771554956 l 19.1716442976396 -30.037955344674483 a56.634684036257084,56.634684036257084 0 0,0 0.8172465117749778,0.5315598644491178 l -19.68585783519886 29.70349655606584" fill="#96ff23" stroke="none" /><path d="M 113.06298171725822 83.55741782278167 l 39.188945151774654 -49.32774653165496 a84.0,84.0 0 0,0 1.1243864057420354,0.9091756109434814 l -40.032234956081176 48.64586482344735" fill="#4dd2ff" stroke="none" /><path d="M 113.89432698308785 84.25364557470407 l 39.00874153949378 -44.20836437153755 a79.95813257644494,79.95813257644494 0 0,0 1.024183767400325,0.9195222987698753 l -39.763936294490094 43.53034306399837" fill="#47fffd" stroke="none" /><path d="M 114.16331599549186 84.49514656593476 l 32.32549588755211 -35.38733980654709 a68.92913000420705,68.92913000420705 0 0,0 0.869137628666386,0.8077687038047738 l -32.929841400013345 34.825666516667674" fill="#36ff6d" stroke="none" /><line stroke="#e1ed5e" stroke-width="0.3" x1="172.23445277983987" x2="176.4835382374775" y1="55.19839476539836" y2="52.563006222186495" /><path d="M 173.08426987136738 54.67131705675599 a86.0,86.0 0 0,1 12.851231095245387,41.99856678651699" fill="none" id="id87" stroke="none" /><text fill="#e1ed5e" style="font-size:6.75px; font-family:Arial;" text-anchor="middle"><textPath startOffset="22.20632615414155" xlink:href="#id87">March</textPath></text><line stroke="#e1ed5e" stroke-width="0.3" x1="184.98032266829074" x2="189.97916517819016" y1="98.17113171792111" y2="98.06355123074" /><path d="M 185.9800911702706 98.14961562048488 a86.0,86.0 0 0,1 -9.607161424134198,41.387399972396054" fill="none" id="id88" stroke="none" /><text fill="#e1ed5e" style="font-size:6.75px; font-family:Arial;" text-anchor="middle"><textPath startOffset="21.466115282336823" xlink:href="#id88">April</textPath></text><line stroke="#e1ed5e" stroke-width="0.3" x1="174.80103733775053" x2="179.2010983576182" y1="140.37084112569926" y2="142.7455964860345" /><path d="M 175.68104954172406 140.8457921977663 a86.0,86.0 0 0,1 -30.038265399797805,32.042727171017184" fill="none" id="id89" stroke="none" /><text fill="#e1ed5e" style="font-size:6.75px; font-family:Arial;" text-anchor="middle"><textPath startOffset="22.206326154141568" xlink:href="#id89">May</textPath></text><line stroke="#e1ed5e" stroke-width="0.3" x1="143.8653032363475" x2="146.44561519142675" y1="172.8068346515853" y2="177.08958963109032" /><path d="M 144.38136562736335 173.6633856474863 a86.0,86.0 0 0,1 -40.68145358897372,12.25698825130547" fill="none" id="id90" stroke="none" /><text fill="#e1ed5e" style="font-size:6.75px; font-family:Arial;" text-anchor="middle"><textPath startOffset="21.466115282336833" xlink:href="#id90">June</textPath></text><line stroke="#e1ed5e" stroke-width="0.3" x1="102.19456741930631" x2="102.32365962044197" y1="184.97166512339345" y2="189.96999836594603" /><path d="M 102.22038585953345 185.97133177190398 a86.0,86.0 0 0,1 -42.740103519485714,-10.115201625700543" fill="none" id="id91" stroke="none" /><text fill="#e1ed5e" style="font-size:6.75px; font-family:Arial;" text-anchor="middle"><textPath startOffset="22.20632615414155" xlink:href="#id91">July</textPath></text><line stroke="#e1ed5e" stroke-width="0.3" x1="58.666819895761336" x2="56.23545636021788" y1="174.27360380694188" y2="178.64263932499728" /><path d="M 58.180547188652646 175.14741091055294 a86.0,86.0 0 0,1 -31.652253787137756,-30.449443065178592" fill="none" id="id92" stroke="none" /><text fill="#e1ed5e" style="font-size:6.75px; font-family:Arial;" text-anchor="middle"><textPath startOffset="22.20632615414155" xlink:href="#id92">August</textPath></text><line stroke="#e1ed5e" stroke-width="0.3" x1="26.63291911575756" x2="22.317208475507996" y1="142.92168965132927" y2="145.44649492493687" /><path d="M 25.769776987707644 143.4266507060508 a86.0,86.0 0 0,1 -11.730757126820373,-40.83630448921669" fill="none" id="id93" stroke="none" /><text fill="#e1ed5e" style="font-size:6.75px; font-family:Arial;" text-anchor="middle"><textPath startOffset="21.46611528233685" xlink:href="#id93">September</textPath></text><line stroke="#e1ed5e" stroke-width="0.3" x1="15.007084014347285" x2="10.007500721073583" y1="101.09737516637583" y2="101.16192664675087" /><path d="M 14.007167355692545 101.11028546245083 a86.0,86.0 0 0,1 10.666146001902534,-42.60595125391555" fill="none" id="id94" stroke="none" /><text fill="#e1ed5e" style="font-size:6.75px; font-family:Arial;" text-anchor="middle"><textPath startOffset="22.20632615414155" xlink:href="#id94">October</textPath></text><line stroke="#e1ed5e" stroke-width="0.3" x1="26.266209847984243" x2="21.928928074336255" y1="57.711370442889674" y2="55.22380399835377" /><path d="M 25.398753493254645 57.213857153982495 a86.0,86.0 0 0,1 29.58750427330803,-30.492523968695096" fill="none" id="id95" stroke="none" /><text fill="#e1ed5e" style="font-size:6.75px; font-family:Arial;" text-anchor="middle"><textPath startOffset="21.46611528233685" xlink:href="#id95">November</textPath></text><line stroke="#e1ed5e" stroke-width="0.3" x1="56.762969772571076" x2="54.21961505331055" y1="26.818313649435495" y2="22.513508569990535" /><path d="M 56.25429882871897 25.957352633546506 a86.0,86.0 0 0,1 42.265352541879196,-11.944610805530505" fill="none" id="id96" stroke="none" /><text fill="#e1ed5e" style="font-size:6.75px; font-family:Arial;" text-anchor="middle"><textPath startOffset="22.20632615414155" xlink:href="#id96">December</textPath></text></svg>