<?xml version="1.0" encoding="utf-8" ?>
<svg baseProfile="full" height="200mm" version="1.1" viewBox="0,0,200,200" width="200mm" xmlns="http://www.w3.org/2000/svg" xmlns:ev="http://www.w3.org/2001/xml-events" xmlns:xlink="http://www.w3.org/1999/xlink"><defs /><rect fill="#1a1a1a" height="200" width="200" x="0" y="0" /><text alignment-baseline="middle" fill="#e1ed5e" style="dominant-baseline: central; font-size:9.0px; font-family:Arial;" text-anchor="middle" x="100.0" y="100.0">2025</text><line stroke="#e1ed5e" stroke-width="0.3" x1="100.0" x2="100.0" y1="15.0" y2="10.0" /><path d="M 100.0 14.0 a86.0,86.0 0 0,1 42.46469731375804,11.215312516191453" fill="none" id="id85" stroke="none" /><text fill="#e1ed5e" style="font-size:6.75px; font-family:Arial;" text-anchor="middle"><textPath startOffset="22.20632615414155" xlink:href="#id85">January</textPath></text><path d="M 100.0 79.0 l 0.0 -61.840218878248976 a82.84021887824898,82.84021887824898 0 0,0 1.4259581915785997,0.012273672345984796 l -1.0644777123060714 61.83105658251155" fill="#4bdfff" stroke="none" /><path d="M 100.36148047927253 79.00311137660856 l 0.49794132752466597 -28.923328352501887 a49.92761429071358,49.92761429071358 0 0,0 0.8591671415679986,0.02218975247672976 l -0.9957351042875323 28.910471807882796" fill="#fff917" stroke="none" /><path d="M 101.08401301168833 79.027996857942 l 2.222183565881521 -42.99177244497522 a64.04916489040181,64.04916489040181 0 0,0 1.1005414015517359,0.06638766278980295 l -2.9618870162728688 42.94715151280511" fill="#3eff2d" stroke="none" /><path d="M 101.44485096284872 79.0497635885617 l 4.334552888546152 -62.8507092343149 a84.0,84.0 0 0,0 1.4416392425506352,0.11189895124614191 l -5.415782320459128 62.76678502088029" fill="#4dd2ff" stroke="none" /><path d="M 102.16513564639614 79.11191278185805 l 4.543812151409652 -43.836304057659504 a65.07116724461554,65.07116724461554 0 0,0 1.1131299959882488,0.1250731248754275 l -5.297708850907626 43.75159497931348" fill="#32ff2f" stroke="none" /><path d="M 102.52436894288641 79.15227682838746 l 3.7861472776462417 -31.26823064186112 a52.49662138516845,52.49662138516845 0 0,0 0.8961555033182346,0.11634670416586573 l -4.323817509472322 31.198425614531118" fill="#ddff1b" stroke="none" /><path d="M 102.88285421437855 79.19881850522331 l 5.906022069280704 -42.61479347881175 a64.02210733942036,64.02210733942036 0 0,0 1.0902995963287117,0.16068181868695075 l -6.638690646038071 42.50681717596383" fill="#3fff2d" stroke="none" /><path d="M 103.59715602781102 79.31037775812273 l 5.412365274711404 -31.13009057796587 a52.597092227913336,52.597092227913336 0 0,0 0.8906563148593655,0.16276174860865522 l -5.947416710673671 31.03231334800648" fill="#dcff1b" stroke="none" /><path d="M 103.95276090670814 79.375362276772 l 5.401500567886973 -28.183842889515116 a49.69678045366335,49.69678045366335 0 0,0 0.8387718254340898,0.16824973742642782 l -5.8858388027881885 28.086689196011477" fill="#fff617" stroke="none" /><path d="M 104.66035177308747 79.52364482259891 l 6.354396663918192 -27.919541134183653 a49.63353163872364,49.63353163872364 0 0,0 0.83142384585234,0.1967711620861559 l -6.834044196733055 27.80602405995663" fill="#fff517" stroke="none" /><path d="M 106.40334571778207 80.00007090966166 l 9.2048949564842 -28.75016507424542 a51.187780358222255,51.187780358222255 0 0,0 0.8368402042028515,0.27589305819920934 l -9.698417982929469 28.587458291786973" fill="#f1ff19" stroke="none" /><path d="M 106.74666289553966 80.11325718540242 l 17.478925689042175 -51.521604863828124 a75.40577736773454,75.40577736773454 0 0,0 1.2255880387241005,0.42758360165887127 l -18.36319573182955 51.21310040899705" fill="#3fffc1" stroke="none" /><path d="M 107.08798089147638 80.2323363322302 l 10.072914740747228 -28.09234305197693 a50.84364839499888,50.84364839499888 0 0,0 0.821288769418495,0.3024875849178745 l -10.554985835938298 27.91479219925273" fill="#f6ff19" stroke="none" /><path d="M 107.4271985657038 80.35727306442388 l 5.064308342788566 -13.393586426287952 a35.319056405688286,35.319056405688286 0 0,0 0.5668150764306334,0.2199154436545268 l -5.294106584218866 13.30442827874288" fill="#ff0000" stroke="none" /><path d="M 108.09893153111575 80.62456947434976 l 19.276127688339688 -46.115129062899456 a70.9817389367862,70.9817389367862 0 0,0 1.123256416618174,0.48091977723561385 l -20.06706786274818 45.77648975770105" fill="#38ff84" stroke="none" /><path d="M 108.43124777332544 80.76684994638697 l 22.993371565196085 -52.45190005576958 a78.27038462762066,78.27038462762066 0 0,0 1.2292844021272447,0.5515440784542514 l -23.89283808579011 52.0483356467988" fill="#44ffe7" stroke="none" /><line stroke="#e1ed5e" stroke-width="0.3" x1="143.23703022742887" x2="145.7803849466894" y1="26.81831364943548" y2="22.513508569990506" /><path d="M 143.74570117128098 25.957352633546492 a86.0,86.0 0 0,1 28.547481713284135,27.462654790039103" fill="none" id="id86" stroke="none" /><text fill="#e1ed5e" style="font-size:6.75px; font-family:Arial;" text-anchor="middle"><textPath startOffset="19.985693538727396" xlink:href="#id86">February</textPath></text><path d="M 110.99172775467656 82.1063720568725 l 30.344179338090477 -49.39782602278483 a78.97339420354405,78.97339420354405 0 0,0 1.152187402672439,0.7214996458516059 l -31.18998589313518 48.868182035610275" fill="#45fff0" stroke="none" /><line stroke="#e1ed5e" stroke-width="0.3" x1="172.23445277983987" x2="176.4835382374775" y1="55.19839476539836" y2="52.563006222186495" /><path d="M 173.08426987136738 54.67131705675599 a86.0,86.0 0 0,1 12.851231095245387,41.99856678651699" fill="none" id="id87" stroke="none" /><text fill="#e1ed5e" style="font-size:6.75px; font-family:Arial;" text-anchor="middle"><textPath startOffset="22.20632615414155" xlink:href="#id87">March</textPath></text><line stroke="#e1ed5e" stroke-width="0.3" x1="184.98032266829074" x2="189.97916517819016" y1="98.17113171792111" y2="98.06355123074" /><path d="M 185.9800911702706 98.14961562048488 a86.0,86.0 0 0,1 -9.607161424134198,41.387399972396054" fill="none" id="id88" stroke="none" /><text fill="#e1ed5e" style="font-size:6.75px; font-family:Arial;" text-anchor="middle"><textPath startOffset="21.466115282336823" xlink:href="#id88">April</textPath></text><line stroke="#e1ed5e" stroke-width="0.3" x1="174.80103733775053" x2="179.2010983576182" y1="140.37084112569926" y2="142.7455964860345" /><path d="M 175.68104954172406 140.8457921977663 a86.0,86.0 0 0,1 -30.038265399797805,32.042727171017184" fill="none" id="id89" stroke="none" /><text fill="#e1ed5e" style="font-size:6.75px; font-family:Arial;" text-anchor="middle"><textPath startOffset="22.206326154141568" xlink:href="#id89">May</textPath></text><line stroke="#e1ed5e" stroke-width="0.3" x1="143.8653032363475" x2="146.44561519142675" y1="172.8068346515853" y2="177.08958963109032" /><path d="M 144.38136562736335 173.6633856474863 a86.0,86.0 0 0,1 -40.68145358897372,12.25698825130547" fill="none" id="id90" stroke="none" /><text fill="#e1ed5e" style="font-size:6.75px; font-family:Arial;" text-anchor="middle"><textPath startOffset="21.466115282336833" xlink:href="#id90">June</textPath></text><line stroke="#e1ed5e" stroke-width="0.3" x1="102.19456741930631" x2="102.32365962044197" y1="184.97166512339345" y2="189.96999836594603" /><path d="M 102.22038585953345 185.97133177190398 a86.0,86.0 0 0,1 -42.740103519485714,-10.115201625700543" fill="none" id="id91" stroke="none" /><text fill="#e1ed5e" style="font-size:6.75px; font-family:Arial;" text-anchor="middle"><textPath startOffset="22.20632615414155" xlink:href="#id91">July</textPath></text><line stroke="#e1ed5e" stroke-width="0.3" x1="58.666819895761336" x2="56.23545636021788" y1="174.27360380694188" y2="178.64263932499728" /><path d="M 58.180547188652646 175.14741091055294 a86.0,86.0 0 0,1 -31.652253787137756,-30.449443065178592" fill="none" id="id92" stroke="none" /><text fill="#e1ed5e" style="font-size:6.75px; font-family:Arial;" text-anchor="middle"><textPath startOffset="22.20632615414155" xlink:href="#id92">August</textPath></text><line stroke="#e1ed5e" stroke-width="0.3" x1="26.63291911575756" x2="22.317208475507996" y1="142.92168965132927" y2="145.44649492493687" /><path d="M 25.769776987707644 143.4266507060508 a86.0,86.0 0 0,1 -11.730757126820373,-40.83630448921669" fill="none" id="id93" stroke="none" /><text fill="#e1ed5e" style="font-size:6.75px; font-family:Arial;" text-anchor="middle"><textPath startOffset="21.46611528233685" xlink:href="#id93">September</textPath></text><line stroke="#e1ed5e" stroke-width="0.3" x1="15.007084014347285" x2="10.007500721073583" y1="101.09737516637583" y2="101.16192664675087" /><path d="M 14.007167355692545 101.11028546245083 a86.0,86.0 0 0,1 10.666146001902534,-42.60595125391555" fill="none" id="id94" stroke="none" /><text fill="#e1ed5e" style="font-size:6.75px; font-family:Arial;" text-anchor="middle"><textPath startOffset="22.20632615414155" xlink:href="#id94">October</textPath></text><line stroke="#e1ed5e" stroke-width="0.3" x1="26.266209847984243" x2="21.928928074336255" y1="57.711370442889674" y2="55.22380399835377" /><path d="M 25.398753493254645 57.213857153982495 a86.0,86.0 0 0,1 29.58750427330803,-30.492523968695096" fill="none" id="id95" stroke="none" /><text fill="#e1ed5e" style="font-size:6.75px; font-family:Arial;" text-anchor="middle"><textPath startOffset="21.46611528233685" xlink:href="#id95">November</textPath></text><line stroke="#e1ed5e" stroke-width="0.3" x1="56.762969772571076" x2="54.21961505331055" y1="26.818313649435495" y2="22.513508569990535" /><path d="M 56.25429882871897 25.957352633546506 a86.0,86.0 0 0,1 42.265352541879196,-11.944610805530505" fill="none" id="id96" stroke="none" /><text fill="#e1ed5e" style="font-size:6.75px; font-family:Arial;" text-anchor="middle"><textPath startOffset="22.20632615414155" xlink:href="#id96">December</textPath></text></svg>