<?xml version="1.0" encoding="utf-8" ?>
<svg baseProfile="full" height="200mm" version="1.1" viewBox="0,0,200,200" width="200mm" xmlns="http://www.w3.org/2000/svg" xmlns:ev="http://www.w3.org/2001/xml-events" xmlns:xlink="http://www.w3.org/1999/xlink"><defs /><rect fill="#1a1a1a" height="200" width="200" x="0" y="0" /><text alignment-baseline="middle" fill="#e1ed5e" style="dominant-baseline: central; font-size:9.0px; font-family:Arial;" text-anchor="middle" x="100.0" y="100.0">2024</text><line stroke="#e1ed5e" stroke-width="0.3" x1="100.0" x2="100.0" y1="15.0" y2="10.0" /><path d="M 100.0 14.0 a86.0,86.0 0 0,1 42.35913384403234,11.155469271406648" fill="none" id="id73" stroke="none" /><text fill="#e1ed5e" style="font-size:6.75px; font-family:Arial;" text-anchor="middle"><textPath startOffset="22.145653131862478" xlink:href="#id73">January</textPath></text><path d="M 100.36049292484886 79.00309439819443 l 0.45102497774604705 -26.269943815848208 a47.27381532283373,47.27381532283373 0 0,0 0.8112787445441835,0.020895662655633883 l -0.9019170363609719 26.258330435842527" fill="#bcff1f" stroke="none" /><path d="M 100.72087961077811 79.0123766808444 l 0.9019518714246598 -26.259344620713417 a47.27483010578293,47.27483010578293 0 0,0 0.8108179036226216,0.0348200095162698 l -1.3525955356481179 26.239992042771316" fill="#bcff1f" stroke="none" /><path d="M 101.08105385017728 79.02784411241856 l 1.3513877163096808 -26.21656067027717 a47.25136762414706,47.25136762414706 0 0,0 0.8096986432864111,0.048709459721008486 l -1.8012307117285542 26.189499232731468" fill="#bdff1f" stroke="none" /><path d="M 101.80034050326958 79.07731436759882 l 3.036086960893353 -35.2839326338769 a56.414315271455834,56.414315271455834 0 0,0 0.964148684869573,0.09130588287875666 l -3.6413352091479387 35.22661499549296" fill="#58ff2a" stroke="none" /><path d="M 102.15924093988457 79.11130261209362 l 2.690319212818111 -26.026397923166584 a47.165076080949355,47.165076080949355 0 0,0 0.804645402765293,0.09016219570955102 l -3.1367005171842 25.97637996695006" fill="#beff1f" stroke="none" /><path d="M 102.87502721639298 79.19773525538626 l 0.26371296669454214 -1.9080956585342905 a22.926233000163855,22.926233000163855 0 0,0 0.3893910349593866,0.057227072722301535 l -0.29642910726161076 1.9032875125131066" fill="#ff0000" stroke="none" /><path d="M 103.23170211078529 79.25015418208739 l 2.7874120661004294 -17.897185018862565 a39.112948341604714,39.112948341604714 0 0,0 0.6625407450967569,0.10902082747934932 l -3.0942303142502565 17.846698192887548" fill="#ffdf14" stroke="none" /><path d="M 103.58742460773223 79.30868818359171 l 6.32466095672177 -36.47896368512656 a58.02318365238547,58.02318365238547 0 0,0 0.9799432328709257,0.17857830065568514 l -6.9499389231437485 36.365017210539506" fill="#48ff2c" stroke="none" /><path d="M 104.9986988182912 79.60360301121754 l 8.82338635428948 -36.0024273134774 a58.067869094665866,58.067869094665866 0 0,0 0.9661240997789029,0.245584968164894 l -9.440115747293778 35.84565711347723" fill="#47ff2c" stroke="none" /><path d="M 105.69591212413111 79.78721728523813 l 4.747519351852421 -16.847271341595444 a38.50341371428889,38.50341371428889 0 0,0 0.6346462450633293,0.18473627250445673 l -5.036025609297355 16.763291374788473" fill="#ffd714" stroke="none" /><path d="M 106.72888874123014 80.10723608172694 l 12.000329673502316 -35.47684236086612 a58.45149204197992,58.45149204197992 0 0,0 0.9477331264595575,0.32967077791222205 l -12.60756857200689 35.265613150385306" fill="#43ff2d" stroke="none" /><path d="M 107.06938296918511 80.22567764915836 l 10.473754688080732 -29.296955947715606 a52.112877801136975,52.112877801136975 0 0,0 0.8397887231632236,0.3083820514314055 l -10.97513256289808 29.11284304727548" fill="#86ff25" stroke="none" /><path d="M 107.74402155503746 80.48000691201159 l 9.923131845394977 -25.01277451988839 a47.909244411611965,47.909244411611965 0 0,0 0.7618608780473654,0.30984218660734125 l -10.351047184632781 24.838745076701755" fill="#b5ff1f" stroke="none" /><path d="M 108.4095320186766 80.7573450057729 l 15.06757663082335 -34.47756403829476 a58.62624466433569,58.62624466433569 0 0,0 0.9187195885685435,0.4109315863253086 l -15.657209622247525 34.2138287010596" fill="#42ff2d" stroke="none" /><path d="M 109.06512990194946 81.05736502329252 l 13.872906212019995 -28.989038357175623 a53.137546135965366,53.137546135965366 0 0,0 0.8194309378807826,0.40082473392543666 l -14.368497399162845 28.746619873152962" fill="#7bff26" stroke="none" /><path d="M 109.3889696526874 81.21577127319529 l 17.58778726778449 -35.187356127185396 a60.33802603332066,60.33802603332066 0 0,0 0.9225189359446034,0.4710447419009743 l -18.18923342544267 34.88025343361159" fill="#31ff2f" stroke="none" /><path d="M 109.71004243097381 81.37971332152246 l 13.025509677628463 -24.97813228468061 a49.170392166120024,49.170392166120024 0 0,0 0.7450747009247776,0.3967103117430176 l -13.4523731943398 24.750851505215017" fill="#a7ff21" stroke="none" /><path d="M 110.02825361518725 81.54914285379988 l 8.358491473553132 -15.378682874822847 a38.5033787217734,38.5033787217734 0 0,0 0.5780197103650385,0.32061778966904547 l -8.62125537207427 15.232932169720655" fill="#ffd714" stroke="none" /><path d="M 110.34350942703115 81.72400993836675 l 11.698118864167641 -20.669455140884114 a44.75020759448674,44.75020759448674 0 0,0 0.665302470276648,0.38411256030674573 l -12.051213802304686 20.4655956833012" fill="#daff1c" stroke="none" /><line stroke="#e1ed5e" stroke-width="0.3" x1="143.13028292997686" x2="145.6673583964461" y1="26.7553504044142" y2="22.446841604673864" /><path d="M 143.63769802327073 25.89364864446614 a86.0,86.0 0 0,1 29.32050498858742,28.57503671076993" fill="none" id="id74" stroke="none" /><text fill="#e1ed5e" style="font-size:6.75px; font-family:Arial;" text-anchor="middle"><textPath startOffset="20.669276256404974" xlink:href="#id74">February</textPath></text><path d="M 111.27062007382361 82.28071324371311 l 22.411934308654523 -35.23528325654829 a62.75907069876721,62.75907069876721 0 0,0 0.9040724091702543,0.5860088129311872 l -23.013492350081783 34.84536060191321" fill="#32ff4b" stroke="none" /><path d="M 111.5731344415666 82.4767994020092 l 14.503262567623208 -21.959788040221735 a47.316856116886115,47.316856116886115 0 0,0 0.6739355857209886,0.45345393886265434 l -14.878094441441197 21.70758442730196" fill="#bcff1f" stroke="none" /><path d="M 111.8722381534696 82.67804972795209 l 9.90755892167736 -14.455424557712846 a38.524811637510865,38.524811637510865 0 0,0 0.5422915919835447,0.3785616476919692 l -10.154245604834665 14.28321809421575" fill="#ffd714" stroke="none" /><path d="M 112.16784306229584 82.88440491214696 l 10.242453740165475 -14.40729388316596 a38.677046576148996,38.677046576148996 0 0,0 0.5378300982326674,0.389347514845979 l -10.488264848772111 14.229345596946905" fill="#ffd914" stroke="none" /><path d="M 113.31354834802062 83.75963576809568 l 22.451636911749397 -27.387346447236794 a56.41387786501221,56.41387786501221 0 0,0 0.7436575858329366,0.6203856072004003 l -22.918468831744224 26.997898656124523" fill="#58ff2a" stroke="none" /><path d="M 113.59037401385872 83.9905735841838 l 23.980838970784177 -28.249368008621868 a58.05546424792475,58.05546424792475 0 0,0 0.7542248551774999,0.6514814663099114 l -24.462243305724535 27.833542409847237" fill="#47ff2c" stroke="none" /><path d="M 114.39649973595853 84.71141617570332 l 37.62892480121349 -39.96061414877006 a75.88885738328192,75.88885738328192 0 0,0 0.9407598853862684,0.9012266893504915 l -38.30935717246507 39.30877532911399" fill="#43ffdd" stroke="none" /><path d="M 115.16444852881244 85.47280134310134 l 26.92158874238329 -25.79027302422821 a58.281498401730744,58.281498401730744 0 0,0 0.6859015395760591,0.7284036658459766 l -27.36034611569561 25.32432789843774" fill="#45ff2d" stroke="none" /><path d="M 115.41159269507618 85.73525988315684 l 19.292343505770997 -17.856705130976714 a47.287952299091586,47.287952299091586 0 0,0 0.5462936166780592,0.6004723812851872 l -19.596034823290935 17.522895174133858" fill="#bcff1f" stroke="none" /><path d="M 115.8921839302757 86.27271002978787 l 44.28150230940017 -38.24930702945924 a79.51376705537982,79.51376705537982 0 0,0 0.8833806728594853,1.0406202113993737 l -44.931577545766764 37.48352003561031" fill="#47fcff" stroke="none" /><path d="M 116.35404254752997 86.82634096563983 l 21.936314027365057 -17.67034179025086 a49.16811765261319,49.16811765261319 0 0,0 0.5238361171930908,0.6618498216976378 l -22.23641657519971 17.29117202463854" fill="#a7ff21" stroke="none" /><path d="M 116.57777611688842 87.10902102172516 l 18.148810648675376 -14.112624932509807 a43.990117669276295,43.990117669276295 0 0,0 0.4584357270415471,0.6001070826819245 l -18.388398353071228 13.798996936586999" fill="#e3ff1b" stroke="none" /><path d="M 116.7966241395341 87.39550010848427 l 7.349242625442875 -5.515008677076161 a30.188399636272457,30.188399636272457 0 0,0 0.30748751019976417,0.41716586227219316 l -7.442832155226464 5.388036505535093" fill="#ff6809" stroke="none" /><path d="M 117.01052211995028 87.68569379921539 l 29.9348378854373 -21.67051412018622 a57.95545563865507,57.95545563865507 0 0,0 0.5764771257491286,0.8108872715744736 l -30.30243010971639 21.15344962190224" fill="#48ff2c" stroke="none" /><path d="M 117.21940702142032 87.97951657250589 l 23.10495163040498 -16.12905065899463 a49.17774059437287,49.17774059437287 0 0,0 0.4772822977793719,0.6963691362143861 l -23.378423664999676 15.730046787710192" fill="#a7ff21" stroke="none" /><path d="M 117.42321728460499 88.27688183743584 l 21.864423081958456 -14.711359627740835 a47.35293340035604,47.35293340035604 0 0,0 0.44799383866977655,0.6783197707855978 l -22.113741359548957 14.333859978616179" fill="#bcff1f" stroke="none" /><path d="M 117.62189284568427 88.57770195909679 l 30.985715008174935 -20.08456610951085 a57.92565951171555,57.92565951171555 0 0,0 0.5336947769723548,0.8390568337468185 l -31.325927476773177 19.54969560108536" fill="#49ff2c" stroke="none" /><line stroke="#e1ed5e" stroke-width="0.3" x1="172.87174338648825" x2="177.1583165268699" y1="56.24261187166439" y2="53.66864786411523" /><path d="M 173.72905801456457 55.72781907015455 a86.0,86.0 0 0,1 12.242430191666344,42.057860355516425" fill="none" id="id75" stroke="none" /><text fill="#e1ed5e" style="font-size:6.75px; font-family:Arial;" text-anchor="middle"><textPath startOffset="22.145653131862474" xlink:href="#id75">March</textPath></text><path d="M 118.00360718960297 89.18935116829356 l 20.33110079924651 -12.208241869974238 a44.7148651538421,44.7148651538421 0 0,0 0.3895011611733366,0.6614581247596291 l -20.537675670549614 11.85743257692105" fill="#daff1b" stroke="none" /><path d="M 118.18653347947321 89.5 l 18.698804232160988 -10.795759656962263 a42.59151931392452,42.59151931392452 0 0,0 0.36013489348574523,0.6363238493303083 l -18.88137249066811 10.473179037532837" fill="#f4ff19" stroke="none" /><path d="M 118.36410011445183 89.81374322990088 l 32.73510228682173 -18.157609423323404 a58.433750836626615,58.433750836626615 0 0,0 0.47903056885446255,0.8813622923548017 l -33.04197820529153 17.592992297494" fill="#44ff2d" stroke="none" /><path d="M 118.53625476483649 90.13048839642627 l 24.867338352520417 -13.240457014314186 a49.172579198338134,49.172579198338134 0 0,0 0.39031772285968835,0.7484856989043042 l -25.09096414435505 12.811625072305384" fill="#a7ff21" stroke="none" /><path d="M 118.8641267826498 90.77261029715802 l 47.17454584887304 -23.07543432132256 a73.51583994534502,73.51583994534502 0 0,0 0.5447899792378541,1.1384015262099554 l -47.56371508607081 22.262220293047502" fill="#40ffc5" stroke="none" /><path d="M 119.0197475246899 91.09779779509293 l 57.0592425740697 -26.706606614721228 a84.0,84.0 0 0,0 0.6000621405797943,1.3112440711412632 l -57.50928917950454 25.72317356136528" fill="#4dd2ff" stroke="none" /><line stroke="#e1ed5e" stroke-width="0.3" x1="184.99686870605535" x2="189.99668451229388" y1="99.2704041080226" y2="99.22748670261217" /><path d="M 185.99683186730306 99.26182062694052 a86.0,86.0 0 0,1 -10.086455211305974,41.156179273409016" fill="none" id="id76" stroke="none" /><text fill="#e1ed5e" style="font-size:6.75px; font-family:Arial;" text-anchor="middle"><textPath startOffset="21.40746469413373" xlink:href="#id76">April</textPath></text><line stroke="#e1ed5e" stroke-width="0.3" x1="174.33088141563837" x2="178.70328620479359" y1="141.23008692659167" y2="143.65538615756765" /><path d="M 175.20536237346943 141.71514677278685 a86.0,86.0 0 0,1 -30.301960400862466,31.631185727798858" fill="none" id="id77" stroke="none" /><text fill="#e1ed5e" style="font-size:6.75px; font-family:Arial;" text-anchor="middle"><textPath startOffset="22.145653131862474" xlink:href="#id77">May</textPath></text><line stroke="#e1ed5e" stroke-width="0.3" x1="143.1302829299769" x2="145.66735839644613" y1="173.24464959558577" y2="177.55315839532614" /><path d="M 143.63769802327073 174.10635135553383 a86.0,86.0 0 0,1 -40.68552437913181,11.842963189579606" fill="none" id="id78" stroke="none" /><text fill="#e1ed5e" style="font-size:6.75px; font-family:Arial;" text-anchor="middle"><textPath startOffset="21.407464694133747" xlink:href="#id78">June</textPath></text><line stroke="#e1ed5e" stroke-width="0.3" x1="101.45913802915013" x2="101.54496967792366" y1="184.9874750549273" y2="189.98673829345242" /><path d="M 101.47630435890484 185.9873277026323 a86.0,86.0 0 0,1 -42.54439059252881,-10.42667462771756" fill="none" id="id79" stroke="none" /><text fill="#e1ed5e" style="font-size:6.75px; font-family:Arial;" text-anchor="middle"><textPath startOffset="22.145653131862474" xlink:href="#id79">July</textPath></text><line stroke="#e1ed5e" stroke-width="0.3" x1="58.13341422392154" x2="55.67067388415222" y1="173.97424548756322" y2="178.32567169271397" /><path d="M 57.64086615596768 174.84453072859336 a86.0,86.0 0 0,1 -31.369924170532247,-30.572349798747897" fill="none" id="id80" stroke="none" /><text fill="#e1ed5e" style="font-size:6.75px; font-family:Arial;" text-anchor="middle"><textPath startOffset="22.145653131862474" xlink:href="#id80">August</textPath></text><line stroke="#e1ed5e" stroke-width="0.3" x1="26.387840678322732" x2="22.057713659400548" y1="142.50000000000003" y2="145.00000000000006" /><path d="M 25.521815274538298 143.00000000000003 a86.0,86.0 0 0,1 -11.493303480769221,-40.785679425670985" fill="none" id="id81" stroke="none" /><text fill="#e1ed5e" style="font-size:6.75px; font-family:Arial;" text-anchor="middle"><textPath startOffset="21.40746469413373" xlink:href="#id81">September</textPath></text><line stroke="#e1ed5e" stroke-width="0.3" x1="15.003131293944662" x2="10.003315487706104" y1="100.72959589197737" y2="100.7725132973878" /><path d="M 14.003168132696942 100.73817937305945 a86.0,86.0 0 0,1 10.791469493833604,-42.45332614584628" fill="none" id="id82" stroke="none" /><text fill="#e1ed5e" style="font-size:6.75px; font-family:Arial;" text-anchor="middle"><textPath startOffset="22.145653131862435" xlink:href="#id82">October</textPath></text><line stroke="#e1ed5e" stroke-width="0.3" x1="26.387840678322718" x2="22.05771365940052" y1="57.49999999999999" y2="54.99999999999999" /><path d="M 25.521815274538284 56.99999999999999 a86.0,86.0 0 0,1 29.574782752854787,-30.34633250058573" fill="none" id="id83" stroke="none" /><text fill="#e1ed5e" style="font-size:6.75px; font-family:Arial;" text-anchor="middle"><textPath startOffset="21.40746469413373" xlink:href="#id83">November</textPath></text><line stroke="#e1ed5e" stroke-width="0.3" x1="56.869717070023135" x2="54.33264160355391" y1="26.7553504044142" y2="22.446841604673864" /><path d="M 56.362301976729285 25.89364864446614 a86.0,86.0 0 0,1 42.16139366436587,-11.88097634709845" fill="none" id="id84" stroke="none" /><text fill="#e1ed5e" style="font-size:6.75px; font-family:Arial;" text-anchor="middle"><textPath startOffset="22.145653131862474" xlink:href="#id84">December</textPath></text></svg>