<?xml version="1.0" encoding="utf-8" ?>
<svg baseProfile="full" height="200mm" version="1.1" viewBox="0,0,200,200" width="200mm" xmlns="http://www.w3.org/2000/svg" xmlns:ev="http://www.w3.org/2001/xml-events" xmlns:xlink="http://www.w3.org/1999/xlink"><defs /><rect fill="#1a1a1a" height="200" width="200" x="0" y="0" /><text alignment-baseline="middle" fill="#e1ed5e" style="dominant-baseline: central; font-size:9.0px; font-family:Arial;" text-anchor="middle" x="100.0" y="100.0">2025</text><line stroke="#e1ed5e" stroke-width="0.3" x1="100.0" x2="100.0" y1="15.0" y2="10.0" /><path d="M 100.0 14.0 a86.0,86.0 0 0,1 42.46469731375804,11.215312516191453" fill="none" id="id85" stroke="none" /><text fill="#e1ed5e" style="font-size:6.75px; font-family:Arial;" text-anchor="middle"><textPath startOffset="22.20632615414155" xlink:href="#id85">January</textPath></text><path d="M 100.0 79.0 l 0.0 -48.05096661553196 a69.05096661553196,69.05096661553196 0 0,0 1.1885988812578023,0.010230645825045025 l -0.827118401985274 48.043847346315474" fill="#37ff76" stroke="none" /><path d="M 100.36148047927253 79.00311137660856 l 0.3869094019943235 -22.473948350867953 a43.47727860224258,43.47727860224258 0 0,0 0.748168117193456,0.019322975156155685 l -0.7737041543826473 22.46395858356944" fill="#ffba11" stroke="none" /><path d="M 101.08401301168833 79.027996857942 l 1.7266767530040825 -33.40538342147835 a54.44997838781581,54.44997838781581 0 0,0 0.9356008877231842,0.05643800056265959 l -2.301439689566879 33.37071215153538" fill="#a6ff21" stroke="none" /><path d="M 101.44485096284872 79.0497635885617 l 3.3680258562934475 -48.836135866957726 a69.95213748739289,69.95213748739289 0 0,0 1.20054460121575,0.09318536693172848 l -4.208160646871538 48.77092523783753" fill="#38ff82" stroke="none" /><path d="M 102.16513564639614 79.11191278185805 l 3.5306240817887584 -34.06159973285249 a55.24409266965565,55.24409266965565 0 0,0 0.9450246438730772,0.10618452985678194 l -4.1164154291715604 33.995779249525114" fill="#9cff22" stroke="none" /><path d="M 102.52436894288641 79.15227682838746 l 2.941904794965986 -24.29597976774439 a45.47344349897024,45.47344349897024 0 0,0 0.7762647494481651,0.10078144342585532 l -3.359684272921997 24.2417400011544" fill="#ffd914" stroke="none" /><path d="M 102.88285421437855 79.19881850522331 l 4.589085783158819 -33.1124639582801 a54.42895418216952,54.42895418216952 0 0,0 0.9269277323033935,0.13660505270239195 l -5.158382495890868 33.02856442141674" fill="#a7ff21" stroke="none" /><path d="M 103.59715602781102 79.31037775812273 l 4.2055055406295825 -24.188642443929833 a45.551511157819796,45.551511157819796 0 0,0 0.7713495051836365,0.14095919173035154 l -4.62125016691612 24.112667770848745" fill="#ffda14" stroke="none" /><path d="M 103.95276090670814 79.375362276772 l 4.197063467260855 -21.899354794454354 a43.29791654306757,43.29791654306757 0 0,0 0.7307731439501044,0.14658621791958573 l -4.573403020678085 21.82386462045756" fill="#ffb811" stroke="none" /><path d="M 104.66035177308747 79.52364482259891 l 4.937480938754826 -21.69398755849967 a43.24877107187958,43.24877107187958 0 0,0 0.7244711062413175,0.1714589041246534 l -5.310175731958666 21.605782742234148" fill="#ffb711" stroke="none" /><path d="M 106.40334571778207 80.00007090966166 l 7.152369578838474 -22.33939735713814 a44.456450389443084,44.456450389443084 0 0,0 0.7267934800392181,0.2396123834397662 l -7.5358458811201094 22.21297124943914" fill="#ffc912" stroke="none" /><path d="M 106.74666289553966 80.11325718540242 l 13.581440848601842 -40.03321722008325 a63.274271330378255,63.274271330378255 0 0,0 1.028411784992446,0.35879267838912837 l -14.268534637657563 39.793503688521916" fill="#38ff2e" stroke="none" /><path d="M 107.08798089147638 80.2323363322302 l 7.826836623616586 -21.8282577686251 a44.18905364059361,44.18905364059361 0 0,0 0.7137956191558585,0.26289695050413314 l -8.20141456854502 21.690297550314643" fill="#ffc512" stroke="none" /><path d="M 107.4271985657038 80.35727306442388 l 3.935059020233918 -10.407058479189322 a32.12616536287281,32.12616536287281 0 0,0 0.5155742176806056,0.20003478653401996 l -4.11361640291419 10.337780988764754" fill="#ff0000" stroke="none" /><path d="M 108.09893153111575 80.62456947434976 l 14.97789925117691 -35.83228790691938 a59.83671359194502,59.83671359194502 0 0,0 0.9468910384310637,0.40540932642939176 l -15.592474047398287 35.569159052527205" fill="#61ff29" stroke="none" /><path d="M 108.43124777332544 80.76684994638697 l 17.866264859653793 -40.75607338103212 a65.50012289281204,65.50012289281204 0 0,0 1.0287196082225152,0.4615565017526148 l -18.56516658634309 40.44249654876297" fill="#32ff45" stroke="none" /><line stroke="#e1ed5e" stroke-width="0.3" x1="143.23703022742887" x2="145.7803849466894" y1="26.81831364943548" y2="22.513508569990506" /><path d="M 143.74570117128098 25.957352633546492 a86.0,86.0 0 0,1 28.547481713284135,27.462654790039103" fill="none" id="id86" stroke="none" /><text fill="#e1ed5e" style="font-size:6.75px; font-family:Arial;" text-anchor="middle"><textPath startOffset="19.985693538727396" xlink:href="#id86">February</textPath></text><path d="M 110.99172775467656 82.1063720568725 l 23.577975220639868 -38.38300271501075 a66.04637402639229,66.04637402639229 0 0,0 0.9635878122354574,0.6033985996221277 l -24.235182185247588 37.97145977406567" fill="#32ff4c" stroke="none" /><path d="M 111.2981086023043 82.29822771554956 l 16.639871183309904 -26.071196595637712 a51.92883128935749,51.92883128935749 0 0,0 0.7493403901504921,0.48739183401289166 l -17.08617859924468 25.780905837465294" fill="#c8ff1d" stroke="none" /><path d="M 113.06298171725822 83.55741782278167 l 34.01372302821273 -42.813612401037375 a75.68033248862181,75.68033248862181 0 0,0 1.0130230599076628,0.8191275300803398 l -34.74564948668488 42.221778773692904" fill="#41ffcc" stroke="none" /><path d="M 113.89432698308785 84.25364557470407 l 33.857316783210045 -38.3702867081558 a72.17222686013102,72.17222686013102 0 0,0 0.9244540964811812,0.8299840155261322 l -34.51278186728722 37.781803683860375" fill="#3bff9f" stroke="none" /><path d="M 114.16331599549186 84.49514656593476 l 28.056648618903594 -30.714150896981536 a62.59969467492732,62.59969467492732 0 0,0 0.7893288393700221,0.7335951320298744 l -28.581185342068462 30.22665117887702" fill="#40ff2d" stroke="none" /><path d="M 114.94478906791727 85.2469230424477 l 44.8343672037518 -44.25923087265689 a84.0,84.0 0 0,0 1.0069429451875638,1.0377432177995427 l -45.58957441264248 43.480923459307235" fill="#4dd2ff" stroke="none" /><path d="M 115.19652480421416 85.50635884689758 l 26.018698858592934 -24.815258053111318 a56.95510704387697,56.95510704387697 0 0,0 0.6705316019960311,0.7152763615454515 l -26.441997782559426 24.363712274687813" fill="#86ff25" stroke="none" /><path d="M 115.4437574822437 85.77008943001954 l 24.55763462901599 -22.627456108588408 a54.39280144759257,54.39280144759257 0 0,0 0.6285123417127447,0.6940190257372985 l -24.94349061134477 22.20138429558156" fill="#a7ff21" stroke="none" /><line stroke="#e1ed5e" stroke-width="0.3" x1="172.23445277983987" x2="176.4835382374775" y1="55.19839476539836" y2="52.563006222186495" /><path d="M 173.08426987136738 54.67131705675599 a86.0,86.0 0 0,1 12.851231095245387,41.99856678651699" fill="none" id="id87" stroke="none" /><text fill="#e1ed5e" style="font-size:6.75px; font-family:Arial;" text-anchor="middle"><textPath startOffset="22.20632615414155" xlink:href="#id87">March</textPath></text><line stroke="#e1ed5e" stroke-width="0.3" x1="184.98032266829074" x2="189.97916517819016" y1="98.17113171792111" y2="98.06355123074" /><path d="M 185.9800911702706 98.14961562048488 a86.0,86.0 0 0,1 -9.607161424134198,41.387399972396054" fill="none" id="id88" stroke="none" /><text fill="#e1ed5e" style="font-size:6.75px; font-family:Arial;" text-anchor="middle"><textPath startOffset="21.466115282336823" xlink:href="#id88">April</textPath></text><line stroke="#e1ed5e" stroke-width="0.3" x1="174.80103733775053" x2="179.2010983576182" y1="140.37084112569926" y2="142.7455964860345" /><path d="M 175.68104954172406 140.8457921977663 a86.0,86.0 0 0,1 -30.038265399797805,32.042727171017184" fill="none" id="id89" stroke="none" /><text fill="#e1ed5e" style="font-size:6.75px; font-family:Arial;" text-anchor="middle"><textPath startOffset="22.206326154141568" xlink:href="#id89">May</textPath></text><line stroke="#e1ed5e" stroke-width="0.3" x1="143.8653032363475" x2="146.44561519142675" y1="172.8068346515853" y2="177.08958963109032" /><path d="M 144.38136562736335 173.6633856474863 a86.0,86.0 0 0,1 -40.68145358897372,12.25698825130547" fill="none" id="id90" stroke="none" /><text fill="#e1ed5e" style="font-size:6.75px; font-family:Arial;" text-anchor="middle"><textPath startOffset="21.466115282336833" xlink:href="#id90">June</textPath></text><line stroke="#e1ed5e" stroke-width="0.3" x1="102.19456741930631" x2="102.32365962044197" y1="184.97166512339345" y2="189.96999836594603" /><path d="M 102.22038585953345 185.97133177190398 a86.0,86.0 0 0,1 -42.740103519485714,-10.115201625700543" fill="none" id="id91" stroke="none" /><text fill="#e1ed5e" style="font-size:6.75px; font-family:Arial;" text-anchor="middle"><textPath startOffset="22.20632615414155" xlink:href="#id91">July</textPath></text><line stroke="#e1ed5e" stroke-width="0.3" x1="58.666819895761336" x2="56.23545636021788" y1="174.27360380694188" y2="178.64263932499728" /><path d="M 58.180547188652646 175.14741091055294 a86.0,86.0 0 0,1 -31.652253787137756,-30.449443065178592" fill="none" id="id92" stroke="none" /><text fill="#e1ed5e" style="font-size:6.75px; font-family:Arial;" text-anchor="middle"><textPath startOffset="22.20632615414155" xlink:href="#id92">August</textPath></text><line stroke="#e1ed5e" stroke-width="0.3" x1="26.63291911575756" x2="22.317208475507996" y1="142.92168965132927" y2="145.44649492493687" /><path d="M 25.769776987707644 143.4266507060508 a86.0,86.0 0 0,1 -11.730757126820373,-40.83630448921669" fill="none" id="id93" stroke="none" /><text fill="#e1ed5e" style="font-size:6.75px; font-family:Arial;" text-anchor="middle"><textPath startOffset="21.46611528233685" xlink:href="#id93">September</textPath></text><line stroke="#e1ed5e" stroke-width="0.3" x1="15.007084014347285" x2="10.007500721073583" y1="101.09737516637583" y2="101.16192664675087" /><path d="M 14.007167355692545 101.11028546245083 a86.0,86.0 0 0,1 10.666146001902534,-42.60595125391555" fill="none" id="id94" stroke="none" /><text fill="#e1ed5e" style="font-size:6.75px; font-family:Arial;" text-anchor="middle"><textPath startOffset="22.20632615414155" xlink:href="#id94">October</textPath></text><line stroke="#e1ed5e" stroke-width="0.3" x1="26.266209847984243" x2="21.928928074336255" y1="57.711370442889674" y2="55.22380399835377" /><path d="M 25.398753493254645 57.213857153982495 a86.0,86.0 0 0,1 29.58750427330803,-30.492523968695096" fill="none" id="id95" stroke="none" /><text fill="#e1ed5e" style="font-size:6.75px; font-family:Arial;" text-anchor="middle"><textPath startOffset="21.46611528233685" xlink:href="#id95">November</textPath></text><line stroke="#e1ed5e" stroke-width="0.3" x1="56.762969772571076" x2="54.21961505331055" y1="26.818313649435495" y2="22.513508569990535" /><path d="M 56.25429882871897 25.957352633546506 a86.0,86.0 0 0,1 42.265352541879196,-11.944610805530505" fill="none" id="id96" stroke="none" /><text fill="#e1ed5e" style="font-size:6.75px; font-family:Arial;" text-anchor="middle"><textPath startOffset="22.20632615414155" xlink:href="#id96">December</textPath></text></svg>