<?xml version="1.0" encoding="utf-8" ?>
<svg baseProfile="full" height="200mm" version="1.1" viewBox="0,0,200,200" width="200mm" xmlns="http://www.w3.org/2000/svg" xmlns:ev="http://www.w3.org/2001/xml-events" xmlns:xlink="http://www.w3.org/1999/xlink"><defs /><rect fill="#1a1a1a" height="200" width="200" x="0" y="0" /><text alignment-baseline="middle" fill="#e1ed5e" style="dominant-baseline: central; font-size:9.0px; font-family:Arial;" text-anchor="middle" x="100.0" y="100.0">2024</text><line stroke="#e1ed5e" stroke-width="0.3" x1="100.0" x2="100.0" y1="15.0" y2="10.0" /><path d="M 100.0 14.0 a86.0,86.0 0 0,1 42.35913384403234,11.155469271406648" fill="none" id="id73" stroke="none" /><text fill="#e1ed5e" style="font-size:6.75px; font-family:Arial;" text-anchor="middle"><textPath startOffset="22.145653131862478" xlink:href="#id73">January</textPath></text><path d="M 100.36049292484886 79.00309439819443 l 0.37969323853345305 -22.115227616390438 a43.11848682618561,43.11848682618561 0 0,0 0.7399680271225443,0.019058951531381502 l -0.7592745797267386 22.105450947509013" fill="#ebff1a" stroke="none" /><path d="M 100.72087961077811 79.0123766808444 l 0.7593039054598992 -22.1063047342328 a43.11934111639879,43.11934111639879 0 0,0 0.7395464709520011,0.031759307535293026 l -1.1386761370127365 22.090012858271677" fill="#ebff1a" stroke="none" /><path d="M 101.08105385017728 79.02784411241856 l 1.1376593400307464 -22.070287268460568 a43.099589337504256,43.099589337504256 0 0,0 0.7385538401844005,0.04442956503452245 l -1.5163575323476095 22.047505725601354" fill="#ebff1a" stroke="none" /><path d="M 101.80034050326958 79.07731436759882 l 2.5559154094119116 -29.703611354083865 a50.81337335919116,50.81337335919116 0 0,0 0.8684258040235266,0.0822408265399321 l -3.0654407768204512 29.65535877203875" fill="#92ff23" stroke="none" /><path d="M 102.15924093988457 79.11130261209362 l 2.264832470495324 -21.9101996616507 a43.02694521110016,43.02694521110016 0 0,0 0.7340480825203199,0.08225161872418325 l -2.640616454616441 21.868092282419546" fill="#ecff1a" stroke="none" /><path d="M 102.87502721639298 79.19773525538626 l 0.22200551035533608 -1.6063212810099312 a22.621590116044594,22.621590116044594 0 0,0 0.384216822172691,0.05646664162646036 l -0.24954743813570907 1.6022735660845884" fill="#ff0000" stroke="none" /><path d="M 103.23170211078529 79.25015418208739 l 2.3465696285690267 -15.066660330884265 a36.24829966087905,36.24829966087905 0 0,0 0.614015984068973,0.10103609651806467 l -2.6048631156910704 15.024158235870532" fill="#ffbd11" stroke="none" /><path d="M 103.58742460773223 79.30868818359171 l 5.324385831766326 -30.709642577153964 a52.16779157563239,52.16779157563239 0 0,0 0.881052557105941,0.16055712530957264 l -5.8507731224233215 30.613717277913025" fill="#84ff25" stroke="none" /><path d="M 104.9986988182912 79.60360301121754 l 7.4279259575251135 -30.308472692650742 a52.20540980329582,52.20540980329582 0 0,0 0.8685854214414601,0.2207910175535506 l -7.947116672191968 30.17649644326192" fill="#83ff25" stroke="none" /><path d="M 105.69591212413111 79.78721728523813 l 3.9966766512874887 -14.182795480883476 a35.73516582558592,35.73516582558592 0 0,0 0.589017612209982,0.17145444247966765 l -4.239554275879075 14.112097344101292" fill="#ffb610" stroke="none" /><path d="M 106.72888874123014 80.10723608172694 l 10.10242062417822 -29.866011492877032 a52.528360962163646,52.528360962163646 0 0,0 0.8516954148358338,0.29626387652197744 l -10.613621811059073 29.688189183786466" fill="#80ff26" stroke="none" /><path d="M 107.06938296918511 80.22567764915836 l 8.817280712469728 -24.663503424024146 a47.19222862433324,47.19222862433324 0 0,0 0.7604934344806243,0.27926372307296116 l -9.239363298604477 24.508508851942462" fill="#bbff1f" stroke="none" /><path d="M 107.74402155503746 80.48000691201159 l 8.353741483678794 -21.056885606701176 a43.653419791056606,43.653419791056606 0 0,0 0.6941840377621106,0.28231860483424553 l -8.713979982631344 20.910379745287635" fill="#e5ff1a" stroke="none" /><path d="M 108.4095320186766 80.7573450057729 l 12.68456792880676 -29.02477377608913 a52.675475628531046,52.675475628531046 0 0,0 0.8254663346454472,0.36922059197901164 l -13.180947666307839 28.802749433200265" fill="#7eff26" stroke="none" /><path d="M 109.06512990194946 81.05736502329252 l 11.67884030245129 -24.404284460724575 a48.054840802527806,48.054840802527806 0 0,0 0.7410508412972215,0.3624851010096892 l -12.09605139301058 24.200205609617665" fill="#b1ff20" stroke="none" /><path d="M 109.3889696526874 81.21577127319529 l 14.806195301455341 -29.622308879938874 a54.11653065590271,54.11653065590271 0 0,0 0.8273973737577602,0.42247499448040793 l -15.31251989692668 29.363775933785632" fill="#6fff28" stroke="none" /><path d="M 109.71004243097381 81.37971332152246 l 10.965463548744513 -21.027722205282007 a44.715111047206896,44.715111047206896 0 0,0 0.6775642113603428,0.36076477859340317 l -11.324816575891415 20.83638695896603" fill="#d8ff1c" stroke="none" /><path d="M 110.02825361518725 81.54914285379988 l 7.036556406937168 -12.946471244899065 a35.73513636730271,35.73513636730271 0 0,0 0.5364623536584039,0.2975666244356753 l -7.257762948751673 12.823771705030243" fill="#ffb610" stroke="none" /><path d="M 110.34350942703115 81.72400993836675 l 9.848005887571976 -17.400482785641028 a40.993999628264525,40.993999628264525 0 0,0 0.6094588312605835,0.35187122028829265 l -10.145257186692955 17.22886466807656" fill="#fff917" stroke="none" /><line stroke="#e1ed5e" stroke-width="0.3" x1="143.13028292997686" x2="145.6673583964461" y1="26.7553504044142" y2="22.446841604673864" /><path d="M 143.63769802327073 25.89364864446614 a86.0,86.0 0 0,1 29.32050498858742,28.57503671076993" fill="none" id="id74" stroke="none" /><text fill="#e1ed5e" style="font-size:6.75px; font-family:Arial;" text-anchor="middle"><textPath startOffset="20.669276256404974" xlink:href="#id74">February</textPath></text><path d="M 111.27062007382361 82.28071324371311 l 18.86738060933616 -29.662656106499036 a56.1546756257255,56.1546756257255 0 0,0 0.8089331520347234,0.5243406958958313 l -19.37379939362789 29.33440156889931" fill="#5aff2a" stroke="none" /><path d="M 111.5731344415666 82.4767994020092 l 12.209502810956286 -18.486743417555783 a43.15472051453801,43.15472051453801 0 0,0 0.6146541472397533,0.41356674140593885 l -12.52505324629304 18.274427002092725" fill="#ebff1a" stroke="none" /><path d="M 111.8722381534696 82.67804972795209 l 8.340631491701576 -12.169230609184599 a35.75317956577088,35.75317956577088 0 0,0 0.5032769231327553,0.35132637880223955 l -8.548303506008091 12.024259414577232" fill="#ffb610" stroke="none" /><path d="M 112.16784306229584 82.88440491214696 l 8.62256110641001 -12.128712029076604 a35.8813378268905,35.8813378268905 0 0,0 0.498953905649471,0.361204149462227 l -8.82949602243345 11.978907108241302" fill="#ffb811" stroke="none" /><path d="M 113.31354834802062 83.75963576809568 l 18.900804057462324 -23.0559077223526 a50.81300513065099,50.81300513065099 0 0,0 0.6698259037394106,0.5587925920832131 l -19.293804295363625 22.728052946357515" fill="#92ff23" stroke="none" /><path d="M 113.59037401385872 83.9905735841838 l 20.188155558633213 -23.781596485674825 a52.194966841896694,52.194966841896694 0 0,0 0.6780884765507865,0.5857166758143971 l -20.59342351494686 23.431535677395708" fill="#83ff25" stroke="none" /><path d="M 114.39649973595853 84.71141617570332 l 31.677731889051103 -33.64065350827504 a67.2079242781844,67.2079242781844 0 0,0 0.8331462789281944,0.7981352886819183 l -32.25055065384461 33.091906089287534" fill="#38ff80" stroke="none" /><path d="M 115.16444852881244 85.47280134310134 l 22.663811807373566 -21.711419035299723 a52.385252622313246,52.385252622313246 0 0,0 0.6165099801836671,0.6547122344614837 l -23.033177621293493 21.319165340893743" fill="#81ff25" stroke="none" /><path d="M 115.41159269507618 85.73525988315684 l 16.24116788656107 -15.032582529243081 a43.1303879726038,43.1303879726038 0 0,0 0.498263394558834,0.5476787535196553 l -16.49682898196178 14.751566200165753" fill="#ebff1a" stroke="none" /><path d="M 115.8921839302757 86.27271002978787 l 37.278172714526754 -32.199997725742435 a70.25953729453724,70.25953729453724 0 0,0 0.780568191251921,0.9195073665839698 l -37.825435469285786 31.555323576708915" fill="#3cffa2" stroke="none" /><path d="M 116.35404254752997 86.82634096563983 l 18.466981931157697 -14.875693434679551 a44.713196258798035,44.713196258798035 0 0,0 0.4763734760193029,0.6018823250567156 l -18.719621837818558 14.556491165708158" fill="#d8ff1c" stroke="none" /><path d="M 116.57777611688842 87.10902102172516 l 15.2784901740098 -11.880646370431673 a40.354121529446005,40.354121529446005 0 0,0 0.4205437953487265,0.550505327748674 l -15.480185946712835 11.616620129442119" fill="#fff116" stroke="none" /><path d="M 116.7966241395341 87.39550010848427 l 6.186925050509485 -4.642783899915607 a28.73521065789015,28.73521065789015 0 0,0 0.29268588221695374,0.39708461117854765 l -6.265712952310264 4.5358929794681835" fill="#ff5808" stroke="none" /><path d="M 117.01052211995028 87.68569379921539 l 25.200501308145583 -18.243219539852948 a52.110775068472975,52.110775068472975 0 0,0 0.5183406721764457,0.7291110689969508 l -25.50995707885199 17.807931244146495" fill="#84ff25" stroke="none" /><path d="M 117.21940702142032 87.97951657250589 l 19.45079395502313 -13.578164805391355 a44.721297286681704,44.721297286681704 0 0,0 0.43403139856946144,0.6332647816983437 l -19.681015090407914 13.242265288622963" fill="#d8ff1c" stroke="none" /><path d="M 117.42321728460499 88.27688183743584 l 18.406460879709332 -12.384688334117804 a43.185092004530965,43.185092004530965 0 0,0 0.40856297067906333,0.6186164109877118 l -18.61634828930912 12.066892044791034" fill="#eaff1a" stroke="none" /><path d="M 117.62189284568427 88.57770195909679 l 26.085177230146595 -16.90809672841062 a52.08569134031682,52.08569134031682 0 0,0 0.47988856160885207,0.7544645262205663 l -26.371583483381336 16.45781852751138" fill="#85ff25" stroke="none" /><line stroke="#e1ed5e" stroke-width="0.3" x1="172.87174338648825" x2="177.1583165268699" y1="56.24261187166439" y2="53.66864786411523" /><path d="M 173.72905801456457 55.72781907015455 a86.0,86.0 0 0,1 12.242430191666344,42.057860355516425" fill="none" id="id75" stroke="none" /><text fill="#e1ed5e" style="font-size:6.75px; font-family:Arial;" text-anchor="middle"><textPath startOffset="22.145653131862474" xlink:href="#id75">March</textPath></text><path d="M 118.00360718960297 89.18935116829356 l 17.115640787775945 -10.277450520756311 a40.96424676221905,40.96424676221905 0 0,0 0.3568303655972098,0.605975971353229 l -17.289544863502922 9.982123381109526" fill="#fff917" stroke="none" /><path d="M 118.18653347947321 89.5 l 15.741499663927357 -9.088359068416866 a39.17671813683373,39.17671813683373 0 0,0 0.33126085757445684,0.5853061945317465 l -15.89519388652319 8.816796103786002" fill="#ffe215" stroke="none" /><path d="M 118.36410011445183 89.81374322990088 l 27.55789061422135 -15.285897380719135 a52.51342561257448,52.51342561257448 0 0,0 0.43049668699207344,0.7920654162130445 l -27.816232650828766 14.810577131031486" fill="#80ff25" stroke="none" /><path d="M 118.53625476483649 90.13048839642627 l 20.934450858932212 -11.146415944747504 a44.71695218990773,44.71695218990773 0 0,0 0.3549502433376571,0.6806638935438354 l -21.122709171244814 10.78540580809917" fill="#d8ff1c" stroke="none" /><path d="M 118.8641267826498 90.77261029715802 l 39.71366769799804 -19.42594494835768 a65.21021080207191,65.21021080207191 0 0,0 0.48324101874328546,1.0097878709777584 l -40.041287974701234 18.74134457531482" fill="#35ff69" stroke="none" /><path d="M 119.0197475246899 91.09779779509293 l 48.035052758016086 -22.482830122752137 a74.03625122304479,74.03625122304479 0 0,0 0.528885135588139,1.1557094698302688 l -48.413922358459274 21.654931670707185" fill="#41ffcb" stroke="none" /><path d="M 119.16976305983485 91.42560881287824 l 13.458249437333377 -6.0197037912972435 a35.74317847861995,35.74317847861995 0 0,0 0.24571923434918738,0.5622536951552248 l -13.559602553699534 5.78778802636617" fill="#ffb610" stroke="none" /><path d="M 119.31412917781788 91.75594674310238 l 40.65925978374074 -17.355020252643072 a65.20828128452143,65.20828128452143 0 0,0 0.4306049207789742,1.0332950536522612 l -40.95119054905619 16.654492689549535" fill="#35ff69" stroke="none" /><path d="M 119.4528033332814 92.08871423366111 l 29.076459182471375 -11.825142820020298 a52.38908219913098,52.38908219913098 0 0,0 0.33165114308862365,0.8359775311449383 l -29.275169000526123 11.324264271661795" fill="#81ff25" stroke="none" /><path d="M 120.26092885502905 94.47779374421319 l 30.14379199766754 -8.215824552453247 a52.24336680121621,52.24336680121621 0 0,0 0.2284043157394561,0.867288389719375 l -30.28038579421173 7.697155658361073" fill="#83ff25" stroke="none" /><path d="M 120.65975698304385 96.23510406497455 l 7.540334199120197 -1.3741000728275978 a28.6645150430126,28.6645150430126 0 0,0 0.08406235192478693,0.48484930720145486 l -7.5628113685372185 1.2444577327055504" fill="#ff5708" stroke="none" /><path d="M 120.77682067341334 96.94652285012252 l 62.330462020240034 -9.160431449632455 a84.0,84.0 0 0,0 0.19742193377914985,1.4284467671996575 l -62.478528470574396 8.089096374232712" fill="#4dd2ff" stroke="none" /><line stroke="#e1ed5e" stroke-width="0.3" x1="184.99686870605535" x2="189.99668451229388" y1="99.2704041080226" y2="99.22748670261217" /><path d="M 185.99683186730306 99.26182062694052 a86.0,86.0 0 0,1 -10.086455211305974,41.156179273409016" fill="none" id="id76" stroke="none" /><text fill="#e1ed5e" style="font-size:6.75px; font-family:Arial;" text-anchor="middle"><textPath startOffset="21.40746469413373" xlink:href="#id76">April</textPath></text><line stroke="#e1ed5e" stroke-width="0.3" x1="174.33088141563837" x2="178.70328620479359" y1="141.23008692659167" y2="143.65538615756765" /><path d="M 175.20536237346943 141.71514677278685 a86.0,86.0 0 0,1 -30.301960400862466,31.631185727798858" fill="none" id="id77" stroke="none" /><text fill="#e1ed5e" style="font-size:6.75px; font-family:Arial;" text-anchor="middle"><textPath startOffset="22.145653131862474" xlink:href="#id77">May</textPath></text><line stroke="#e1ed5e" stroke-width="0.3" x1="143.1302829299769" x2="145.66735839644613" y1="173.24464959558577" y2="177.55315839532614" /><path d="M 143.63769802327073 174.10635135553383 a86.0,86.0 0 0,1 -40.68552437913181,11.842963189579606" fill="none" id="id78" stroke="none" /><text fill="#e1ed5e" style="font-size:6.75px; font-family:Arial;" text-anchor="middle"><textPath startOffset="21.407464694133747" xlink:href="#id78">June</textPath></text><line stroke="#e1ed5e" stroke-width="0.3" x1="101.45913802915013" x2="101.54496967792366" y1="184.9874750549273" y2="189.98673829345242" /><path d="M 101.47630435890484 185.9873277026323 a86.0,86.0 0 0,1 -42.54439059252881,-10.42667462771756" fill="none" id="id79" stroke="none" /><text fill="#e1ed5e" style="font-size:6.75px; font-family:Arial;" text-anchor="middle"><textPath startOffset="22.145653131862474" xlink:href="#id79">July</textPath></text><line stroke="#e1ed5e" stroke-width="0.3" x1="58.13341422392154" x2="55.67067388415222" y1="173.97424548756322" y2="178.32567169271397" /><path d="M 57.64086615596768 174.84453072859336 a86.0,86.0 0 0,1 -31.369924170532247,-30.572349798747897" fill="none" id="id80" stroke="none" /><text fill="#e1ed5e" style="font-size:6.75px; font-family:Arial;" text-anchor="middle"><textPath startOffset="22.145653131862474" xlink:href="#id80">August</textPath></text><line stroke="#e1ed5e" stroke-width="0.3" x1="26.387840678322732" x2="22.057713659400548" y1="142.50000000000003" y2="145.00000000000006" /><path d="M 25.521815274538298 143.00000000000003 a86.0,86.0 0 0,1 -11.493303480769221,-40.785679425670985" fill="none" id="id81" stroke="none" /><text fill="#e1ed5e" style="font-size:6.75px; font-family:Arial;" text-anchor="middle"><textPath startOffset="21.40746469413373" xlink:href="#id81">September</textPath></text><line stroke="#e1ed5e" stroke-width="0.3" x1="15.003131293944662" x2="10.003315487706104" y1="100.72959589197737" y2="100.7725132973878" /><path d="M 14.003168132696942 100.73817937305945 a86.0,86.0 0 0,1 10.791469493833604,-42.45332614584628" fill="none" id="id82" stroke="none" /><text fill="#e1ed5e" style="font-size:6.75px; font-family:Arial;" text-anchor="middle"><textPath startOffset="22.145653131862435" xlink:href="#id82">October</textPath></text><line stroke="#e1ed5e" stroke-width="0.3" x1="26.387840678322718" x2="22.05771365940052" y1="57.49999999999999" y2="54.99999999999999" /><path d="M 25.521815274538284 56.99999999999999 a86.0,86.0 0 0,1 29.574782752854787,-30.34633250058573" fill="none" id="id83" stroke="none" /><text fill="#e1ed5e" style="font-size:6.75px; font-family:Arial;" text-anchor="middle"><textPath startOffset="21.40746469413373" xlink:href="#id83">November</textPath></text><line stroke="#e1ed5e" stroke-width="0.3" x1="56.869717070023135" x2="54.33264160355391" y1="26.7553504044142" y2="22.446841604673864" /><path d="M 56.362301976729285 25.89364864446614 a86.0,86.0 0 0,1 42.16139366436587,-11.88097634709845" fill="none" id="id84" stroke="none" /><text fill="#e1ed5e" style="font-size:6.75px; font-family:Arial;" text-anchor="middle"><textPath startOffset="22.145653131862474" xlink:href="#id84">December</textPath></text></svg>