<?xml version="1.0" encoding="utf-8" ?>
<svg baseProfile="full" height="200mm" version="1.1" viewBox="0,0,200,200" width="200mm" xmlns="http://www.w3.org/2000/svg" xmlns:ev="http://www.w3.org/2001/xml-events" xmlns:xlink="http://www.w3.org/1999/xlink"><defs /><rect fill="#1a1a1a" height="200" width="200" x="0" y="0" /><text alignment-baseline="middle" fill="#e1ed5e" style="dominant-baseline: central; font-size:9.0px; font-family:Arial;" text-anchor="middle" x="100.0" y="100.0">2024</text><line stroke="#e1ed5e" stroke-width="0.3" x1="100.0" x2="100.0" y1="15.0" y2="10.0" /><path d="M 100.0 14.0 a86.0,86.0 0 0,1 42.35913384403234,11.155469271406648" fill="none" id="id73" stroke="none" /><text fill="#e1ed5e" style="font-size:6.75px; font-family:Arial;" text-anchor="middle"><textPath startOffset="22.145653131862478" xlink:href="#id73">January</textPath></text><path d="M 100.36049292484886 79.00309439819443 l 0.2436508882504652 -14.191442737845863 a35.1935341876822,35.1935341876822 0 0,0 0.6039657691446119,0.015556015799091286 l -0.4872299714658185 14.185169004696727" fill="#ffb510" stroke="none" /><path d="M 100.72087961077811 79.0123766808444 l 0.48724878992295195 -14.18571688354343 a35.19408238962035,35.19408238962035 0 0,0 0.603619136001572,0.025922002913196268 l -0.7306936865253602 14.175262312204401" fill="#ffb510" stroke="none" /><path d="M 101.08105385017728 79.02784411241856 l 0.7300412032502056 -14.162604310978711 a35.18140758274001,35.18140758274001 0 0,0 0.6028680104085146,0.03626704245284351 l -0.9730535657911826 14.147985290701175" fill="#ffb510" stroke="none" /><path d="M 101.80034050326958 79.07731436759882 l 1.6401426114449917 -19.06094329891917 a40.13137807975393,40.13137807975393 0 0,0 0.6858651959421337,0.06495214714707562 l -1.9671073707721383 19.02997939626691" fill="#fff316" stroke="none" /><path d="M 102.15924093988457 79.11130261209362 l 1.4533533578477518 -14.05987536129351 a35.13479151448212,35.13479151448212 0 0,0 0.5994064002085674,0.06716473738547706 l -1.694495659657116 14.032854863401063" fill="#ffb410" stroke="none" /><path d="M 102.87502721639298 79.19773525538626 l 0.14246195166261777 -1.0307837148888621 a22.040581796185002,22.040581796185002 0 0,0 0.37434867545235867,0.05501636388686706 l -0.16013573272265844 1.0281862777031125" fill="#ff0000" stroke="none" /><path d="M 103.23170211078529 79.25015418208739 l 1.505804466128343 -9.668344863782885 a30.784903652834245,30.784903652834245 0 0,0 0.5214706093169927,0.08580779032027162 l -1.6715525784984062 9.641071074966945" fill="#ff7b0b" stroke="none" /><path d="M 103.58742460773223 79.30868818359171 l 3.416682747127084 -19.7065181373216 a41.00051444566117,41.00051444566117 0 0,0 0.6924503990673472,0.12618752944649952 l -3.754467879745485 19.644962433943736" fill="#fffe18" stroke="none" /><path d="M 104.9986988182912 79.60360301121754 l 4.766534069450454 -19.44908558709742 a41.0246542344549,41.0246542344549 0 0,0 0.6825617636560453,0.17350453118435316 l -5.099701126331894 19.3643958240778" fill="#fffe18" stroke="none" /><path d="M 105.69591212413111 79.78721728523813 l 2.5646856917898346 -9.101164745885992 a30.455623323156942,30.455623323156942 0 0,0 0.501995670475622,0.14612362351216315 l -2.7205413746470613 9.055797428071314" fill="#ff760a" stroke="none" /><path d="M 106.72888874123014 80.10723608172694 l 6.482769532763155 -19.165156210957807 a41.231893470590855,41.231893470590855 0 0,0 0.6685343683043278,0.23255095670579437 l -6.810809673112501 19.05104682168342" fill="#fdff18" stroke="none" /><path d="M 107.06938296918511 80.22567764915836 l 5.658089371948783 -15.826682981878871 a37.807672936782595,37.807672936782595 0 0,0 0.6092631748819043,0.2237298769909474 l -5.928941698484812 15.727222255879202" fill="#ffd614" stroke="none" /><path d="M 107.74402155503746 80.48000691201159 l 5.36063412815756 -13.512299828349857 a35.53680311853989,35.53680311853989 0 0,0 0.5651122316661937,0.22982622494906746 l -5.591800821014194 13.418286346821496" fill="#ffba11" stroke="none" /><path d="M 108.4095320186766 80.7573450057729 l 8.139745271378683 -18.625330119461307 a41.32629762504338,41.32629762504338 0 0,0 0.6476157456190914,0.2896702856756882 l -8.458274419853407 18.482856082875767" fill="#fcff18" stroke="none" /><path d="M 109.06512990194946 81.05736502329252 l 7.494365252376965 -15.66034098721166 a38.36121511795118,38.36121511795118 0 0,0 0.5915660162762636,0.28936458231183015 l -7.762091517915295 15.529382654802609" fill="#ffdd14" stroke="none" /><path d="M 109.3889696526874 81.21577127319529 l 9.501203262779766 -19.0087711293043 a42.251029228885116,42.251029228885116 0 0,0 0.6459835876180443,0.3298438226530662 l -9.82611407211139 18.8428693549784" fill="#f1ff19" stroke="none" /><path d="M 109.71004243097381 81.37971332152246 l 7.036588125849137 -13.493585540237616 a36.21809525481263,36.21809525481263 0 0,0 0.5488096657613865,0.2922102351905808 l -7.267186607397083 13.370804837324462" fill="#ffc212" stroke="none" /><path d="M 110.02825361518725 81.54914285379988 l 4.515390438335893 -8.307809827513802 a30.45560441964183,30.45560441964183 0 0,0 0.4572050617386117,0.2536039406468647 l -4.657339688230604 8.22907297143379" fill="#ff760a" stroke="none" /><path d="M 110.34350942703115 81.72400993836675 l 6.319510432344233 -11.165969410158015 a33.83024103332015,33.83024103332015 0 0,0 0.5029550507000383,0.29038123391194903 l -6.510257950904668 11.055841278969893" fill="#ffa30f" stroke="none" /><line stroke="#e1ed5e" stroke-width="0.3" x1="143.13028292997686" x2="145.6673583964461" y1="26.7553504044142" y2="22.446841604673864" /><path d="M 143.63769802327073 25.89364864446614 a86.0,86.0 0 0,1 29.32050498858742,28.57503671076993" fill="none" id="id74" stroke="none" /><text fill="#e1ed5e" style="font-size:6.75px; font-family:Arial;" text-anchor="middle"><textPath startOffset="20.669276256404974" xlink:href="#id74">February</textPath></text><path d="M 111.27062007382361 82.28071324371311 l 12.107284454630427 -19.034662129175125 a43.558916180463754,43.558916180463754 0 0,0 0.6274856184715717,0.4067285968271047 l -12.432255705359006 18.824019690644125" fill="#e1ff1b" stroke="none" /><path d="M 111.5731344415666 82.4767994020092 l 7.8348938118474045 -11.86302782726286 a35.21678551126582,35.21678551126582 0 0,0 0.5015938698910172,0.3374947410858467 l -8.037383969835423 11.726783412119893" fill="#ffb510" stroke="none" /><path d="M 111.8722381534696 82.67804972795209 l 5.352221386328016 -7.80905095572657 a30.46718282264587,30.46718282264587 0 0,0 0.42886899049907595,0.2993838630126652 l -5.485485468000852 7.716022276908777" fill="#ff770a" stroke="none" /><path d="M 112.16784306229584 82.88440491214696 l 5.533136909904742 -7.783049997500157 a30.549422565125987,30.549422565125987 0 0,0 0.4248100719584189,0.3075297316793152 l -5.665927992237129 7.686919494447768" fill="#ff780b" stroke="none" /><path d="M 113.31354834802062 83.75963576809568 l 12.128732434204121 -14.79508146542102 a40.131141785815075,40.131141785815075 0 0,0 0.5290157164619881,0.4413237257685344 l -12.380922484828002 14.584695555740614" fill="#fff316" stroke="none" /><path d="M 113.59037401385872 83.9905735841838 l 12.954831782094459 -15.260759264846099 a41.017952938348884,41.017952938348884 0 0,0 0.5328828218906123,0.46029148972418543 l -13.21489408374793 15.036123642657195" fill="#fffe18" stroke="none" /><path d="M 114.39649973595853 84.71141617570332 l 20.327745477741406 -21.58736126109651 a50.651836408980245,50.651836408980245 0 0,0 0.6279079361288907,0.6015215989593256 l -20.695325899735607 21.235227531831605" fill="#91ff24" stroke="none" /><path d="M 115.16444852881244 85.47280134310134 l 14.543471722953605 -13.932316923949541 a41.14006019419311,41.14006019419311 0 0,0 0.48416789889209216,0.514169530303025 l -14.780495455581958 13.68060593370202" fill="#feff18" stroke="none" /><path d="M 115.41159269507618 85.73525988315684 l 10.422031735592489 -9.646476982564963 a35.20117120778609,35.20117120778609 0 0,0 0.40666119371750514,0.44699188845131993 l -10.58609063015187 9.466147518555971" fill="#ffb510" stroke="none" /><path d="M 115.8921839302757 86.27271002978787 l 23.921573977273898 -20.662885854494533 a52.6100704425988,52.6100704425988 0 0,0 0.5844864499300995,0.688523568347388 l -24.27275499071111 20.249195503697596" fill="#7cff26" stroke="none" /><path d="M 116.35404254752997 86.82634096563983 l 11.850346791033083 -9.545800532821314 a36.21686652633057,36.21686652633057 0 0,0 0.38585375328162713,0.4875136124237018 l -12.01246697495627 9.340966976482935" fill="#ffc212" stroke="none" /><path d="M 116.57777611688842 87.10902102172516 l 9.804277043230812 -7.6238651294558215 a33.41962832988794,33.41962832988794 0 0,0 0.3482771227404747,0.45590593351311653 l -9.933706143325594 7.454438282701823" fill="#ff9e0e" stroke="none" /><path d="M 116.7966241395341 87.39550010848427 l 3.970178109881924 -2.979295669153009 a25.963720067491668,25.963720067491668 0 0,0 0.26445653745368397,0.35878608340453244 l -4.020736666919434 2.9107032764796017" fill="#ff3805" stroke="none" /><path d="M 117.01052211995028 87.68569379921539 l 16.1712769808665 -11.706757440827559 a40.96392669216841,40.96392669216841 0 0,0 0.40746408528188155,0.573149264074357 l -16.369856164678342 11.427430950043698" fill="#fffd18" stroke="none" /><path d="M 117.21940702142032 87.97951657250589 l 12.48166346765381 -8.713170475258087 a36.222064992985445,36.222064992985445 0 0,0 0.35154421901489363,0.5129135215690015 l -12.62939742348403 8.497622218619036" fill="#ffc212" stroke="none" /><path d="M 117.42321728460499 88.27688183743584 l 11.811510155436935 -7.947311163527912 a35.23627503534282,35.23627503534282 0 0,0 0.3333612720471623,0.5047514544290579 l -11.946195866404821 7.743379830759796" fill="#ffb610" stroke="none" /><path d="M 117.62189284568427 88.57770195909679 l 16.73897756737656 -10.850003024583927 a40.947830349053405,40.947830349053405 0 0,0 0.37727051137363304,0.5931319068457004 l -16.92276577037608 10.561057443059555" fill="#fffd17" stroke="none" /><line stroke="#e1ed5e" stroke-width="0.3" x1="172.87174338648825" x2="177.1583165268699" y1="56.24261187166439" y2="53.66864786411523" /><path d="M 173.72905801456457 55.72781907015455 a86.0,86.0 0 0,1 12.242430191666344,42.057860355516425" fill="none" id="id75" stroke="none" /><text fill="#e1ed5e" style="font-size:6.75px; font-family:Arial;" text-anchor="middle"><textPath startOffset="22.145653131862474" xlink:href="#id75">March</textPath></text><path d="M 118.00360718960297 89.18935116829356 l 10.983184996985614 -6.595087018153093 a33.81114848306042,33.81114848306042 0 0,0 0.2945213308694179,0.5001616083293243 l -11.0947800379848 6.405574241530212" fill="#ffa30f" stroke="none" /><path d="M 118.18653347947321 89.5 l 10.101392351163446 -5.832041593134243 a32.664083186268485,32.664083186268485 0 0,0 0.27619292076416885,0.4880064266957603 l -10.200018636948991 5.657778396339365" fill="#ff940d" stroke="none" /><path d="M 118.36410011445183 89.81374322990088 l 17.68402448355057 -9.809030281663903 a41.22230938843077,41.22230938843077 0 0,0 0.3379339171815969,0.6217603453238061 l -17.849803750347508 9.504015102865493" fill="#fdff18" stroke="none" /><path d="M 118.53625476483649 90.13048839642627 l 13.433732890571738 -7.1527061062152635 a36.21927672450692,36.21927672450692 0 0,0 0.2874981513113763,0.5513156131917353 l -13.55453911085806 6.92104424991903" fill="#ffc212" stroke="none" /><path d="M 118.8641267826498 90.77261029715802 l 25.484442250473464 -12.465717746393238 a49.36989453188821,49.36989453188821 0 0,0 0.3658561724520632,0.7644986893397359 l -25.69467768088544 12.0264065549884" fill="#9fff22" stroke="none" /><path d="M 119.0197475246899 91.09779779509293 l 30.824313113538395 -14.42733494794703 a55.033605048858824,55.033605048858824 0 0,0 0.39313789106477626,0.8590772420695955 l -31.06743546945822 13.896068723662749" fill="#62ff29" stroke="none" /><path d="M 119.16976305983485 91.42560881287824 l 8.636220234966581 -3.8628714628138985 a30.460765079266487,30.460765079266487 0 0,0 0.20940487644222552,0.47915933758709417 l -8.701258993425778 3.714050055450955" fill="#ff770a" stroke="none" /><path d="M 119.31412917781788 91.75594674310238 l 26.091233017945928 -11.136795894743695 a49.36865635164859,49.36865635164859 0 0,0 0.3260074631396882,0.7822992326854296 l -26.278566325622098 10.687264152616988" fill="#9fff22" stroke="none" /><path d="M 119.4528033332814 92.08871423366111 l 18.658496881195745 -7.588248247229998 a41.14251765115723,41.14251765115723 0 0,0 0.26045432437021215,0.6565150387702724 l -18.78600988053208 7.266832191246161" fill="#feff18" stroke="none" /><path d="M 120.26092885502905 94.47779374421319 l 19.343409231718166 -5.272132202424895 a41.049011413672375,41.049011413672375 0 0,0 0.17946338334961018,0.6814516978585571 l -19.431062095872505 4.939300000193539" fill="#ffff18" stroke="none" /><path d="M 120.65975698304385 96.23510406497455 l 4.838666952345872 -0.881766303194192 a25.91835436799473,25.91835436799473 0 0,0 0.07600888495494768,0.43839904984498657 l -4.853090654793054 0.7985742204286128" fill="#ff3805" stroke="none" /><path d="M 120.77682067341334 96.94652285012252 l 39.99774263811476 -5.878290769888961 a61.42738822284003,61.42738822284003 0 0,0 0.14437040202328158,1.0445923110051685 l -40.09275755669325 5.190810150683707" fill="#31ff3f" stroke="none" /><path d="M 120.99303781780057 99.45929381324524 l 62.97911345340172 -1.6221185602642854 a84.0,84.0 0 0,0 0.024754273605335886,1.4418123361237345 l -62.99767915860572 0.5407593081714844" fill="#4dd2ff" stroke="none" /><line stroke="#e1ed5e" stroke-width="0.3" x1="184.99686870605535" x2="189.99668451229388" y1="99.2704041080226" y2="99.22748670261217" /><path d="M 185.99683186730306 99.26182062694052 a86.0,86.0 0 0,1 -10.086455211305974,41.156179273409016" fill="none" id="id76" stroke="none" /><text fill="#e1ed5e" style="font-size:6.75px; font-family:Arial;" text-anchor="middle"><textPath startOffset="21.40746469413373" xlink:href="#id76">April</textPath></text><path d="M 120.96210409425399 101.26102812881392 l 9.444239708045687 0.5681420087199862 a30.46131328120464,30.46131328120464 0 0,0 -0.03588058229937934,0.5216957919276134 l -9.433095164581243 -0.7301812248019431" fill="#ff770a" stroke="none" /><path d="M 120.86939407059847 102.33845913500097 l 9.402460858971123 1.0535653509043001 a30.461303829447086,30.461303829447086 0 0,0 -0.06268923815805816,0.5191568214150619 l -9.382989534553401 -1.2148158492427705" fill="#ff770a" stroke="none" /><path d="M 120.82617615685814 102.69636545807757 l 14.286166555412798 1.8496302796167945 a35.40540478501977,35.40540478501977 0 0,0 -0.08321194617729165,0.6020801905542483 l -14.252310092680295 -2.094598778371128" fill="#ffb811" stroke="none" /><path d="M 120.77682067341334 103.0534771498775 l 4.754307942487742 0.6987195439600626 a25.805377509947974,25.805377509947974 0 0,0 -0.06817351614574395,0.4377228780363726 l -4.74161293420373 -0.7802306039278858" fill="#ff3605" stroke="none" /><path d="M 120.7213421655516 103.40968896794604 l 15.018976500944724 2.471366867839604 a36.220949685594036,36.220949685594036 0 0,0 -0.10622256176151935,0.6126635086931351 l -14.97433912169097 -2.728823409453327" fill="#ffc212" stroke="none" /><path d="M 120.592083275326 104.11899336999214 l 56.44132959171096 11.289846649967851 a78.55939822009901,78.55939822009901 0 0,0 -0.27586427909573563,1.3201104394662504 l -56.23920760179086 -12.257073540719512" fill="#46fff9" stroke="none" /><path d="M 120.26092885502905 105.52220625578681 l 9.195905740285172 2.5063850018911555 a30.53135080468213,30.53135080468213 0 0,0 -0.14216197717532442,0.5044827048458193 l -9.151525271035267 -2.6638756306399833" fill="#ff780b" stroke="none" /><path d="M 120.05942366710727 106.21446072829308 l 7.748243772373527 2.400425726867379 a29.111555043660367,29.111555043660367 0 0,0 -0.1519835053037045,0.4760861656852742 l -7.705895551292568 -2.5330809262440366" fill="#ff6409" stroke="none" /><path d="M 119.94978838288452 106.5578916946017 l 9.477511831938221 3.115446386462889 a30.97643406791493,30.97643406791493 0 0,0 -0.17039189154983925,0.5037333507121199 l -9.422634518816016 -3.2776814116491693" fill="#ff7e0b" stroke="none" /><path d="M 119.71291397450082 107.23885506374661 l 14.293162225256042 5.248647150039948 a36.226384446187765,36.226384446187765 0 0,0 -0.2193754541855658,0.581919455599052 l -14.200956087256035 -5.493234885833158" fill="#ffc212" stroke="none" /><path d="M 119.58574465831526 107.57618678355244 l 8.821483096441987 3.412339168744375 a30.45846830218079,30.45846830218079 0 0,0 -0.19281853021877202,0.4860286545377944 l -8.76160589125709 -3.563268840495734" fill="#ff770a" stroke="none" /><path d="M 119.4528033332814 107.91128576633889 l 13.30934784971513 5.412795903948658 a35.367919114559356,35.367919114559356 0 0,0 -0.23355315779587663,0.5604425566683705 l -13.214468847382767 -5.640470970058307" fill="#ffb711" stroke="none" /><path d="M 119.31412917781788 108.2440532568976 l 9.140002113889171 3.901323404298168 a30.937804734790433,30.937804734790433 0 0,0 -0.2126843223085159,0.48666335151284495 l -9.071683909563689 -4.057648825586858" fill="#ff7d0b" stroke="none" /><path d="M 119.0197475246899 108.90220220490707 l 17.95439601182463 8.403563904134733 a40.823728772365214,40.823728772365214 0 0,0 -0.30252471259041747,0.6321602959932517 l -17.8074920412743 -8.710536702193089" fill="#fffc17" stroke="none" /><path d="M 118.70294669586154 109.54985784667822 l 9.93871807325295 5.074780264372946 a32.1593687846255,32.1593687846255 0 0,0 -0.25527177539314116,0.4895172881615866 l -9.85013822888486 -5.2446437956390355" fill="#ff8d0d" stroke="none" /><path d="M 118.5362547648365 109.86951160357373 l 19.198394667801157 10.22206380672405 a42.75014819005594,42.75014819005594 0 0,0 -0.3504588959786443,0.6448048955926026 l -19.020090422207172 -10.550123535791256" fill="#ebff1a" stroke="none" /><line stroke="#e1ed5e" stroke-width="0.3" x1="174.33088141563837" x2="178.70328620479359" y1="141.23008692659167" y2="143.65538615756765" /><path d="M 175.20536237346943 141.71514677278685 a86.0,86.0 0 0,1 -30.301960400862466,31.631185727798858" fill="none" id="id77" stroke="none" /><text fill="#e1ed5e" style="font-size:6.75px; font-family:Arial;" text-anchor="middle"><textPath startOffset="22.145653131862474" xlink:href="#id77">May</textPath></text><path d="M 117.81537515405839 111.11811171558189 l 8.345472761707809 5.208192231802443 a30.837285293200267,30.837285293200267 0 0,0 -0.2841175782152087,0.4466800236297153 l -8.25483749186671 -5.3506859301108305" fill="#ff7c0b" stroke="none" /><path d="M 117.423217284605 111.72311816256416 l 12.62616655822007 8.495448348280505 a36.21817086887307,36.21817086887307 0 0,0 -0.35150642556441514,0.5128583797952787 l -12.478470395840336 -8.710941463145828" fill="#ffc212" stroke="none" /><path d="M 117.21940702142032 112.02048342749411 l 12.15970572669415 8.48841896757 a35.829420080664,35.829420080664 0 0,0 -0.3563916611084833,0.5013095034995659 l -12.012198967055708 -8.69590569777907" fill="#ffbd11" stroke="none" /><path d="M 117.01052211995028 112.31430620078461 l 12.324945390388159 8.922309989955334 a36.215514925000306,36.215514925000306 0 0,0 -0.368877404866157,0.5004530446578046 l -12.169965965938173 -9.132569343882016" fill="#ffc212" stroke="none" /><path d="M 116.57777611688842 112.89097897827486 l 15.750054644992808 12.247337755300267 a40.95147872746937,40.95147872746937 0 0,0 -0.4362962145810896,0.5512460144503672 l -15.537491999770157 -12.515903713665317" fill="#fffd18" stroke="none" /><path d="M 115.6541949942343 113.99807769240083 l 7.047297268351147 6.301736673151024 a30.453903103282055,30.453903103282055 0 0,0 -0.3518184243426113,0.38671007786918743 l -6.938081143166656 -6.421784326577883" fill="#ff760a" stroke="none" /><path d="M 115.16444852881244 114.52719865689866 l 10.2595426047221 9.8284097350809 a35.207598402923026,35.207598402923026 0 0,0 -0.4218426884741522,0.43284776068699515 l -10.08931311509714 -10.003080187835632" fill="#ffb510" stroke="none" /><path d="M 114.91283532996324 114.78537596483092 l 6.732717169336125 6.675172923923927 a30.480897322857185,30.480897322857185 0 0,0 -0.3715883807781125,0.36841243079565816 l -6.617136868428047 -6.789765364948246" fill="#ff770a" stroke="none" /><path d="M 114.39649973595853 115.28858382429668 l 13.60463714122963 14.447653189845362 a40.844919612802,40.844919612802 0 0,0 -0.5145880820296024,0.4762950463726061 l -13.35461928788606 -14.679065982350348" fill="#fffc17" stroke="none" /><path d="M 114.13192950727249 115.5334660781643 l 8.358947106364413 9.18794714190033 a33.42136745327794,33.42136745327794 0 0,0 -0.42769001362298464,0.38244304744917007 l -8.199992065918051 -9.330085719232887" fill="#ff9e0e" stroke="none" /><path d="M 113.59037401385872 116.0094264158162 l 8.037782447787839 9.468487512777587 a33.420072562493,33.420072562493 0 0,0 -0.44054923045094796,0.36752183671852195 l -7.874058883174995 -9.60507153340798" fill="#ff9e0e" stroke="none" /><path d="M 113.31354834802062 116.24036423190432 l 7.1988445623437896 8.781419850306758 a32.355029617757424,32.355029617757424 0 0,0 -0.43255474477706596,0.34843548344860964 l -7.047039047211471 -8.90370362754877" fill="#ff900d" stroke="none" /><path d="M 113.03279911837588 116.46651593811092 l 12.907528018127362 16.308239995230903 a41.798148265669994,41.798148265669994 0 0,0 -0.5664446347177077,0.44047077406623514 l -12.625673438774424 -16.527411820917933" fill="#f6ff19" stroke="none" /><path d="M 112.45986205192187 116.90419585922612 l 10.719128010200595 14.542555813978584 a39.06614609986727,39.06614609986727 0 0,0 -0.5432407863174379,0.3932644357589817 l -10.46790621350919 -14.724421021110643" fill="#ffe615" stroke="none" /><path d="M 112.16784306229584 117.11559508785304 l 9.36754728807383 13.176628390762302 a37.16708006853874,37.16708006853874 0 0,0 -0.5231795864284768,0.3652199835013852 l -9.139972610471593 -13.33549319006881" fill="#ffce13" stroke="none" /><path d="M 111.8722381534696 117.32195027204791 l 8.821724390240092 12.871159525787759 a36.60415229211872,36.60415229211872 0 0,0 -0.521354181982633,0.3507903609357937 l -8.599473920160456 -13.020699560780674" fill="#ffc712" stroke="none" /><path d="M 111.5731344415666 117.5232005979908 l 9.621518504122744 14.568205325557471 a38.45870054536641,38.45870054536641 0 0,0 -0.5540147371285008,0.3591056591905348 l -9.370018134737233 -14.7312248264519" fill="#ffdf14" stroke="none" /><path d="M 110.96478420261333 117.91015095944535 l 5.142047427150996 8.399148032384641 a30.84816426614529,30.84816426614529 0 0,0 -0.45400748071432917,0.27261844747450414 l -4.99710718987923 -8.486180480395069" fill="#ff7c0b" stroke="none" /><line stroke="#e1ed5e" stroke-width="0.3" x1="143.1302829299769" x2="145.66735839644613" y1="173.24464959558577" y2="177.55315839532614" /><path d="M 143.63769802327073 174.10635135553383 a86.0,86.0 0 0,1 -40.68552437913181,11.842963189579606" fill="none" id="id78" stroke="none" /><text fill="#e1ed5e" style="font-size:6.75px; font-family:Arial;" text-anchor="middle"><textPath startOffset="21.407464694133747" xlink:href="#id78">June</textPath></text><line stroke="#e1ed5e" stroke-width="0.3" x1="101.45913802915013" x2="101.54496967792366" y1="184.9874750549273" y2="189.98673829345242" /><path d="M 101.47630435890484 185.9873277026323 a86.0,86.0 0 0,1 -42.54439059252881,-10.42667462771756" fill="none" id="id79" stroke="none" /><text fill="#e1ed5e" style="font-size:6.75px; font-family:Arial;" text-anchor="middle"><textPath startOffset="22.145653131862474" xlink:href="#id79">July</textPath></text><line stroke="#e1ed5e" stroke-width="0.3" x1="58.13341422392154" x2="55.67067388415222" y1="173.97424548756322" y2="178.32567169271397" /><path d="M 57.64086615596768 174.84453072859336 a86.0,86.0 0 0,1 -31.369924170532247,-30.572349798747897" fill="none" id="id80" stroke="none" /><text fill="#e1ed5e" style="font-size:6.75px; font-family:Arial;" text-anchor="middle"><textPath startOffset="22.145653131862474" xlink:href="#id80">August</textPath></text><line stroke="#e1ed5e" stroke-width="0.3" x1="26.387840678322732" x2="22.057713659400548" y1="142.50000000000003" y2="145.00000000000006" /><path d="M 25.521815274538298 143.00000000000003 a86.0,86.0 0 0,1 -11.493303480769221,-40.785679425670985" fill="none" id="id81" stroke="none" /><text fill="#e1ed5e" style="font-size:6.75px; font-family:Arial;" text-anchor="middle"><textPath startOffset="21.40746469413373" xlink:href="#id81">September</textPath></text><line stroke="#e1ed5e" stroke-width="0.3" x1="15.003131293944662" x2="10.003315487706104" y1="100.72959589197737" y2="100.7725132973878" /><path d="M 14.003168132696942 100.73817937305945 a86.0,86.0 0 0,1 10.791469493833604,-42.45332614584628" fill="none" id="id82" stroke="none" /><text fill="#e1ed5e" style="font-size:6.75px; font-family:Arial;" text-anchor="middle"><textPath startOffset="22.145653131862435" xlink:href="#id82">October</textPath></text><line stroke="#e1ed5e" stroke-width="0.3" x1="26.387840678322718" x2="22.05771365940052" y1="57.49999999999999" y2="54.99999999999999" /><path d="M 25.521815274538284 56.99999999999999 a86.0,86.0 0 0,1 29.574782752854787,-30.34633250058573" fill="none" id="id83" stroke="none" /><text fill="#e1ed5e" style="font-size:6.75px; font-family:Arial;" text-anchor="middle"><textPath startOffset="21.40746469413373" xlink:href="#id83">November</textPath></text><line stroke="#e1ed5e" stroke-width="0.3" x1="56.869717070023135" x2="54.33264160355391" y1="26.7553504044142" y2="22.446841604673864" /><path d="M 56.362301976729285 25.89364864446614 a86.0,86.0 0 0,1 42.16139366436587,-11.88097634709845" fill="none" id="id84" stroke="none" /><text fill="#e1ed5e" style="font-size:6.75px; font-family:Arial;" text-anchor="middle"><textPath startOffset="22.145653131862474" xlink:href="#id84">December</textPath></text></svg>