<?xml version="1.0" encoding="utf-8" ?>
<svg baseProfile="full" height="200mm" version="1.1" viewBox="0,0,200,200" width="200mm" xmlns="http://www.w3.org/2000/svg" xmlns:ev="http://www.w3.org/2001/xml-events" xmlns:xlink="http://www.w3.org/1999/xlink"><defs /><rect fill="#1a1a1a" height="200" width="200" x="0" y="0" /><text alignment-baseline="middle" fill="#e1ed5e" style="dominant-baseline: central; font-size:9.0px; font-family:Arial;" text-anchor="middle" x="100.0" y="100.0">2020</text><line stroke="#e1ed5e" stroke-width="0.3" x1="100.0" x2="100.0" y1="15.0" y2="10.0" /><path d="M 100.0 14.0 a86.0,86.0 0 0,1 42.35913384403234,11.155469271406648" fill="none" id="id25" stroke="none" /><text fill="#e1ed5e" style="font-size:6.75px; font-family:Arial;" text-anchor="middle"><textPath startOffset="22.145653131862478" xlink:href="#id25">January</textPath></text><path d="M 101.44090949804482 79.04949213459386 l 1.2240146881061578 -17.79690493076556 a38.83894719627274,38.83894719627274 0 0,0 0.6647581825060923,0.051456487550548 l -1.5293418653874835 17.77327067621996" fill="#ff5a08" stroke="none" /><path d="M 101.80034050326958 79.07731436759882 l 1.5774042921966536 -18.331828929523876 a39.39956945698374,39.39956945698374 0 0,0 0.6733582228835225,0.0637677237949743 l -1.8918620784651892 18.30204945022372" fill="#ff6409" stroke="none" /><path d="M 102.15924093988457 79.11130261209362 l 1.8973259400636435 -18.354907354773093 a39.452709007762024,39.452709007762024 0 0,0 0.6730709153367614,0.07541899995506604 l -2.2121327570012017 18.319632594311056" fill="#ff6509" stroke="none" /><path d="M 102.51750503828377 79.15144685158666 l 2.145561735228231 -17.768329036037297 a38.897400702128834,38.897400702128834 0 0,0 0.6622230200862738,0.0857380281169095 l -2.4502625772052964 17.72887941171999" fill="#ff5b08" stroke="none" /><path d="M 102.87502721639298 79.19773525538626 l 2.570665919404669 -18.60005801701682 a39.77686026750959,39.77686026750959 0 0,0 0.6755908302462844,0.09928858679824674 l -2.889581855258635 18.55318835691969" fill="#ff6a09" stroke="none" /><path d="M 103.23170211078529 79.25015418208739 l 3.8946182498002773 -25.006242974339955 a46.30771105816177,46.30771105816177 0 0,0 0.7844140288336319,0.12907502994002837 l -4.323309781686979 24.935701945904256" fill="#ffd413" stroke="none" /><line stroke="#e1ed5e" stroke-width="0.3" x1="143.13028292997686" x2="145.6673583964461" y1="26.7553504044142" y2="22.446841604673864" /><path d="M 143.63769802327073 25.89364864446614 a86.0,86.0 0 0,1 29.32050498858742,28.57503671076992" fill="none" id="id26" stroke="none" /><text fill="#e1ed5e" style="font-size:6.75px; font-family:Arial;" text-anchor="middle"><textPath startOffset="20.669276256404974" xlink:href="#id26">February</textPath></text><line stroke="#e1ed5e" stroke-width="0.3" x1="172.87174338648825" x2="177.1583165268699" y1="56.24261187166439" y2="53.66864786411523" /><path d="M 173.72905801456457 55.72781907015455 a86.0,86.0 0 0,1 12.242430191666344,42.057860355516425" fill="none" id="id27" stroke="none" /><text fill="#e1ed5e" style="font-size:6.75px; font-family:Arial;" text-anchor="middle"><textPath startOffset="22.145653131862474" xlink:href="#id27">March</textPath></text><path d="M 120.86939407059847 97.66154086499901 l 13.017322763547996 -1.4586181671925333 a34.09878845115261,34.09878845115261 0 0,0 0.06018859557895346,0.5822700635340162 l -13.040443751608615 1.234943581375586" fill="#ff0801" stroke="none" /><line stroke="#e1ed5e" stroke-width="0.3" x1="184.99686870605535" x2="189.99668451229388" y1="99.2704041080226" y2="99.22748670261217" /><path d="M 185.99683186730306 99.26182062694052 a86.0,86.0 0 0,1 -10.086455211305974,41.156179273409016" fill="none" id="id28" stroke="none" /><text fill="#e1ed5e" style="font-size:6.75px; font-family:Arial;" text-anchor="middle"><textPath startOffset="21.40746469413373" xlink:href="#id28">April</textPath></text><path d="M 120.99922638620191 99.81974689727618 l 13.110750515713029 -0.11254002485768434 a34.11123351719679,34.11123351719679 0 0,0 0.0,0.5855862551630209 l -13.110750515713029 -0.11254002485768275" fill="#ff0801" stroke="none" /><path d="M 120.99922638620191 100.18025310272382 l 13.146492813172182 0.11284682949405371 a34.14697713140609,34.14697713140609 0 0,0 -0.010062900175067327,0.5861134865404252 l -13.142618481398445 -0.3385072320035499" fill="#ff0901" stroke="none" /><path d="M 120.9064616781168 101.97986365728391 l 15.109738517678293 1.4309079471600394 a36.17734152036702,36.17734152036702 0 0,0 -0.06385749983493767,0.6177633840490269 l -15.08294862536169 -1.6900758534919975" fill="#ff2c04" stroke="none" /><path d="M 120.86939407059847 102.33845913500099 l 13.067011019865884 1.464185839952736 a34.14878766910526,34.14878766910526 0 0,0 -0.07027806475335488,0.5820031920082247 l -13.039950868852866 -1.688282708884369" fill="#ff0901" stroke="none" /><path d="M 120.82617615685814 102.69636545807758 l 13.078175334924007 1.6932316312977493 a34.18733117231238,34.18733117231238 0 0,0 -0.08034915512841,0.5813664606223059 l -13.047181663240387 -1.917486400120141" fill="#ff0901" stroke="none" /><path d="M 120.77682067341334 103.0534771498775 l 13.851912434858276 2.035754111121894 a35.00070615733117,35.00070615733117 0 0,0 -0.09246604531979456,0.5936983416183814 l -13.814924897400212 -2.273240634671726" fill="#ff1802" stroke="none" /><path d="M 120.592083275326 104.11899336999214 l 13.107620594596723 2.6218912192438926 a34.36727463686762,34.36727463686762 0 0,0 -0.12068197640239887,0.5775069444527047 l -13.06068090736996 -2.846514614982006" fill="#ff0c01" stroke="none" /><path d="M 120.51834098615036 104.47187691870673 l 17.384309503942262 3.7888293439906886 a38.79239850966536,38.79239850966536 0 0,0 -0.1473910502475217,0.6494321628644566 l -17.316707592137075 -4.086695840794162" fill="#ff5a08" stroke="none" /><path d="M 120.43855184770803 104.8234425847677 l 17.465609003763365 4.121836168500443 a38.94539025132355,38.94539025132355 0 0,0 -0.1591428699168672,0.6493572168983544 l -17.3922786073302 -4.421049210006897" fill="#ff5c08" stroke="none" /><path d="M 120.35273937422433 105.17358676015961 l 17.242204484691637 4.382900954892465 a38.790543450730155,38.790543450730155 0 0,0 -0.16958952067039074,0.6439590329951622 l -17.164425483216515 -4.67824049226043" fill="#ff5a08" stroke="none" /><path d="M 120.26092885502905 105.52220625578681 l 17.393990494557073 4.740809456931561 a39.02848245503968,39.02848245503968 0 0,0 -0.1817268507854566,0.6448844835232965 l -17.310045151697036 -5.038701864357866" fill="#ff5e08" stroke="none" /><path d="M 120.05942366710727 106.21446072829308 l 17.15533885804327 5.314767830976484 a38.95974410818461,38.95974410818461 0 0,0 -0.20339821993077337,0.6371420269623959 l -17.06157592233524 -5.608478891630262" fill="#ff5c08" stroke="none" /><path d="M 119.94978838288452 106.5578916946017 l 24.140612133407785 7.935498701735382 a46.4114402154006,46.4114402154006 0 0,0 -0.25529514050958985,0.7547347199429457 l -24.00083157132583 -8.34873509615249" fill="#ffd513" stroke="none" /><path d="M 119.83427380445688 106.89939002012753 l 12.025636512890975 4.18314062620621 a33.7324231408948,33.7324231408948 0 0,0 -0.1949410064945118,0.5452846901381461 l -11.952055336352519 -4.388960272725278" fill="#ff0100" stroke="none" /><path d="M 119.71291397450082 107.23885506374661 l 16.683443664039938 6.1263916032091785 a38.77273098223979,38.77273098223979 0 0,0 -0.23479531836467077,0.6228224773242006 l -16.575817661860825 -6.411882360727537" fill="#ff5908" stroke="none" /><path d="M 119.58574465831526 107.57618678355244 l 11.886312352260063 4.597880964926003 a33.74460398376972,33.74460398376972 0 0,0 -0.21362154125455918,0.5384658318805859 l -11.80563213603938 -4.801247814020154" fill="#ff0100" stroke="none" /><path d="M 119.4528033332814 107.91128576633889 l 12.153542860572024 4.942740076898415 a34.120186108875856,34.120186108875856 0 0,0 -0.2253137139479189,0.5406708908974852 l -12.06690330208762 -5.150643477237178" fill="#ff0801" stroke="none" /><path d="M 119.31412917781788 108.2440532568976 l 16.392841519261015 6.997129265961483 a38.82372214326128,38.82372214326128 0 0,0 -0.2668966691178381,0.6107118103048875 l -16.27031096812621 -7.277503146042215" fill="#ff5a08" stroke="none" /><path d="M 119.0197475246899 108.90220220490707 l 16.255503589528857 7.608396468393079 a38.94795514172692,38.94795514172692 0 0,0 -0.2886242704809336,0.6031137182008935 l -16.12250006108801 -7.886322688659075" fill="#ff5c08" stroke="none" /><path d="M 118.8641267826498 109.22738970284198 l 11.450908618411718 5.60121321761359 a33.74742710104219,33.74742710104219 0 0,0 -0.25901967757270083,0.5182128655486846 l -11.353069027627285 -5.79695793932602" fill="#ff0100" stroke="none" /><path d="M 118.70294669586154 109.54985784667822 l 11.385557113623337 5.813546587522382 a33.78390529974593,33.78390529974593 0 0,0 -0.26816687676105216,0.514245345317404 l -11.284082167887336 -6.008138175944289" fill="#ff0200" stroke="none" /><path d="M 118.5362547648365 109.86951160357373 l 11.186692384060722 5.956283601558006 a33.67357095840754,33.67357095840754 0 0,0 -0.27605056359751073,0.5079019447964532 l -11.082796470847873 -6.147440379829064" fill="#ff0000" stroke="none" /><line stroke="#e1ed5e" stroke-width="0.3" x1="174.33088141563837" x2="178.70328620479359" y1="141.23008692659167" y2="143.65538615756765" /><path d="M 175.20536237346943 141.71514677278685 a86.0,86.0 0 0,1 -30.301960400862466,31.63118572779886" fill="none" id="id29" stroke="none" /><text fill="#e1ed5e" style="font-size:6.75px; font-family:Arial;" text-anchor="middle"><textPath startOffset="22.145653131862474" xlink:href="#id29">May</textPath></text><path d="M 117.01052211995028 112.31430620078461 l 10.28148295777311 7.443000776071224 a33.69279923277666,33.69279923277666 0 0,0 -0.34318198621230456,0.4655922743058151 l -10.152198951976974 -7.6183993596459185" fill="#ff0000" stroke="none" /><path d="M 116.79662413953412 112.60449989151573 l 10.225321082422967 7.673271569538656 a33.78422026634921,33.78422026634921 0 0,0 -0.3520766572341542,0.4608796461320365 l -10.092092447834512 -7.84767212891157" fill="#ff0200" stroke="none" /><path d="M 116.57777611688842 112.89097897827484 l 19.933123356210025 15.500117286207677 a46.25040678127938,46.25040678127938 0 0,0 -0.4927508854026361,0.6225746468048045 l -19.664106040165827 -15.840011876927163" fill="#ffd313" stroke="none" /><path d="M 115.16444852881244 114.52719865689866 l 12.794629141917012 12.256965291736138 a38.718231656743185,38.718231656743185 0 0,0 -0.4639056248065308,0.4760080389064603 l -12.582336715959672 -12.474796022710336" fill="#ff5808" stroke="none" /><path d="M 114.91283532996326 114.78537596483092 l 12.633100029445819 12.525125464329344 a38.78971568775553,38.78971568775553 0 0,0 -0.4728800300917602,0.4688383447190108 l -12.416228079224096 -12.740143819277016" fill="#ff5a08" stroke="none" /><path d="M 114.65682725009322 115.03919595460226 l 8.890107559764362 9.122033532048134 a33.737562882435164,33.737562882435164 0 0,0 -0.4182293275308125,0.4006542350443827 l -8.732205746368235 -9.273299897398097" fill="#ff0100" stroke="none" /><path d="M 114.39649973595853 115.28858382429668 l 8.7004753128899 9.239603276628317 a33.69127808298626,33.69127808298626 0 0,0 -0.42446234034001895,0.39287600536392553 l -8.540583201235913 -9.387597028124624" fill="#ff0000" stroke="none" /><path d="M 114.13192950727249 115.5334660781643 l 8.56328686637119 9.412552333205031 a33.72501565347127,33.72501565347127 0 0,0 -0.43157577033413147,0.38591771506104255 l -8.400446069213679 -9.55816557814946" fill="#ff0100" stroke="none" /><path d="M 113.86319453409587 115.77377054828091 l 8.427727013110262 9.589206284409974 a33.766340892067554,33.766340892067554 0 0,0 -0.43867384231803014,0.3789160169720123 l -8.261873691029377 -9.732466433846703" fill="#ff0200" stroke="none" /><path d="M 113.59037401385872 116.0094264158162 l 34.548412537648275 40.697943098601996 a74.38459872780331,74.38459872780331 0 0,0 -0.9805507652821146,0.818010322894807 l -33.84468743820426 -41.285015605408674" fill="#3effb8" stroke="none" /><path d="M 112.45986205192187 116.90419585922612 l 10.562252983663448 14.329724711759745 a38.801747060491714,38.801747060491714 0 0,0 -0.5395641415395073,0.39060282847452016 l -10.314707831749974 -14.508928311607344" fill="#ff5a08" stroke="none" /><path d="M 112.16784306229584 117.11559508785304 l 7.366510903066566 10.36192011859764 a33.71357036513336,33.71357036513336 0 0,0 -0.4745665187615393,0.33128428678876537 l -7.187549293131269 -10.486849221191527" fill="#ff0100" stroke="none" /><path d="M 111.8722381534696 117.32195027204791 l 7.221454955946349 10.536318596521738 a33.773543801473885,33.773543801473885 0 0,0 -0.48103772929234684,0.32366365229965305 l -7.039520938557 -10.658731922878513" fill="#ff0200" stroke="none" /><path d="M 110.96478420261333 117.91015095944535 l 9.328114738038485 15.236774389547735 a38.865414027219984,38.865414027219984 0 0,0 -0.5720012561260432,0.343470319372703 l -9.065180725355008 -15.39465870945636" fill="#ff5b08" stroke="none" /><line stroke="#e1ed5e" stroke-width="0.3" x1="143.1302829299769" x2="145.6673583964461" y1="173.24464959558577" y2="177.55315839532614" /><path d="M 143.63769802327073 174.10635135553383 a86.0,86.0 0 0,1 -40.685524379131806,11.842963189579606" fill="none" id="id30" stroke="none" /><text fill="#e1ed5e" style="font-size:6.75px; font-family:Arial;" text-anchor="middle"><textPath startOffset="21.407464694133747" xlink:href="#id30">June</textPath></text><path d="M 110.65571695917076 118.09573695890943 l 6.453864001551608 10.960072024073456 a33.719101356754784,33.719101356754784 0 0,0 -0.501302734312258,0.2894272686006809 l -6.26476879937895 -11.06924618995031" fill="#ff0100" stroke="none" /><path d="M 110.34350942703117 118.27599006163325 l 12.52587776491065 22.132025804171036 a46.430772304001614,46.430772304001614 0 0,0 -0.6970271817732169,0.38662922795182375 l -12.144106394981339 -22.343787947556002" fill="#ffd614" stroke="none" /><path d="M 110.02825361518725 118.45085714620011 l 6.092969441121668 11.21037750621342 a33.75918651177489,33.75918651177489 0 0,0 -0.5115500341902139,0.27237158003602835 l -5.8996305911449 -11.313319553972018" fill="#ff0200" stroke="none" /><path d="M 109.06512990194946 118.94263497670748 l 10.970863343558568 22.924884909997747 a46.41476324185766,46.41476324185766 0 0,0 -0.7216640019737373,0.3377751918753413 l -10.575710627713324 -23.10983633344362" fill="#ffd513" stroke="none" /><path d="M 108.73861861582097 119.09545874513695 l 10.727842846647903 23.442272687309888 a46.78035610476647,46.78035610476647 0 0,0 -0.7330851525580759,0.3278996642725291 l -10.3238442912342 -23.622976102492267" fill="#ffdb14" stroke="none" /><path d="M 108.07796709384702 119.3841803445677 l 6.837182423524374 16.40674882759243 a38.77437679875883,38.77437679875883 0 0,0 -0.6165966739079232,0.25076449940322015 l -6.55453128842601 -16.521700583574944" fill="#ff5908" stroke="none" /><path d="M 107.74402155503746 119.51999308798841 l 4.6854791786425 11.81046831171594 a33.70593864598514,33.70593864598514 0 0,0 -0.5396605472129302,0.2087522928909128 l -4.482046368936041 -11.889160492744892" fill="#ff0100" stroke="none" /><path d="M 107.407793817531 119.65005319985036 l 4.510990876049683 11.96593923667814 a33.78799204330676,33.78799204330676 0 0,0 -0.544486811965667,0.19994309928199006 l -4.304914912429888 -12.041613184968853" fill="#ff0200" stroke="none" /><path d="M 106.38641147887787 120.00534299687104 l 5.4165956452731745 16.967408711047746 a38.811020935143816,38.811020935143816 0 0,0 -0.6364256479443935,0.19716629257470966 l -5.124529364457157 -17.0578915914291" fill="#ff5a08" stroke="none" /><path d="M 102.15924093988457 120.88869738790638 l 1.3091077190400444 12.6644296549239 a33.73191036351443,33.73191036351443 0 0,0 -0.5764951122534694,0.0545946865101122 l -1.0915130434015599 -12.685036096939196" fill="#ff0100" stroke="none" /><path d="M 101.80034050326958 120.92268563240118 l 2.5888108692751377 30.085906461149243 a51.197081138843515,51.197081138843515 0 0,0 -0.8762770637289679,0.06782938669609755 l -2.0719648107709334 -30.125913614840393" fill="#e1ff1b" stroke="none" /><path d="M 101.44090949804482 120.95050786540614 l 1.2209399728792347 17.752199246173312 a38.79413590184167,38.79413590184167 0 0,0 -0.6647756623056397,0.03999125306071384 l -0.91601995844113 -17.77054247705872" fill="#ff5a08" stroke="none" /><path d="M 101.08105385017728 120.97215588758144 l 0.6554707954259403 12.71595832083251 a33.7328409234077,33.7328409234077 0 0,0 -0.5785571582076945,0.024845733751673288 l -0.43708787661741644 -12.725336623010014" fill="#ff0100" stroke="none" /><path d="M 100.72087961077811 120.9876233191556 l 0.6354926489356904 18.501675090461095 a39.51258577454376,39.51258577454376 0 0,0 -0.6780861828468236,0.017465094732852487 l -0.3177931520181229 -18.50985790254399" fill="#ff6609" stroke="none" /><line stroke="#e1ed5e" stroke-width="0.3" x1="101.45913802915013" x2="101.54496967792366" y1="184.9874750549273" y2="189.98673829345242" /><path d="M 101.47630435890484 185.9873277026323 a86.0,86.0 0 0,1 -42.54439059252881,-10.42667462771756" fill="none" id="id31" stroke="none" /><text fill="#e1ed5e" style="font-size:6.75px; font-family:Arial;" text-anchor="middle"><textPath startOffset="22.145653131862474" xlink:href="#id31">July</textPath></text><path d="M 100.0 121.0 l 7.715274834628325e-15 63.0 a84.0,84.0 0 0,0 -1.4419716993954088,-0.012377592777739643 l 1.081478774546549 -62.990716805416696" fill="#4dd2ff" stroke="none" /><path d="M 98.19965949673042 120.92268563240118 l -2.6423451572429184 30.70805603544923 a51.8215297058127,51.8215297058127 0 0,0 -0.8856556970225038,-0.08387251532078799 l 3.1691004176504376 -30.658171764623255" fill="#d8ff1c" stroke="none" /><path d="M 97.48249496171623 120.84855314841334 l -1.5262579660020956 12.639605418258231 a33.731421307460046,33.731421307460046 0 0,0 -0.5742729150744007,-0.0743511262006782 l 1.7430087029672898 -12.611542695857155" fill="#ff0100" stroke="none" /><path d="M 97.12497278360702 120.80226474461374 l -4.19887294787701 30.38095298461873 a51.66973815157259,51.66973815157259 0 0,0 -0.8775856380233665,-0.12897486746824868 l 4.719783691508062 -30.3043970438516" fill="#daff1c" stroke="none" /><path d="M 96.41257539226777 120.69131181640829 l -2.175316717347955 12.54664875774077 a33.7338288770853,33.7338288770853 0 0,0 -0.5697246384302143,-0.10382280764823056 l 2.3903760893292265 -12.507457776161175" fill="#ff0100" stroke="none" /><path d="M 96.05791012581884 120.62667999033965 l -2.4762037273995765 12.956544245852971 a34.19104331333702,34.19104331333702 0 0,0 -0.5755549511727548,-0.11512710959106173 l 2.69825516410329 -12.912127739599049" fill="#ff0901" stroke="none" /><path d="M 95.00130118170881 120.39639698878247 l -3.0572545612731257 12.474641900671553 a33.843811583888005,33.843811583888005 0 0,0 -0.5630880297375277,-0.1431347752206692 l 3.270947884236032 -12.420321893615622" fill="#ff0300" stroke="none" /><path d="M 94.30408787586889 120.21278271476187 l -6.897051200239389 24.47520155593912 a46.42842516678074,46.42842516678074 0 0,0 -0.7652730720176658,-0.22275983805509156 l 7.316184284638662 -24.35319802358151" fill="#ffd614" stroke="none" /><path d="M 93.95794788825049 120.11202640906438 l -6.5951890274594716 21.953239303430834 a43.92250497265999,43.92250497265999 0 0,0 -0.7202440959560819,-0.22313346202679973 l 6.971073756287186 -21.836789253597384" fill="#ffae10" stroke="none" /><path d="M 92.93061703081489 119.77432235084164 l -8.482445913398816 23.72691089820282 a46.197583007998844,46.197583007998844 0 0,0 -0.7444649170126739,-0.27337782944062955 l 8.888499982065609 -23.577802219753472" fill="#ffd213" stroke="none" /><path d="M 91.59046798132341 119.24265499422711 l -5.115160813548391 11.704488972335414 a33.77340722955243,33.77340722955243 0 0,0 -0.5292559837687763,-0.23672946967543362 l 5.315330200172802 -11.614955751750125" fill="#ff0200" stroke="none" /><path d="M 91.26138138417905 119.09545874513695 l -6.300310933852323 13.767316415560265 a36.1404398598381,36.1404398598381 0 0,0 -0.5619172142802766,-0.26300562914662895 l 6.535716862004089 -13.65713455484311" fill="#ff2c04" stroke="none" /><path d="M 90.93487009805054 118.94263497670748 l -6.580187006092015 13.750060052428973 a36.24345802239588,36.24345802239588 0 0,0 -0.5589082100882539,-0.27339001280173886 l 6.8152554654423385 -13.635076289530014" fill="#ff2e04" stroke="none" /><path d="M 90.6110303473126 118.78422872680471 l -6.788261936134574 13.58107114866606 a36.18308248211486,36.18308248211486 0 0,0 -0.5532096580713939,-0.28247279318612506 l 7.020398815919549 -13.4625404038071" fill="#ff2d04" stroke="none" /><path d="M 90.28995756902619 118.62028667847754 l -6.372074636626476 12.21929330526533 a34.780945687972235,34.780945687972235 0 0,0 -0.5270326626396609,-0.2806152076228439 l 6.580896115052701 -12.108107629919912" fill="#ff1402" stroke="none" /><path d="M 89.97174638481275 118.45085714620012 l -12.056609397453467 22.18280332709695 a46.24754628892532,46.24754628892532 0 0,0 -0.6942765595763538,-0.3851035041864233 l 12.435630145185922 -21.97256690747738" fill="#ffd313" stroke="none" /><line stroke="#e1ed5e" stroke-width="0.3" x1="58.13341422392154" x2="55.670673884152215" y1="173.97424548756322" y2="178.32567169271397" /><path d="M 57.64086615596767 174.84453072859336 a86.0,86.0 0 0,1 -31.369924170532244,-30.572349798747886" fill="none" id="id32" stroke="none" /><text fill="#e1ed5e" style="font-size:6.75px; font-family:Arial;" text-anchor="middle"><textPath startOffset="22.145653131862474" xlink:href="#id32">August</textPath></text><path d="M 89.03521579738668 117.91015095944536 l -13.225529051966847 21.602907769292997 a46.329829111010575,46.329829111010575 0 0,0 -0.6747296975804598,-0.4210812340828766 l 13.594422878337019 -21.372690738368576" fill="#ffd413" stroke="none" /><path d="M 88.4268655584334 117.5232005979908 l -14.046541481575956 21.268254104575618 a46.48811409756382,46.48811409756382 0 0,0 -0.662131785045298,-0.44551181498116477 l 14.409569554718258 -21.023992615537335" fill="#ffd714" stroke="none" /><path d="M 88.1277618465304 117.32195027204791 l -14.317484404266304 20.88963762902987 a46.325230896056794,46.325230896056794 0 0,0 -0.6520936026372921,-0.4552119787821775 l 14.673973098077363 -20.640780834442566" fill="#ffd413" stroke="none" /><path d="M 87.83215693770417 117.11559508785305 l -14.598933593009496 20.535228373109934 a46.1957231765409,46.1957231765409 0 0,0 -0.6423823050980049,-0.4650352497801977 l 14.949296908481452 -20.28159235195667" fill="#ffd213" stroke="none" /><path d="M 86.68645165197938 116.24036423190432 l -16.06543112551287 19.597213770564185 a46.34065636122688,46.34065636122688 0 0,0 -0.6108706215510263,-0.5096099988643922 l 16.39947608122579 -19.318541587787923" fill="#ffd413" stroke="none" /><path d="M 86.40962598614128 116.0094264158162 l -16.694923182569713 19.6665775302799 a46.79718457170111,46.79718457170111 0 0,0 -0.6079634400230876,-0.5251443394501252 l 17.03006610235566 -19.377089058365048" fill="#ffdb14" stroke="none" /><path d="M 86.13680546590413 115.77377054828092 l -16.82818152071946 19.147381463904544 a46.491369328040406,46.491369328040406 0 0,0 -0.5949455661578902,-0.5320039938748067 l 17.15439211370072 -18.85568194014636" fill="#ffd714" stroke="none" /><path d="M 85.34317274990678 115.03919595460226 l -17.651046377683446 18.111528555817948 a46.29005545378145,46.29005545378145 0 0,0 -0.5643156292285733,-0.5594924477044517 l 17.959353927041985 -17.805856097884835" fill="#ffd413" stroke="none" /><path d="M 84.83555147118756 114.52719865689866 l -18.262368772365765 17.494936172431743 a46.29005545378145,46.29005545378145 0 0,0 -0.5447770076870205,-0.578534303499437 l 18.560001613789037 -17.178860408987816" fill="#ffd413" stroke="none" /><path d="M 84.58840730492382 114.26474011684316 l -18.652339930275545 17.264327376196707 a46.41587662519329,46.41587662519329 0 0,0 -0.5362189707957876,-0.5893985806423775 l 18.945956601913213 -16.941591219996656" fill="#ffd513" stroke="none" /><path d="M 84.3458050057657 113.99807769240083 l -39.805267236890934 35.59411541468605 a74.39850514718829,74.39850514718829 0 0,0 -0.8431438610976437,-0.9593429401453036 l 40.410422161947174 -34.905560196729446" fill="#3effb8" stroke="none" /><path d="M 83.20337586046588 112.60449989151573 l -20.40912493286395 15.315387834197844 a46.51653356232277,46.51653356232277 0 0,0 -0.473799646901991,-0.6428002168794511 l 20.669026599349774 -14.962781308049514" fill="#ffd714" stroke="none" /><path d="M 82.98947788004972 112.3143062007846 l -20.546724666809244 14.874244140546264 a46.365548156628556,46.365548156628556 0 0,0 -0.46119347420484386,-0.6487263783102213 l 20.79903323954405 -14.519340535526538" fill="#ffd513" stroke="none" /><path d="M 81.99639281039703 110.81064883170646 l -21.767829150006914 13.070955964047414 a46.39071239091092,46.39071239091092 0 0,0 -0.40409909057648763,-0.6862486002983862 l 21.989001950713174 -12.69535619545547" fill="#ffd513" stroke="none" /><line stroke="#e1ed5e" stroke-width="0.3" x1="26.387840678322732" x2="22.057713659400548" y1="142.50000000000003" y2="145.00000000000006" /><path d="M 25.521815274538298 143.00000000000003 a86.0,86.0 0 0,1 -11.493303480769221,-40.785679425670985" fill="none" id="id33" stroke="none" /><text fill="#e1ed5e" style="font-size:6.75px; font-family:Arial;" text-anchor="middle"><textPath startOffset="21.40746469413373" xlink:href="#id33">September</textPath></text><path d="M 81.63589988554817 110.18625677009913 l -22.200477425356418 12.314230594697456 a46.38703356150818,46.38703356150818 0 0,0 -0.38027350215063865,-0.6996604128599946 l 22.40859627712239 -11.931315348362876" fill="#ffd513" stroke="none" /><path d="M 81.29705330413844 109.54985784667822 l -22.572255982245498 11.525554738226065 a46.34452903787843,46.34452903787843 0 0,0 -0.35570548630887716,-0.7116492502766533 l 22.766781381766112 -11.136373631785657" fill="#ffd413" stroke="none" /><path d="M 80.9802524753101 108.90220220490707 l -22.97167612986949 10.751904336704365 a46.363386033439184,46.363386033439184 0 0,0 -0.3312013412827618,-0.7237347030283323 l 23.15286193600731 -10.355980651461344" fill="#ffd513" stroke="none" /><path d="M 80.68587082218212 108.24405325689762 l -23.39513973608826 9.985993992335095 a46.43722939484661,46.43722939484661 0 0,0 -0.3066496937331354,-0.7358476330582225 l 23.56311527435788 -9.58291384983559" fill="#ffd614" stroke="none" /><path d="M 80.5471966667186 107.91128576633889 l -23.451405391450624 9.537482412964405 a46.31663456330175,46.31663456330175 0 0,0 -0.2932092747597682,-0.7390789108692113 l 23.611673341176516 -9.133502484881628" fill="#ffd413" stroke="none" /><path d="M 80.28708602549918 107.23885506374661 l -23.777291822859553 8.731350907163188 a46.329747237061866,46.329747237061866 0 0,0 -0.267741440314139,-0.7489204603185757 l 23.923673433217637 -8.32189549046369" fill="#ffd413" stroke="none" /><path d="M 80.05021161711548 106.5578916946017 l -24.018399982528713 7.8953251402996685 a46.28279448146077,46.28279448146077 0 0,0 -0.24162987274274975,-0.7569021348681332 l 24.150394571048718 -7.481853971740144" fill="#ffd313" stroke="none" /><path d="M 79.56144815229197 104.8234425847677 l -24.707983984501126 5.8310169439898765 a46.386713674271846,46.386713674271846 0 0,0 -0.17624551996387453,-0.7765702804416695 l 24.804440366022668 -5.406012329609181" fill="#ffd513" stroke="none" /><path d="M 79.34024301695615 103.76489593502545 l -25.05118032848101 4.565159554572463 a46.46374516069422,46.46374516069422 0 0,0 -0.13626086789122227,-0.7859164760800325 l 25.125856013864468 -4.134450045571838" fill="#ffd614" stroke="none" /><path d="M 79.2786578344484 103.40968896794605 l -27.61623938750296 4.544241682002036 a48.98761887643025,48.98761887643025 0 0,0 -0.12941714280779,-0.8309508944201147 l 27.69017802244902 -4.06950260565047" fill="#fffd17" stroke="none" /><path d="M 79.17382384314188 102.69636545807758 l -53.19945464793586 6.887734494362383 a74.6434792057955,74.6434792057955 0 0,0 -0.15361597359975399,-1.2721606278186177 l 53.30985270779528 -5.973480189620366" fill="#3fffbb" stroke="none" /><line stroke="#e1ed5e" stroke-width="0.3" x1="15.003131293944662" x2="10.003315487706104" y1="100.72959589197737" y2="100.7725132973878" /><path d="M 14.003168132696942 100.73817937305945 a86.0,86.0 0 0,1 10.791469493833604,-42.453326145846276" fill="none" id="id34" stroke="none" /><text fill="#e1ed5e" style="font-size:6.75px; font-family:Arial;" text-anchor="middle"><textPath startOffset="22.145653131862435" xlink:href="#id34">October</textPath></text><path d="M 79.94057633289273 93.78553927170692 l -24.583179795494445 -7.615931940566012 a46.735872788404514,46.735872788404514 0 0,0 0.24399527126450862,-0.7643117120475217 l 24.44881980845268 8.036812686304925" fill="#ffda14" stroke="none" /><path d="M 80.16572619554312 93.10060997987247 l -24.06503211753413 -8.371067378753962 a46.479414041095765,46.479414041095765 0 0,0 0.26860637068973997,-0.7513398245166565 l 23.917785576800448 8.782942159651538" fill="#ffd614" stroke="none" /><path d="M 80.9802524753101 91.09779779509293 l -23.015067054875416 -10.772213480543375 a46.41129463075056,46.41129463075056 0 0,0 0.34393143378471375,-0.7186844179473252 l 22.8267563631308 11.165710400555787" fill="#ffd513" stroke="none" /><line stroke="#e1ed5e" stroke-width="0.3" x1="26.387840678322718" x2="22.05771365940052" y1="57.5" y2="55.0" /><path d="M 25.521815274538284 57.0 a86.0,86.0 0 0,1 29.574782752854787,-30.346332500585742" fill="none" id="id35" stroke="none" /><text fill="#e1ed5e" style="font-size:6.75px; font-family:Arial;" text-anchor="middle"><textPath startOffset="21.40746469413373" xlink:href="#id35">November</textPath></text><line stroke="#e1ed5e" stroke-width="0.3" x1="56.869717070023135" x2="54.33264160355391" y1="26.7553504044142" y2="22.446841604673864" /><path d="M 56.362301976729285 25.89364864446614 a86.0,86.0 0 0,1 42.16139366436587,-11.88097634709845" fill="none" id="id36" stroke="none" /><text fill="#e1ed5e" style="font-size:6.75px; font-family:Arial;" text-anchor="middle"><textPath startOffset="22.145653131862474" xlink:href="#id36">December</textPath></text><path d="M 98.1996594967304 79.07731436759882 l -2.597690698062668 -30.189103531844076 a51.30065954759404,51.30065954759404 0 0,0 0.8780498871374316,-0.06796661444002795 l 2.079071816150019 30.229247913279156" fill="#dfff1b" stroke="none" /></svg>